<svg width="323" height="244" viewBox="0 0 323 244" fill="none" xmlns="http://www.w3.org/2000/svg">
<path d="M96.8842 41.5649C96.5659 40.801 96.2158 39.9256 95.8338 38.9388C95.4837 37.9202 95.1017 36.8539 94.6879 35.7398C93.7329 35.7716 92.7303 35.8035 91.6798 35.8353C90.6294 35.8353 89.5631 35.8353 88.4808 35.8353C87.1121 35.8353 85.8706 35.8353 84.7566 35.8353C83.6425 35.8353 82.6239 35.8194 81.7008 35.7876C81.3188 36.9016 80.9527 37.9521 80.6026 38.9388C80.2524 39.9256 79.9182 40.801 79.5999 41.5649C78.9633 43.1883 78.0402 44 76.8306 44C76.385 44 75.9552 43.8568 75.5414 43.5703C75.1595 43.2838 74.9685 42.87 74.9685 42.3289C74.9685 41.7877 75.064 41.0874 75.255 40.228C75.4459 39.3367 75.6847 38.3977 75.9712 37.4109C76.2895 36.3923 76.6237 35.3578 76.9738 34.3074C77.324 33.2251 77.6582 32.2225 77.9765 31.2994C78.2948 30.2808 78.7405 28.9916 79.3134 27.4319C79.9182 25.8403 80.5548 24.1851 81.2233 22.4662C81.8918 20.7473 82.5602 19.0603 83.2287 17.4051C83.8971 15.718 84.5019 14.2538 85.043 13.0123C85.1704 12.694 85.3295 12.3439 85.5205 11.9619C85.7115 11.5481 85.9343 11.1661 86.189 10.816C86.4754 10.4659 86.7778 10.1635 87.0961 9.90881C87.4463 9.65416 87.8283 9.52684 88.2421 9.52684C88.6559 9.52684 89.0378 9.67008 89.388 9.95656C89.7381 10.2112 90.0405 10.5295 90.2952 10.9115C90.5817 11.2935 90.8204 11.6914 91.0114 12.1052C91.2342 12.519 91.4093 12.885 91.5366 13.2033C92.0459 14.4766 92.6189 15.9408 93.2555 17.596C93.9239 19.2513 94.5765 20.9224 95.2131 22.6095C95.8816 24.2965 96.5023 25.904 97.0752 27.4319C97.6482 28.9598 98.1097 30.2489 98.4599 31.2994C98.7464 32.2225 99.0647 33.2092 99.4148 34.2597C99.7968 35.3101 100.147 36.3446 100.465 37.3632C100.784 38.3818 101.038 39.3367 101.229 40.228C101.452 41.0874 101.563 41.7877 101.563 42.3289C101.563 42.87 101.357 43.2838 100.943 43.5703C100.561 43.8568 100.147 44 99.7013 44C99.1283 44 98.6031 43.809 98.1256 43.427C97.6482 43.0132 97.2344 42.3925 96.8842 41.5649ZM88.4331 31.0606C89.197 31.0606 89.961 31.0765 90.7249 31.1084C91.4888 31.1084 92.2528 31.1243 93.0167 31.1561C92.6348 30.042 92.2528 28.9279 91.8708 27.8138C91.4888 26.6998 91.1228 25.6334 90.7726 24.6148C90.4543 23.5962 90.1519 22.6572 89.8655 21.7978C89.6108 20.9065 89.388 20.1266 89.197 19.4582C89.0697 19.0444 88.9264 18.7101 88.7673 18.4555C88.6081 18.2008 88.4012 18.0735 88.1466 18.0735C87.8919 18.0735 87.685 18.2167 87.5259 18.5032C87.3667 18.7579 87.2235 19.0921 87.0961 19.5059C86.7142 20.811 86.173 22.514 85.4728 24.6148C84.8043 26.6838 84.0881 28.8643 83.3242 31.1561C84.1836 31.1243 85.043 31.1084 85.9025 31.1084C86.7619 31.0765 87.6054 31.0606 88.4331 31.0606ZM123.809 41.7559C122.791 40.3553 121.82 38.9707 120.897 37.6019C120.005 36.2014 119.035 34.6735 117.984 33.0182C116.966 31.363 115.788 29.5327 114.451 27.5274C113.146 25.4902 111.57 23.1187 109.724 20.4131C109.724 22.8004 109.724 24.949 109.724 26.8589C109.724 28.737 109.708 30.4877 109.676 32.1111C109.644 33.7344 109.613 35.2623 109.581 36.6947C109.549 38.1271 109.501 39.5596 109.438 40.992C109.406 41.7559 109.326 42.3448 109.199 42.7586C109.103 43.1724 108.96 43.4907 108.769 43.7135C108.578 43.9363 108.355 44.0637 108.101 44.0955C107.878 44.1592 107.607 44.191 107.289 44.191C106.716 44.191 106.238 44 105.857 43.618C105.475 43.2042 105.252 42.3448 105.188 41.0397C105.029 37.5383 104.933 34.0368 104.902 30.5354C104.902 27.0022 104.902 23.3575 104.902 19.6014C104.902 17.4687 104.918 15.7976 104.949 14.588C105.013 13.3784 105.124 12.4712 105.284 11.8664C105.475 11.2616 105.713 10.8797 106 10.7205C106.318 10.5614 106.732 10.4818 107.241 10.4818C107.75 10.4818 108.419 10.8797 109.247 11.6754C110.074 12.4394 110.981 13.458 111.968 14.7312C112.955 16.0045 114.005 17.4687 115.119 19.1239C116.265 20.7792 117.395 22.4821 118.509 24.2328C119.624 25.9836 120.69 27.7184 121.708 29.4372C122.759 31.1561 123.714 32.7158 124.573 34.1164C124.541 32.6204 124.526 30.981 124.526 29.1985C124.526 27.3841 124.526 25.3788 124.526 23.1824C124.526 20.6677 124.541 18.5987 124.573 16.9753C124.605 15.3201 124.685 14.015 124.812 13.0601C124.971 12.1052 125.21 11.4367 125.528 11.0547C125.846 10.6728 126.292 10.4818 126.865 10.4818C127.406 10.4818 127.884 10.6568 128.297 11.007C128.711 11.3571 128.95 12.1688 129.014 13.4421C129.077 14.588 129.125 15.6066 129.157 16.4979C129.189 17.3891 129.221 18.2804 129.252 19.1717C129.284 20.0311 129.3 20.9383 129.3 21.8932C129.3 22.8164 129.3 23.8668 129.3 25.0445C129.3 26.4769 129.3 27.8457 129.3 29.1508C129.3 30.4558 129.284 31.745 129.252 33.0182C129.221 34.2915 129.189 35.5807 129.157 36.8857C129.125 38.1908 129.077 39.5596 129.014 40.992C128.982 41.7559 128.902 42.3448 128.775 42.7586C128.679 43.1724 128.536 43.4907 128.345 43.7135C128.154 43.9363 127.931 44.0637 127.677 44.0955C127.454 44.1592 127.183 44.191 126.865 44.191C126.324 44.191 125.862 44.0318 125.48 43.7135C125.098 43.3952 124.541 42.7427 123.809 41.7559ZM146.207 10.2908C147.098 10.2908 148.117 10.3704 149.263 10.5295C150.441 10.6568 151.539 10.9115 152.557 11.2935C153.576 11.6436 154.435 12.1211 155.136 12.7259C155.836 13.2988 156.186 14.015 156.186 14.8745C156.186 15.3838 156.043 15.8135 155.756 16.1636C155.47 16.5138 155.008 16.6889 154.372 16.6889C153.894 16.6889 153.401 16.5934 152.892 16.4024C152.414 16.2114 151.857 16.0204 151.22 15.8294C150.616 15.6066 149.899 15.3997 149.072 15.2087C148.276 15.0177 147.337 14.9222 146.255 14.9222C144.154 14.9222 142.594 15.3042 141.576 16.0681C140.589 16.8003 140.095 17.8189 140.095 19.1239C140.095 20.0152 140.318 20.7632 140.764 21.368C141.21 21.9728 141.798 22.498 142.531 22.9437C143.294 23.3575 144.138 23.7076 145.061 23.9941C146.016 24.2806 146.987 24.5512 147.974 24.8058C149.088 25.0923 150.186 25.4424 151.268 25.8562C152.382 26.27 153.369 26.8112 154.228 27.4796C155.088 28.1481 155.772 28.9916 156.282 30.0102C156.823 31.0288 157.093 32.318 157.093 33.8777C157.093 35.5011 156.791 36.9653 156.186 38.2704C155.581 39.5436 154.754 40.6418 153.703 41.5649C152.653 42.4562 151.395 43.1565 149.931 43.6658C148.467 44.1432 146.875 44.382 145.157 44.382C144.202 44.382 143.088 44.2865 141.814 44.0955C140.541 43.9363 139.331 43.6499 138.186 43.2361C137.04 42.7904 136.069 42.2175 135.273 41.5172C134.477 40.7851 134.079 39.8938 134.079 38.8433C134.079 38.2067 134.238 37.6974 134.557 37.3155C134.907 36.9335 135.416 36.7425 136.085 36.7425C136.626 36.7425 137.071 36.8539 137.422 37.0767C137.772 37.2677 138.074 37.4905 138.329 37.7452C139.284 38.5728 140.366 39.1298 141.576 39.4163C142.785 39.7028 144.027 39.846 145.3 39.846C146.032 39.846 146.796 39.7983 147.592 39.7028C148.419 39.5755 149.167 39.3367 149.836 38.9866C150.504 38.6364 151.061 38.1431 151.507 37.5064C151.953 36.838 152.175 35.9467 152.175 34.8326C152.175 33.814 151.968 32.9864 151.555 32.3498C151.173 31.6813 150.647 31.1243 149.979 30.6787C149.311 30.233 148.515 29.867 147.592 29.5805C146.7 29.294 145.73 29.0075 144.679 28.721C143.501 28.4027 142.34 28.0526 141.194 27.6706C140.048 27.2886 139.029 26.7793 138.138 26.1427C137.247 25.4743 136.514 24.6466 135.941 23.6599C135.4 22.6413 135.13 21.3521 135.13 19.7924C135.13 18.2327 135.416 16.8639 135.989 15.6862C136.562 14.5084 137.342 13.5216 138.329 12.7259C139.316 11.9301 140.477 11.3253 141.814 10.9115C143.183 10.4977 144.647 10.2908 146.207 10.2908ZM175.43 19.6491C175.621 19.2035 175.907 18.8375 176.289 18.551C176.703 18.2645 177.132 18.1213 177.578 18.1213C177.992 18.1213 178.39 18.2645 178.772 18.551C179.154 18.8056 179.456 19.1558 179.679 19.6014C180.889 22.0842 182.082 24.774 183.26 27.6706C184.438 30.5354 185.504 33.257 186.459 35.8353C187 31.8882 187.589 27.9093 188.226 23.8986C188.862 19.8879 189.578 16.0522 190.374 12.3916C190.47 11.9778 190.613 11.6436 190.804 11.389C190.995 11.1025 191.202 10.8956 191.425 10.7683C191.648 10.6091 191.87 10.4977 192.093 10.434C192.348 10.3704 192.555 10.3385 192.714 10.3385C193.255 10.3385 193.701 10.4977 194.051 10.816C194.401 11.1025 194.576 11.5004 194.576 12.0097C194.576 12.5826 194.48 13.6012 194.289 15.0655C194.099 16.4979 193.844 18.1849 193.526 20.1266C193.207 22.0365 192.841 24.0737 192.427 26.2382C192.045 28.4027 191.663 30.4877 191.281 32.493C190.899 34.4984 190.533 36.3287 190.183 37.9839C189.833 39.6391 189.547 40.8965 189.324 41.7559C189.133 42.488 188.846 43.0451 188.464 43.427C188.082 43.7772 187.525 43.9523 186.793 43.9523C186.029 43.9523 185.377 43.618 184.836 42.9496C184.326 42.2493 183.753 41.167 183.117 39.7028C182.512 38.2386 181.78 36.3764 180.92 34.1164C180.061 31.8246 178.947 29.0871 177.578 25.904C176.178 29.0871 175.032 31.8246 174.14 34.1164C173.281 36.4083 172.533 38.2863 171.896 39.7505C171.291 41.2148 170.719 42.297 170.177 42.9973C169.636 43.6658 169 44 168.268 44C166.994 44 166.151 43.2679 165.737 41.8036C165.482 40.9442 165.18 39.7028 164.83 38.0794C164.48 36.4242 164.114 34.5939 163.732 32.5885C163.381 30.5832 163.015 28.5141 162.633 26.3814C162.251 24.2169 161.917 22.1797 161.631 20.2699C161.344 18.36 161.105 16.6889 160.915 15.2564C160.755 13.7922 160.676 12.7736 160.676 12.2007C160.676 11.6595 160.851 11.2139 161.201 10.8637C161.551 10.5136 162.045 10.3385 162.681 10.3385C163.127 10.3385 163.556 10.4818 163.97 10.7683C164.384 11.0229 164.686 11.564 164.877 12.3916C165.641 16.0522 166.31 19.8879 166.883 23.8986C167.488 27.9093 168.124 31.8882 168.793 35.8353C169.779 33.5116 170.766 31.0447 171.753 28.4346C172.74 25.8244 173.965 22.8959 175.43 19.6491ZM198.91 36.7425C198.846 35.7239 198.782 34.3392 198.719 32.5885C198.655 30.8378 198.623 29.0393 198.623 27.1931C198.623 26.1427 198.623 25.0605 198.623 23.9464C198.655 22.8004 198.687 21.6386 198.719 20.4608C198.782 18.1053 198.926 16.2591 199.148 14.9222C199.403 13.5853 199.881 12.5826 200.581 11.9142C201.313 11.2457 202.332 10.8319 203.637 10.6728C204.942 10.5136 206.677 10.434 208.841 10.434C208.873 10.434 209.207 10.434 209.844 10.434C210.512 10.434 211.308 10.4499 212.231 10.4818C213.154 10.4818 214.109 10.4977 215.096 10.5295C216.114 10.5613 216.958 10.5932 217.626 10.625C218.327 10.6887 218.884 10.7842 219.298 10.9115C219.743 11.007 220.077 11.1502 220.3 11.3412C220.523 11.5004 220.666 11.7073 220.73 11.9619C220.794 12.1847 220.826 12.4394 220.826 12.7259C220.826 13.458 220.619 13.9991 220.205 14.3493C219.791 14.6676 218.947 14.8745 217.674 14.97C217.038 15.0336 216.099 15.0814 214.857 15.1132C213.648 15.1132 212.406 15.1132 211.133 15.1132C209.86 15.1132 208.714 15.1291 207.695 15.161C206.677 15.161 206.04 15.161 205.785 15.161C204.958 15.1928 204.369 15.3838 204.019 15.7339C203.7 16.0522 203.541 16.8321 203.541 18.0735C203.541 18.36 203.557 19.0603 203.589 20.1744C203.653 21.2566 203.684 22.7845 203.684 24.7581H207.647C209.334 24.7581 210.703 24.7899 211.754 24.8535C212.836 24.8854 213.663 24.9809 214.236 25.14C214.841 25.2992 215.255 25.5538 215.478 25.904C215.701 26.2541 215.812 26.7157 215.812 27.2886C215.812 27.5751 215.78 27.8457 215.717 28.1003C215.685 28.3231 215.557 28.53 215.335 28.721C215.112 28.8802 214.793 29.0234 214.38 29.1508C213.966 29.2462 213.377 29.3258 212.613 29.3895C211.69 29.4532 210.815 29.5009 209.987 29.5327C209.191 29.5327 208.395 29.5327 207.6 29.5327H203.589C203.589 30.0102 203.589 30.5832 203.589 31.2516C203.589 31.9201 203.589 32.6044 203.589 33.3047C203.589 34.005 203.589 34.6894 203.589 35.3578C203.621 36.0263 203.653 36.5674 203.684 36.9812C203.716 37.4905 203.78 37.9202 203.875 38.2704C204.003 38.6205 204.21 38.907 204.496 39.1298C204.814 39.3526 205.26 39.5118 205.833 39.6073C206.438 39.7028 207.234 39.7505 208.22 39.7505H218.486C219.6 39.7505 220.3 39.9574 220.587 40.3712C220.873 40.7851 221.016 41.3421 221.016 42.0424C221.016 42.6153 220.889 43.061 220.635 43.3793C220.38 43.6658 219.759 43.8727 218.772 44C217.817 44.1592 216.369 44.2546 214.427 44.2865C212.518 44.3183 209.876 44.3342 206.501 44.3342C205.069 44.3342 203.891 44.2069 202.968 43.9523C202.045 43.6976 201.297 43.2679 200.724 42.6631C200.151 42.0583 199.721 41.2784 199.435 40.3235C199.18 39.3367 199.005 38.1431 198.91 36.7425ZM236.324 32.2543C235.878 32.2861 235.417 32.318 234.939 32.3498C234.494 32.3498 234.032 32.3498 233.554 32.3498C233.013 32.3498 232.472 32.3498 231.931 32.3498C231.39 32.3498 230.785 32.318 230.117 32.2543V41.9469C230.117 42.9655 229.862 43.6021 229.353 43.8568C228.875 44.0796 228.271 44.191 227.538 44.191C227.156 44.191 226.854 44.1592 226.631 44.0955C226.408 44.0637 226.217 43.9841 226.058 43.8568C225.931 43.6976 225.82 43.4748 225.724 43.1883C225.66 42.9018 225.613 42.5039 225.581 41.9946C225.517 41.4217 225.469 40.5941 225.438 39.5118C225.406 38.3977 225.374 36.9653 225.342 35.2146C225.342 33.4639 225.326 31.3471 225.294 28.8643C225.294 26.3496 225.294 23.4052 225.294 20.0311C225.294 18.726 225.453 17.4687 225.772 16.2591C226.09 15.0177 226.663 13.9355 227.491 13.0123C228.318 12.0574 229.432 11.2935 230.833 10.7205C232.265 10.1475 234.08 9.86106 236.276 9.86106C237.836 9.86106 239.348 10.0361 240.812 10.3863C242.308 10.7364 243.629 11.3412 244.775 12.2007C245.921 13.0601 246.844 14.2219 247.544 15.6862C248.245 17.1504 248.595 18.9807 248.595 21.177C248.595 24.1055 247.958 26.3814 246.685 28.0048C245.443 29.5964 243.725 30.7264 241.528 31.3949L247.926 40.1803C248.499 40.9442 248.786 41.7241 248.786 42.5199C248.786 43.1565 248.563 43.6499 248.117 44C247.703 44.382 247.178 44.573 246.542 44.573C245.841 44.573 245.237 44.382 244.727 44C244.218 43.5862 243.74 43.061 243.295 42.4244L236.324 32.2543ZM243.82 21.1293C243.82 18.9329 243.152 17.3096 241.815 16.2591C240.51 15.1769 238.425 14.6357 235.56 14.6357C234.509 14.6357 233.634 14.7312 232.934 14.9222C232.233 15.0814 231.676 15.3997 231.263 15.8772C230.849 16.3546 230.546 17.0231 230.355 17.8825C230.196 18.7101 230.117 19.7765 230.117 21.0816C230.117 22.0047 230.117 23.0869 230.117 24.3283C230.117 25.5697 230.133 26.6998 230.164 27.7184C230.897 27.7502 231.708 27.7661 232.6 27.7661C233.523 27.7661 234.382 27.7661 235.178 27.7661C236.069 27.7661 237.008 27.7184 237.995 27.6229C239.014 27.4955 239.953 27.2091 240.812 26.7634C241.671 26.286 242.388 25.6175 242.961 24.7581C243.534 23.8668 243.82 22.6572 243.82 21.1293Z" fill="#3D7E81"/>
<path d="M56.0097 97.4783C59.3819 97.4783 62.8562 97.7848 66.4327 98.3979C70.0092 99.011 73.2792 99.9307 76.2426 101.157C79.206 102.281 81.6585 103.712 83.6 105.449C85.5415 107.186 86.5123 109.179 86.5123 111.427C86.5123 113.777 85.8992 115.565 84.673 116.791C83.4467 118.018 81.9139 118.631 80.0746 118.631C78.3374 118.631 76.7024 118.324 75.1696 117.711C73.739 117.098 72.104 116.434 70.2647 115.718C68.4253 115.003 66.2283 114.339 63.6737 113.726C61.119 113.113 57.9002 112.806 54.0171 112.806C49.7253 112.806 45.6889 113.828 41.908 115.872C38.2293 117.813 34.9594 120.572 32.0981 124.149C29.2369 127.623 26.9888 131.762 25.3539 136.564C23.7189 141.367 22.9014 146.579 22.9014 152.199C22.9014 159.045 23.77 164.972 25.5071 169.979C27.2443 174.986 29.4924 179.125 32.2514 182.395C35.1126 185.665 38.2804 188.117 41.7547 189.752C45.3313 191.285 48.9078 192.052 52.4843 192.052C58.3089 192.052 62.9073 191.234 66.2794 189.599C69.7538 187.862 72.5128 185.665 74.5565 183.008C74.6587 180.862 74.7098 178.308 74.7098 175.344C74.7098 172.381 74.7098 169.162 74.7098 165.688C74.7098 164.359 74.6076 163.337 74.4032 162.622C74.1989 161.804 73.6879 161.191 72.8704 160.783C72.053 160.374 70.8267 160.118 69.1917 160.016C67.6589 159.914 65.5641 159.863 62.9073 159.863C59.6373 159.863 56.9805 159.454 54.9368 158.637C52.893 157.717 51.8712 155.827 51.8712 152.965C51.8712 150.922 52.3821 149.287 53.404 148.06C54.528 146.732 56.7761 145.966 60.1483 145.761C60.7614 145.761 61.7321 145.761 63.0606 145.761C64.4912 145.659 65.9729 145.608 67.5057 145.608C69.1406 145.608 70.7245 145.608 72.2573 145.608C73.7901 145.608 75.0164 145.608 75.936 145.608C79.0016 145.608 81.4541 145.915 83.2934 146.528C85.1328 147.039 86.7678 148.265 88.1984 150.206C88.9137 151.228 89.3224 153.016 89.4246 155.571C89.629 158.126 89.7312 161.089 89.7312 164.461V204.007C89.7312 206.766 88.9648 208.81 87.432 210.139C86.0014 211.467 84.3153 212.131 82.3738 212.131C80.0235 212.131 78.0819 211.518 76.5491 210.292C75.1185 209.168 74.4032 207.328 74.4032 204.774V198.796C71.7464 201.861 68.5786 204.058 64.8999 205.387C61.3234 206.715 56.7761 207.38 51.2581 207.38C45.6378 207.38 40.1198 206.255 34.7039 204.007C29.288 201.759 24.4853 198.438 20.2956 194.044C16.106 189.548 12.6828 183.979 10.0259 177.337C7.47127 170.592 6.19395 162.775 6.19395 153.885C6.19395 144.995 7.47127 137.075 10.0259 130.127C12.6828 123.178 16.2593 117.302 20.7555 112.5C25.2517 107.595 30.5143 103.865 36.5432 101.31C42.5722 98.7556 49.0611 97.4783 56.0097 97.4783ZM108.855 196.497C108.651 192.818 108.498 188.986 108.395 185.001C108.395 181.015 108.344 176.724 108.242 172.125C108.14 167.527 108.089 162.571 108.089 157.257C108.089 151.841 108.089 145.812 108.089 139.17C108.089 131.915 108.14 125.733 108.242 120.623C108.344 115.412 108.651 111.171 109.162 107.901C109.673 104.631 110.439 102.23 111.461 100.697C112.585 99.1643 114.067 98.3979 115.906 98.3979C116.826 98.3979 117.694 98.5001 118.512 98.7045C119.329 98.9089 120.045 99.3687 120.658 100.084C121.271 100.697 121.782 101.668 122.19 102.996C122.701 104.223 123.008 105.858 123.11 107.901C123.315 111.58 123.468 114.85 123.57 117.711C123.672 120.572 123.774 123.434 123.877 126.295C123.979 129.054 124.03 131.966 124.03 135.032C124.03 137.995 124.03 141.367 124.03 145.148C124.03 149.746 124.03 154.141 124.03 158.33C124.03 162.52 123.979 166.658 123.877 170.746C123.774 174.833 123.672 178.972 123.57 183.161C123.468 187.351 123.315 191.745 123.11 196.343C123.008 198.796 122.752 200.686 122.344 202.015C121.935 203.343 121.424 204.365 120.811 205.08C120.198 205.796 119.483 206.204 118.665 206.307C117.848 206.511 116.928 206.613 115.906 206.613C114.067 206.613 112.483 206 111.154 204.774C109.826 203.445 109.06 200.686 108.855 196.497ZM204.676 198.796C201.406 194.3 198.29 189.855 195.326 185.461C192.465 180.964 189.348 176.059 185.976 170.746C182.706 165.432 178.925 159.556 174.634 153.119C170.444 146.579 165.386 138.966 159.459 130.28C159.459 137.944 159.459 144.842 159.459 150.973C159.459 157.002 159.408 162.622 159.306 167.833C159.203 173.045 159.101 177.95 158.999 182.548C158.897 187.147 158.744 191.745 158.539 196.343C158.437 198.796 158.182 200.686 157.773 202.015C157.466 203.343 157.006 204.365 156.393 205.08C155.78 205.796 155.065 206.204 154.247 206.307C153.532 206.511 152.663 206.613 151.642 206.613C149.802 206.613 148.269 206 147.043 204.774C145.817 203.445 145.102 200.686 144.897 196.497C144.386 185.256 144.08 174.016 143.978 162.775C143.978 151.433 143.978 139.732 143.978 127.674C143.978 120.828 144.029 115.463 144.131 111.58C144.335 107.697 144.693 104.785 145.204 102.843C145.817 100.901 146.583 99.6753 147.503 99.1643C148.525 98.6534 149.853 98.3979 151.488 98.3979C153.123 98.3979 155.269 99.6753 157.926 102.23C160.583 104.682 163.495 107.952 166.663 112.04C169.831 116.127 173.203 120.828 176.779 126.141C180.458 131.455 184.086 136.922 187.662 142.542C191.239 148.163 194.662 153.732 197.932 159.25C201.304 164.768 204.37 169.775 207.129 174.271C207.027 169.468 206.975 164.206 206.975 158.483C206.975 152.659 206.975 146.221 206.975 139.17C206.975 131.098 207.027 124.455 207.129 119.244C207.231 113.93 207.486 109.741 207.895 106.675C208.406 103.609 209.172 101.464 210.194 100.237C211.216 99.011 212.647 98.3979 214.486 98.3979C216.223 98.3979 217.756 98.96 219.085 100.084C220.413 101.208 221.179 103.814 221.384 107.901C221.588 111.58 221.741 114.85 221.844 117.711C221.946 120.572 222.048 123.434 222.15 126.295C222.252 129.054 222.303 131.966 222.303 135.032C222.303 137.995 222.303 141.367 222.303 145.148C222.303 149.746 222.303 154.141 222.303 158.33C222.303 162.52 222.252 166.658 222.15 170.746C222.048 174.833 221.946 178.972 221.844 183.161C221.741 187.351 221.588 191.745 221.384 196.343C221.282 198.796 221.026 200.686 220.617 202.015C220.311 203.343 219.851 204.365 219.238 205.08C218.625 205.796 217.909 206.204 217.092 206.307C216.377 206.511 215.508 206.613 214.486 206.613C212.749 206.613 211.267 206.102 210.041 205.08C208.815 204.058 207.027 201.964 204.676 198.796ZM304.899 198.183C303.878 195.73 302.753 192.92 301.527 189.752C300.403 186.482 299.177 183.059 297.849 179.483C294.783 179.585 291.564 179.687 288.192 179.789C284.82 179.789 281.397 179.789 277.922 179.789C273.528 179.789 269.543 179.789 265.966 179.789C262.39 179.789 259.12 179.738 256.157 179.636C254.93 183.212 253.755 186.585 252.631 189.752C251.507 192.92 250.434 195.73 249.412 198.183C247.369 203.394 244.405 206 240.522 206C239.091 206 237.712 205.54 236.384 204.62C235.157 203.701 234.544 202.372 234.544 200.635C234.544 198.898 234.851 196.65 235.464 193.891C236.077 191.03 236.843 188.015 237.763 184.847C238.785 181.577 239.858 178.256 240.982 174.884C242.106 171.41 243.179 168.191 244.201 165.228C245.223 161.958 246.653 157.819 248.493 152.812C250.434 147.703 252.478 142.389 254.624 136.871C256.77 131.353 258.916 125.937 261.061 120.623C263.207 115.208 265.149 110.507 266.886 106.522C267.295 105.5 267.806 104.376 268.419 103.15C269.032 101.821 269.747 100.595 270.565 99.4709C271.484 98.3468 272.455 97.3761 273.477 96.5586C274.601 95.7411 275.827 95.3323 277.156 95.3323C278.484 95.3323 279.71 95.7922 280.835 96.7119C281.959 97.5293 282.929 98.5512 283.747 99.7774C284.667 101.004 285.433 102.281 286.046 103.609C286.761 104.938 287.323 106.113 287.732 107.135C289.367 111.222 291.206 115.923 293.25 121.237C295.396 126.55 297.491 131.915 299.535 137.331C301.681 142.747 303.673 147.907 305.512 152.812C307.352 157.717 308.834 161.856 309.958 165.228C310.877 168.191 311.899 171.359 313.023 174.731C314.249 178.103 315.373 181.424 316.395 184.694C317.417 187.964 318.235 191.03 318.848 193.891C319.563 196.65 319.921 198.898 319.921 200.635C319.921 202.372 319.257 203.701 317.928 204.62C316.702 205.54 315.373 206 313.943 206C312.104 206 310.417 205.387 308.885 204.161C307.352 202.832 306.023 200.84 304.899 198.183ZM277.769 164.461C280.221 164.461 282.674 164.512 285.126 164.615C287.579 164.615 290.031 164.666 292.484 164.768C291.258 161.191 290.031 157.615 288.805 154.038C287.579 150.462 286.404 147.039 285.28 143.769C284.258 140.499 283.287 137.484 282.367 134.725C281.55 131.864 280.835 129.36 280.221 127.214C279.813 125.886 279.353 124.813 278.842 123.996C278.331 123.178 277.667 122.769 276.849 122.769C276.032 122.769 275.368 123.229 274.857 124.149C274.346 124.966 273.886 126.039 273.477 127.368C272.251 131.557 270.514 137.024 268.266 143.769C266.12 150.411 263.821 157.41 261.368 164.768C264.127 164.666 266.886 164.615 269.645 164.615C272.404 164.512 275.112 164.461 277.769 164.461Z" fill="#F39342"/>
</svg>
