<svg width="313" height="62" viewBox="0 0 313 62" fill="none" xmlns="http://www.w3.org/2000/svg">
<path d="M15.2812 58.2842C15.2292 56.8884 15.1823 55.4248 15.1406 53.8936C15.099 52.3623 15.0781 50.5915 15.0781 48.5811C14.2552 48.6019 13.3802 48.6227 12.4531 48.6436C11.526 48.654 10.5729 48.6592 9.59374 48.6592C8.43749 48.6592 7.3802 48.6592 6.42187 48.6592C5.47395 48.6592 4.62499 48.6436 3.87499 48.6123C3.84374 50.2373 3.81249 51.805 3.78124 53.3154C3.76041 54.8154 3.71353 56.4561 3.64062 58.2373C3.61978 58.8623 3.56249 59.3415 3.46874 59.6748C3.37499 60.0081 3.24999 60.2634 3.09375 60.4404C2.94792 60.6175 2.77604 60.7269 2.57812 60.7686C2.38021 60.8102 2.15625 60.8311 1.90625 60.8311C1.4375 60.8311 1.04688 60.6696 0.734375 60.3467C0.432292 60.0238 0.255208 59.3363 0.203125 58.2842C0.151042 57.3571 0.114583 56.3936 0.09375 55.3936C0.0833333 54.3831 0.0625 53.2998 0.03125 52.1436C0.0104167 50.9769 0 49.7165 0 48.3623C0 47.0081 0 45.4925 0 43.8154C0 41.9925 0.0104167 40.43 0.03125 39.1279C0.0625 37.8259 0.135417 36.7634 0.25 35.9404C0.375 35.1071 0.5625 34.4977 0.8125 34.1123C1.07292 33.7269 1.4375 33.5342 1.90625 33.5342C2.34375 33.5342 2.72917 33.68 3.0625 33.9717C3.39583 34.2529 3.58853 34.9092 3.64062 35.9404C3.6927 36.8154 3.72916 37.6071 3.74999 38.3154C3.78124 39.0238 3.80728 39.7217 3.82812 40.4092C3.85937 41.0863 3.87499 41.7842 3.87499 42.5029C3.87499 43.2217 3.87499 44.0238 3.87499 44.9092C5.80208 44.8259 7.69791 44.7842 9.56249 44.7842C10.4583 44.7842 11.3646 44.7998 12.2812 44.8311C13.1979 44.8519 14.1302 44.8884 15.0781 44.9404V43.8154C15.0781 41.9925 15.0885 40.43 15.1094 39.1279C15.1406 37.8259 15.2135 36.7634 15.3281 35.9404C15.4531 35.1071 15.6406 34.4977 15.8906 34.1123C16.151 33.7269 16.5156 33.5342 16.9844 33.5342C17.4219 33.5342 17.8073 33.68 18.1406 33.9717C18.474 34.2529 18.6667 34.9092 18.7187 35.9404C18.7708 36.8675 18.8073 37.6904 18.8281 38.4092C18.8594 39.1279 18.8854 39.8415 18.9062 40.5498C18.9375 41.2581 18.9531 41.9925 18.9531 42.7529C18.9531 43.5134 18.9531 44.3727 18.9531 45.3311C18.9531 46.4873 18.9531 47.5967 18.9531 48.6592C18.9531 49.7113 18.9375 50.7529 18.9062 51.7842C18.8854 52.8154 18.8594 53.8623 18.8281 54.9248C18.8073 55.9769 18.7708 57.0811 18.7187 58.2373C18.6875 58.8623 18.625 59.3415 18.5312 59.6748C18.4479 60.0081 18.3281 60.2634 18.1719 60.4404C18.0156 60.6175 17.8385 60.7269 17.6406 60.7686C17.4531 60.8102 17.2344 60.8311 16.9844 60.8311C16.5156 60.8311 16.125 60.6696 15.8125 60.3467C15.5104 60.0238 15.3333 59.3363 15.2812 58.2842V58.2842ZM24.174 58.2842C24.122 57.3571 24.0855 56.3936 24.0647 55.3936C24.0543 54.3831 24.0334 53.2998 24.0022 52.1436C23.9813 50.9769 23.9709 49.7165 23.9709 48.3623C23.9709 47.0081 23.9709 45.4925 23.9709 43.8154C23.9709 41.9925 23.9813 40.43 24.0022 39.1279C24.0334 37.8259 24.1115 36.7634 24.2365 35.9404C24.372 35.1071 24.5751 34.4977 24.8459 34.1123C25.1168 33.7269 25.4813 33.5342 25.9397 33.5342C26.1793 33.5342 26.398 33.5602 26.5959 33.6123C26.8043 33.6644 26.9865 33.7738 27.1428 33.9404C27.299 34.1071 27.4345 34.3519 27.549 34.6748C27.6636 34.9977 27.7365 35.4196 27.7678 35.9404C27.8199 36.8675 27.8563 37.6904 27.8772 38.4092C27.9084 39.1279 27.9345 39.8415 27.9553 40.5498C27.9761 41.2581 27.9865 41.9925 27.9865 42.7529C27.9865 43.5134 27.9865 44.3727 27.9865 45.3311C27.9865 46.4873 27.9865 47.5967 27.9865 48.6592C27.9865 49.7113 27.9761 50.7529 27.9553 51.7842C27.9345 52.8154 27.9084 53.8623 27.8772 54.9248C27.8563 55.9769 27.8199 57.0811 27.7678 58.2373C27.7365 58.8623 27.6688 59.3415 27.5647 59.6748C27.4605 60.0081 27.3303 60.2634 27.174 60.4404C27.0282 60.6175 26.8511 60.7269 26.6428 60.7686C26.4345 60.8102 26.2001 60.8311 25.9397 60.8311C25.4813 60.8311 25.0803 60.6696 24.7365 60.3467C24.4032 60.0238 24.2157 59.3363 24.174 58.2842ZM41.9499 51.1592C41.5853 51.1904 41.2156 51.2113 40.8406 51.2217C40.476 51.2321 40.0958 51.2373 39.6999 51.2373C39.2624 51.2373 38.8249 51.2373 38.3874 51.2373C37.9499 51.2373 37.4603 51.2113 36.9187 51.1592V59.0186C36.9187 59.8415 36.7208 60.3519 36.3249 60.5498C35.9291 60.7373 35.4343 60.8311 34.8406 60.8311C34.5281 60.8311 34.2781 60.8102 34.0906 60.7686C33.9135 60.7269 33.7676 60.6488 33.6531 60.5342C33.5385 60.4196 33.4499 60.2477 33.3874 60.0186C33.3249 59.7894 33.2781 59.4665 33.2468 59.0498C33.1947 58.5915 33.1531 57.9196 33.1218 57.0342C33.101 56.1384 33.0853 54.9821 33.0749 53.5654C33.0645 52.1488 33.0489 50.43 33.0281 48.4092C33.0176 46.3779 33.0124 43.9977 33.0124 41.2686C33.0124 40.2165 33.1426 39.1956 33.4031 38.2061C33.6635 37.2061 34.127 36.3258 34.7937 35.5654C35.4708 34.805 36.3822 34.1956 37.5281 33.7373C38.6739 33.2686 40.1322 33.0342 41.9031 33.0342C43.1739 33.0342 44.4083 33.18 45.6062 33.4717C46.8041 33.7529 47.8666 34.2425 48.7937 34.9404C49.7208 35.6279 50.4656 36.5654 51.0281 37.7529C51.601 38.9404 51.8874 40.4196 51.8874 42.1904C51.8874 44.5654 51.377 46.404 50.3562 47.7061C49.3353 49.0081 47.9395 49.93 46.1687 50.4717L51.3406 57.5811C51.8093 58.1956 52.0437 58.8259 52.0437 59.4717C52.0437 59.9925 51.8666 60.3988 51.5124 60.6904C51.1687 60.9925 50.7364 61.1436 50.2156 61.1436C49.6531 61.1436 49.1635 60.9821 48.7468 60.6592C48.3406 60.3363 47.9551 59.9144 47.5906 59.3936L41.9499 51.1592ZM48.0124 42.1592C48.0124 40.3779 47.476 39.055 46.4031 38.1904C45.3406 37.3258 43.6478 36.8936 41.3249 36.8936C40.4812 36.8936 39.7728 36.9665 39.1999 37.1123C38.6374 37.2581 38.1895 37.5238 37.8562 37.9092C37.5228 38.2946 37.2833 38.8311 37.1374 39.5186C36.9916 40.1956 36.9187 41.0602 36.9187 42.1123C36.9187 42.8623 36.9187 43.7425 36.9187 44.7529C36.9187 45.7529 36.9343 46.6644 36.9656 47.4873C37.5593 47.5186 38.2208 47.5342 38.9499 47.5342C39.6895 47.5342 40.3822 47.5342 41.0281 47.5342C41.7468 47.5342 42.5124 47.4925 43.3249 47.4092C44.1374 47.3154 44.8874 47.0811 45.5749 46.7061C46.2728 46.3311 46.851 45.7894 47.3093 45.0811C47.7781 44.3727 48.0124 43.3988 48.0124 42.1592V42.1592ZM71.7135 58.7061C71.4531 58.0811 71.1719 57.3675 70.8698 56.5654C70.5781 55.7529 70.2656 54.8936 69.9323 53.9873C69.1614 54.0081 68.3489 54.029 67.4948 54.0498C66.651 54.0602 65.7916 54.0654 64.9166 54.0654C63.8021 54.0654 62.7916 54.0654 61.8854 54.0654C60.9896 54.0654 60.1666 54.0498 59.4166 54.0186C59.1146 54.9248 58.8177 55.779 58.526 56.5811C58.2448 57.3727 57.9739 58.0811 57.7135 58.7061C57.2031 60.0186 56.4583 60.6748 55.4791 60.6748C55.1146 60.6748 54.7708 60.5602 54.4479 60.3311C54.125 60.0915 53.9635 59.7529 53.9635 59.3154C53.9635 58.8779 54.0416 58.305 54.1979 57.5967C54.3541 56.8884 54.5521 56.1279 54.7916 55.3154C55.0416 54.5029 55.3073 53.6696 55.5885 52.8154C55.8802 51.9509 56.151 51.1436 56.401 50.3936C56.6614 49.5706 57.0312 48.5238 57.5104 47.2529C57.9896 45.9717 58.5 44.6384 59.0416 43.2529C59.5833 41.8571 60.1198 40.4821 60.651 39.1279C61.1927 37.7738 61.6823 36.5915 62.1198 35.5811C62.2239 35.3311 62.3541 35.0446 62.5104 34.7217C62.6666 34.3988 62.8541 34.0967 63.0729 33.8154C63.2916 33.5238 63.5364 33.279 63.8073 33.0811C64.0781 32.8727 64.3802 32.7686 64.7135 32.7686C65.0469 32.7686 65.3541 32.8779 65.6354 33.0967C65.9271 33.3154 66.1823 33.5811 66.401 33.8936C66.6198 34.1956 66.8125 34.5186 66.9791 34.8623C67.1458 35.1956 67.2812 35.4873 67.3854 35.7373C67.8021 36.7686 68.2708 37.9561 68.7916 39.2998C69.3229 40.6436 69.8489 41.9977 70.3698 43.3623C70.901 44.7269 71.3958 46.029 71.8541 47.2686C72.3229 48.4977 72.7031 49.5394 72.9948 50.3936C73.2239 51.1436 73.4844 51.9456 73.776 52.7998C74.0781 53.6436 74.3541 54.4769 74.6041 55.2998C74.8646 56.1227 75.0781 56.8884 75.2448 57.5967C75.4114 58.305 75.4948 58.8779 75.4948 59.3154C75.4948 59.7529 75.3333 60.0915 75.0104 60.3311C74.6979 60.5602 74.3594 60.6748 73.9948 60.6748C73.526 60.6748 73.0989 60.5134 72.7135 60.1904C72.3281 59.8675 71.9948 59.3727 71.7135 58.7061ZM64.8698 50.2061C65.4948 50.2061 66.1146 50.2113 66.7291 50.2217C67.3437 50.2321 67.9635 50.2477 68.5885 50.2686C68.276 49.3727 67.9635 48.4769 67.651 47.5811C67.3489 46.6748 67.0625 45.8102 66.7916 44.9873C66.5208 44.154 66.276 43.3831 66.0573 42.6748C65.8385 41.9665 65.651 41.3415 65.4948 40.7998C65.3906 40.4665 65.2708 40.2009 65.1354 40.0029C65.0104 39.7946 64.8437 39.6904 64.6354 39.6904C64.4375 39.6904 64.2708 39.7998 64.1354 40.0186C64.0104 40.2373 63.8958 40.5134 63.7916 40.8467C63.4791 41.8988 63.0469 43.2686 62.4948 44.9561C61.9427 46.6436 61.3541 48.4144 60.7291 50.2686C61.4271 50.2477 62.125 50.2321 62.8229 50.2217C63.5208 50.2113 64.2031 50.2061 64.8698 50.2061ZM83.2682 58.2842C83.2161 56.8675 83.1692 55.3519 83.1276 53.7373C83.0963 52.1227 83.0807 50.2581 83.0807 48.1436L75.3932 37.1279C75.1848 36.8467 75.0182 36.555 74.8932 36.2529C74.7786 35.9404 74.7213 35.6436 74.7213 35.3623C74.7213 34.8727 74.8567 34.4665 75.1276 34.1436C75.3984 33.8206 75.8723 33.6592 76.5494 33.6592C77.0911 33.6592 77.5703 33.8102 77.9869 34.1123C78.414 34.404 78.8098 34.8311 79.1744 35.3936L84.9401 44.5498L90.6901 35.3936C91.0546 34.8311 91.4505 34.404 91.8776 34.1123C92.3046 33.8102 92.7838 33.6592 93.3151 33.6592C93.9921 33.6592 94.4661 33.8206 94.7369 34.1436C95.0078 34.4665 95.1432 34.8727 95.1432 35.3623C95.1432 35.6436 95.0807 35.9404 94.9557 36.2529C94.8411 36.555 94.6848 36.8467 94.4869 37.1279L86.9401 47.9248C86.9401 49.6748 86.9192 51.3571 86.8776 52.9717C86.8463 54.5759 86.789 56.3311 86.7057 58.2373C86.6848 58.8623 86.6276 59.3415 86.5338 59.6748C86.4505 60.0081 86.3307 60.2634 86.1744 60.4404C86.0182 60.6175 85.8411 60.7269 85.6432 60.7686C85.4557 60.8102 85.2317 60.8311 84.9713 60.8311C84.513 60.8311 84.1276 60.6696 83.8151 60.3467C83.5026 60.0238 83.3203 59.3363 83.2682 58.2842ZM112.108 58.7061C111.848 58.0811 111.566 57.3675 111.264 56.5654C110.973 55.7529 110.66 54.8936 110.327 53.9873C109.556 54.0081 108.743 54.029 107.889 54.0498C107.046 54.0602 106.186 54.0654 105.311 54.0654C104.197 54.0654 103.186 54.0654 102.28 54.0654C101.384 54.0654 100.561 54.0498 99.8112 54.0186C99.5091 54.9248 99.2122 55.779 98.9206 56.5811C98.6393 57.3727 98.3685 58.0811 98.1081 58.7061C97.5976 60.0186 96.8528 60.6748 95.8737 60.6748C95.5091 60.6748 95.1653 60.5602 94.8424 60.3311C94.5195 60.0915 94.3581 59.7529 94.3581 59.3154C94.3581 58.8779 94.4362 58.305 94.5924 57.5967C94.7487 56.8884 94.9466 56.1279 95.1862 55.3154C95.4362 54.5029 95.7018 53.6696 95.9831 52.8154C96.2747 51.9509 96.5456 51.1436 96.7956 50.3936C97.056 49.5706 97.4258 48.5238 97.9049 47.2529C98.3841 45.9717 98.8945 44.6384 99.4362 43.2529C99.9778 41.8571 100.514 40.4821 101.046 39.1279C101.587 37.7738 102.077 36.5915 102.514 35.5811C102.618 35.3311 102.749 35.0446 102.905 34.7217C103.061 34.3988 103.249 34.0967 103.467 33.8154C103.686 33.5238 103.931 33.279 104.202 33.0811C104.473 32.8727 104.775 32.7686 105.108 32.7686C105.441 32.7686 105.749 32.8779 106.03 33.0967C106.322 33.3154 106.577 33.5811 106.796 33.8936C107.014 34.1956 107.207 34.5186 107.374 34.8623C107.54 35.1956 107.676 35.4873 107.78 35.7373C108.197 36.7686 108.665 37.9561 109.186 39.2998C109.717 40.6436 110.243 41.9977 110.764 43.3623C111.296 44.7269 111.79 46.029 112.249 47.2686C112.717 48.4977 113.098 49.5394 113.389 50.3936C113.618 51.1436 113.879 51.9456 114.171 52.7998C114.473 53.6436 114.749 54.4769 114.999 55.2998C115.259 56.1227 115.473 56.8884 115.639 57.5967C115.806 58.305 115.889 58.8779 115.889 59.3154C115.889 59.7529 115.728 60.0915 115.405 60.3311C115.092 60.5602 114.754 60.6748 114.389 60.6748C113.921 60.6748 113.493 60.5134 113.108 60.1904C112.723 59.8675 112.389 59.3727 112.108 58.7061ZM105.264 50.2061C105.889 50.2061 106.509 50.2113 107.124 50.2217C107.738 50.2321 108.358 50.2477 108.983 50.2686C108.671 49.3727 108.358 48.4769 108.046 47.5811C107.743 46.6748 107.457 45.8102 107.186 44.9873C106.915 44.154 106.671 43.3831 106.452 42.6748C106.233 41.9665 106.046 41.3415 105.889 40.7998C105.785 40.4665 105.665 40.2009 105.53 40.0029C105.405 39.7946 105.238 39.6904 105.03 39.6904C104.832 39.6904 104.665 39.7998 104.53 40.0186C104.405 40.2373 104.29 40.5134 104.186 40.8467C103.874 41.8988 103.441 43.2686 102.889 44.9561C102.337 46.6436 101.749 48.4144 101.124 50.2686C101.822 50.2477 102.52 50.2321 103.217 50.2217C103.915 50.2113 104.598 50.2061 105.264 50.2061ZM131.905 51.0186C130.717 51.0602 129.347 51.1019 127.795 51.1436C126.254 51.1852 124.425 51.2061 122.311 51.2061C121.436 51.2061 120.686 51.1956 120.061 51.1748C119.446 51.1436 118.946 51.0706 118.561 50.9561C118.175 50.8415 117.889 50.654 117.701 50.3936C117.524 50.1331 117.436 49.7738 117.436 49.3154C117.436 49.0759 117.462 48.8623 117.514 48.6748C117.566 48.4769 117.681 48.305 117.858 48.1592C118.045 48.0029 118.3 47.8675 118.623 47.7529C118.946 47.6279 119.363 47.5394 119.873 47.4873C120.259 47.4665 120.597 47.4456 120.889 47.4248C121.191 47.3936 121.483 47.3727 121.764 47.3623C122.056 47.3415 122.363 47.3311 122.686 47.3311C123.009 47.3311 123.389 47.3311 123.826 47.3311C125.212 47.3311 126.55 47.3415 127.842 47.3623C129.134 47.3727 130.472 47.4144 131.858 47.4873C132.483 47.5394 132.962 47.6123 133.295 47.7061C133.629 47.7998 133.884 47.9248 134.061 48.0811C134.248 48.2269 134.358 48.404 134.389 48.6123C134.431 48.8206 134.451 49.055 134.451 49.3154C134.451 49.7738 134.29 50.1592 133.967 50.4717C133.644 50.7842 132.957 50.9665 131.905 51.0186ZM147.897 54.0967C146.72 51.5029 145.673 48.9873 144.756 46.5498C143.84 44.1123 143.059 41.9404 142.413 40.0342C141.819 43.2321 141.324 46.4561 140.928 49.7061C140.532 52.9456 140.022 56.0498 139.397 59.0186C139.241 59.6852 138.954 60.1279 138.538 60.3467C138.131 60.5654 137.788 60.6748 137.506 60.6748C137.038 60.6748 136.668 60.5342 136.397 60.2529C136.126 59.9717 135.991 59.6123 135.991 59.1748C135.991 58.5811 136.064 57.6748 136.21 56.4561C136.355 55.2269 136.538 53.8415 136.756 52.2998C136.975 50.7477 137.225 49.1227 137.506 47.4248C137.788 45.7165 138.074 44.0706 138.366 42.4873C138.668 40.904 138.954 39.4665 139.225 38.1748C139.496 36.8831 139.736 35.8936 139.944 35.2061C140.277 34.0186 140.96 33.4248 141.991 33.4248C142.605 33.4248 143.131 33.7269 143.569 34.3311C144.006 34.9352 144.475 35.8623 144.975 37.1123C145.486 38.3623 146.095 39.9404 146.803 41.8467C147.512 43.7529 148.434 45.9977 149.569 48.5811C150.673 45.9977 151.564 43.7634 152.241 41.8779C152.928 39.9821 153.512 38.4092 153.991 37.1592C154.47 35.9092 154.928 34.9821 155.366 34.3779C155.803 33.7633 156.345 33.4561 156.991 33.4561C157.585 33.4561 158.032 33.6071 158.335 33.9092C158.647 34.2008 158.881 34.6436 159.038 35.2373C159.215 35.9561 159.434 36.9561 159.694 38.2373C159.954 39.5081 160.23 40.9248 160.522 42.4873C160.824 44.0498 161.116 45.68 161.397 47.3779C161.678 49.0759 161.934 50.7009 162.163 52.2529C162.402 53.7946 162.59 55.1904 162.725 56.4404C162.871 57.6904 162.944 58.6488 162.944 59.3154C162.944 59.7321 162.798 60.0654 162.506 60.3154C162.225 60.555 161.866 60.6748 161.428 60.6748C161.147 60.6748 160.798 60.5654 160.381 60.3467C159.975 60.1279 159.694 59.6852 159.538 59.0186C159.225 57.5498 158.944 56.029 158.694 54.4561C158.454 52.8831 158.225 51.2946 158.006 49.6904C157.788 48.0759 157.574 46.4613 157.366 44.8467C157.168 43.2321 156.954 41.6279 156.725 40.0342C156.381 41.0654 155.991 42.2009 155.553 43.4404C155.116 44.6696 154.652 45.9092 154.163 47.1592C153.673 48.4092 153.168 49.6436 152.647 50.8623C152.137 52.0706 151.637 53.1644 151.147 54.1436C150.97 54.4769 150.73 54.7269 150.428 54.8936C150.137 55.0602 149.835 55.1436 149.522 55.1436C149.189 55.1436 148.871 55.0602 148.569 54.8936C148.277 54.7269 148.053 54.4613 147.897 54.0967ZM182.424 58.7061C182.163 58.0811 181.882 57.3675 181.58 56.5654C181.288 55.7529 180.976 54.8936 180.643 53.9873C179.872 54.0081 179.059 54.029 178.205 54.0498C177.361 54.0602 176.502 54.0654 175.627 54.0654C174.512 54.0654 173.502 54.0654 172.596 54.0654C171.7 54.0654 170.877 54.0498 170.127 54.0186C169.825 54.9248 169.528 55.779 169.236 56.5811C168.955 57.3727 168.684 58.0811 168.424 58.7061C167.913 60.0186 167.169 60.6748 166.189 60.6748C165.825 60.6748 165.481 60.5602 165.158 60.3311C164.835 60.0915 164.674 59.7529 164.674 59.3154C164.674 58.8779 164.752 58.305 164.908 57.5967C165.064 56.8884 165.262 56.1279 165.502 55.3154C165.752 54.5029 166.018 53.6696 166.299 52.8154C166.59 51.9509 166.861 51.1436 167.111 50.3936C167.372 49.5706 167.742 48.5238 168.221 47.2529C168.7 45.9717 169.21 44.6384 169.752 43.2529C170.294 41.8571 170.83 40.4821 171.361 39.1279C171.903 37.7738 172.393 36.5915 172.83 35.5811C172.934 35.3311 173.064 35.0446 173.221 34.7217C173.377 34.3988 173.564 34.0967 173.783 33.8154C174.002 33.5238 174.247 33.279 174.518 33.0811C174.788 32.8727 175.09 32.7686 175.424 32.7686C175.757 32.7686 176.064 32.8779 176.346 33.0967C176.637 33.3154 176.893 33.5811 177.111 33.8936C177.33 34.1956 177.523 34.5186 177.689 34.8623C177.856 35.1956 177.992 35.4873 178.096 35.7373C178.512 36.7686 178.981 37.9561 179.502 39.2998C180.033 40.6436 180.559 41.9977 181.08 43.3623C181.611 44.7269 182.106 46.029 182.564 47.2686C183.033 48.4977 183.413 49.5394 183.705 50.3936C183.934 51.1436 184.195 51.9456 184.486 52.7998C184.788 53.6436 185.064 54.4769 185.314 55.2998C185.575 56.1227 185.788 56.8884 185.955 57.5967C186.122 58.305 186.205 58.8779 186.205 59.3154C186.205 59.7529 186.044 60.0915 185.721 60.3311C185.408 60.5602 185.07 60.6748 184.705 60.6748C184.236 60.6748 183.809 60.5134 183.424 60.1904C183.038 59.8675 182.705 59.3727 182.424 58.7061ZM175.58 50.2061C176.205 50.2061 176.825 50.2113 177.439 50.2217C178.054 50.2321 178.674 50.2477 179.299 50.2686C178.986 49.3727 178.674 48.4769 178.361 47.5811C178.059 46.6748 177.773 45.8102 177.502 44.9873C177.231 44.154 176.986 43.3831 176.768 42.6748C176.549 41.9665 176.361 41.3415 176.205 40.7998C176.101 40.4665 175.981 40.2009 175.846 40.0029C175.721 39.7946 175.554 39.6904 175.346 39.6904C175.148 39.6904 174.981 39.7998 174.846 40.0186C174.721 40.2373 174.606 40.5134 174.502 40.8467C174.189 41.8988 173.757 43.2686 173.205 44.9561C172.653 46.6436 172.064 48.4144 171.439 50.2686C172.137 50.2477 172.835 50.2321 173.533 50.2217C174.231 50.2113 174.913 50.2061 175.58 50.2061ZM204.224 58.8623C203.401 57.7269 202.62 56.6019 201.881 55.4873C201.151 54.3623 200.365 53.1279 199.521 51.7842C198.688 50.4404 197.735 48.9509 196.662 47.3154C195.599 45.68 194.318 43.7686 192.818 41.5811C192.818 43.5081 192.818 45.2425 192.818 46.7842C192.818 48.3154 192.802 49.7373 192.771 51.0498C192.75 52.3623 192.724 53.6019 192.693 54.7686C192.672 55.9248 192.636 57.0811 192.584 58.2373C192.563 58.8623 192.506 59.3415 192.412 59.6748C192.328 60.0081 192.209 60.2634 192.052 60.4404C191.896 60.6175 191.719 60.7269 191.521 60.7686C191.334 60.8102 191.11 60.8311 190.849 60.8311C190.391 60.8311 190.006 60.6696 189.693 60.3467C189.381 60.0238 189.198 59.3363 189.146 58.2842C189.021 55.4404 188.948 52.5967 188.927 49.7529C188.917 46.9092 188.912 43.9665 188.912 40.9248C188.912 39.1956 188.933 37.8415 188.974 36.8623C189.016 35.8831 189.104 35.1488 189.24 34.6592C189.386 34.1696 189.578 33.8623 189.818 33.7373C190.068 33.6019 190.401 33.5342 190.818 33.5342C191.224 33.5342 191.761 33.8519 192.427 34.4873C193.104 35.1123 193.839 35.9404 194.631 36.9717C195.433 38.0029 196.292 39.1904 197.209 40.5342C198.125 41.8779 199.032 43.2581 199.927 44.6748C200.834 46.0915 201.703 47.4977 202.537 48.8936C203.381 50.279 204.151 51.5394 204.849 52.6748C204.818 51.4665 204.802 50.1331 204.802 48.6748C204.802 47.2165 204.802 45.5967 204.802 43.8154C204.802 41.7842 204.813 40.1071 204.834 38.7842C204.865 37.4508 204.938 36.3988 205.052 35.6279C205.167 34.8571 205.354 34.3154 205.615 34.0029C205.875 33.6904 206.235 33.5342 206.693 33.5342C207.141 33.5342 207.532 33.68 207.865 33.9717C208.198 34.2529 208.391 34.9092 208.443 35.9404C208.495 36.8675 208.532 37.6904 208.552 38.4092C208.584 39.1279 208.61 39.8415 208.631 40.5498C208.662 41.2581 208.677 41.9925 208.677 42.7529C208.677 43.5134 208.677 44.3727 208.677 45.3311C208.677 46.4873 208.677 47.5967 208.677 48.6592C208.677 49.7113 208.662 50.7529 208.631 51.7842C208.61 52.8154 208.584 53.8623 208.552 54.9248C208.532 55.9769 208.495 57.0811 208.443 58.2373C208.412 58.8623 208.349 59.3415 208.256 59.6748C208.172 60.0081 208.052 60.2634 207.896 60.4404C207.74 60.6175 207.563 60.7269 207.365 60.7686C207.177 60.8102 206.953 60.8311 206.693 60.8311C206.256 60.8311 205.881 60.7009 205.568 60.4404C205.266 60.18 204.818 59.654 204.224 58.8623ZM229.507 58.7061C229.247 58.0811 228.965 57.3675 228.663 56.5654C228.372 55.7529 228.059 54.8936 227.726 53.9873C226.955 54.0081 226.142 54.029 225.288 54.0498C224.444 54.0602 223.585 54.0654 222.71 54.0654C221.596 54.0654 220.585 54.0654 219.679 54.0654C218.783 54.0654 217.96 54.0498 217.21 54.0186C216.908 54.9248 216.611 55.779 216.319 56.5811C216.038 57.3727 215.767 58.0811 215.507 58.7061C214.997 60.0186 214.252 60.6748 213.273 60.6748C212.908 60.6748 212.564 60.5602 212.241 60.3311C211.918 60.0915 211.757 59.7529 211.757 59.3154C211.757 58.8779 211.835 58.305 211.991 57.5967C212.148 56.8884 212.346 56.1279 212.585 55.3154C212.835 54.5029 213.101 53.6696 213.382 52.8154C213.674 51.9509 213.944 51.1436 214.194 50.3936C214.455 49.5706 214.825 48.5238 215.304 47.2529C215.783 45.9717 216.293 44.6384 216.835 43.2529C217.377 41.8571 217.913 40.4821 218.444 39.1279C218.986 37.7738 219.476 36.5915 219.913 35.5811C220.017 35.3311 220.148 35.0446 220.304 34.7217C220.46 34.3988 220.648 34.0967 220.866 33.8154C221.085 33.5238 221.33 33.279 221.601 33.0811C221.872 32.8727 222.174 32.7686 222.507 32.7686C222.84 32.7686 223.148 32.8779 223.429 33.0967C223.721 33.3154 223.976 33.5811 224.194 33.8936C224.413 34.1956 224.606 34.5186 224.773 34.8623C224.939 35.1956 225.075 35.4873 225.179 35.7373C225.596 36.7686 226.064 37.9561 226.585 39.2998C227.116 40.6436 227.642 41.9977 228.163 43.3623C228.694 44.7269 229.189 46.029 229.648 47.2686C230.116 48.4977 230.497 49.5394 230.788 50.3936C231.017 51.1436 231.278 51.9456 231.569 52.7998C231.872 53.6436 232.148 54.4769 232.398 55.2998C232.658 56.1227 232.872 56.8884 233.038 57.5967C233.205 58.305 233.288 58.8779 233.288 59.3154C233.288 59.7529 233.127 60.0915 232.804 60.3311C232.491 60.5602 232.153 60.6748 231.788 60.6748C231.319 60.6748 230.892 60.5134 230.507 60.1904C230.122 59.8675 229.788 59.3727 229.507 58.7061ZM222.663 50.2061C223.288 50.2061 223.908 50.2113 224.523 50.2217C225.137 50.2321 225.757 50.2477 226.382 50.2686C226.069 49.3727 225.757 48.4769 225.444 47.5811C225.142 46.6748 224.856 45.8102 224.585 44.9873C224.314 44.154 224.069 43.3831 223.851 42.6748C223.632 41.9665 223.444 41.3415 223.288 40.7998C223.184 40.4665 223.064 40.2009 222.929 40.0029C222.804 39.7946 222.637 39.6904 222.429 39.6904C222.231 39.6904 222.064 39.7998 221.929 40.0186C221.804 40.2373 221.689 40.5134 221.585 40.8467C221.273 41.8988 220.84 43.2686 220.288 44.9561C219.736 46.6436 219.148 48.4144 218.523 50.2686C219.221 50.2477 219.918 50.2321 220.616 50.2217C221.314 50.2113 221.997 50.2061 222.663 50.2061ZM245.815 40.9561C245.972 40.6019 246.211 40.3102 246.534 40.0811C246.857 39.8415 247.201 39.7217 247.565 39.7217C247.899 39.7217 248.216 39.8311 248.518 40.0498C248.831 40.2686 249.081 40.5602 249.268 40.9248C250.248 42.9352 251.211 45.1071 252.159 47.4404C253.117 49.7738 253.982 51.9821 254.753 54.0654C255.19 50.8675 255.664 47.6488 256.175 44.4092C256.696 41.1592 257.279 38.0498 257.925 35.0811C257.998 34.7477 258.112 34.4717 258.268 34.2529C258.425 34.0342 258.591 33.8675 258.768 33.7529C258.946 33.6383 259.133 33.555 259.331 33.5029C259.529 33.4508 259.69 33.4248 259.815 33.4248C260.253 33.4248 260.612 33.5498 260.893 33.7998C261.175 34.0394 261.315 34.3623 261.315 34.7686C261.315 35.2373 261.237 36.0602 261.081 37.2373C260.935 38.404 260.732 39.7686 260.472 41.3311C260.211 42.8831 259.92 44.5394 259.597 46.2998C259.274 48.0498 258.956 49.7373 258.643 51.3623C258.341 52.9873 258.05 54.4717 257.768 55.8154C257.487 57.1488 257.253 58.1644 257.065 58.8623C256.909 59.4561 256.675 59.904 256.362 60.2061C256.06 60.4977 255.612 60.6436 255.018 60.6436C254.404 60.6436 253.883 60.3675 253.456 59.8154C253.029 59.2529 252.565 58.3831 252.065 57.2061C251.565 56.0186 250.966 54.5029 250.268 52.6592C249.571 50.8154 248.67 48.6019 247.565 46.0186C246.43 48.6019 245.508 50.8206 244.8 52.6748C244.091 54.529 243.482 56.0498 242.972 57.2373C242.472 58.4248 242.003 59.2946 241.565 59.8467C241.128 60.3988 240.612 60.6748 240.018 60.6748C238.987 60.6748 238.305 60.0811 237.972 58.8936C237.763 58.1956 237.518 57.1852 237.237 55.8623C236.956 54.5394 236.664 53.0654 236.362 51.4404C236.071 49.8154 235.768 48.1331 235.456 46.3936C235.154 44.654 234.883 43.0134 234.643 41.4717C234.414 39.9196 234.227 38.5602 234.081 37.3936C233.946 36.2165 233.878 35.3936 233.878 34.9248C233.878 34.4873 234.018 34.1279 234.3 33.8467C234.581 33.5654 234.982 33.4248 235.503 33.4248C235.857 33.4248 236.201 33.5342 236.534 33.7529C236.878 33.9717 237.128 34.4144 237.284 35.0811C237.899 38.0498 238.44 41.1592 238.909 44.4092C239.388 47.6488 239.899 50.8675 240.44 54.0654C241.242 52.18 242.045 50.1852 242.847 48.0811C243.649 45.9665 244.638 43.5915 245.815 40.9561ZM279.643 58.7061C279.383 58.0811 279.102 57.3675 278.8 56.5654C278.508 55.7529 278.196 54.8936 277.862 53.9873C277.091 54.0081 276.279 54.029 275.425 54.0498C274.581 54.0602 273.722 54.0654 272.847 54.0654C271.732 54.0654 270.722 54.0654 269.815 54.0654C268.92 54.0654 268.097 54.0498 267.347 54.0186C267.045 54.9248 266.748 55.779 266.456 56.5811C266.175 57.3727 265.904 58.0811 265.643 58.7061C265.133 60.0186 264.388 60.6748 263.409 60.6748C263.045 60.6748 262.701 60.5602 262.378 60.3311C262.055 60.0915 261.893 59.7529 261.893 59.3154C261.893 58.8779 261.972 58.305 262.128 57.5967C262.284 56.8884 262.482 56.1279 262.722 55.3154C262.972 54.5029 263.237 53.6696 263.518 52.8154C263.81 51.9509 264.081 51.1436 264.331 50.3936C264.591 49.5706 264.961 48.5238 265.44 47.2529C265.92 45.9717 266.43 44.6384 266.972 43.2529C267.513 41.8571 268.05 40.4821 268.581 39.1279C269.123 37.7738 269.612 36.5915 270.05 35.5811C270.154 35.3311 270.284 35.0446 270.44 34.7217C270.597 34.3988 270.784 34.0967 271.003 33.8154C271.222 33.5238 271.466 33.279 271.737 33.0811C272.008 32.8727 272.31 32.7686 272.643 32.7686C272.977 32.7686 273.284 32.8779 273.565 33.0967C273.857 33.3154 274.112 33.5811 274.331 33.8936C274.55 34.1956 274.742 34.5186 274.909 34.8623C275.076 35.1956 275.211 35.4873 275.315 35.7373C275.732 36.7686 276.201 37.9561 276.722 39.2998C277.253 40.6436 277.779 41.9977 278.3 43.3623C278.831 44.7269 279.326 46.029 279.784 47.2686C280.253 48.4977 280.633 49.5394 280.925 50.3936C281.154 51.1436 281.414 51.9456 281.706 52.7998C282.008 53.6436 282.284 54.4769 282.534 55.2998C282.795 56.1227 283.008 56.8884 283.175 57.5967C283.341 58.305 283.425 58.8779 283.425 59.3154C283.425 59.7529 283.263 60.0915 282.94 60.3311C282.628 60.5602 282.289 60.6748 281.925 60.6748C281.456 60.6748 281.029 60.5134 280.643 60.1904C280.258 59.8675 279.925 59.3727 279.643 58.7061ZM272.8 50.2061C273.425 50.2061 274.045 50.2113 274.659 50.2217C275.274 50.2321 275.893 50.2477 276.518 50.2686C276.206 49.3727 275.893 48.4769 275.581 47.5811C275.279 46.6748 274.992 45.8102 274.722 44.9873C274.451 44.154 274.206 43.3831 273.987 42.6748C273.768 41.9665 273.581 41.3415 273.425 40.7998C273.321 40.4665 273.201 40.2009 273.065 40.0029C272.94 39.7946 272.774 39.6904 272.565 39.6904C272.367 39.6904 272.201 39.7998 272.065 40.0186C271.94 40.2373 271.826 40.5134 271.722 40.8467C271.409 41.8988 270.977 43.2686 270.425 44.9561C269.873 46.6436 269.284 48.4144 268.659 50.2686C269.357 50.2477 270.055 50.2321 270.753 50.2217C271.451 50.2113 272.133 50.2061 272.8 50.2061ZM295.069 51.1592C294.704 51.1904 294.335 51.2113 293.96 51.2217C293.595 51.2321 293.215 51.2373 292.819 51.2373C292.381 51.2373 291.944 51.2373 291.506 51.2373C291.069 51.2373 290.579 51.2113 290.038 51.1592V59.0186C290.038 59.8415 289.84 60.3519 289.444 60.5498C289.048 60.7373 288.553 60.8311 287.96 60.8311C287.647 60.8311 287.397 60.8102 287.21 60.7686C287.032 60.7269 286.887 60.6488 286.772 60.5342C286.657 60.4196 286.569 60.2477 286.506 60.0186C286.444 59.7894 286.397 59.4665 286.366 59.0498C286.314 58.5915 286.272 57.9196 286.241 57.0342C286.22 56.1384 286.204 54.9821 286.194 53.5654C286.184 52.1488 286.168 50.43 286.147 48.4092C286.137 46.3779 286.131 43.9977 286.131 41.2686C286.131 40.2165 286.262 39.1956 286.522 38.2061C286.782 37.2061 287.246 36.3258 287.913 35.5654C288.59 34.805 289.501 34.1956 290.647 33.7373C291.793 33.2686 293.251 33.0342 295.022 33.0342C296.293 33.0342 297.527 33.18 298.725 33.4717C299.923 33.7529 300.986 34.2425 301.913 34.9404C302.84 35.6279 303.585 36.5654 304.147 37.7529C304.72 38.9404 305.006 40.4196 305.006 42.1904C305.006 44.5654 304.496 46.404 303.475 47.7061C302.454 49.0081 301.059 49.93 299.288 50.4717L304.46 57.5811C304.928 58.1956 305.163 58.8259 305.163 59.4717C305.163 59.9925 304.986 60.3988 304.631 60.6904C304.288 60.9925 303.855 61.1436 303.335 61.1436C302.772 61.1436 302.282 60.9821 301.866 60.6592C301.46 60.3363 301.074 59.9144 300.71 59.3936L295.069 51.1592ZM301.131 42.1592C301.131 40.3779 300.595 39.055 299.522 38.1904C298.46 37.3258 296.767 36.8936 294.444 36.8936C293.6 36.8936 292.892 36.9665 292.319 37.1123C291.756 37.2581 291.309 37.5238 290.975 37.9092C290.642 38.2946 290.402 38.8311 290.256 39.5186C290.111 40.1956 290.038 41.0602 290.038 42.1123C290.038 42.8623 290.038 43.7425 290.038 44.7529C290.038 45.7529 290.053 46.6644 290.085 47.4873C290.678 47.5186 291.34 47.5342 292.069 47.5342C292.809 47.5342 293.501 47.5342 294.147 47.5342C294.866 47.5342 295.631 47.4925 296.444 47.4092C297.256 47.3154 298.006 47.0811 298.694 46.7061C299.392 46.3311 299.97 45.7894 300.428 45.0811C300.897 44.3727 301.131 43.3988 301.131 42.1592V42.1592ZM309.03 58.2842C308.978 57.3571 308.941 56.3936 308.92 55.3936C308.91 54.3831 308.889 53.2998 308.858 52.1436C308.837 50.9769 308.827 49.7165 308.827 48.3623C308.827 47.0081 308.827 45.4925 308.827 43.8154C308.827 41.9925 308.837 40.43 308.858 39.1279C308.889 37.8259 308.967 36.7634 309.092 35.9404C309.228 35.1071 309.431 34.4977 309.702 34.1123C309.973 33.7269 310.337 33.5342 310.795 33.5342C311.035 33.5342 311.254 33.5602 311.452 33.6123C311.66 33.6644 311.842 33.7738 311.999 33.9404C312.155 34.1071 312.29 34.3519 312.405 34.6748C312.519 34.9977 312.592 35.4196 312.624 35.9404C312.676 36.8675 312.712 37.6904 312.733 38.4092C312.764 39.1279 312.79 39.8415 312.811 40.5498C312.832 41.2581 312.842 41.9925 312.842 42.7529C312.842 43.5134 312.842 44.3727 312.842 45.3311C312.842 46.4873 312.842 47.5967 312.842 48.6592C312.842 49.7113 312.832 50.7529 312.811 51.7842C312.79 52.8154 312.764 53.8623 312.733 54.9248C312.712 55.9769 312.676 57.0811 312.624 58.2373C312.592 58.8623 312.525 59.3415 312.42 59.6748C312.316 60.0081 312.186 60.2634 312.03 60.4404C311.884 60.6175 311.707 60.7269 311.499 60.7686C311.29 60.8102 311.056 60.8311 310.795 60.8311C310.337 60.8311 309.936 60.6696 309.592 60.3467C309.259 60.0238 309.071 59.3363 309.03 58.2842Z" fill="#F39342"/>
<path d="M120.444 21.4844C120.236 20.9635 120.007 20.3698 119.757 19.7031C119.507 19.026 119.246 18.3177 118.976 17.5781C118.33 17.599 117.653 17.6146 116.944 17.625C116.246 17.6354 115.538 17.6406 114.819 17.6406C113.892 17.6406 113.054 17.6406 112.304 17.6406C111.564 17.6406 110.887 17.6302 110.272 17.6094C110.012 18.349 109.762 19.0521 109.522 19.7188C109.293 20.375 109.075 20.9635 108.866 21.4844C108.439 22.5677 107.819 23.1094 107.007 23.1094C106.705 23.1094 106.418 23.0156 106.147 22.8281C105.887 22.6302 105.757 22.349 105.757 21.9844C105.757 21.6302 105.819 21.1615 105.944 20.5781C106.08 19.9844 106.246 19.3542 106.444 18.6875C106.642 18.0104 106.861 17.3177 107.101 16.6094C107.34 15.8906 107.564 15.2188 107.772 14.5938C107.981 13.9167 108.283 13.0521 108.679 12C109.075 10.9375 109.496 9.83333 109.944 8.6875C110.392 7.53125 110.84 6.39583 111.288 5.28125C111.736 4.15625 112.142 3.17708 112.507 2.34375C112.59 2.125 112.694 1.88542 112.819 1.625C112.955 1.35417 113.111 1.10417 113.288 0.875C113.476 0.635417 113.679 0.432292 113.897 0.265625C114.127 0.0885417 114.377 0 114.647 0C114.929 0 115.184 0.09375 115.413 0.28125C115.653 0.458333 115.861 0.677083 116.038 0.9375C116.226 1.1875 116.387 1.45312 116.522 1.73438C116.658 2.01562 116.772 2.26042 116.866 2.46875C117.2 3.32292 117.585 4.30729 118.022 5.42188C118.46 6.52604 118.897 7.64583 119.335 8.78125C119.772 9.90625 120.184 10.9844 120.569 12.0156C120.955 13.0365 121.267 13.8958 121.507 14.5938C121.694 15.2188 121.908 15.8854 122.147 16.5938C122.397 17.2917 122.627 17.9844 122.835 18.6719C123.054 19.349 123.231 19.9844 123.366 20.5781C123.512 21.1615 123.585 21.6302 123.585 21.9844C123.585 22.349 123.45 22.6302 123.179 22.8281C122.908 23.0156 122.627 23.1094 122.335 23.1094C121.95 23.1094 121.595 22.9792 121.272 22.7188C120.96 22.4479 120.684 22.0365 120.444 21.4844ZM114.772 14.4375C115.293 14.4375 115.809 14.4427 116.319 14.4531C116.83 14.4635 117.34 14.4792 117.851 14.5C117.601 13.75 117.345 13.0052 117.085 12.2656C116.825 11.5156 116.58 10.8021 116.351 10.125C116.132 9.4375 115.934 8.80208 115.757 8.21875C115.58 7.625 115.424 7.10417 115.288 6.65625C115.205 6.38542 115.111 6.16667 115.007 6C114.903 5.82292 114.762 5.73438 114.585 5.73438C114.418 5.73438 114.278 5.82812 114.163 6.01562C114.059 6.19271 113.965 6.41667 113.882 6.6875C113.632 7.5625 113.278 8.70312 112.819 10.1094C112.361 11.5052 111.871 12.9688 111.351 14.5C111.934 14.4792 112.512 14.4635 113.085 14.4531C113.658 14.4427 114.22 14.4375 114.772 14.4375ZM133.689 9.48438C132.897 9.48438 132.189 9.61458 131.564 9.875C130.939 10.125 130.231 10.5052 129.439 11.0156C129.439 11.4635 129.439 12.1198 129.439 12.9844C129.439 13.849 129.429 14.7865 129.408 15.7969C129.387 16.8073 129.366 17.8073 129.345 18.7969C129.324 19.776 129.278 20.5938 129.205 21.25C129.163 21.6771 129.116 22.0156 129.064 22.2656C129.012 22.5052 128.939 22.6927 128.845 22.8281C128.751 22.9531 128.621 23.0312 128.455 23.0625C128.298 23.0938 128.09 23.1094 127.83 23.1094C127.58 23.1094 127.371 23.0938 127.205 23.0625C127.048 23.0312 126.918 22.9583 126.814 22.8438C126.71 22.7188 126.621 22.5417 126.548 22.3125C126.486 22.0729 126.434 21.75 126.392 21.3438C126.35 20.9583 126.314 20.4479 126.283 19.8125C126.251 19.1771 126.225 18.4792 126.205 17.7188C126.184 16.9583 126.168 16.1927 126.158 15.4219C126.147 14.6406 126.142 13.9167 126.142 13.25C126.142 12.1667 126.158 11.2865 126.189 10.6094C126.22 9.92188 126.278 9.30729 126.361 8.76562C126.496 7.86979 126.668 7.30729 126.876 7.07812C127.085 6.83854 127.371 6.71875 127.736 6.71875C128.267 6.71875 128.668 6.86979 128.939 7.17188C129.21 7.47396 129.376 7.96354 129.439 8.64062C130.231 7.96354 131.08 7.42188 131.986 7.01562C132.892 6.60938 133.824 6.40625 134.783 6.40625C135.699 6.40625 136.533 6.61979 137.283 7.04688C138.043 7.47396 138.668 8.16667 139.158 9.125C139.46 9.69792 139.684 10.3333 139.83 11.0312C139.986 11.7188 140.095 12.4479 140.158 13.2188C140.179 13.5625 140.199 13.901 140.22 14.2344C140.241 14.5573 140.257 14.9062 140.267 15.2812C140.278 15.6562 140.283 16.0781 140.283 16.5469C140.283 17.0156 140.283 17.5729 140.283 18.2188C140.283 18.8958 140.272 19.5365 140.251 20.1406C140.231 20.7344 140.173 21.25 140.08 21.6875C139.986 22.125 139.819 22.4688 139.58 22.7188C139.35 22.9583 139.033 23.0781 138.626 23.0781C137.637 23.0781 137.121 22.6094 137.08 21.6719C137.08 21.6094 137.08 21.3385 137.08 20.8594C137.08 20.3802 137.074 19.8229 137.064 19.1875C137.054 18.5417 137.043 17.8906 137.033 17.2344C137.022 16.5677 137.007 16.0208 136.986 15.5938C136.965 15.25 136.939 14.8802 136.908 14.4844C136.876 14.0885 136.835 13.6875 136.783 13.2812C136.731 12.875 136.658 12.4896 136.564 12.125C136.481 11.75 136.376 11.4115 136.251 11.1094C135.949 10.401 135.574 9.95312 135.126 9.76562C134.679 9.57812 134.199 9.48438 133.689 9.48438ZM149.622 6.40625C150.07 6.40625 150.633 6.44271 151.31 6.51562C151.997 6.58854 152.648 6.72917 153.263 6.9375C153.888 7.13542 154.424 7.41667 154.872 7.78125C155.32 8.14583 155.544 8.60417 155.544 9.15625C155.544 9.47917 155.451 9.76042 155.263 10C155.086 10.2292 154.81 10.3438 154.435 10.3438C154.154 10.3438 153.836 10.3021 153.482 10.2188C153.128 10.125 152.742 10.0208 152.326 9.90625C151.909 9.79167 151.461 9.69271 150.982 9.60938C150.503 9.52604 149.997 9.48438 149.466 9.48438C148.57 9.48438 147.841 9.625 147.279 9.90625C146.716 10.1771 146.435 10.6094 146.435 11.2031C146.435 11.5469 146.534 11.8385 146.732 12.0781C146.93 12.3073 147.206 12.5156 147.56 12.7031C147.914 12.8802 148.331 13.0312 148.81 13.1562C149.289 13.2812 149.794 13.4115 150.326 13.5469C150.992 13.7135 151.648 13.9062 152.294 14.125C152.951 14.3333 153.534 14.625 154.044 15C154.555 15.375 154.971 15.8438 155.294 16.4062C155.617 16.9688 155.779 17.6667 155.779 18.5C155.779 20.0833 155.18 21.3385 153.982 22.2656C152.784 23.1927 151.023 23.6562 148.701 23.6562C148.19 23.6562 147.581 23.6146 146.872 23.5312C146.174 23.4583 145.513 23.3229 144.888 23.125C144.273 22.9271 143.747 22.6406 143.31 22.2656C142.872 21.8906 142.654 21.3906 142.654 20.7656C142.654 20.349 142.753 20.0312 142.951 19.8125C143.159 19.5833 143.409 19.4688 143.701 19.4688C143.94 19.4688 144.185 19.5417 144.435 19.6875C144.695 19.8333 145.008 19.9948 145.372 20.1719C145.737 20.3385 146.174 20.5 146.685 20.6562C147.195 20.8021 147.826 20.875 148.576 20.875C148.846 20.875 149.206 20.8594 149.654 20.8281C150.102 20.7865 150.544 20.6927 150.982 20.5469C151.419 20.401 151.794 20.1979 152.107 19.9375C152.419 19.6667 152.576 19.2865 152.576 18.7969C152.576 18.4115 152.466 18.0833 152.247 17.8125C152.039 17.5417 151.753 17.3125 151.388 17.125C151.023 16.9375 150.602 16.776 150.122 16.6406C149.643 16.4948 149.138 16.349 148.607 16.2031C147.982 16.026 147.357 15.8333 146.732 15.625C146.107 15.4062 145.534 15.1302 145.013 14.7969C144.503 14.4531 144.086 14.0208 143.763 13.5C143.451 12.9688 143.294 12.3229 143.294 11.5625C143.294 10.8333 143.44 10.1562 143.732 9.53125C144.034 8.89583 144.461 8.34375 145.013 7.875C145.576 7.40625 146.242 7.04688 147.013 6.79688C147.794 6.53646 148.664 6.40625 149.622 6.40625ZM166.499 11.0156C166.624 10.7344 166.806 10.526 167.046 10.3906C167.296 10.2552 167.572 10.1875 167.874 10.1875C168.124 10.1875 168.368 10.25 168.608 10.375C168.858 10.5 169.061 10.7031 169.217 10.9844C169.832 12.1302 170.389 13.2969 170.889 14.4844C171.389 15.6719 171.931 16.8698 172.514 18.0781C173.046 16.3594 173.514 14.6927 173.921 13.0781C174.327 11.4635 174.743 9.88021 175.171 8.32812C175.316 7.77604 175.514 7.41146 175.764 7.23438C176.025 7.04688 176.358 6.95312 176.764 6.95312C177.129 6.95312 177.426 7.05729 177.655 7.26562C177.895 7.46354 178.014 7.72917 178.014 8.0625C178.014 8.34375 177.941 8.83333 177.796 9.53125C177.66 10.2188 177.478 11.0156 177.249 11.9219C177.03 12.8281 176.785 13.7969 176.514 14.8281C176.254 15.849 175.988 16.8281 175.717 17.7656C175.457 18.7031 175.207 19.5573 174.967 20.3281C174.738 21.099 174.556 21.6719 174.421 22.0469C174.254 22.5469 174.051 22.9167 173.811 23.1562C173.582 23.4062 173.223 23.5312 172.733 23.5312C172.285 23.5312 171.91 23.3542 171.608 23C171.316 22.6458 171.04 22.224 170.78 21.7344C170.697 21.5677 170.556 21.2812 170.358 20.875C170.171 20.4688 169.941 19.9896 169.671 19.4375C169.41 18.875 169.124 18.2656 168.811 17.6094C168.499 16.9427 168.186 16.2708 167.874 15.5938C167.551 16.2708 167.223 16.9427 166.889 17.6094C166.556 18.2656 166.249 18.8802 165.967 19.4531C165.697 20.0156 165.457 20.5 165.249 20.9062C165.051 21.3125 164.91 21.599 164.827 21.7656C164.577 22.2552 164.306 22.6771 164.014 23.0312C163.723 23.3854 163.342 23.5625 162.874 23.5625C162.124 23.5625 161.561 23.0677 161.186 22.0781C161.03 21.7031 160.832 21.1354 160.592 20.375C160.363 19.6146 160.118 18.7656 159.858 17.8281C159.608 16.8906 159.353 15.9167 159.092 14.9062C158.842 13.8854 158.613 12.9271 158.405 12.0312C158.207 11.1354 158.04 10.349 157.905 9.67188C157.78 8.98438 157.717 8.49479 157.717 8.20312C157.717 7.83854 157.816 7.54167 158.014 7.3125C158.223 7.07292 158.52 6.95312 158.905 6.95312C159.332 6.95312 159.676 7.04688 159.936 7.23438C160.207 7.41146 160.421 7.77604 160.577 8.32812C161.004 9.88021 161.415 11.4635 161.811 13.0781C162.217 14.6927 162.691 16.3594 163.233 18.0781C163.702 17.0573 164.171 15.9948 164.639 14.8906C165.108 13.776 165.728 12.4844 166.499 11.0156ZM188.284 17.2188C187.534 17.2188 186.748 17.1615 185.925 17.0469C185.112 16.9323 184.222 16.6823 183.253 16.2969C183.451 17.599 183.992 18.5833 184.878 19.25C185.763 19.9062 187.039 20.2344 188.706 20.2344C189.3 20.2344 189.836 20.1979 190.315 20.125C190.795 20.0417 191.216 19.9531 191.581 19.8594C191.946 19.7656 192.263 19.6823 192.534 19.6094C192.815 19.5365 193.076 19.5 193.315 19.5C193.607 19.5 193.888 19.5885 194.159 19.7656C194.44 19.9427 194.581 20.2448 194.581 20.6719C194.581 21.2135 194.362 21.6562 193.925 22C193.498 22.3333 192.966 22.6042 192.331 22.8125C191.706 23.0104 191.039 23.1458 190.331 23.2188C189.633 23.2917 189.013 23.3281 188.472 23.3281C187.211 23.3281 186.055 23.1615 185.003 22.8281C183.951 22.4844 183.039 21.9688 182.268 21.2812C181.498 20.5833 180.899 19.724 180.472 18.7031C180.045 17.6719 179.831 16.474 179.831 15.1094C179.831 13.7865 180.039 12.6146 180.456 11.5938C180.873 10.5625 181.44 9.69792 182.159 9C182.888 8.29167 183.748 7.76042 184.737 7.40625C185.737 7.04167 186.815 6.85938 187.972 6.85938C188.867 6.85938 189.732 6.97917 190.565 7.21875C191.409 7.44792 192.154 7.79688 192.8 8.26562C193.456 8.73438 193.982 9.32812 194.378 10.0469C194.774 10.7552 194.972 11.5885 194.972 12.5469C194.972 13.401 194.81 14.1302 194.487 14.7344C194.175 15.3281 193.722 15.8073 193.128 16.1719C192.545 16.526 191.841 16.7917 191.018 16.9688C190.196 17.1354 189.284 17.2188 188.284 17.2188ZM188.065 9.79688C187.482 9.79688 186.925 9.86979 186.393 10.0156C185.862 10.151 185.378 10.375 184.94 10.6875C184.503 10.9896 184.133 11.3906 183.831 11.8906C183.539 12.3906 183.336 13.0156 183.222 13.7656C184.034 14.1302 184.826 14.3802 185.597 14.5156C186.367 14.651 187.18 14.7188 188.034 14.7188C189.284 14.7188 190.211 14.5677 190.815 14.2656C191.43 13.9531 191.737 13.3906 191.737 12.5781C191.737 11.8385 191.456 11.1927 190.893 10.6406C190.331 10.0781 189.388 9.79688 188.065 9.79688ZM198.17 21.1562C198.086 20.4062 198.034 19.5 198.014 18.4375C197.993 17.375 197.982 16.0833 197.982 14.5625C197.982 13.0729 197.987 11.8698 197.998 10.9531C198.008 10.0365 198.066 9.22396 198.17 8.51562C198.274 7.64062 198.435 7.07812 198.654 6.82812C198.883 6.56771 199.18 6.4375 199.545 6.4375C199.805 6.4375 200.034 6.45833 200.232 6.5C200.441 6.54167 200.623 6.63542 200.779 6.78125C200.935 6.91667 201.055 7.11458 201.139 7.375C201.232 7.625 201.279 7.97396 201.279 8.42188C201.279 8.50521 201.29 8.58854 201.31 8.67188C201.31 8.76562 201.316 8.85938 201.326 8.95312C201.336 9.04688 201.342 9.15625 201.342 9.28125C201.915 8.5625 202.571 7.94792 203.31 7.4375C204.05 6.91667 204.889 6.65625 205.826 6.65625C207.076 6.65625 207.701 7.18229 207.701 8.23438C207.701 8.61979 207.623 8.94271 207.467 9.20312C207.31 9.45312 207.086 9.65625 206.795 9.8125C206.503 9.96875 206.17 10.0938 205.795 10.1875C205.43 10.2708 205.024 10.3542 204.576 10.4375C203.889 10.5625 203.248 10.8021 202.654 11.1562C202.06 11.5104 201.654 11.9531 201.435 12.4844C201.435 12.8906 201.441 13.1927 201.451 13.3906C201.461 13.5781 201.472 13.7344 201.482 13.8594C201.493 13.9844 201.498 14.125 201.498 14.2812C201.498 14.4271 201.498 14.6615 201.498 14.9844C201.498 16.0677 201.477 17.0885 201.435 18.0469C201.394 18.9948 201.352 20.0208 201.31 21.125C201.29 21.6354 201.227 22.0312 201.123 22.3125C201.029 22.5833 200.915 22.7969 200.779 22.9531C200.644 23.099 200.487 23.1875 200.31 23.2188C200.144 23.25 199.977 23.2656 199.81 23.2656C199.206 23.2656 198.8 23.1354 198.592 22.875C198.394 22.6042 198.253 22.0312 198.17 21.1562Z" fill="#3D7E81"/>
</svg>
