<svg width="442" height="250" viewBox="0 0 442 250" fill="none" xmlns="http://www.w3.org/2000/svg">
<path d="M154.884 41.5649C154.566 40.801 154.216 39.9256 153.834 38.9388C153.484 37.9202 153.102 36.8539 152.688 35.7398C151.733 35.7716 150.73 35.8035 149.68 35.8353C148.629 35.8353 147.563 35.8353 146.481 35.8353C145.112 35.8353 143.871 35.8353 142.757 35.8353C141.642 35.8353 140.624 35.8194 139.701 35.7876C139.319 36.9016 138.953 37.9521 138.603 38.9388C138.252 39.9256 137.918 40.801 137.6 41.5649C136.963 43.1883 136.04 44 134.831 44C134.385 44 133.955 43.8568 133.541 43.5703C133.159 43.2838 132.968 42.87 132.968 42.3289C132.968 41.7877 133.064 41.0874 133.255 40.228C133.446 39.3367 133.685 38.3977 133.971 37.4109C134.289 36.3923 134.624 35.3578 134.974 34.3074C135.324 33.2251 135.658 32.2225 135.977 31.2994C136.295 30.2808 136.74 28.9916 137.313 27.4319C137.918 25.8403 138.555 24.1851 139.223 22.4662C139.892 20.7473 140.56 19.0603 141.229 17.4051C141.897 15.718 142.502 14.2538 143.043 13.0123C143.17 12.694 143.33 12.3439 143.521 11.9619C143.711 11.5481 143.934 11.1661 144.189 10.816C144.475 10.4659 144.778 10.1635 145.096 9.90881C145.446 9.65416 145.828 9.52684 146.242 9.52684C146.656 9.52684 147.038 9.67008 147.388 9.95656C147.738 10.2112 148.041 10.5295 148.295 10.9115C148.582 11.2935 148.82 11.6914 149.011 12.1052C149.234 12.519 149.409 12.885 149.537 13.2033C150.046 14.4766 150.619 15.9408 151.255 17.596C151.924 19.2513 152.576 20.9224 153.213 22.6095C153.882 24.2965 154.502 25.904 155.075 27.4319C155.648 28.9598 156.11 30.2489 156.46 31.2994C156.746 32.2225 157.065 33.2092 157.415 34.2597C157.797 35.3101 158.147 36.3446 158.465 37.3632C158.784 38.3818 159.038 39.3367 159.229 40.228C159.452 41.0874 159.563 41.7877 159.563 42.3289C159.563 42.87 159.357 43.2838 158.943 43.5703C158.561 43.8568 158.147 44 157.701 44C157.128 44 156.603 43.809 156.126 43.427C155.648 43.0132 155.234 42.3925 154.884 41.5649ZM146.433 31.0606C147.197 31.0606 147.961 31.0765 148.725 31.1084C149.489 31.1084 150.253 31.1243 151.017 31.1561C150.635 30.042 150.253 28.9279 149.871 27.8138C149.489 26.6998 149.123 25.6334 148.773 24.6148C148.454 23.5962 148.152 22.6572 147.865 21.7978C147.611 20.9065 147.388 20.1266 147.197 19.4582C147.07 19.0444 146.926 18.7101 146.767 18.4555C146.608 18.2008 146.401 18.0735 146.147 18.0735C145.892 18.0735 145.685 18.2167 145.526 18.5032C145.367 18.7579 145.223 19.0921 145.096 19.5059C144.714 20.811 144.173 22.514 143.473 24.6148C142.804 26.6838 142.088 28.8643 141.324 31.1561C142.184 31.1243 143.043 31.1084 143.902 31.1084C144.762 31.0765 145.605 31.0606 146.433 31.0606ZM181.809 41.7559C180.791 40.3553 179.82 38.9707 178.897 37.6019C178.005 36.2014 177.035 34.6735 175.984 33.0182C174.966 31.363 173.788 29.5327 172.451 27.5274C171.146 25.4902 169.57 23.1187 167.724 20.4131C167.724 22.8004 167.724 24.949 167.724 26.8589C167.724 28.737 167.708 30.4877 167.676 32.1111C167.644 33.7344 167.613 35.2623 167.581 36.6947C167.549 38.1271 167.501 39.5596 167.438 40.992C167.406 41.7559 167.326 42.3448 167.199 42.7586C167.103 43.1724 166.96 43.4907 166.769 43.7135C166.578 43.9363 166.355 44.0637 166.101 44.0955C165.878 44.1592 165.607 44.191 165.289 44.191C164.716 44.191 164.238 44 163.857 43.618C163.475 43.2042 163.252 42.3448 163.188 41.0397C163.029 37.5383 162.933 34.0368 162.902 30.5354C162.902 27.0022 162.902 23.3575 162.902 19.6014C162.902 17.4687 162.918 15.7976 162.949 14.588C163.013 13.3784 163.124 12.4712 163.284 11.8664C163.475 11.2616 163.713 10.8797 164 10.7205C164.318 10.5614 164.732 10.4818 165.241 10.4818C165.75 10.4818 166.419 10.8797 167.247 11.6754C168.074 12.4394 168.981 13.458 169.968 14.7312C170.955 16.0045 172.005 17.4687 173.119 19.1239C174.265 20.7792 175.395 22.4821 176.509 24.2328C177.624 25.9836 178.69 27.7184 179.708 29.4372C180.759 31.1561 181.714 32.7158 182.573 34.1164C182.541 32.6204 182.526 30.981 182.526 29.1985C182.526 27.3841 182.526 25.3788 182.526 23.1824C182.526 20.6677 182.541 18.5987 182.573 16.9753C182.605 15.3201 182.685 14.015 182.812 13.0601C182.971 12.1052 183.21 11.4367 183.528 11.0547C183.846 10.6728 184.292 10.4818 184.865 10.4818C185.406 10.4818 185.884 10.6568 186.297 11.007C186.711 11.3571 186.95 12.1688 187.014 13.4421C187.077 14.588 187.125 15.6066 187.157 16.4979C187.189 17.3891 187.221 18.2804 187.252 19.1717C187.284 20.0311 187.3 20.9383 187.3 21.8932C187.3 22.8164 187.3 23.8668 187.3 25.0445C187.3 26.4769 187.3 27.8457 187.3 29.1508C187.3 30.4558 187.284 31.745 187.252 33.0182C187.221 34.2915 187.189 35.5807 187.157 36.8857C187.125 38.1908 187.077 39.5596 187.014 40.992C186.982 41.7559 186.902 42.3448 186.775 42.7586C186.679 43.1724 186.536 43.4907 186.345 43.7135C186.154 43.9363 185.931 44.0637 185.677 44.0955C185.454 44.1592 185.183 44.191 184.865 44.191C184.324 44.191 183.862 44.0318 183.48 43.7135C183.098 43.3952 182.541 42.7427 181.809 41.7559ZM204.207 10.2908C205.098 10.2908 206.117 10.3704 207.263 10.5295C208.441 10.6568 209.539 10.9115 210.557 11.2935C211.576 11.6436 212.435 12.1211 213.136 12.7259C213.836 13.2988 214.186 14.015 214.186 14.8745C214.186 15.3838 214.043 15.8135 213.756 16.1636C213.47 16.5138 213.008 16.6889 212.372 16.6889C211.894 16.6889 211.401 16.5934 210.892 16.4024C210.414 16.2114 209.857 16.0204 209.22 15.8294C208.616 15.6066 207.899 15.3997 207.072 15.2087C206.276 15.0177 205.337 14.9222 204.255 14.9222C202.154 14.9222 200.594 15.3042 199.576 16.0681C198.589 16.8003 198.095 17.8189 198.095 19.1239C198.095 20.0152 198.318 20.7632 198.764 21.368C199.21 21.9728 199.798 22.498 200.531 22.9437C201.294 23.3575 202.138 23.7076 203.061 23.9941C204.016 24.2806 204.987 24.5512 205.974 24.8058C207.088 25.0923 208.186 25.4424 209.268 25.8562C210.382 26.27 211.369 26.8112 212.228 27.4796C213.088 28.1481 213.772 28.9916 214.282 30.0102C214.823 31.0288 215.093 32.318 215.093 33.8777C215.093 35.5011 214.791 36.9653 214.186 38.2704C213.581 39.5436 212.754 40.6418 211.703 41.5649C210.653 42.4562 209.395 43.1565 207.931 43.6658C206.467 44.1432 204.875 44.382 203.157 44.382C202.202 44.382 201.088 44.2865 199.814 44.0955C198.541 43.9363 197.331 43.6499 196.186 43.2361C195.04 42.7904 194.069 42.2175 193.273 41.5172C192.477 40.7851 192.079 39.8938 192.079 38.8433C192.079 38.2067 192.238 37.6974 192.557 37.3155C192.907 36.9335 193.416 36.7425 194.085 36.7425C194.626 36.7425 195.071 36.8539 195.422 37.0767C195.772 37.2677 196.074 37.4905 196.329 37.7452C197.284 38.5728 198.366 39.1298 199.576 39.4163C200.785 39.7028 202.027 39.846 203.3 39.846C204.032 39.846 204.796 39.7983 205.592 39.7028C206.419 39.5755 207.167 39.3367 207.836 38.9866C208.504 38.6364 209.061 38.1431 209.507 37.5064C209.953 36.838 210.175 35.9467 210.175 34.8326C210.175 33.814 209.968 32.9864 209.555 32.3498C209.173 31.6813 208.647 31.1243 207.979 30.6787C207.311 30.233 206.515 29.867 205.592 29.5805C204.7 29.294 203.73 29.0075 202.679 28.721C201.501 28.4027 200.34 28.0526 199.194 27.6706C198.048 27.2886 197.029 26.7793 196.138 26.1427C195.247 25.4743 194.514 24.6466 193.941 23.6599C193.4 22.6413 193.13 21.3521 193.13 19.7924C193.13 18.2327 193.416 16.8639 193.989 15.6862C194.562 14.5084 195.342 13.5216 196.329 12.7259C197.316 11.9301 198.477 11.3253 199.814 10.9115C201.183 10.4977 202.647 10.2908 204.207 10.2908ZM233.43 19.6491C233.621 19.2035 233.907 18.8375 234.289 18.551C234.703 18.2645 235.132 18.1213 235.578 18.1213C235.992 18.1213 236.39 18.2645 236.772 18.551C237.154 18.8056 237.456 19.1558 237.679 19.6014C238.889 22.0842 240.082 24.774 241.26 27.6706C242.438 30.5354 243.504 33.257 244.459 35.8353C245 31.8882 245.589 27.9093 246.226 23.8986C246.862 19.8879 247.578 16.0522 248.374 12.3916C248.47 11.9778 248.613 11.6436 248.804 11.389C248.995 11.1025 249.202 10.8956 249.425 10.7683C249.648 10.6091 249.87 10.4977 250.093 10.434C250.348 10.3704 250.555 10.3385 250.714 10.3385C251.255 10.3385 251.701 10.4977 252.051 10.816C252.401 11.1025 252.576 11.5004 252.576 12.0097C252.576 12.5826 252.48 13.6012 252.289 15.0655C252.099 16.4979 251.844 18.1849 251.526 20.1266C251.207 22.0365 250.841 24.0737 250.427 26.2382C250.045 28.4027 249.663 30.4877 249.281 32.493C248.899 34.4984 248.533 36.3287 248.183 37.9839C247.833 39.6391 247.547 40.8965 247.324 41.7559C247.133 42.488 246.846 43.0451 246.464 43.427C246.082 43.7772 245.525 43.9523 244.793 43.9523C244.029 43.9523 243.377 43.618 242.836 42.9496C242.326 42.2493 241.753 41.167 241.117 39.7028C240.512 38.2386 239.78 36.3764 238.92 34.1164C238.061 31.8246 236.947 29.0871 235.578 25.904C234.178 29.0871 233.032 31.8246 232.14 34.1164C231.281 36.4083 230.533 38.2863 229.896 39.7505C229.291 41.2148 228.719 42.297 228.177 42.9973C227.636 43.6658 227 44 226.268 44C224.994 44 224.151 43.2679 223.737 41.8036C223.482 40.9442 223.18 39.7028 222.83 38.0794C222.48 36.4242 222.114 34.5939 221.732 32.5885C221.381 30.5832 221.015 28.5141 220.633 26.3814C220.251 24.2169 219.917 22.1797 219.631 20.2699C219.344 18.36 219.105 16.6889 218.915 15.2564C218.755 13.7922 218.676 12.7736 218.676 12.2007C218.676 11.6595 218.851 11.2139 219.201 10.8637C219.551 10.5136 220.045 10.3385 220.681 10.3385C221.127 10.3385 221.556 10.4818 221.97 10.7683C222.384 11.0229 222.686 11.564 222.877 12.3916C223.641 16.0522 224.31 19.8879 224.883 23.8986C225.488 27.9093 226.124 31.8882 226.793 35.8353C227.779 33.5116 228.766 31.0447 229.753 28.4346C230.74 25.8244 231.965 22.8959 233.43 19.6491ZM256.91 36.7425C256.846 35.7239 256.782 34.3392 256.719 32.5885C256.655 30.8378 256.623 29.0393 256.623 27.1931C256.623 26.1427 256.623 25.0605 256.623 23.9464C256.655 22.8004 256.687 21.6386 256.719 20.4608C256.782 18.1053 256.926 16.2591 257.148 14.9222C257.403 13.5853 257.881 12.5826 258.581 11.9142C259.313 11.2457 260.332 10.8319 261.637 10.6728C262.942 10.5136 264.677 10.434 266.841 10.434C266.873 10.434 267.207 10.434 267.844 10.434C268.512 10.434 269.308 10.4499 270.231 10.4818C271.154 10.4818 272.109 10.4977 273.096 10.5295C274.114 10.5613 274.958 10.5932 275.626 10.625C276.327 10.6887 276.884 10.7842 277.298 10.9115C277.743 11.007 278.077 11.1502 278.3 11.3412C278.523 11.5004 278.666 11.7073 278.73 11.9619C278.794 12.1847 278.826 12.4394 278.826 12.7259C278.826 13.458 278.619 13.9991 278.205 14.3493C277.791 14.6676 276.947 14.8745 275.674 14.97C275.038 15.0336 274.099 15.0814 272.857 15.1132C271.648 15.1132 270.406 15.1132 269.133 15.1132C267.86 15.1132 266.714 15.1291 265.695 15.161C264.677 15.161 264.04 15.161 263.785 15.161C262.958 15.1928 262.369 15.3838 262.019 15.7339C261.7 16.0522 261.541 16.8321 261.541 18.0735C261.541 18.36 261.557 19.0603 261.589 20.1744C261.653 21.2566 261.684 22.7845 261.684 24.7581H265.647C267.334 24.7581 268.703 24.7899 269.754 24.8535C270.836 24.8854 271.663 24.9809 272.236 25.14C272.841 25.2992 273.255 25.5538 273.478 25.904C273.701 26.2541 273.812 26.7157 273.812 27.2886C273.812 27.5751 273.78 27.8457 273.717 28.1003C273.685 28.3231 273.557 28.53 273.335 28.721C273.112 28.8802 272.793 29.0234 272.38 29.1508C271.966 29.2462 271.377 29.3258 270.613 29.3895C269.69 29.4532 268.815 29.5009 267.987 29.5327C267.191 29.5327 266.395 29.5327 265.6 29.5327H261.589C261.589 30.0102 261.589 30.5832 261.589 31.2516C261.589 31.9201 261.589 32.6044 261.589 33.3047C261.589 34.005 261.589 34.6894 261.589 35.3578C261.621 36.0263 261.653 36.5674 261.684 36.9812C261.716 37.4905 261.78 37.9202 261.875 38.2704C262.003 38.6205 262.21 38.907 262.496 39.1298C262.814 39.3526 263.26 39.5118 263.833 39.6073C264.438 39.7028 265.234 39.7505 266.22 39.7505H276.486C277.6 39.7505 278.3 39.9574 278.587 40.3712C278.873 40.7851 279.016 41.3421 279.016 42.0424C279.016 42.6153 278.889 43.061 278.635 43.3793C278.38 43.6658 277.759 43.8727 276.772 44C275.817 44.1592 274.369 44.2546 272.427 44.2865C270.518 44.3183 267.876 44.3342 264.501 44.3342C263.069 44.3342 261.891 44.2069 260.968 43.9523C260.045 43.6976 259.297 43.2679 258.724 42.6631C258.151 42.0583 257.721 41.2784 257.435 40.3235C257.18 39.3367 257.005 38.1431 256.91 36.7425ZM294.324 32.2543C293.878 32.2861 293.417 32.318 292.939 32.3498C292.494 32.3498 292.032 32.3498 291.554 32.3498C291.013 32.3498 290.472 32.3498 289.931 32.3498C289.39 32.3498 288.785 32.318 288.117 32.2543V41.9469C288.117 42.9655 287.862 43.6021 287.353 43.8568C286.875 44.0796 286.271 44.191 285.538 44.191C285.156 44.191 284.854 44.1592 284.631 44.0955C284.408 44.0637 284.217 43.9841 284.058 43.8568C283.931 43.6976 283.82 43.4748 283.724 43.1883C283.66 42.9018 283.613 42.5039 283.581 41.9946C283.517 41.4217 283.469 40.5941 283.438 39.5118C283.406 38.3977 283.374 36.9653 283.342 35.2146C283.342 33.4639 283.326 31.3471 283.294 28.8643C283.294 26.3496 283.294 23.4052 283.294 20.0311C283.294 18.726 283.453 17.4687 283.772 16.2591C284.09 15.0177 284.663 13.9355 285.491 13.0123C286.318 12.0574 287.432 11.2935 288.833 10.7205C290.265 10.1475 292.08 9.86106 294.276 9.86106C295.836 9.86106 297.348 10.0361 298.812 10.3863C300.308 10.7364 301.629 11.3412 302.775 12.2007C303.921 13.0601 304.844 14.2219 305.544 15.6862C306.245 17.1504 306.595 18.9807 306.595 21.177C306.595 24.1055 305.958 26.3814 304.685 28.0048C303.443 29.5964 301.725 30.7264 299.528 31.3949L305.926 40.1803C306.499 40.9442 306.786 41.7241 306.786 42.5199C306.786 43.1565 306.563 43.6499 306.117 44C305.703 44.382 305.178 44.573 304.542 44.573C303.841 44.573 303.237 44.382 302.727 44C302.218 43.5862 301.74 43.061 301.295 42.4244L294.324 32.2543ZM301.82 21.1293C301.82 18.9329 301.152 17.3096 299.815 16.2591C298.51 15.1769 296.425 14.6357 293.56 14.6357C292.509 14.6357 291.634 14.7312 290.934 14.9222C290.233 15.0814 289.676 15.3997 289.263 15.8772C288.849 16.3546 288.546 17.0231 288.355 17.8825C288.196 18.7101 288.117 19.7765 288.117 21.0816C288.117 22.0047 288.117 23.0869 288.117 24.3283C288.117 25.5697 288.133 26.6998 288.164 27.7184C288.897 27.7502 289.708 27.7661 290.6 27.7661C291.523 27.7661 292.382 27.7661 293.178 27.7661C294.069 27.7661 295.008 27.7184 295.995 27.6229C297.014 27.4955 297.953 27.2091 298.812 26.7634C299.671 26.286 300.388 25.6175 300.961 24.7581C301.534 23.8668 301.82 22.6572 301.82 21.1293Z" fill="#3D7E81"/>
<path d="M113.959 128.114C113.959 129.609 113.803 130.761 113.492 131.571C113.243 132.38 112.9 133.003 112.464 133.439C112.09 133.875 111.623 134.125 111.062 134.187C110.564 134.311 110.066 134.374 109.567 134.374C107.886 134.374 106.764 134 106.204 133.253C105.705 132.505 105.363 130.823 105.176 128.207C105.051 126.837 104.958 124.843 104.896 122.227C104.833 119.611 104.771 116.497 104.709 112.884C104.709 109.271 104.678 105.284 104.615 100.924C104.615 96.5638 104.615 91.9544 104.615 87.0958C104.615 84.791 104.896 82.4552 105.456 80.0882C106.017 77.7211 107.076 75.5721 108.633 73.6412C110.253 71.7102 112.464 70.1529 115.267 68.9694C118.132 67.7859 121.839 67.1942 126.386 67.1942C129.562 67.1942 132.584 67.5368 135.449 68.2219C138.314 68.9071 140.837 70.0906 143.017 71.7725C145.197 73.4543 146.941 75.6967 148.249 78.4998C149.558 81.3028 150.212 84.791 150.212 88.9645C150.212 93.3247 149.495 96.9376 148.063 99.8029C146.63 102.668 144.605 104.942 141.989 106.624C139.373 108.305 136.259 109.489 132.646 110.174C129.033 110.859 125.078 111.202 120.78 111.202C119.721 111.202 118.662 111.202 117.603 111.202C116.544 111.202 115.36 111.14 114.052 111.015L113.959 128.114ZM140.868 88.7776C140.868 84.6042 139.685 81.4585 137.318 79.3407C135.013 77.2228 131.151 76.1639 125.732 76.1639C123.676 76.1639 121.901 76.3508 120.406 76.7245C118.973 77.036 117.79 77.6277 116.855 78.4998C115.921 79.3095 115.205 80.4308 114.706 81.8634C114.27 83.2961 114.052 85.1025 114.052 87.2826C114.052 89.4005 114.052 91.8298 114.052 94.5705C114.052 97.249 114.083 99.7717 114.146 102.139C115.578 102.201 117.167 102.232 118.911 102.232C120.717 102.232 122.399 102.232 123.956 102.232C125.825 102.232 127.756 102.108 129.749 101.858C131.805 101.609 133.642 101.049 135.262 100.177C136.882 99.2423 138.221 97.903 139.28 96.1589C140.339 94.3525 140.868 91.8921 140.868 88.7776ZM159.121 128.207C158.997 125.965 158.903 123.629 158.841 121.199C158.841 118.77 158.81 116.154 158.748 113.351C158.685 110.548 158.654 107.527 158.654 104.288C158.654 100.986 158.654 97.3113 158.654 93.2625C158.654 88.8399 158.685 85.0713 158.748 81.9569C158.81 78.7801 158.997 76.195 159.308 74.2018C159.62 72.2085 160.087 70.7447 160.71 69.8103C161.395 68.876 162.298 68.4088 163.419 68.4088C163.98 68.4088 164.51 68.4711 165.008 68.5957C165.506 68.7203 165.942 69.0006 166.316 69.4366C166.69 69.8103 167.001 70.4021 167.25 71.2119C167.562 71.9593 167.749 72.956 167.811 74.2018C167.935 76.4442 168.029 78.4375 168.091 80.1816C168.153 81.9257 168.216 83.6698 168.278 85.4139C168.34 87.0958 168.371 88.871 168.371 90.7397C168.371 92.5461 168.371 94.6017 168.371 96.9064C168.371 99.7095 168.371 102.388 168.371 104.942C168.371 107.496 168.34 110.018 168.278 112.51C168.216 115.002 168.153 117.524 168.091 120.078C168.029 122.632 167.935 125.311 167.811 128.114C167.749 129.609 167.593 130.761 167.344 131.571C167.095 132.38 166.783 133.003 166.409 133.439C166.036 133.875 165.6 134.125 165.101 134.187C164.603 134.311 164.042 134.374 163.419 134.374C162.298 134.374 161.333 134 160.523 133.253C159.713 132.443 159.246 130.761 159.121 128.207ZM205.572 134.934C201.834 134.934 198.315 134.187 195.014 132.692C191.774 131.197 188.94 129.048 186.511 126.245C184.082 123.38 182.151 119.891 180.718 115.78C179.348 111.669 178.662 106.997 178.662 101.765C178.662 96.8441 179.254 92.3281 180.438 88.217C181.683 84.1059 183.49 80.5553 185.857 77.5654C188.286 74.5755 191.276 72.2708 194.827 70.6512C198.377 68.9694 202.488 68.1285 207.16 68.1285C210.96 68.1285 214.573 68.8137 217.998 70.1841C221.424 71.5545 224.414 73.61 226.968 76.3508C229.584 79.0915 231.64 82.5175 233.135 86.6286C234.63 90.7397 235.377 95.536 235.377 101.018C235.377 105.565 234.754 109.894 233.509 114.005C232.325 118.116 230.488 121.729 227.996 124.843C225.567 127.896 222.483 130.356 218.746 132.225C215.009 134.031 210.617 134.934 205.572 134.934ZM205.759 126.151C209.184 126.151 212.174 125.466 214.728 124.096C217.282 122.663 219.4 120.795 221.082 118.49C222.764 116.185 224.009 113.538 224.819 110.548C225.629 107.496 226.034 104.381 226.034 101.204C226.034 97.3424 225.504 93.9165 224.445 90.9266C223.449 87.8744 222.078 85.3205 220.334 83.2649C218.59 81.2094 216.566 79.6521 214.261 78.5932C211.956 77.472 209.496 76.9114 206.88 76.9114C203.765 76.9114 201.024 77.5654 198.657 78.8735C196.353 80.1816 194.391 81.9569 192.771 84.1993C191.214 86.4417 190.03 89.089 189.221 92.1412C188.411 95.1312 188.006 98.3391 188.006 101.765C188.006 105.44 188.473 108.804 189.407 111.856C190.342 114.846 191.588 117.4 193.145 119.518C194.764 121.635 196.664 123.286 198.844 124.47C201.024 125.591 203.329 126.151 205.759 126.151ZM254.02 107.932C254.02 109.925 254.02 111.7 254.02 113.257C254.02 114.752 253.989 116.185 253.926 117.555C253.926 118.926 253.895 120.296 253.833 121.667C253.771 123.037 253.708 124.563 253.646 126.245C257.944 125.747 261.308 125.342 263.737 125.03C266.166 124.719 268.066 124.47 269.436 124.283C270.869 124.096 271.959 123.971 272.707 123.909C273.516 123.847 274.451 123.816 275.51 123.816C278.25 123.816 279.621 125.155 279.621 127.833C279.621 128.892 279.06 129.795 277.939 130.543C276.88 131.29 275.51 131.944 273.828 132.505C272.208 133.003 270.371 133.439 268.315 133.813C266.322 134.125 264.36 134.343 262.429 134.467C260.56 134.654 258.847 134.779 257.29 134.841C255.795 134.903 254.736 134.934 254.113 134.934C251.871 134.934 250.127 134.779 248.881 134.467C247.635 134.218 246.701 133.408 246.078 132.038C245.455 130.605 245.05 128.456 244.863 125.591C244.739 122.726 244.676 118.677 244.676 113.444C244.676 108.399 244.676 103.914 244.676 99.9898C244.676 96.0655 244.707 92.5461 244.77 89.4316C244.832 86.3171 244.863 83.5452 244.863 81.1159C244.925 78.6866 245.019 76.4753 245.143 74.4821C245.268 71.9282 245.704 70.2775 246.452 69.53C247.199 68.7203 248.133 68.3154 249.255 68.3154C249.877 68.3154 250.407 68.3777 250.843 68.5023C251.341 68.5645 251.777 68.8137 252.151 69.2497C252.525 69.6858 252.805 70.3087 252.992 71.1184C253.241 71.9282 253.397 73.0806 253.459 74.5755C253.708 80.057 253.864 85.4762 253.926 90.8332C253.989 96.1901 254.02 101.89 254.02 107.932ZM307.492 134.934C303.755 134.934 300.235 134.187 296.934 132.692C293.695 131.197 290.861 129.048 288.431 126.245C286.002 123.38 284.071 119.891 282.638 115.78C281.268 111.669 280.583 106.997 280.583 101.765C280.583 96.8441 281.175 92.3281 282.358 88.217C283.604 84.1059 285.41 80.5553 287.777 77.5654C290.207 74.5755 293.197 72.2708 296.747 70.6512C300.298 68.9694 304.409 68.1285 309.081 68.1285C312.88 68.1285 316.493 68.8137 319.919 70.1841C323.345 71.5545 326.335 73.61 328.889 76.3508C331.505 79.0915 333.56 82.5175 335.055 86.6286C336.55 90.7397 337.298 95.536 337.298 101.018C337.298 105.565 336.675 109.894 335.429 114.005C334.246 118.116 332.408 121.729 329.916 124.843C327.487 127.896 324.404 130.356 320.666 132.225C316.929 134.031 312.538 134.934 307.492 134.934ZM307.679 126.151C311.105 126.151 314.095 125.466 316.649 124.096C319.203 122.663 321.32 120.795 323.002 118.49C324.684 116.185 325.93 113.538 326.74 110.548C327.549 107.496 327.954 104.381 327.954 101.204C327.954 97.3424 327.425 93.9165 326.366 90.9266C325.369 87.8744 323.999 85.3205 322.255 83.2649C320.511 81.2094 318.486 79.6521 316.182 78.5932C313.877 77.472 311.416 76.9114 308.8 76.9114C305.686 76.9114 302.945 77.5654 300.578 78.8735C298.273 80.1816 296.311 81.9569 294.692 84.1993C293.134 86.4417 291.951 89.089 291.141 92.1412C290.331 95.1312 289.926 98.3391 289.926 101.765C289.926 105.44 290.394 108.804 291.328 111.856C292.262 114.846 293.508 117.4 295.065 119.518C296.685 121.635 298.585 123.286 300.765 124.47C302.945 125.591 305.25 126.151 307.679 126.151Z" fill="#F39342"/>
<path d="M13.625 185.2V173.388H9V171.966H19.7344V173.388H15.125V185.2H13.625ZM21.3156 185.2V171.2H22.8156V176.763C23.1802 176.284 23.6229 175.877 24.1437 175.544C24.6646 175.211 25.3312 175.044 26.1437 175.044C26.8312 175.044 27.4771 175.205 28.0812 175.528C28.6958 175.851 29.1906 176.341 29.5656 176.997C29.951 177.643 30.1437 178.44 30.1437 179.388V185.2H28.6437V179.419C28.6437 178.513 28.3833 177.784 27.8625 177.231C27.3417 176.679 26.6646 176.403 25.8312 176.403C25.2792 176.403 24.7739 176.528 24.3156 176.778C23.8677 177.028 23.5031 177.388 23.2219 177.856C22.951 178.315 22.8156 178.841 22.8156 179.435V185.2H21.3156ZM32.5731 173.513V171.56H34.1981V173.513H32.5731ZM32.6356 185.2V175.2H34.1356V185.2H32.6356ZM40.3762 185.356C39.4596 185.356 38.6835 185.205 38.0481 184.903C37.4127 184.591 36.9283 184.185 36.595 183.685C36.2616 183.185 36.0741 182.643 36.0325 182.06H37.595C37.6366 182.393 37.7512 182.716 37.9387 183.028C38.1366 183.341 38.4335 183.596 38.8293 183.794C39.2356 183.981 39.7564 184.075 40.3918 184.075C40.6002 184.075 40.8502 184.06 41.1418 184.028C41.4335 183.987 41.7148 183.914 41.9856 183.81C42.2564 183.695 42.4856 183.534 42.6731 183.325C42.8606 183.106 42.9543 182.83 42.9543 182.497C42.9543 182.091 42.7929 181.773 42.47 181.544C42.1575 181.315 41.746 181.138 41.2356 181.013C40.7356 180.888 40.1991 180.768 39.6262 180.653C39.0637 180.528 38.5273 180.372 38.0168 180.185C37.5064 179.987 37.0898 179.711 36.7668 179.356C36.4543 179.002 36.2981 178.518 36.2981 177.903C36.2981 176.997 36.6262 176.294 37.2825 175.794C37.9491 175.294 38.9283 175.044 40.22 175.044C41.095 175.044 41.8085 175.179 42.3606 175.45C42.9231 175.721 43.345 176.07 43.6262 176.497C43.9179 176.924 44.0898 177.388 44.1418 177.888H42.6262C42.5637 177.461 42.3502 177.096 41.9856 176.794C41.621 176.481 41.0168 176.325 40.1731 176.325C38.5898 176.325 37.7981 176.804 37.7981 177.763C37.7981 178.159 37.9543 178.466 38.2668 178.685C38.5898 178.893 39.0064 179.065 39.5168 179.2C40.0273 179.325 40.5637 179.445 41.1262 179.56C41.6991 179.664 42.2356 179.82 42.7356 180.028C43.246 180.226 43.6575 180.507 43.97 180.872C44.2929 181.237 44.4543 181.731 44.4543 182.356C44.4543 183.336 44.0846 184.08 43.345 184.591C42.6054 185.101 41.6158 185.356 40.3762 185.356ZM54.2762 185.356C53.3595 185.356 52.5835 185.205 51.9481 184.903C51.3126 184.591 50.8283 184.185 50.4949 183.685C50.1616 183.185 49.9741 182.643 49.9324 182.06H51.4949C51.5366 182.393 51.6512 182.716 51.8387 183.028C52.0366 183.341 52.3335 183.596 52.7293 183.794C53.1356 183.981 53.6564 184.075 54.2918 184.075C54.5001 184.075 54.7501 184.06 55.0418 184.028C55.3335 183.987 55.6147 183.914 55.8856 183.81C56.1564 183.695 56.3856 183.534 56.5731 183.325C56.7606 183.106 56.8543 182.83 56.8543 182.497C56.8543 182.091 56.6929 181.773 56.3699 181.544C56.0574 181.315 55.646 181.138 55.1356 181.013C54.6356 180.888 54.0991 180.768 53.5262 180.653C52.9637 180.528 52.4272 180.372 51.9168 180.185C51.4064 179.987 50.9897 179.711 50.6668 179.356C50.3543 179.002 50.1981 178.518 50.1981 177.903C50.1981 176.997 50.5262 176.294 51.1824 175.794C51.8491 175.294 52.8283 175.044 54.1199 175.044C54.9949 175.044 55.7085 175.179 56.2606 175.45C56.8231 175.721 57.2449 176.07 57.5262 176.497C57.8179 176.924 57.9897 177.388 58.0418 177.888H56.5262C56.4637 177.461 56.2501 177.096 55.8856 176.794C55.521 176.481 54.9168 176.325 54.0731 176.325C52.4897 176.325 51.6981 176.804 51.6981 177.763C51.6981 178.159 51.8543 178.466 52.1668 178.685C52.4897 178.893 52.9064 179.065 53.4168 179.2C53.9272 179.325 54.4637 179.445 55.0262 179.56C55.5991 179.664 56.1356 179.82 56.6356 180.028C57.146 180.226 57.5574 180.507 57.8699 180.872C58.1929 181.237 58.3543 181.731 58.3543 182.356C58.3543 183.336 57.9845 184.08 57.2449 184.591C56.5054 185.101 55.5158 185.356 54.2762 185.356ZM64.6193 185.356C63.6089 185.356 62.7287 185.127 61.9787 184.669C61.2287 184.211 60.6558 183.591 60.2599 182.81C59.8641 182.018 59.6662 181.148 59.6662 180.2C59.6662 179.242 59.8641 178.372 60.2599 177.591C60.6558 176.81 61.2287 176.19 61.9787 175.731C62.7287 175.273 63.6089 175.044 64.6193 175.044C65.6505 175.044 66.536 175.273 67.2755 175.731C68.0151 176.19 68.5828 176.81 68.9787 177.591C69.3745 178.372 69.5724 179.242 69.5724 180.2C69.5724 181.148 69.3745 182.018 68.9787 182.81C68.5828 183.591 68.0151 184.211 67.2755 184.669C66.536 185.127 65.6505 185.356 64.6193 185.356ZM64.6193 183.997C65.3693 183.997 65.9995 183.825 66.5099 183.481C67.0203 183.138 67.4058 182.674 67.6662 182.091C67.937 181.507 68.0724 180.877 68.0724 180.2C68.0724 179.502 67.937 178.867 67.6662 178.294C67.4058 177.721 67.0203 177.263 66.5099 176.919C65.9995 176.575 65.3693 176.403 64.6193 176.403C63.8901 176.403 63.2651 176.575 62.7443 176.919C62.2235 177.263 61.8276 177.721 61.5568 178.294C61.2964 178.867 61.1662 179.502 61.1662 180.2C61.1662 180.877 61.2964 181.507 61.5568 182.091C61.8276 182.674 62.2235 183.138 62.7443 183.481C63.2651 183.825 63.8901 183.997 64.6193 183.997ZM72.243 185.2V176.513H70.5243V175.2H72.243V174.325C72.243 173.231 72.5712 172.414 73.2274 171.872C73.8837 171.32 74.7899 171.044 75.9462 171.044H76.0555V172.466H75.8524C75.1649 172.466 74.6389 172.622 74.2743 172.935C73.9201 173.247 73.743 173.747 73.743 174.435V175.2H76.0555V176.513H73.743V185.2H72.243ZM78.7737 185.2V176.513H76.7424V175.2H78.7737V171.622H80.2737V175.2H82.5862V176.513H80.2737V185.2H78.7737ZM92.6943 185.356C91.7255 185.356 90.8766 185.127 90.1474 184.669C89.4182 184.211 88.8557 183.591 88.4599 182.81C88.0641 182.018 87.8661 181.148 87.8661 180.2C87.8661 179.242 88.0641 178.372 88.4599 177.591C88.8557 176.81 89.4182 176.19 90.1474 175.731C90.8766 175.273 91.7255 175.044 92.6943 175.044C93.5276 175.044 94.2411 175.205 94.8349 175.528C95.4286 175.841 95.9078 176.273 96.2724 176.825V171.2H97.7724V185.2H96.2724V183.606C95.9078 184.138 95.4286 184.565 94.8349 184.888C94.2411 185.2 93.5276 185.356 92.6943 185.356ZM92.8974 183.997C93.6474 183.997 94.2776 183.825 94.788 183.481C95.2984 183.138 95.6891 182.674 95.9599 182.091C96.2307 181.507 96.3661 180.877 96.3661 180.2C96.3661 179.502 96.2307 178.867 95.9599 178.294C95.6891 177.721 95.2984 177.263 94.788 176.919C94.2776 176.575 93.6474 176.403 92.8974 176.403C92.1682 176.403 91.5328 176.575 90.9911 176.919C90.4599 177.263 90.0536 177.721 89.7724 178.294C89.5016 178.867 89.3661 179.502 89.3661 180.2C89.3661 180.877 89.5016 181.507 89.7724 182.091C90.0536 182.674 90.4599 183.138 90.9911 183.481C91.5328 183.825 92.1682 183.997 92.8974 183.997ZM100.376 185.2V175.2H101.876V177.653C101.928 177.487 102.032 177.263 102.188 176.981C102.344 176.69 102.568 176.398 102.86 176.106C103.152 175.804 103.521 175.554 103.969 175.356C104.417 175.148 104.948 175.044 105.563 175.044H105.657V176.544H105.485C104.735 176.544 104.089 176.747 103.547 177.153C103.006 177.56 102.589 178.086 102.297 178.731C102.016 179.377 101.876 180.065 101.876 180.794V185.2H100.376ZM107.213 173.513V171.56H108.838V173.513H107.213ZM107.276 185.2V175.2H108.776V185.2H107.276ZM111.375 185.2V175.2H112.875V176.763C113.24 176.284 113.683 175.877 114.204 175.544C114.724 175.211 115.391 175.044 116.204 175.044C116.891 175.044 117.537 175.205 118.141 175.528C118.756 175.851 119.25 176.341 119.625 176.997C120.011 177.643 120.204 178.44 120.204 179.388V185.2H118.704V179.419C118.704 178.513 118.443 177.784 117.922 177.231C117.402 176.679 116.724 176.403 115.891 176.403C115.339 176.403 114.834 176.528 114.375 176.778C113.928 177.028 113.563 177.388 113.282 177.856C113.011 178.315 112.875 178.841 112.875 179.435V185.2H111.375ZM122.695 185.2V171.2H124.195V180.153L129.024 175.2H131.117L127.102 179.138L131.414 185.2H129.586L126.086 180.185L124.195 182.044V185.2H122.695ZM135.761 185.2L141.386 171.966H143.261L148.886 185.2H147.214L145.605 181.356H139.042L137.417 185.2H135.761ZM139.62 179.981H145.011L142.324 173.513L139.62 179.981ZM154.454 185.356C153.485 185.356 152.637 185.127 151.907 184.669C151.178 184.211 150.616 183.591 150.22 182.81C149.824 182.018 149.626 181.148 149.626 180.2C149.626 179.242 149.824 178.372 150.22 177.591C150.616 176.81 151.178 176.19 151.907 175.731C152.637 175.273 153.485 175.044 154.454 175.044C155.288 175.044 156.001 175.205 156.595 175.528C157.189 175.841 157.668 176.273 158.032 176.825V171.2H159.532V185.2H158.032V183.606C157.668 184.138 157.189 184.565 156.595 184.888C156.001 185.2 155.288 185.356 154.454 185.356ZM154.657 183.997C155.407 183.997 156.038 183.825 156.548 183.481C157.058 183.138 157.449 182.674 157.72 182.091C157.991 181.507 158.126 180.877 158.126 180.2C158.126 179.502 157.991 178.867 157.72 178.294C157.449 177.721 157.058 177.263 156.548 176.919C156.038 176.575 155.407 176.403 154.657 176.403C153.928 176.403 153.293 176.575 152.751 176.919C152.22 177.263 151.814 177.721 151.532 178.294C151.262 178.867 151.126 179.502 151.126 180.2C151.126 180.877 151.262 181.507 151.532 182.091C151.814 182.674 152.22 183.138 152.751 183.481C153.293 183.825 153.928 183.997 154.657 183.997ZM171.474 185.356C170.651 185.356 169.942 185.2 169.349 184.888C168.755 184.565 168.27 184.138 167.895 183.606V185.2H166.395V171.2H167.895V176.825C168.27 176.273 168.755 175.841 169.349 175.528C169.942 175.205 170.651 175.044 171.474 175.044C172.453 175.044 173.302 175.273 174.02 175.731C174.75 176.19 175.312 176.81 175.708 177.591C176.114 178.372 176.317 179.242 176.317 180.2C176.317 181.148 176.114 182.018 175.708 182.81C175.312 183.591 174.75 184.211 174.02 184.669C173.302 185.127 172.453 185.356 171.474 185.356ZM171.286 183.997C172.026 183.997 172.656 183.825 173.177 183.481C173.708 183.138 174.114 182.674 174.395 182.091C174.677 181.507 174.817 180.877 174.817 180.2C174.817 179.502 174.677 178.867 174.395 178.294C174.114 177.721 173.708 177.263 173.177 176.919C172.656 176.575 172.026 176.403 171.286 176.403C170.546 176.403 169.916 176.575 169.395 176.919C168.875 177.263 168.479 177.721 168.208 178.294C167.948 178.867 167.817 179.502 167.817 180.2C167.817 180.877 167.948 181.507 168.208 182.091C168.479 182.674 168.875 183.138 169.395 183.481C169.916 183.825 170.546 183.997 171.286 183.997ZM182.733 185.356C181.723 185.356 180.837 185.127 180.077 184.669C179.316 184.211 178.728 183.591 178.311 182.81C177.894 182.018 177.686 181.148 177.686 180.2C177.686 179.242 177.884 178.372 178.28 177.591C178.676 176.81 179.249 176.19 179.999 175.731C180.749 175.273 181.629 175.044 182.639 175.044C183.67 175.044 184.556 175.273 185.295 175.731C186.035 176.19 186.603 176.81 186.999 177.591C187.394 178.372 187.592 179.242 187.592 180.2V180.794H179.217C179.301 181.388 179.488 181.929 179.78 182.419C180.082 182.898 180.488 183.284 180.999 183.575C181.509 183.856 182.098 183.997 182.764 183.997C183.462 183.997 184.051 183.841 184.53 183.528C185.019 183.216 185.394 182.815 185.655 182.325H187.295C186.952 183.211 186.4 183.94 185.639 184.513C184.889 185.075 183.92 185.356 182.733 185.356ZM179.233 179.403H186.045C185.91 178.549 185.545 177.836 184.952 177.263C184.368 176.69 183.598 176.403 182.639 176.403C181.681 176.403 180.91 176.69 180.327 177.263C179.743 177.836 179.379 178.549 179.233 179.403ZM193.732 185.356C192.732 185.356 191.868 185.127 191.139 184.669C190.409 184.211 189.842 183.591 189.435 182.81C189.029 182.018 188.826 181.148 188.826 180.2C188.826 179.242 189.029 178.372 189.435 177.591C189.842 176.81 190.409 176.19 191.139 175.731C191.868 175.273 192.732 175.044 193.732 175.044C194.92 175.044 195.93 175.351 196.764 175.966C197.597 176.58 198.159 177.372 198.451 178.341H196.842C196.613 177.768 196.248 177.304 195.748 176.95C195.248 176.586 194.644 176.403 193.935 176.403C193.206 176.403 192.566 176.575 192.014 176.919C191.472 177.263 191.055 177.721 190.764 178.294C190.472 178.867 190.326 179.502 190.326 180.2C190.326 180.877 190.472 181.507 190.764 182.091C191.055 182.674 191.472 183.138 192.014 183.481C192.566 183.825 193.206 183.997 193.935 183.997C194.644 183.997 195.248 183.82 195.748 183.466C196.248 183.101 196.613 182.632 196.842 182.06H198.451C198.159 183.028 197.597 183.82 196.764 184.435C195.93 185.049 194.92 185.356 193.732 185.356ZM204.534 185.356C203.565 185.356 202.716 185.127 201.987 184.669C201.258 184.211 200.696 183.591 200.3 182.81C199.904 182.018 199.706 181.148 199.706 180.2C199.706 179.242 199.904 178.372 200.3 177.591C200.696 176.81 201.258 176.19 201.987 175.731C202.716 175.273 203.565 175.044 204.534 175.044C205.368 175.044 206.081 175.205 206.675 175.528C207.269 175.841 207.748 176.273 208.112 176.825V175.2H209.612V185.2H208.112V183.606C207.748 184.138 207.269 184.565 206.675 184.888C206.081 185.2 205.368 185.356 204.534 185.356ZM204.737 183.997C205.487 183.997 206.118 183.825 206.628 183.481C207.138 183.138 207.529 182.674 207.8 182.091C208.071 181.507 208.206 180.877 208.206 180.2C208.206 179.502 208.071 178.867 207.8 178.294C207.529 177.721 207.138 177.263 206.628 176.919C206.118 176.575 205.487 176.403 204.737 176.403C204.008 176.403 203.373 176.575 202.831 176.919C202.3 177.263 201.894 177.721 201.612 178.294C201.341 178.867 201.206 179.502 201.206 180.2C201.206 180.877 201.341 181.507 201.612 182.091C201.894 182.674 202.3 183.138 202.831 183.481C203.373 183.825 204.008 183.997 204.737 183.997ZM212.215 185.2V175.2H213.715V176.716C213.945 176.32 214.304 175.945 214.794 175.591C215.294 175.226 215.95 175.044 216.762 175.044C217.429 175.044 218.044 175.221 218.606 175.575C219.179 175.929 219.622 176.424 219.934 177.06C220.07 176.83 220.278 176.56 220.559 176.247C220.851 175.924 221.231 175.643 221.7 175.403C222.169 175.164 222.726 175.044 223.372 175.044C224.018 175.044 224.616 175.211 225.169 175.544C225.731 175.877 226.189 176.356 226.544 176.981C226.898 177.596 227.075 178.32 227.075 179.153V185.2H225.575V179.2C225.575 178.356 225.335 177.679 224.856 177.169C224.387 176.659 223.804 176.403 223.106 176.403C222.366 176.403 221.731 176.653 221.2 177.153C220.669 177.643 220.403 178.33 220.403 179.216V185.2H218.903V179.2C218.903 178.356 218.663 177.679 218.184 177.169C217.715 176.659 217.127 176.403 216.419 176.403C215.689 176.403 215.054 176.653 214.512 177.153C213.981 177.643 213.715 178.33 213.715 179.216V185.2H212.215ZM234.013 185.356C233.002 185.356 232.117 185.127 231.357 184.669C230.596 184.211 230.008 183.591 229.591 182.81C229.174 182.018 228.966 181.148 228.966 180.2C228.966 179.242 229.164 178.372 229.56 177.591C229.956 176.81 230.529 176.19 231.279 175.731C232.029 175.273 232.909 175.044 233.919 175.044C234.95 175.044 235.836 175.273 236.575 175.731C237.315 176.19 237.883 176.81 238.279 177.591C238.674 178.372 238.872 179.242 238.872 180.2V180.794H230.497C230.581 181.388 230.768 181.929 231.06 182.419C231.362 182.898 231.768 183.284 232.279 183.575C232.789 183.856 233.377 183.997 234.044 183.997C234.742 183.997 235.331 183.841 235.81 183.528C236.299 183.216 236.674 182.815 236.935 182.325H238.575C238.232 183.211 237.68 183.94 236.919 184.513C236.169 185.075 235.2 185.356 234.013 185.356ZM230.513 179.403H237.325C237.19 178.549 236.825 177.836 236.232 177.263C235.648 176.69 234.877 176.403 233.919 176.403C232.961 176.403 232.19 176.69 231.607 177.263C231.023 177.836 230.659 178.549 230.513 179.403ZM248.616 185.356C247.699 185.356 246.923 185.205 246.288 184.903C245.652 184.591 245.168 184.185 244.835 183.685C244.501 183.185 244.314 182.643 244.272 182.06H245.835C245.876 182.393 245.991 182.716 246.178 183.028C246.376 183.341 246.673 183.596 247.069 183.794C247.475 183.981 247.996 184.075 248.632 184.075C248.84 184.075 249.09 184.06 249.382 184.028C249.673 183.987 249.955 183.914 250.225 183.81C250.496 183.695 250.725 183.534 250.913 183.325C251.1 183.106 251.194 182.83 251.194 182.497C251.194 182.091 251.033 181.773 250.71 181.544C250.397 181.315 249.986 181.138 249.475 181.013C248.975 180.888 248.439 180.768 247.866 180.653C247.303 180.528 246.767 180.372 246.257 180.185C245.746 179.987 245.33 179.711 245.007 179.356C244.694 179.002 244.538 178.518 244.538 177.903C244.538 176.997 244.866 176.294 245.522 175.794C246.189 175.294 247.168 175.044 248.46 175.044C249.335 175.044 250.048 175.179 250.6 175.45C251.163 175.721 251.585 176.07 251.866 176.497C252.158 176.924 252.33 177.388 252.382 177.888H250.866C250.803 177.461 250.59 177.096 250.225 176.794C249.861 176.481 249.257 176.325 248.413 176.325C246.83 176.325 246.038 176.804 246.038 177.763C246.038 178.159 246.194 178.466 246.507 178.685C246.83 178.893 247.246 179.065 247.757 179.2C248.267 179.325 248.803 179.445 249.366 179.56C249.939 179.664 250.475 179.82 250.975 180.028C251.486 180.226 251.897 180.507 252.21 180.872C252.533 181.237 252.694 181.731 252.694 182.356C252.694 183.336 252.324 184.08 251.585 184.591C250.845 185.101 249.856 185.356 248.616 185.356V185.356ZM258.959 185.356C257.949 185.356 257.068 185.127 256.318 184.669C255.568 184.211 254.996 183.591 254.6 182.81C254.204 182.018 254.006 181.148 254.006 180.2C254.006 179.242 254.204 178.372 254.6 177.591C254.996 176.81 255.568 176.19 256.318 175.731C257.068 175.273 257.949 175.044 258.959 175.044C259.99 175.044 260.876 175.273 261.615 175.731C262.355 176.19 262.923 176.81 263.318 177.591C263.714 178.372 263.912 179.242 263.912 180.2C263.912 181.148 263.714 182.018 263.318 182.81C262.923 183.591 262.355 184.211 261.615 184.669C260.876 185.127 259.99 185.356 258.959 185.356ZM258.959 183.997C259.709 183.997 260.339 183.825 260.85 183.481C261.36 183.138 261.746 182.674 262.006 182.091C262.277 181.507 262.412 180.877 262.412 180.2C262.412 179.502 262.277 178.867 262.006 178.294C261.746 177.721 261.36 177.263 260.85 176.919C260.339 176.575 259.709 176.403 258.959 176.403C258.23 176.403 257.605 176.575 257.084 176.919C256.563 177.263 256.167 177.721 255.897 178.294C255.636 178.867 255.506 179.502 255.506 180.2C255.506 180.877 255.636 181.507 255.897 182.091C256.167 182.674 256.563 183.138 257.084 183.481C257.605 183.825 258.23 183.997 258.959 183.997ZM270.755 189.153V175.2H272.255V176.794C272.63 176.252 273.115 175.825 273.708 175.513C274.302 175.2 275.011 175.044 275.833 175.044C276.813 175.044 277.662 175.273 278.38 175.731C279.11 176.19 279.672 176.81 280.068 177.591C280.474 178.372 280.677 179.242 280.677 180.2C280.677 181.148 280.474 182.018 280.068 182.81C279.672 183.591 279.11 184.211 278.38 184.669C277.662 185.127 276.813 185.356 275.833 185.356C275.011 185.356 274.302 185.195 273.708 184.872C273.115 184.549 272.63 184.117 272.255 183.575V189.153H270.755ZM275.646 183.997C276.386 183.997 277.016 183.825 277.537 183.481C278.068 183.138 278.474 182.674 278.755 182.091C279.037 181.507 279.177 180.877 279.177 180.2C279.177 179.502 279.037 178.867 278.755 178.294C278.474 177.721 278.068 177.263 277.537 176.919C277.016 176.575 276.386 176.403 275.646 176.403C274.906 176.403 274.276 176.575 273.755 176.919C273.235 177.263 272.839 177.721 272.568 178.294C272.307 178.867 272.177 179.502 272.177 180.2C272.177 180.877 272.307 181.507 272.568 182.091C272.839 182.674 273.235 183.138 273.755 183.481C274.276 183.825 274.906 183.997 275.646 183.997ZM286.999 185.356C285.989 185.356 285.108 185.127 284.358 184.669C283.608 184.211 283.036 183.591 282.64 182.81C282.244 182.018 282.046 181.148 282.046 180.2C282.046 179.242 282.244 178.372 282.64 177.591C283.036 176.81 283.608 176.19 284.358 175.731C285.108 175.273 285.989 175.044 286.999 175.044C288.03 175.044 288.916 175.273 289.655 175.731C290.395 176.19 290.963 176.81 291.358 177.591C291.754 178.372 291.952 179.242 291.952 180.2C291.952 181.148 291.754 182.018 291.358 182.81C290.963 183.591 290.395 184.211 289.655 184.669C288.916 185.127 288.03 185.356 286.999 185.356ZM286.999 183.997C287.749 183.997 288.379 183.825 288.89 183.481C289.4 183.138 289.786 182.674 290.046 182.091C290.317 181.507 290.452 180.877 290.452 180.2C290.452 179.502 290.317 178.867 290.046 178.294C289.786 177.721 289.4 177.263 288.89 176.919C288.379 176.575 287.749 176.403 286.999 176.403C286.27 176.403 285.645 176.575 285.124 176.919C284.603 177.263 284.207 177.721 283.937 178.294C283.676 178.867 283.546 179.502 283.546 180.2C283.546 180.877 283.676 181.507 283.937 182.091C284.207 182.674 284.603 183.138 285.124 183.481C285.645 183.825 286.27 183.997 286.999 183.997ZM293.935 189.153V175.2H295.435V176.794C295.81 176.252 296.295 175.825 296.888 175.513C297.482 175.2 298.191 175.044 299.013 175.044C299.993 175.044 300.842 175.273 301.56 175.731C302.289 176.19 302.852 176.81 303.248 177.591C303.654 178.372 303.857 179.242 303.857 180.2C303.857 181.148 303.654 182.018 303.248 182.81C302.852 183.591 302.289 184.211 301.56 184.669C300.842 185.127 299.993 185.356 299.013 185.356C298.191 185.356 297.482 185.195 296.888 184.872C296.295 184.549 295.81 184.117 295.435 183.575V189.153H293.935ZM298.826 183.997C299.566 183.997 300.196 183.825 300.717 183.481C301.248 183.138 301.654 182.674 301.935 182.091C302.217 181.507 302.357 180.877 302.357 180.2C302.357 179.502 302.217 178.867 301.935 178.294C301.654 177.721 301.248 177.263 300.717 176.919C300.196 176.575 299.566 176.403 298.826 176.403C298.086 176.403 297.456 176.575 296.935 176.919C296.414 177.263 296.019 177.721 295.748 178.294C295.487 178.867 295.357 179.502 295.357 180.2C295.357 180.877 295.487 181.507 295.748 182.091C296.019 182.674 296.414 183.138 296.935 183.481C297.456 183.825 298.086 183.997 298.826 183.997ZM309.742 185.356C309.065 185.356 308.419 185.195 307.804 184.872C307.19 184.549 306.69 184.065 306.304 183.419C305.929 182.763 305.742 181.961 305.742 181.013V175.2H307.242V180.981C307.242 181.888 307.502 182.617 308.023 183.169C308.554 183.721 309.226 183.997 310.038 183.997C310.601 183.997 311.106 183.867 311.554 183.606C312.012 183.346 312.377 182.992 312.648 182.544C312.919 182.086 313.054 181.56 313.054 180.966V175.2H314.554V185.2H313.054V183.638C312.7 184.117 312.262 184.523 311.742 184.856C311.221 185.19 310.554 185.356 309.742 185.356ZM317.155 185.2V171.2H318.655V185.2H317.155ZM325.474 185.356C324.505 185.356 323.656 185.127 322.927 184.669C322.198 184.211 321.635 183.591 321.24 182.81C320.844 182.018 320.646 181.148 320.646 180.2C320.646 179.242 320.844 178.372 321.24 177.591C321.635 176.81 322.198 176.19 322.927 175.731C323.656 175.273 324.505 175.044 325.474 175.044C326.307 175.044 327.021 175.205 327.615 175.528C328.208 175.841 328.688 176.273 329.052 176.825V175.2H330.552V185.2H329.052V183.606C328.688 184.138 328.208 184.565 327.615 184.888C327.021 185.2 326.307 185.356 325.474 185.356ZM325.677 183.997C326.427 183.997 327.057 183.825 327.568 183.481C328.078 183.138 328.469 182.674 328.74 182.091C329.01 181.507 329.146 180.877 329.146 180.2C329.146 179.502 329.01 178.867 328.74 178.294C328.469 177.721 328.078 177.263 327.568 176.919C327.057 176.575 326.427 176.403 325.677 176.403C324.948 176.403 324.313 176.575 323.771 176.919C323.24 177.263 322.833 177.721 322.552 178.294C322.281 178.867 322.146 179.502 322.146 180.2C322.146 180.877 322.281 181.507 322.552 182.091C322.833 182.674 323.24 183.138 323.771 183.481C324.313 183.825 324.948 183.997 325.677 183.997ZM333.155 185.2V175.2H334.655V177.653C334.707 177.487 334.812 177.263 334.968 176.981C335.124 176.69 335.348 176.398 335.64 176.106C335.931 175.804 336.301 175.554 336.749 175.356C337.197 175.148 337.728 175.044 338.343 175.044H338.437V176.544H338.265C337.515 176.544 336.869 176.747 336.327 177.153C335.786 177.56 335.369 178.086 335.077 178.731C334.796 179.377 334.655 180.065 334.655 180.794V185.2H333.155ZM348.753 185.356C347.742 185.356 346.857 185.127 346.097 184.669C345.336 184.211 344.748 183.591 344.331 182.81C343.914 182.018 343.706 181.148 343.706 180.2C343.706 179.242 343.904 178.372 344.3 177.591C344.695 176.81 345.268 176.19 346.018 175.731C346.768 175.273 347.649 175.044 348.659 175.044C349.69 175.044 350.576 175.273 351.315 175.731C352.055 176.19 352.623 176.81 353.018 177.591C353.414 178.372 353.612 179.242 353.612 180.2V180.794H345.237C345.32 181.388 345.508 181.929 345.8 182.419C346.102 182.898 346.508 183.284 347.018 183.575C347.529 183.856 348.117 183.997 348.784 183.997C349.482 183.997 350.07 183.841 350.55 183.528C351.039 183.216 351.414 182.815 351.675 182.325H353.315C352.972 183.211 352.419 183.94 351.659 184.513C350.909 185.075 349.94 185.356 348.753 185.356ZM345.253 179.403H352.065C351.93 178.549 351.565 177.836 350.972 177.263C350.388 176.69 349.617 176.403 348.659 176.403C347.701 176.403 346.93 176.69 346.347 177.263C345.763 177.836 345.399 178.549 345.253 179.403ZM359.096 185.356C358.179 185.356 357.403 185.205 356.768 184.903C356.132 184.591 355.648 184.185 355.315 183.685C354.981 183.185 354.794 182.643 354.752 182.06H356.315C356.356 182.393 356.471 182.716 356.658 183.028C356.856 183.341 357.153 183.596 357.549 183.794C357.955 183.981 358.476 184.075 359.112 184.075C359.32 184.075 359.57 184.06 359.862 184.028C360.153 183.987 360.434 183.914 360.705 183.81C360.976 183.695 361.205 183.534 361.393 183.325C361.58 183.106 361.674 182.83 361.674 182.497C361.674 182.091 361.513 181.773 361.19 181.544C360.877 181.315 360.466 181.138 359.955 181.013C359.455 180.888 358.919 180.768 358.346 180.653C357.783 180.528 357.247 180.372 356.737 180.185C356.226 179.987 355.809 179.711 355.487 179.356C355.174 179.002 355.018 178.518 355.018 177.903C355.018 176.997 355.346 176.294 356.002 175.794C356.669 175.294 357.648 175.044 358.94 175.044C359.815 175.044 360.528 175.179 361.08 175.45C361.643 175.721 362.065 176.07 362.346 176.497C362.638 176.924 362.809 177.388 362.862 177.888H361.346C361.283 177.461 361.07 177.096 360.705 176.794C360.341 176.481 359.737 176.325 358.893 176.325C357.309 176.325 356.518 176.804 356.518 177.763C356.518 178.159 356.674 178.466 356.987 178.685C357.309 178.893 357.726 179.065 358.237 179.2C358.747 179.325 359.283 179.445 359.846 179.56C360.419 179.664 360.955 179.82 361.455 180.028C361.966 180.226 362.377 180.507 362.69 180.872C363.013 181.237 363.174 181.731 363.174 182.356C363.174 183.336 362.804 184.08 362.065 184.591C361.325 185.101 360.336 185.356 359.096 185.356ZM365.095 189.153V175.2H366.595V176.794C366.97 176.252 367.455 175.825 368.048 175.513C368.642 175.2 369.35 175.044 370.173 175.044C371.153 175.044 372.001 175.273 372.72 175.731C373.449 176.19 374.012 176.81 374.408 177.591C374.814 178.372 375.017 179.242 375.017 180.2C375.017 181.148 374.814 182.018 374.408 182.81C374.012 183.591 373.449 184.211 372.72 184.669C372.001 185.127 371.153 185.356 370.173 185.356C369.35 185.356 368.642 185.195 368.048 184.872C367.455 184.549 366.97 184.117 366.595 183.575V189.153H365.095ZM369.986 183.997C370.725 183.997 371.356 183.825 371.876 183.481C372.408 183.138 372.814 182.674 373.095 182.091C373.376 181.507 373.517 180.877 373.517 180.2C373.517 179.502 373.376 178.867 373.095 178.294C372.814 177.721 372.408 177.263 371.876 176.919C371.356 176.575 370.725 176.403 369.986 176.403C369.246 176.403 368.616 176.575 368.095 176.919C367.574 177.263 367.179 177.721 366.908 178.294C366.647 178.867 366.517 179.502 366.517 180.2C366.517 180.877 366.647 181.507 366.908 182.091C367.179 182.674 367.574 183.138 368.095 183.481C368.616 183.825 369.246 183.997 369.986 183.997ZM381.433 185.356C380.422 185.356 379.537 185.127 378.777 184.669C378.016 184.211 377.428 183.591 377.011 182.81C376.594 182.018 376.386 181.148 376.386 180.2C376.386 179.242 376.584 178.372 376.98 177.591C377.375 176.81 377.948 176.19 378.698 175.731C379.448 175.273 380.329 175.044 381.339 175.044C382.37 175.044 383.256 175.273 383.995 175.731C384.735 176.19 385.303 176.81 385.698 177.591C386.094 178.372 386.292 179.242 386.292 180.2V180.794H377.917C378 181.388 378.188 181.929 378.48 182.419C378.782 182.898 379.188 183.284 379.698 183.575C380.209 183.856 380.797 183.997 381.464 183.997C382.162 183.997 382.75 183.841 383.23 183.528C383.719 183.216 384.094 182.815 384.355 182.325H385.995C385.652 183.211 385.099 183.94 384.339 184.513C383.589 185.075 382.62 185.356 381.433 185.356ZM377.933 179.403H384.745C384.61 178.549 384.245 177.836 383.652 177.263C383.068 176.69 382.297 176.403 381.339 176.403C380.381 176.403 379.61 176.69 379.027 177.263C378.443 177.836 378.079 178.549 377.933 179.403ZM392.432 185.356C391.432 185.356 390.568 185.127 389.838 184.669C389.109 184.211 388.541 183.591 388.135 182.81C387.729 182.018 387.526 181.148 387.526 180.2C387.526 179.242 387.729 178.372 388.135 177.591C388.541 176.81 389.109 176.19 389.838 175.731C390.568 175.273 391.432 175.044 392.432 175.044C393.62 175.044 394.63 175.351 395.463 175.966C396.297 176.58 396.859 177.372 397.151 178.341H395.541C395.312 177.768 394.948 177.304 394.448 176.95C393.948 176.586 393.344 176.403 392.635 176.403C391.906 176.403 391.265 176.575 390.713 176.919C390.172 177.263 389.755 177.721 389.463 178.294C389.172 178.867 389.026 179.502 389.026 180.2C389.026 180.877 389.172 181.507 389.463 182.091C389.755 182.674 390.172 183.138 390.713 183.481C391.265 183.825 391.906 183.997 392.635 183.997C393.344 183.997 393.948 183.82 394.448 183.466C394.948 183.101 395.312 182.632 395.541 182.06H397.151C396.859 183.028 396.297 183.82 395.463 184.435C394.63 185.049 393.62 185.356 392.432 185.356ZM398.953 173.513V171.56H400.578V173.513H398.953ZM399.015 185.2V175.2H400.515V185.2H399.015ZM407.334 185.356C406.365 185.356 405.516 185.127 404.787 184.669C404.058 184.211 403.495 183.591 403.1 182.81C402.704 182.018 402.506 181.148 402.506 180.2C402.506 179.242 402.704 178.372 403.1 177.591C403.495 176.81 404.058 176.19 404.787 175.731C405.516 175.273 406.365 175.044 407.334 175.044C408.167 175.044 408.881 175.205 409.475 175.528C410.068 175.841 410.547 176.273 410.912 176.825V175.2H412.412V185.2H410.912V183.606C410.547 184.138 410.068 184.565 409.475 184.888C408.881 185.2 408.167 185.356 407.334 185.356ZM407.537 183.997C408.287 183.997 408.917 183.825 409.428 183.481C409.938 183.138 410.329 182.674 410.6 182.091C410.87 181.507 411.006 180.877 411.006 180.2C411.006 179.502 410.87 178.867 410.6 178.294C410.329 177.721 409.938 177.263 409.428 176.919C408.917 176.575 408.287 176.403 407.537 176.403C406.808 176.403 406.172 176.575 405.631 176.919C405.1 177.263 404.693 177.721 404.412 178.294C404.141 178.867 404.006 179.502 404.006 180.2C404.006 180.877 404.141 181.507 404.412 182.091C404.693 182.674 405.1 183.138 405.631 183.481C406.172 183.825 406.808 183.997 407.537 183.997ZM415.015 185.2V171.2H416.515V185.2H415.015ZM419.115 185.2V171.2H420.615V185.2H419.115ZM424.262 189.153L426.075 185.06L421.996 175.2H423.653L426.871 183.403L430.153 175.2H431.793L425.871 189.153H424.262Z" fill="black"/>
<path d="M125.141 209.2L122 199.2H123.609L126 207.341L128.547 199.2H130.188L132.719 207.341L135.125 199.2H136.719L133.594 209.2H131.859L129.359 201.216L126.859 209.2H125.141ZM138.123 209.2V195.2H139.623V200.763C139.988 200.284 140.43 199.877 140.951 199.544C141.472 199.211 142.139 199.044 142.951 199.044C143.639 199.044 144.285 199.205 144.889 199.528C145.503 199.851 145.998 200.341 146.373 200.997C146.759 201.643 146.951 202.44 146.951 203.388V209.2H145.451V203.419C145.451 202.513 145.191 201.784 144.67 201.231C144.149 200.679 143.472 200.403 142.639 200.403C142.087 200.403 141.581 200.528 141.123 200.778C140.675 201.028 140.311 201.388 140.029 201.856C139.759 202.315 139.623 202.841 139.623 203.435V209.2H138.123ZM153.881 209.356C152.87 209.356 151.985 209.127 151.224 208.669C150.464 208.211 149.875 207.591 149.459 206.81C149.042 206.018 148.834 205.148 148.834 204.2C148.834 203.242 149.032 202.372 149.427 201.591C149.823 200.81 150.396 200.19 151.146 199.731C151.896 199.273 152.776 199.044 153.787 199.044C154.818 199.044 155.704 199.273 156.443 199.731C157.183 200.19 157.75 200.81 158.146 201.591C158.542 202.372 158.74 203.242 158.74 204.2V204.794H150.365C150.448 205.388 150.636 205.929 150.927 206.419C151.23 206.898 151.636 207.284 152.146 207.575C152.657 207.856 153.245 207.997 153.912 207.997C154.61 207.997 155.198 207.841 155.677 207.528C156.167 207.216 156.542 206.815 156.802 206.325H158.443C158.099 207.211 157.547 207.94 156.787 208.513C156.037 209.075 155.068 209.356 153.881 209.356ZM150.381 203.403H157.193C157.058 202.549 156.693 201.836 156.099 201.263C155.516 200.69 154.745 200.403 153.787 200.403C152.829 200.403 152.058 200.69 151.474 201.263C150.891 201.836 150.526 202.549 150.381 203.403ZM160.583 209.2V199.2H162.083V200.763C162.448 200.284 162.89 199.877 163.411 199.544C163.932 199.211 164.599 199.044 165.411 199.044C166.099 199.044 166.745 199.205 167.349 199.528C167.963 199.851 168.458 200.341 168.833 200.997C169.218 201.643 169.411 202.44 169.411 203.388V209.2H167.911V203.419C167.911 202.513 167.651 201.784 167.13 201.231C166.609 200.679 165.932 200.403 165.099 200.403C164.547 200.403 164.041 200.528 163.583 200.778C163.135 201.028 162.771 201.388 162.489 201.856C162.218 202.315 162.083 202.841 162.083 203.435V209.2H160.583ZM177.241 209.2V200.513H175.21V199.2H177.241V195.622H178.741V199.2H181.054V200.513H178.741V209.2H177.241ZM182.683 209.2V195.2H184.183V200.763C184.548 200.284 184.99 199.877 185.511 199.544C186.032 199.211 186.699 199.044 187.511 199.044C188.199 199.044 188.845 199.205 189.449 199.528C190.063 199.851 190.558 200.341 190.933 200.997C191.318 201.643 191.511 202.44 191.511 203.388V209.2H190.011V203.419C190.011 202.513 189.751 201.784 189.23 201.231C188.709 200.679 188.032 200.403 187.199 200.403C186.647 200.403 186.141 200.528 185.683 200.778C185.235 201.028 184.871 201.388 184.589 201.856C184.318 202.315 184.183 202.841 184.183 203.435V209.2H182.683ZM193.941 197.513V195.56H195.566V197.513H193.941ZM194.003 209.2V199.2H195.503V209.2H194.003ZM201.744 209.356C200.827 209.356 200.051 209.205 199.416 208.903C198.78 208.591 198.296 208.185 197.962 207.685C197.629 207.185 197.442 206.643 197.4 206.06H198.962C199.004 206.393 199.119 206.716 199.306 207.028C199.504 207.341 199.801 207.596 200.197 207.794C200.603 207.981 201.124 208.075 201.759 208.075C201.968 208.075 202.218 208.06 202.509 208.028C202.801 207.987 203.082 207.914 203.353 207.81C203.624 207.695 203.853 207.534 204.041 207.325C204.228 207.106 204.322 206.83 204.322 206.497C204.322 206.091 204.16 205.773 203.837 205.544C203.525 205.315 203.113 205.138 202.603 205.013C202.103 204.888 201.567 204.768 200.994 204.653C200.431 204.528 199.895 204.372 199.384 204.185C198.874 203.987 198.457 203.711 198.134 203.356C197.822 203.002 197.666 202.518 197.666 201.903C197.666 200.997 197.994 200.294 198.65 199.794C199.317 199.294 200.296 199.044 201.587 199.044C202.462 199.044 203.176 199.179 203.728 199.45C204.291 199.721 204.712 200.07 204.994 200.497C205.285 200.924 205.457 201.388 205.509 201.888H203.994C203.931 201.461 203.718 201.096 203.353 200.794C202.988 200.481 202.384 200.325 201.541 200.325C199.957 200.325 199.166 200.804 199.166 201.763C199.166 202.159 199.322 202.466 199.634 202.685C199.957 202.893 200.374 203.065 200.884 203.2C201.395 203.325 201.931 203.445 202.494 203.56C203.067 203.664 203.603 203.82 204.103 204.028C204.613 204.226 205.025 204.507 205.337 204.872C205.66 205.237 205.822 205.731 205.822 206.356C205.822 207.336 205.452 208.08 204.712 208.591C203.973 209.101 202.983 209.356 201.744 209.356ZM216.581 213.325C215.331 213.325 214.31 213.054 213.519 212.513C212.737 211.971 212.206 211.268 211.925 210.403H213.581C213.789 210.893 214.138 211.273 214.628 211.544C215.118 211.825 215.743 211.966 216.503 211.966C217.649 211.966 218.482 211.695 219.003 211.153C219.534 210.612 219.8 209.825 219.8 208.794V207.419C219.435 207.95 218.956 208.382 218.362 208.716C217.769 209.039 217.055 209.2 216.222 209.2C215.253 209.2 214.404 208.976 213.675 208.528C212.946 208.08 212.383 207.471 211.987 206.7C211.592 205.929 211.394 205.07 211.394 204.122C211.394 203.164 211.592 202.304 211.987 201.544C212.383 200.773 212.946 200.164 213.675 199.716C214.404 199.268 215.253 199.044 216.222 199.044C217.055 199.044 217.769 199.2 218.362 199.513C218.956 199.825 219.435 200.252 219.8 200.794V199.2H221.3V208.903C221.3 210.33 220.888 211.424 220.066 212.185C219.253 212.945 218.092 213.325 216.581 213.325ZM216.425 207.841C217.154 207.841 217.774 207.674 218.284 207.341C218.805 207.007 219.201 206.56 219.472 205.997C219.753 205.424 219.894 204.799 219.894 204.122C219.894 203.424 219.753 202.799 219.472 202.247C219.201 201.685 218.805 201.237 218.284 200.903C217.774 200.57 217.154 200.403 216.425 200.403C215.696 200.403 215.06 200.57 214.519 200.903C213.987 201.237 213.581 201.685 213.3 202.247C213.029 202.799 212.894 203.424 212.894 204.122C212.894 204.799 213.029 205.424 213.3 205.997C213.581 206.56 213.987 207.007 214.519 207.341C215.06 207.674 215.696 207.841 216.425 207.841ZM223.841 197.513V195.56H225.466V197.513H223.841ZM223.903 209.2V199.2H225.403V209.2H223.903ZM228.003 209.2V199.2H229.503V201.653C229.555 201.487 229.659 201.263 229.815 200.981C229.972 200.69 230.196 200.398 230.487 200.106C230.779 199.804 231.149 199.554 231.597 199.356C232.045 199.148 232.576 199.044 233.19 199.044H233.284V200.544H233.112C232.362 200.544 231.717 200.747 231.175 201.153C230.633 201.56 230.217 202.086 229.925 202.731C229.644 203.377 229.503 204.065 229.503 204.794V209.2H228.003ZM234.903 209.2V195.2H236.403V209.2H234.903ZM246.904 209.356C245.987 209.356 245.211 209.205 244.575 208.903C243.94 208.591 243.456 208.185 243.122 207.685C242.789 207.185 242.602 206.643 242.56 206.06H244.122C244.164 206.393 244.279 206.716 244.466 207.028C244.664 207.341 244.961 207.596 245.357 207.794C245.763 207.981 246.284 208.075 246.919 208.075C247.128 208.075 247.378 208.06 247.669 208.028C247.961 207.987 248.242 207.914 248.513 207.81C248.784 207.695 249.013 207.534 249.2 207.325C249.388 207.106 249.482 206.83 249.482 206.497C249.482 206.091 249.32 205.773 248.997 205.544C248.685 205.315 248.273 205.138 247.763 205.013C247.263 204.888 246.727 204.768 246.154 204.653C245.591 204.528 245.055 204.372 244.544 204.185C244.034 203.987 243.617 203.711 243.294 203.356C242.982 203.002 242.825 202.518 242.825 201.903C242.825 200.997 243.154 200.294 243.81 199.794C244.477 199.294 245.456 199.044 246.747 199.044C247.622 199.044 248.336 199.179 248.888 199.45C249.45 199.721 249.872 200.07 250.154 200.497C250.445 200.924 250.617 201.388 250.669 201.888H249.154C249.091 201.461 248.878 201.096 248.513 200.794C248.148 200.481 247.544 200.325 246.7 200.325C245.117 200.325 244.325 200.804 244.325 201.763C244.325 202.159 244.482 202.466 244.794 202.685C245.117 202.893 245.534 203.065 246.044 203.2C246.555 203.325 247.091 203.445 247.654 203.56C248.227 203.664 248.763 203.82 249.263 204.028C249.773 204.226 250.185 204.507 250.497 204.872C250.82 205.237 250.982 205.731 250.982 206.356C250.982 207.336 250.612 208.08 249.872 208.591C249.133 209.101 248.143 209.356 246.904 209.356ZM252.903 209.2V195.2H254.403V200.763C254.768 200.284 255.21 199.877 255.731 199.544C256.252 199.211 256.919 199.044 257.731 199.044C258.419 199.044 259.064 199.205 259.669 199.528C260.283 199.851 260.778 200.341 261.153 200.997C261.538 201.643 261.731 202.44 261.731 203.388V209.2H260.231V203.419C260.231 202.513 259.971 201.784 259.45 201.231C258.929 200.679 258.252 200.403 257.419 200.403C256.866 200.403 256.361 200.528 255.903 200.778C255.455 201.028 255.09 201.388 254.809 201.856C254.538 202.315 254.403 202.841 254.403 203.435V209.2H252.903ZM268.567 209.356C267.556 209.356 266.676 209.127 265.926 208.669C265.176 208.211 264.603 207.591 264.207 206.81C263.812 206.018 263.614 205.148 263.614 204.2C263.614 203.242 263.812 202.372 264.207 201.591C264.603 200.81 265.176 200.19 265.926 199.731C266.676 199.273 267.556 199.044 268.567 199.044C269.598 199.044 270.483 199.273 271.223 199.731C271.963 200.19 272.53 200.81 272.926 201.591C273.322 202.372 273.52 203.242 273.52 204.2C273.52 205.148 273.322 206.018 272.926 206.81C272.53 207.591 271.963 208.211 271.223 208.669C270.483 209.127 269.598 209.356 268.567 209.356ZM268.567 207.997C269.317 207.997 269.947 207.825 270.457 207.481C270.968 207.138 271.353 206.674 271.614 206.091C271.884 205.507 272.02 204.877 272.02 204.2C272.02 203.502 271.884 202.867 271.614 202.294C271.353 201.721 270.968 201.263 270.457 200.919C269.947 200.575 269.317 200.403 268.567 200.403C267.838 200.403 267.213 200.575 266.692 200.919C266.171 201.263 265.775 201.721 265.504 202.294C265.244 202.867 265.114 203.502 265.114 204.2C265.114 204.877 265.244 205.507 265.504 206.091C265.775 206.674 266.171 207.138 266.692 207.481C267.213 207.825 267.838 207.997 268.567 207.997ZM279.409 209.356C278.732 209.356 278.086 209.195 277.472 208.872C276.857 208.549 276.357 208.065 275.972 207.419C275.597 206.763 275.409 205.961 275.409 205.013V199.2H276.909V204.981C276.909 205.888 277.17 206.617 277.69 207.169C278.222 207.721 278.894 207.997 279.706 207.997C280.269 207.997 280.774 207.867 281.222 207.606C281.68 207.346 282.045 206.992 282.315 206.544C282.586 206.086 282.722 205.56 282.722 204.966V199.2H284.222V209.2H282.722V207.638C282.368 208.117 281.93 208.523 281.409 208.856C280.888 209.19 280.222 209.356 279.409 209.356ZM287.901 209.2V200.513H285.87V199.2H287.901V195.622H289.401V199.2H291.714V200.513H289.401V209.2H287.901ZM297.58 209.356C296.57 209.356 295.685 209.127 294.924 208.669C294.164 208.211 293.575 207.591 293.159 206.81C292.742 206.018 292.534 205.148 292.534 204.2C292.534 203.242 292.731 202.372 293.127 201.591C293.523 200.81 294.096 200.19 294.846 199.731C295.596 199.273 296.476 199.044 297.487 199.044C298.518 199.044 299.403 199.273 300.143 199.731C300.882 200.19 301.45 200.81 301.846 201.591C302.242 202.372 302.44 203.242 302.44 204.2V204.794H294.065C294.148 205.388 294.336 205.929 294.627 206.419C294.929 206.898 295.336 207.284 295.846 207.575C296.356 207.856 296.945 207.997 297.612 207.997C298.31 207.997 298.898 207.841 299.377 207.528C299.867 207.216 300.242 206.815 300.502 206.325H302.143C301.799 207.211 301.247 207.94 300.487 208.513C299.737 209.075 298.768 209.356 297.58 209.356ZM294.08 203.403H300.893C300.757 202.549 300.393 201.836 299.799 201.263C299.216 200.69 298.445 200.403 297.487 200.403C296.528 200.403 295.757 200.69 295.174 201.263C294.591 201.836 294.226 202.549 294.08 203.403ZM308.502 209.356C307.533 209.356 306.684 209.127 305.955 208.669C305.226 208.211 304.663 207.591 304.267 206.81C303.871 206.018 303.674 205.148 303.674 204.2C303.674 203.242 303.871 202.372 304.267 201.591C304.663 200.81 305.226 200.19 305.955 199.731C306.684 199.273 307.533 199.044 308.502 199.044C309.335 199.044 310.049 199.205 310.642 199.528C311.236 199.841 311.715 200.273 312.08 200.825V195.2H313.58V209.2H312.08V207.606C311.715 208.138 311.236 208.565 310.642 208.888C310.049 209.2 309.335 209.356 308.502 209.356ZM308.705 207.997C309.455 207.997 310.085 207.825 310.595 207.481C311.106 207.138 311.496 206.674 311.767 206.091C312.038 205.507 312.174 204.877 312.174 204.2C312.174 203.502 312.038 202.867 311.767 202.294C311.496 201.721 311.106 201.263 310.595 200.919C310.085 200.575 309.455 200.403 308.705 200.403C307.976 200.403 307.34 200.575 306.799 200.919C306.267 201.263 305.861 201.721 305.58 202.294C305.309 202.867 305.174 203.502 305.174 204.2C305.174 204.877 305.309 205.507 305.58 206.091C305.861 206.674 306.267 207.138 306.799 207.481C307.34 207.825 307.976 207.997 308.705 207.997ZM315.105 211.419L316.261 207.153H318.23L316.464 211.419H315.105Z" fill="black"/>
<path d="M137.016 223.7L138.781 219.435H140.141L138.984 223.7H137.016ZM134 223.653L135.766 219.388H137.125L135.969 223.653H134ZM142.286 233.2V219.966H143.786V233.2H142.286ZM150.958 233.2V219.2H152.458V233.2H150.958ZM159.402 233.356C158.391 233.356 157.511 233.127 156.761 232.669C156.011 232.211 155.438 231.591 155.042 230.81C154.647 230.018 154.449 229.148 154.449 228.2C154.449 227.242 154.647 226.372 155.042 225.591C155.438 224.81 156.011 224.19 156.761 223.731C157.511 223.273 158.391 223.044 159.402 223.044C160.433 223.044 161.319 223.273 162.058 223.731C162.798 224.19 163.365 224.81 163.761 225.591C164.157 226.372 164.355 227.242 164.355 228.2C164.355 229.148 164.157 230.018 163.761 230.81C163.365 231.591 162.798 232.211 162.058 232.669C161.319 233.127 160.433 233.356 159.402 233.356ZM159.402 231.997C160.152 231.997 160.782 231.825 161.292 231.481C161.803 231.138 162.188 230.674 162.449 230.091C162.72 229.507 162.855 228.877 162.855 228.2C162.855 227.502 162.72 226.867 162.449 226.294C162.188 225.721 161.803 225.263 161.292 224.919C160.782 224.575 160.152 224.403 159.402 224.403C158.673 224.403 158.048 224.575 157.527 224.919C157.006 225.263 156.61 225.721 156.339 226.294C156.079 226.867 155.949 227.502 155.949 228.2C155.949 228.877 156.079 229.507 156.339 230.091C156.61 230.674 157.006 231.138 157.527 231.481C158.048 231.825 158.673 231.997 159.402 231.997ZM168.857 233.2L164.935 223.2H166.576L169.747 231.606L172.888 223.2H174.529L170.622 233.2H168.857ZM180.156 233.356C179.145 233.356 178.26 233.127 177.499 232.669C176.739 232.211 176.15 231.591 175.734 230.81C175.317 230.018 175.109 229.148 175.109 228.2C175.109 227.242 175.307 226.372 175.702 225.591C176.098 224.81 176.671 224.19 177.421 223.731C178.171 223.273 179.051 223.044 180.062 223.044C181.093 223.044 181.978 223.273 182.718 223.731C183.458 224.19 184.025 224.81 184.421 225.591C184.817 226.372 185.015 227.242 185.015 228.2V228.794H176.64C176.723 229.388 176.911 229.929 177.202 230.419C177.505 230.898 177.911 231.284 178.421 231.575C178.932 231.856 179.52 231.997 180.187 231.997C180.885 231.997 181.473 231.841 181.952 231.528C182.442 231.216 182.817 230.815 183.077 230.325H184.718C184.374 231.211 183.822 231.94 183.062 232.513C182.312 233.075 181.343 233.356 180.156 233.356ZM176.656 227.403H183.468C183.333 226.549 182.968 225.836 182.374 225.263C181.791 224.69 181.02 224.403 180.062 224.403C179.103 224.403 178.333 224.69 177.749 225.263C177.166 225.836 176.801 226.549 176.656 227.403ZM192.165 237.153L193.977 233.06L189.899 223.2H191.556L194.774 231.403L198.056 223.2H199.696L193.774 237.153H192.165ZM205.202 233.356C204.191 233.356 203.311 233.127 202.561 232.669C201.811 232.211 201.238 231.591 200.842 230.81C200.447 230.018 200.249 229.148 200.249 228.2C200.249 227.242 200.447 226.372 200.842 225.591C201.238 224.81 201.811 224.19 202.561 223.731C203.311 223.273 204.191 223.044 205.202 223.044C206.233 223.044 207.118 223.273 207.858 223.731C208.598 224.19 209.165 224.81 209.561 225.591C209.957 226.372 210.155 227.242 210.155 228.2C210.155 229.148 209.957 230.018 209.561 230.81C209.165 231.591 208.598 232.211 207.858 232.669C207.118 233.127 206.233 233.356 205.202 233.356ZM205.202 231.997C205.952 231.997 206.582 231.825 207.092 231.481C207.603 231.138 207.988 230.674 208.249 230.091C208.519 229.507 208.655 228.877 208.655 228.2C208.655 227.502 208.519 226.867 208.249 226.294C207.988 225.721 207.603 225.263 207.092 224.919C206.582 224.575 205.952 224.403 205.202 224.403C204.473 224.403 203.848 224.575 203.327 224.919C202.806 225.263 202.41 225.721 202.139 226.294C201.879 226.867 201.749 227.502 201.749 228.2C201.749 228.877 201.879 229.507 202.139 230.091C202.41 230.674 202.806 231.138 203.327 231.481C203.848 231.825 204.473 231.997 205.202 231.997ZM216.044 233.356C215.367 233.356 214.721 233.195 214.107 232.872C213.492 232.549 212.992 232.065 212.607 231.419C212.232 230.763 212.044 229.961 212.044 229.013V223.2H213.544V228.981C213.544 229.888 213.805 230.617 214.326 231.169C214.857 231.721 215.529 231.997 216.341 231.997C216.904 231.997 217.409 231.867 217.857 231.606C218.315 231.346 218.68 230.992 218.951 230.544C219.221 230.086 219.357 229.56 219.357 228.966V223.2H220.857V233.2H219.357V231.638C219.003 232.117 218.565 232.523 218.044 232.856C217.523 233.19 216.857 233.356 216.044 233.356ZM227.421 235.763V234.653H237.421V235.763H227.421ZM239.421 235.763V234.653H249.421V235.763H239.421ZM251.421 235.763V234.653H261.421V235.763H251.421ZM263.421 235.763V234.653H273.421V235.763H263.421ZM275.421 235.763V234.653H285.421V235.763H275.421ZM288.077 229.544L287.702 219.966H289.562L289.187 229.544H288.077ZM287.655 233.2V231.153H289.609V233.2H287.655ZM292.497 229.544L292.122 219.966H293.982L293.607 229.544H292.497ZM292.075 233.2V231.153H294.029V233.2H292.075ZM296.917 229.544L296.542 219.966H298.402L298.027 229.544H296.917ZM296.495 233.2V231.153H298.449V233.2H296.495ZM306.603 219.435L304.837 223.7H303.478L304.634 219.435H306.603ZM303.603 219.435L301.837 223.7H300.478L301.634 219.435H303.603ZM305.924 233.2V231.153H307.861V233.2H305.924Z" fill="black"/>
</svg>
