<svg width="346" height="125" viewBox="0 0 346 125" fill="none" xmlns="http://www.w3.org/2000/svg">
<path d="M39.2742 71.3252C39.0346 70.7523 38.7742 70.0908 38.4929 69.3408C38.2221 68.5804 37.9304 67.7783 37.6179 66.9346C36.8992 66.9658 36.1388 66.9867 35.3367 66.9971C34.545 67.0075 33.7429 67.0127 32.9304 67.0127C31.8992 67.0127 30.9617 67.0127 30.1179 67.0127C29.2846 67.0127 28.519 67.0023 27.821 66.9814C27.5294 67.8148 27.2533 68.6064 26.9929 69.3564C26.7325 70.096 26.4825 70.7523 26.2429 71.3252C25.7533 72.5544 25.0554 73.1689 24.1492 73.1689C23.8158 73.1689 23.4981 73.0648 23.196 72.8564C22.894 72.6377 22.7429 72.32 22.7429 71.9033C22.7429 71.4971 22.8158 70.9658 22.9617 70.3096C23.1075 69.6429 23.295 68.9346 23.5242 68.1846C23.7533 67.4242 23.9981 66.6429 24.2585 65.8408C24.519 65.0387 24.769 64.2887 25.0085 63.5908C25.2481 62.82 25.5919 61.8408 26.0398 60.6533C26.4877 59.4658 26.9617 58.2262 27.4617 56.9346C27.9617 55.6325 28.4617 54.3564 28.9617 53.1064C29.4721 51.846 29.9304 50.7471 30.3367 49.8096C30.4304 49.57 30.5502 49.2992 30.696 48.9971C30.8419 48.695 31.0138 48.4137 31.2117 48.1533C31.42 47.8825 31.6492 47.6533 31.8992 47.4658C32.1596 47.2783 32.446 47.1846 32.7585 47.1846C33.071 47.1846 33.3575 47.2887 33.6179 47.4971C33.8783 47.695 34.1075 47.9398 34.3054 48.2314C34.5138 48.5127 34.696 48.8096 34.8523 49.1221C35.0085 49.4346 35.1388 49.7106 35.2429 49.9502C35.6179 50.9085 36.0502 52.0127 36.5398 53.2627C37.0398 54.5127 37.5346 55.7731 38.0242 57.0439C38.5138 58.3148 38.9721 59.5283 39.3992 60.6846C39.8367 61.8304 40.1908 62.7992 40.4617 63.5908C40.67 64.2887 40.9096 65.0335 41.1804 65.8252C41.4617 66.6169 41.7221 67.3981 41.9617 68.1689C42.2013 68.9294 42.3992 69.6429 42.5554 70.3096C42.7117 70.9658 42.7898 71.4971 42.7898 71.9033C42.7898 72.32 42.6388 72.6377 42.3367 72.8564C42.045 73.0648 41.7325 73.1689 41.3992 73.1689C40.9617 73.1689 40.5606 73.0179 40.196 72.7158C39.8419 72.4137 39.5346 71.9502 39.2742 71.3252ZM32.8992 63.4189C33.4721 63.4189 34.045 63.4242 34.6179 63.4346C35.2013 63.445 35.7794 63.4606 36.3523 63.4814C36.0606 62.6481 35.769 61.8096 35.4773 60.9658C35.196 60.1221 34.9304 59.32 34.6804 58.5596C34.4304 57.7887 34.2013 57.0752 33.9929 56.4189C33.7846 55.7523 33.6127 55.1689 33.4773 54.6689C33.3731 54.3564 33.2585 54.1064 33.1335 53.9189C33.019 53.721 32.8679 53.6221 32.6804 53.6221C32.4929 53.6221 32.3367 53.7262 32.2117 53.9346C32.0971 54.1325 31.9877 54.3877 31.8835 54.7002C31.6023 55.6898 31.2013 56.971 30.6804 58.5439C30.17 60.1064 29.6231 61.7523 29.0398 63.4814C29.6856 63.4606 30.3315 63.445 30.9773 63.4346C31.6335 63.4242 32.2742 63.4189 32.8992 63.4189ZM54.1724 57.8252C53.287 57.8252 52.4901 57.971 51.7818 58.2627C51.0735 58.5544 50.2766 58.9867 49.3912 59.5596C49.3912 60.0596 49.3912 60.7992 49.3912 61.7783C49.3912 62.7471 49.3755 63.8044 49.3443 64.9502C49.3235 66.0856 49.2974 67.2054 49.2662 68.3096C49.2453 69.4137 49.1985 70.3356 49.1255 71.0752C49.0839 71.5544 49.0318 71.9346 48.9693 72.2158C48.9068 72.4867 48.8235 72.695 48.7193 72.8408C48.6151 72.9867 48.4693 73.0804 48.2818 73.1221C48.1047 73.1533 47.8703 73.1689 47.5787 73.1689C47.2974 73.1689 47.063 73.1533 46.8755 73.1221C46.6985 73.0804 46.5474 72.9971 46.4224 72.8721C46.3078 72.7367 46.2141 72.5387 46.1412 72.2783C46.0683 72.0075 46.011 71.6429 45.9693 71.1846C45.9172 70.7575 45.8703 70.1846 45.8287 69.4658C45.7974 68.7471 45.7714 67.9606 45.7505 67.1064C45.7297 66.2523 45.7089 65.3877 45.688 64.5127C45.6776 63.6377 45.6724 62.8252 45.6724 62.0752C45.6724 60.8564 45.688 59.8617 45.7193 59.0908C45.761 58.32 45.8287 57.6377 45.9224 57.0439C46.0683 56.0335 46.261 55.3981 46.5005 55.1377C46.7401 54.8669 47.063 54.7314 47.4693 54.7314C48.0735 54.7314 48.5266 54.9033 48.8287 55.2471C49.1308 55.5804 49.3183 56.1325 49.3912 56.9033C50.2766 56.1325 51.2297 55.5179 52.2505 55.0596C53.2714 54.6012 54.3183 54.3721 55.3912 54.3721C56.4224 54.3721 57.3651 54.6117 58.2193 55.0908C59.0735 55.57 59.7766 56.3512 60.3287 57.4346C60.662 58.0804 60.912 58.7939 61.0787 59.5752C61.2453 60.3564 61.3651 61.1794 61.438 62.0439C61.4693 62.4294 61.4953 62.8096 61.5162 63.1846C61.537 63.5492 61.5526 63.945 61.563 64.3721C61.5839 64.7887 61.5943 65.2627 61.5943 65.7939C61.5943 66.3148 61.5943 66.9346 61.5943 67.6533C61.5943 68.4242 61.5787 69.1481 61.5474 69.8252C61.5266 70.4919 61.4589 71.0752 61.3443 71.5752C61.2401 72.0648 61.0578 72.4502 60.7974 72.7314C60.537 73.0023 60.1776 73.1377 59.7193 73.1377C58.6151 73.1377 58.037 72.6064 57.9849 71.5439C57.9849 71.471 57.9849 71.1689 57.9849 70.6377C57.9849 70.096 57.9797 69.4658 57.9693 68.7471C57.9589 68.0179 57.9485 67.2835 57.938 66.5439C57.9276 65.8044 57.9068 65.195 57.8755 64.7158C57.8547 64.3304 57.8235 63.9137 57.7818 63.4658C57.7505 63.0179 57.7037 62.57 57.6412 62.1221C57.5891 61.6637 57.511 61.2262 57.4068 60.8096C57.313 60.3825 57.1933 60.0023 57.0474 59.6689C56.7141 58.8773 56.2922 58.3721 55.7818 58.1533C55.2818 57.9346 54.7453 57.8252 54.1724 57.8252ZM72.8494 78.1064C73.9848 78.1064 74.938 77.8825 75.7088 77.4346C76.4901 76.9867 77.1203 76.346 77.5994 75.5127C78.089 74.6898 78.4328 73.7002 78.6307 72.5439C78.839 71.3773 78.9432 70.0596 78.9432 68.5908C78.7244 69.3617 78.4119 70.0127 78.0057 70.5439C77.5994 71.0648 77.1255 71.4919 76.5838 71.8252C76.0421 72.1481 75.4328 72.3825 74.7557 72.5283C74.089 72.6637 73.3963 72.7314 72.6776 72.7314C71.5734 72.7314 70.5265 72.5752 69.5369 72.2627C68.5578 71.9502 67.6984 71.4606 66.9588 70.7939C66.2296 70.1169 65.6515 69.2575 65.2244 68.2158C64.7973 67.1742 64.5838 65.9189 64.5838 64.4502C64.5838 63.0335 64.7921 61.7314 65.2088 60.5439C65.6255 59.3564 66.2348 58.3356 67.0369 57.4814C67.8494 56.6169 68.8286 55.945 69.9744 55.4658C71.1307 54.9762 72.4536 54.7314 73.9432 54.7314C74.7348 54.7314 75.4328 54.8044 76.0369 54.9502C76.6515 55.096 77.1984 55.2887 77.6776 55.5283C78.1567 55.7679 78.5838 56.0596 78.9588 56.4033C79.3338 56.7367 79.6776 57.0908 79.9901 57.4658C80.8963 58.6221 81.5526 59.9867 81.9588 61.5596C82.3755 63.1325 82.5838 65.0231 82.5838 67.2314C82.5838 68.8669 82.4432 70.5387 82.1619 72.2471C81.8911 73.945 81.3911 75.4814 80.6619 76.8564C79.9432 78.2419 78.9484 79.3721 77.6776 80.2471C76.4067 81.1221 74.7765 81.5596 72.7869 81.5596C72.4223 81.5596 72.0161 81.5387 71.5682 81.4971C71.1307 81.4658 70.6776 81.4137 70.2088 81.3408C69.7401 81.2679 69.2765 81.1637 68.8182 81.0283C68.3703 80.9033 67.9536 80.7314 67.5682 80.5127C67.089 80.2523 66.7036 80.0023 66.4119 79.7627C66.1203 79.5231 65.9744 79.1273 65.9744 78.5752C65.9744 78.1169 66.0786 77.7002 66.2869 77.3252C66.4953 76.9502 66.8494 76.7627 67.3494 76.7627C67.589 76.7627 67.8494 76.8356 68.1307 76.9814C68.4223 77.1273 68.7765 77.2783 69.1932 77.4346C69.6203 77.5908 70.1255 77.7419 70.7088 77.8877C71.3026 78.0335 72.0161 78.1064 72.8494 78.1064ZM73.0369 69.4658C73.9744 69.4658 74.7713 69.2939 75.4276 68.9502C76.0942 68.596 76.6359 68.1325 77.0526 67.5596C77.4692 66.9762 77.7765 66.3252 77.9744 65.6064C78.1828 64.8877 78.2869 64.1689 78.2869 63.4502C78.2869 62.846 78.2088 62.2419 78.0526 61.6377C77.8963 61.0231 77.6359 60.4658 77.2713 59.9658C76.9171 59.4554 76.4276 59.0439 75.8026 58.7314C75.1776 58.4189 74.4015 58.2627 73.4744 58.2627C71.8911 58.2627 70.6098 58.7419 69.6307 59.7002C68.6619 60.6585 68.1776 62.0752 68.1776 63.9502C68.1776 65.7002 68.6098 67.0596 69.4744 68.0283C70.339 68.9867 71.5265 69.4658 73.0369 69.4658ZM96.9458 70.9033C96.9458 71.4762 96.8885 71.9189 96.7739 72.2314C96.6698 72.5439 96.5396 72.7835 96.3833 72.9502C96.2271 73.1169 96.0448 73.2158 95.8364 73.2471C95.6385 73.2887 95.4406 73.3096 95.2427 73.3096C94.5969 73.3096 94.1698 73.1689 93.9614 72.8877C93.7635 72.596 93.6281 71.945 93.5552 70.9346C93.5031 70.4033 93.4666 69.6377 93.4458 68.6377C93.425 67.6273 93.4094 66.4294 93.3989 65.0439C93.3885 63.6481 93.3729 62.1117 93.3521 60.4346C93.3416 58.7471 93.3364 56.9658 93.3364 55.0908C93.3364 54.2054 93.4458 53.3096 93.6646 52.4033C93.8833 51.4867 94.2948 50.6585 94.8989 49.9189C95.5135 49.1689 96.3677 48.57 97.4614 48.1221C98.5552 47.6637 99.9771 47.4346 101.727 47.4346C102.956 47.4346 104.123 47.5648 105.227 47.8252C106.331 48.0856 107.3 48.5439 108.133 49.2002C108.977 49.846 109.649 50.7106 110.149 51.7939C110.659 52.8669 110.915 54.2054 110.915 55.8096C110.915 57.4971 110.639 58.8929 110.086 59.9971C109.534 61.1012 108.753 61.9762 107.743 62.6221C106.732 63.2679 105.529 63.7262 104.133 63.9971C102.748 64.2575 101.227 64.3877 99.5708 64.3877C99.1646 64.3877 98.7531 64.3877 98.3364 64.3877C97.9302 64.3877 97.4771 64.3617 96.9771 64.3096L96.9458 70.9033ZM107.305 55.7471C107.305 54.1325 106.852 52.9189 105.946 52.1064C105.05 51.2939 103.56 50.8877 101.477 50.8877C100.685 50.8877 100.008 50.9554 99.4458 51.0908C98.8833 51.2158 98.4198 51.4398 98.0552 51.7627C97.701 52.0856 97.4302 52.5231 97.2427 53.0752C97.0656 53.6273 96.9771 54.3252 96.9771 55.1689C96.9771 55.9814 96.9771 56.9137 96.9771 57.9658C96.9771 59.0075 96.9875 59.9814 97.0083 60.8877C97.5604 60.9189 98.1802 60.9346 98.8677 60.9346C99.5552 60.9346 100.196 60.9346 100.79 60.9346C101.508 60.9346 102.258 60.8877 103.04 60.7939C103.821 60.6898 104.524 60.4658 105.149 60.1221C105.774 59.7679 106.29 59.2523 106.696 58.5752C107.102 57.8877 107.305 56.945 107.305 55.7471ZM128.581 73.3096C128.196 73.3096 127.889 73.2471 127.659 73.1221C127.441 72.9867 127.269 72.8096 127.144 72.5908C127.029 72.3721 126.946 72.1169 126.894 71.8252C126.842 71.5231 126.805 71.2054 126.784 70.8721C126.18 71.6117 125.404 72.2367 124.456 72.7471C123.508 73.2471 122.305 73.4971 120.847 73.4971C119.909 73.4971 118.951 73.3617 117.972 73.0908C117.003 72.8096 116.123 72.3252 115.331 71.6377C114.54 70.9502 113.894 70.0335 113.394 68.8877C112.894 67.7314 112.644 66.2783 112.644 64.5283C112.644 63.1637 112.81 61.8825 113.144 60.6846C113.477 59.4762 113.982 58.4242 114.659 57.5283C115.347 56.6325 116.206 55.9189 117.238 55.3877C118.269 54.8564 119.482 54.5908 120.878 54.5908C122.107 54.5908 123.201 54.8148 124.159 55.2627C125.118 55.7002 125.982 56.4242 126.753 57.4346C126.753 57.1533 126.764 56.8617 126.784 56.5596C126.805 56.2575 126.868 55.9814 126.972 55.7314C127.087 55.4814 127.264 55.2783 127.503 55.1221C127.743 54.9658 128.066 54.8877 128.472 54.8877C128.837 54.8877 129.175 55.0335 129.488 55.3252C129.8 55.6064 129.977 56.2262 130.019 57.1846C130.092 58.4554 130.144 59.596 130.175 60.6064C130.217 61.6169 130.238 62.6585 130.238 63.7314C130.238 65.0544 130.227 66.2679 130.206 67.3721C130.185 68.4762 130.123 69.6533 130.019 70.9033C129.977 71.4554 129.915 71.8929 129.831 72.2158C129.748 72.5387 129.644 72.7783 129.519 72.9346C129.404 73.0908 129.258 73.1898 129.081 73.2314C128.915 73.2835 128.748 73.3096 128.581 73.3096ZM126.644 64.1689C126.644 62.9189 126.456 61.8981 126.081 61.1064C125.706 60.3148 125.238 59.7002 124.675 59.2627C124.113 58.8148 123.508 58.5075 122.863 58.3408C122.217 58.1742 121.618 58.0908 121.066 58.0908C120.201 58.0908 119.462 58.2471 118.847 58.5596C118.232 58.8721 117.732 59.2992 117.347 59.8408C116.962 60.3721 116.68 61.0075 116.503 61.7471C116.326 62.4762 116.238 63.2731 116.238 64.1377C116.238 66.2419 116.696 67.7992 117.613 68.8096C118.54 69.82 119.795 70.3252 121.378 70.3252C122.316 70.3252 123.113 70.1637 123.769 69.8408C124.435 69.5179 124.977 69.0804 125.394 68.5283C125.821 67.9762 126.133 67.3252 126.331 66.5752C126.54 65.8148 126.644 65.0127 126.644 64.1689ZM141.537 78.1064C142.673 78.1064 143.626 77.8825 144.397 77.4346C145.178 76.9867 145.808 76.346 146.287 75.5127C146.777 74.6898 147.121 73.7002 147.319 72.5439C147.527 71.3773 147.631 70.0596 147.631 68.5908C147.412 69.3617 147.1 70.0127 146.694 70.5439C146.287 71.0648 145.814 71.4919 145.272 71.8252C144.73 72.1481 144.121 72.3825 143.444 72.5283C142.777 72.6637 142.084 72.7314 141.366 72.7314C140.261 72.7314 139.215 72.5752 138.225 72.2627C137.246 71.9502 136.386 71.4606 135.647 70.7939C134.918 70.1169 134.34 69.2575 133.912 68.2158C133.485 67.1742 133.272 65.9189 133.272 64.4502C133.272 63.0335 133.48 61.7314 133.897 60.5439C134.314 59.3564 134.923 58.3356 135.725 57.4814C136.537 56.6169 137.517 55.945 138.662 55.4658C139.819 54.9762 141.142 54.7314 142.631 54.7314C143.423 54.7314 144.121 54.8044 144.725 54.9502C145.34 55.096 145.886 55.2887 146.366 55.5283C146.845 55.7679 147.272 56.0596 147.647 56.4033C148.022 56.7367 148.366 57.0908 148.678 57.4658C149.584 58.6221 150.241 59.9867 150.647 61.5596C151.064 63.1325 151.272 65.0231 151.272 67.2314C151.272 68.8669 151.131 70.5387 150.85 72.2471C150.579 73.945 150.079 75.4814 149.35 76.8564C148.631 78.2419 147.636 79.3721 146.366 80.2471C145.095 81.1221 143.465 81.5596 141.475 81.5596C141.11 81.5596 140.704 81.5387 140.256 81.4971C139.819 81.4658 139.366 81.4137 138.897 81.3408C138.428 81.2679 137.965 81.1637 137.506 81.0283C137.058 80.9033 136.642 80.7314 136.256 80.5127C135.777 80.2523 135.392 80.0023 135.1 79.7627C134.808 79.5231 134.662 79.1273 134.662 78.5752C134.662 78.1169 134.767 77.7002 134.975 77.3252C135.183 76.9502 135.537 76.7627 136.037 76.7627C136.277 76.7627 136.537 76.8356 136.819 76.9814C137.11 77.1273 137.465 77.2783 137.881 77.4346C138.308 77.5908 138.814 77.7419 139.397 77.8877C139.991 78.0335 140.704 78.1064 141.537 78.1064V78.1064ZM141.725 69.4658C142.662 69.4658 143.459 69.2939 144.116 68.9502C144.782 68.596 145.324 68.1325 145.741 67.5596C146.157 66.9762 146.465 66.3252 146.662 65.6064C146.871 64.8877 146.975 64.1689 146.975 63.4502C146.975 62.846 146.897 62.2419 146.741 61.6377C146.584 61.0231 146.324 60.4658 145.959 59.9658C145.605 59.4554 145.116 59.0439 144.491 58.7314C143.866 58.4189 143.09 58.2627 142.162 58.2627C140.579 58.2627 139.298 58.7419 138.319 59.7002C137.35 60.6585 136.866 62.0752 136.866 63.9502C136.866 65.7002 137.298 67.0596 138.162 68.0283C139.027 68.9867 140.215 69.4658 141.725 69.4658ZM162.86 54.9189C164.224 54.9189 165.443 55.1325 166.516 55.5596C167.599 55.9762 168.521 56.57 169.282 57.3408C170.042 58.1012 170.625 59.0335 171.032 60.1377C171.438 61.2419 171.641 62.4762 171.641 63.8408C171.641 65.3512 171.407 66.7106 170.938 67.9189C170.469 69.1169 169.818 70.1377 168.985 70.9814C168.162 71.8148 167.178 72.4606 166.032 72.9189C164.896 73.3773 163.657 73.6064 162.313 73.6064C160.855 73.6064 159.563 73.3564 158.438 72.8564C157.323 72.346 156.386 71.6585 155.625 70.7939C154.875 69.9294 154.308 68.9346 153.922 67.8096C153.547 66.6742 153.36 65.4867 153.36 64.2471C153.36 62.8721 153.579 61.6169 154.016 60.4814C154.464 59.3356 155.099 58.3512 155.922 57.5283C156.756 56.695 157.761 56.0544 158.938 55.6064C160.115 55.1481 161.422 54.9189 162.86 54.9189ZM162.454 70.2939C163.443 70.2939 164.287 70.1221 164.985 69.7783C165.683 69.4242 166.25 68.9606 166.688 68.3877C167.136 67.8044 167.459 67.1481 167.657 66.4189C167.865 65.6898 167.969 64.9294 167.969 64.1377C167.969 63.3148 167.865 62.5492 167.657 61.8408C167.459 61.1325 167.146 60.5179 166.719 59.9971C166.303 59.4658 165.761 59.0492 165.094 58.7471C164.438 58.445 163.657 58.2939 162.75 58.2939C161.813 58.2939 160.995 58.4502 160.297 58.7627C159.599 59.0752 159.016 59.5023 158.547 60.0439C158.089 60.5856 157.735 61.2314 157.485 61.9814C157.245 62.721 157.125 63.5231 157.125 64.3877C157.125 66.1377 157.573 67.5596 158.469 68.6533C159.375 69.7471 160.704 70.2939 162.454 70.2939ZM183.304 57.8252C182.419 57.8252 181.622 57.971 180.914 58.2627C180.206 58.5544 179.409 58.9867 178.523 59.5596C178.523 60.0596 178.523 60.7992 178.523 61.7783C178.523 62.7471 178.508 63.8044 178.476 64.9502C178.456 66.0856 178.429 67.2054 178.398 68.3096C178.377 69.4137 178.331 70.3356 178.258 71.0752C178.216 71.5544 178.164 71.9346 178.101 72.2158C178.039 72.4867 177.956 72.695 177.851 72.8408C177.747 72.9867 177.601 73.0804 177.414 73.1221C177.237 73.1533 177.002 73.1689 176.711 73.1689C176.429 73.1689 176.195 73.1533 176.008 73.1221C175.831 73.0804 175.679 72.9971 175.554 72.8721C175.44 72.7367 175.346 72.5387 175.273 72.2783C175.2 72.0075 175.143 71.6429 175.101 71.1846C175.049 70.7575 175.002 70.1846 174.961 69.4658C174.929 68.7471 174.903 67.9606 174.883 67.1064C174.862 66.2523 174.841 65.3877 174.82 64.5127C174.81 63.6377 174.804 62.8252 174.804 62.0752C174.804 60.8564 174.82 59.8617 174.851 59.0908C174.893 58.32 174.961 57.6377 175.054 57.0439C175.2 56.0335 175.393 55.3981 175.633 55.1377C175.872 54.8669 176.195 54.7314 176.601 54.7314C177.206 54.7314 177.659 54.9033 177.961 55.2471C178.263 55.5804 178.45 56.1325 178.523 56.9033C179.409 56.1325 180.362 55.5179 181.383 55.0596C182.403 54.6012 183.45 54.3721 184.523 54.3721C185.554 54.3721 186.497 54.6117 187.351 55.0908C188.206 55.57 188.909 56.3512 189.461 57.4346C189.794 58.0804 190.044 58.7939 190.211 59.5752C190.377 60.3564 190.497 61.1794 190.57 62.0439C190.601 62.4294 190.627 62.8096 190.648 63.1846C190.669 63.5492 190.685 63.945 190.695 64.3721C190.716 64.7887 190.726 65.2627 190.726 65.7939C190.726 66.3148 190.726 66.9346 190.726 67.6533C190.726 68.4242 190.711 69.1481 190.679 69.8252C190.659 70.4919 190.591 71.0752 190.476 71.5752C190.372 72.0648 190.19 72.4502 189.929 72.7314C189.669 73.0023 189.31 73.1377 188.851 73.1377C187.747 73.1377 187.169 72.6064 187.117 71.5439C187.117 71.471 187.117 71.1689 187.117 70.6377C187.117 70.096 187.112 69.4658 187.101 68.7471C187.091 68.0179 187.081 67.2835 187.07 66.5439C187.06 65.8044 187.039 65.195 187.008 64.7158C186.987 64.3304 186.956 63.9137 186.914 63.4658C186.883 63.0179 186.836 62.57 186.773 62.1221C186.721 61.6637 186.643 61.2262 186.539 60.8096C186.445 60.3825 186.325 60.0023 186.179 59.6689C185.846 58.8773 185.424 58.3721 184.914 58.1533C184.414 57.9346 183.877 57.8252 183.304 57.8252ZM201.981 78.1064C203.117 78.1064 204.07 77.8825 204.841 77.4346C205.622 76.9867 206.252 76.346 206.731 75.5127C207.221 74.6898 207.565 73.7002 207.763 72.5439C207.971 71.3773 208.075 70.0596 208.075 68.5908C207.856 69.3617 207.544 70.0127 207.138 70.5439C206.731 71.0648 206.258 71.4919 205.716 71.8252C205.174 72.1481 204.565 72.3825 203.888 72.5283C203.221 72.6637 202.528 72.7314 201.81 72.7314C200.705 72.7314 199.659 72.5752 198.669 72.2627C197.69 71.9502 196.83 71.4606 196.091 70.7939C195.362 70.1169 194.784 69.2575 194.356 68.2158C193.929 67.1742 193.716 65.9189 193.716 64.4502C193.716 63.0335 193.924 61.7314 194.341 60.5439C194.758 59.3564 195.367 58.3356 196.169 57.4814C196.981 56.6169 197.961 55.945 199.106 55.4658C200.263 54.9762 201.586 54.7314 203.075 54.7314C203.867 54.7314 204.565 54.8044 205.169 54.9502C205.784 55.096 206.33 55.2887 206.81 55.5283C207.289 55.7679 207.716 56.0596 208.091 56.4033C208.466 56.7367 208.81 57.0908 209.122 57.4658C210.028 58.6221 210.685 59.9867 211.091 61.5596C211.508 63.1325 211.716 65.0231 211.716 67.2314C211.716 68.8669 211.575 70.5387 211.294 72.2471C211.023 73.945 210.523 75.4814 209.794 76.8564C209.075 78.2419 208.08 79.3721 206.81 80.2471C205.539 81.1221 203.909 81.5596 201.919 81.5596C201.554 81.5596 201.148 81.5387 200.7 81.4971C200.263 81.4658 199.81 81.4137 199.341 81.3408C198.872 81.2679 198.409 81.1637 197.95 81.0283C197.502 80.9033 197.086 80.7314 196.7 80.5127C196.221 80.2523 195.836 80.0023 195.544 79.7627C195.252 79.5231 195.106 79.1273 195.106 78.5752C195.106 78.1169 195.211 77.7002 195.419 77.3252C195.627 76.9502 195.981 76.7627 196.481 76.7627C196.721 76.7627 196.981 76.8356 197.263 76.9814C197.554 77.1273 197.909 77.2783 198.325 77.4346C198.752 77.5908 199.258 77.7419 199.841 77.8877C200.435 78.0335 201.148 78.1064 201.981 78.1064ZM202.169 69.4658C203.106 69.4658 203.903 69.2939 204.56 68.9502C205.226 68.596 205.768 68.1325 206.185 67.5596C206.601 66.9762 206.909 66.3252 207.106 65.6064C207.315 64.8877 207.419 64.1689 207.419 63.4502C207.419 62.846 207.341 62.2419 207.185 61.6377C207.028 61.0231 206.768 60.4658 206.403 59.9658C206.049 59.4554 205.56 59.0439 204.935 58.7314C204.31 58.4189 203.534 58.2627 202.606 58.2627C201.023 58.2627 199.742 58.7419 198.763 59.7002C197.794 60.6585 197.31 62.0752 197.31 63.9502C197.31 65.7002 197.742 67.0596 198.606 68.0283C199.471 68.9867 200.659 69.4658 202.169 69.4658ZM237.265 73.3096C236.88 73.3096 236.573 73.2471 236.343 73.1221C236.125 72.9867 235.953 72.8096 235.828 72.5908C235.713 72.3721 235.63 72.1169 235.578 71.8252C235.526 71.5231 235.489 71.2054 235.468 70.8721C234.864 71.6117 234.088 72.2367 233.14 72.7471C232.192 73.2471 230.989 73.4971 229.531 73.4971C228.593 73.4971 227.635 73.3617 226.656 73.0908C225.687 72.8096 224.807 72.3252 224.015 71.6377C223.224 70.9502 222.578 70.0335 222.078 68.8877C221.578 67.7314 221.328 66.2783 221.328 64.5283C221.328 63.1637 221.495 61.8825 221.828 60.6846C222.161 59.4762 222.666 58.4242 223.343 57.5283C224.031 56.6325 224.89 55.9189 225.922 55.3877C226.953 54.8564 228.166 54.5908 229.562 54.5908C230.791 54.5908 231.885 54.8148 232.843 55.2627C233.802 55.7002 234.666 56.4242 235.437 57.4346C235.437 57.1533 235.448 56.8617 235.468 56.5596C235.489 56.2575 235.552 55.9814 235.656 55.7314C235.771 55.4814 235.948 55.2783 236.187 55.1221C236.427 54.9658 236.75 54.8877 237.156 54.8877C237.521 54.8877 237.859 55.0335 238.172 55.3252C238.484 55.6064 238.661 56.2262 238.703 57.1846C238.776 58.4554 238.828 59.596 238.859 60.6064C238.901 61.6169 238.922 62.6585 238.922 63.7314C238.922 65.0544 238.911 66.2679 238.89 67.3721C238.87 68.4762 238.807 69.6533 238.703 70.9033C238.661 71.4554 238.599 71.8929 238.515 72.2158C238.432 72.5387 238.328 72.7783 238.203 72.9346C238.088 73.0908 237.942 73.1898 237.765 73.2314C237.599 73.2835 237.432 73.3096 237.265 73.3096ZM235.328 64.1689C235.328 62.9189 235.14 61.8981 234.765 61.1064C234.39 60.3148 233.922 59.7002 233.359 59.2627C232.797 58.8148 232.192 58.5075 231.547 58.3408C230.901 58.1742 230.302 58.0908 229.75 58.0908C228.885 58.0908 228.146 58.2471 227.531 58.5596C226.916 58.8721 226.416 59.2992 226.031 59.8408C225.646 60.3721 225.364 61.0075 225.187 61.7471C225.01 62.4762 224.922 63.2731 224.922 64.1377C224.922 66.2419 225.38 67.7992 226.297 68.8096C227.224 69.82 228.479 70.3252 230.062 70.3252C231 70.3252 231.797 70.1637 232.453 69.8408C233.12 69.5179 233.661 69.0804 234.078 68.5283C234.505 67.9762 234.817 67.3252 235.015 66.5752C235.224 65.8148 235.328 65.0127 235.328 64.1689ZM246.237 70.8252C246.164 69.3148 246.117 67.5231 246.097 65.4502C246.086 63.3669 246.081 61.0075 246.081 58.3721C245.841 58.3929 245.56 58.4033 245.237 58.4033C244.914 58.4033 244.659 58.4033 244.472 58.4033C244.034 58.4033 243.643 58.3929 243.3 58.3721C242.956 58.3512 242.649 58.2835 242.378 58.1689C242.117 58.0439 241.914 57.8669 241.768 57.6377C241.623 57.4085 241.55 57.0908 241.55 56.6846C241.55 55.5283 242.414 54.9502 244.143 54.9502C244.404 54.9502 244.727 54.9502 245.112 54.9502C245.498 54.9502 245.82 54.9762 246.081 55.0283C246.081 53.7575 246.107 52.7367 246.159 51.9658C246.211 51.195 246.3 50.6012 246.425 50.1846C246.56 49.7679 246.742 49.4919 246.972 49.3564C247.201 49.221 247.492 49.1533 247.847 49.1533C248.232 49.1533 248.544 49.2887 248.784 49.5596C249.024 49.82 249.211 50.1533 249.347 50.5596C249.482 50.9658 249.565 51.4242 249.597 51.9346C249.638 52.4346 249.659 52.9242 249.659 53.4033C249.659 53.7367 249.649 54.0439 249.628 54.3252C249.617 54.596 249.612 54.8408 249.612 55.0596C249.956 54.9658 250.305 54.9137 250.659 54.9033C251.024 54.8929 251.373 54.8877 251.706 54.8877C252.591 54.8877 253.274 55.0283 253.753 55.3096C254.232 55.5804 254.472 56.0231 254.472 56.6377C254.472 57.0231 254.388 57.3304 254.222 57.5596C254.055 57.7887 253.831 57.9658 253.55 58.0908C253.279 58.2054 252.956 58.2835 252.581 58.3252C252.216 58.3564 251.815 58.3721 251.378 58.3721C251.138 58.3721 250.862 58.3721 250.55 58.3721C250.237 58.3721 249.951 58.346 249.69 58.2939C249.69 59.5752 249.69 60.7419 249.69 61.7939C249.69 62.846 249.675 63.8617 249.643 64.8408C249.623 65.8096 249.602 66.7731 249.581 67.7314C249.56 68.6898 249.524 69.7106 249.472 70.7939C249.451 71.3669 249.399 71.8096 249.315 72.1221C249.232 72.4346 249.117 72.6742 248.972 72.8408C248.826 73.0075 248.659 73.1117 248.472 73.1533C248.294 73.1846 248.086 73.2002 247.847 73.2002C247.419 73.2002 247.055 73.0544 246.753 72.7627C246.451 72.4606 246.279 71.8148 246.237 70.8252ZM279.709 73.3096C279.324 73.3096 279.017 73.2471 278.787 73.1221C278.569 72.9867 278.397 72.8096 278.272 72.5908C278.157 72.3721 278.074 72.1169 278.022 71.8252C277.97 71.5231 277.933 71.2054 277.912 70.8721C277.308 71.6117 276.532 72.2367 275.584 72.7471C274.636 73.2471 273.433 73.4971 271.975 73.4971C271.037 73.4971 270.079 73.3617 269.1 73.0908C268.131 72.8096 267.251 72.3252 266.459 71.6377C265.668 70.9502 265.022 70.0335 264.522 68.8877C264.022 67.7314 263.772 66.2783 263.772 64.5283C263.772 63.1637 263.939 61.8825 264.272 60.6846C264.605 59.4762 265.11 58.4242 265.787 57.5283C266.475 56.6325 267.334 55.9189 268.366 55.3877C269.397 54.8564 270.61 54.5908 272.006 54.5908C273.235 54.5908 274.329 54.8148 275.287 55.2627C276.246 55.7002 277.11 56.4242 277.881 57.4346C277.881 57.1533 277.892 56.8617 277.912 56.5596C277.933 56.2575 277.996 55.9814 278.1 55.7314C278.215 55.4814 278.392 55.2783 278.631 55.1221C278.871 54.9658 279.194 54.8877 279.6 54.8877C279.965 54.8877 280.303 55.0335 280.616 55.3252C280.928 55.6064 281.105 56.2262 281.147 57.1846C281.22 58.4554 281.272 59.596 281.303 60.6064C281.345 61.6169 281.366 62.6585 281.366 63.7314C281.366 65.0544 281.355 66.2679 281.334 67.3721C281.314 68.4762 281.251 69.6533 281.147 70.9033C281.105 71.4554 281.043 71.8929 280.959 72.2158C280.876 72.5387 280.772 72.7783 280.647 72.9346C280.532 73.0908 280.386 73.1898 280.209 73.2314C280.043 73.2835 279.876 73.3096 279.709 73.3096ZM277.772 64.1689C277.772 62.9189 277.584 61.8981 277.209 61.1064C276.834 60.3148 276.366 59.7002 275.803 59.2627C275.241 58.8148 274.636 58.5075 273.991 58.3408C273.345 58.1742 272.746 58.0908 272.194 58.0908C271.329 58.0908 270.59 58.2471 269.975 58.5596C269.36 58.8721 268.86 59.2992 268.475 59.8408C268.09 60.3721 267.808 61.0075 267.631 61.7471C267.454 62.4762 267.366 63.2731 267.366 64.1377C267.366 66.2419 267.824 67.7992 268.741 68.8096C269.668 69.82 270.923 70.3252 272.506 70.3252C273.444 70.3252 274.241 70.1637 274.897 69.8408C275.564 69.5179 276.105 69.0804 276.522 68.5283C276.949 67.9762 277.261 67.3252 277.459 66.5752C277.668 65.8148 277.772 65.0127 277.772 64.1689ZM294.041 57.8252C293.155 57.8252 292.358 57.971 291.65 58.2627C290.942 58.5544 290.145 58.9867 289.259 59.5596C289.259 60.0596 289.259 60.7992 289.259 61.7783C289.259 62.7471 289.244 63.8044 289.212 64.9502C289.192 66.0856 289.166 67.2054 289.134 68.3096C289.113 69.4137 289.067 70.3356 288.994 71.0752C288.952 71.5544 288.9 71.9346 288.837 72.2158C288.775 72.4867 288.692 72.695 288.587 72.8408C288.483 72.9867 288.337 73.0804 288.15 73.1221C287.973 73.1533 287.738 73.1689 287.447 73.1689C287.166 73.1689 286.931 73.1533 286.744 73.1221C286.567 73.0804 286.416 72.9971 286.291 72.8721C286.176 72.7367 286.082 72.5387 286.009 72.2783C285.936 72.0075 285.879 71.6429 285.837 71.1846C285.785 70.7575 285.738 70.1846 285.697 69.4658C285.666 68.7471 285.639 67.9606 285.619 67.1064C285.598 66.2523 285.577 65.3877 285.556 64.5127C285.546 63.6377 285.541 62.8252 285.541 62.0752C285.541 60.8564 285.556 59.8617 285.587 59.0908C285.629 58.32 285.697 57.6377 285.791 57.0439C285.936 56.0335 286.129 55.3981 286.369 55.1377C286.608 54.8669 286.931 54.7314 287.337 54.7314C287.942 54.7314 288.395 54.9033 288.697 55.2471C288.999 55.5804 289.186 56.1325 289.259 56.9033C290.145 56.1325 291.098 55.5179 292.119 55.0596C293.139 54.6012 294.186 54.3721 295.259 54.3721C296.291 54.3721 297.233 54.6117 298.087 55.0908C298.942 55.57 299.645 56.3512 300.197 57.4346C300.53 58.0804 300.78 58.7939 300.947 59.5752C301.113 60.3564 301.233 61.1794 301.306 62.0439C301.337 62.4294 301.363 62.8096 301.384 63.1846C301.405 63.5492 301.421 63.945 301.431 64.3721C301.452 64.7887 301.462 65.2627 301.462 65.7939C301.462 66.3148 301.462 66.9346 301.462 67.6533C301.462 68.4242 301.447 69.1481 301.416 69.8252C301.395 70.4919 301.327 71.0752 301.212 71.5752C301.108 72.0648 300.926 72.4502 300.666 72.7314C300.405 73.0023 300.046 73.1377 299.587 73.1377C298.483 73.1377 297.905 72.6064 297.853 71.5439C297.853 71.471 297.853 71.1689 297.853 70.6377C297.853 70.096 297.848 69.4658 297.837 68.7471C297.827 68.0179 297.817 67.2835 297.806 66.5439C297.796 65.8044 297.775 65.195 297.744 64.7158C297.723 64.3304 297.692 63.9137 297.65 63.4658C297.619 63.0179 297.572 62.57 297.509 62.1221C297.457 61.6637 297.379 61.2262 297.275 60.8096C297.181 60.3825 297.061 60.0023 296.916 59.6689C296.582 58.8773 296.16 58.3721 295.65 58.1533C295.15 57.9346 294.613 57.8252 294.041 57.8252ZM312.718 78.1064C313.853 78.1064 314.806 77.8825 315.577 77.4346C316.358 76.9867 316.988 76.346 317.468 75.5127C317.957 74.6898 318.301 73.7002 318.499 72.5439C318.707 71.3773 318.811 70.0596 318.811 68.5908C318.593 69.3617 318.28 70.0127 317.874 70.5439C317.468 71.0648 316.994 71.4919 316.452 71.8252C315.91 72.1481 315.301 72.3825 314.624 72.5283C313.957 72.6637 313.264 72.7314 312.546 72.7314C311.441 72.7314 310.395 72.5752 309.405 72.2627C308.426 71.9502 307.566 71.4606 306.827 70.7939C306.098 70.1169 305.52 69.2575 305.093 68.2158C304.665 67.1742 304.452 65.9189 304.452 64.4502C304.452 63.0335 304.66 61.7314 305.077 60.5439C305.494 59.3564 306.103 58.3356 306.905 57.4814C307.718 56.6169 308.697 55.945 309.843 55.4658C310.999 54.9762 312.322 54.7314 313.811 54.7314C314.603 54.7314 315.301 54.8044 315.905 54.9502C316.52 55.096 317.066 55.2887 317.546 55.5283C318.025 55.7679 318.452 56.0596 318.827 56.4033C319.202 56.7367 319.546 57.0908 319.858 57.4658C320.764 58.6221 321.421 59.9867 321.827 61.5596C322.244 63.1325 322.452 65.0231 322.452 67.2314C322.452 68.8669 322.311 70.5387 322.03 72.2471C321.759 73.945 321.259 75.4814 320.53 76.8564C319.811 78.2419 318.816 79.3721 317.546 80.2471C316.275 81.1221 314.645 81.5596 312.655 81.5596C312.29 81.5596 311.884 81.5387 311.436 81.4971C310.999 81.4658 310.546 81.4137 310.077 81.3408C309.608 81.2679 309.145 81.1637 308.686 81.0283C308.238 80.9033 307.822 80.7314 307.436 80.5127C306.957 80.2523 306.572 80.0023 306.28 79.7627C305.988 79.5231 305.843 79.1273 305.843 78.5752C305.843 78.1169 305.947 77.7002 306.155 77.3252C306.363 76.9502 306.718 76.7627 307.218 76.7627C307.457 76.7627 307.718 76.8356 307.999 76.9814C308.29 77.1273 308.645 77.2783 309.061 77.4346C309.488 77.5908 309.994 77.7419 310.577 77.8877C311.171 78.0335 311.884 78.1064 312.718 78.1064ZM312.905 69.4658C313.843 69.4658 314.639 69.2939 315.296 68.9502C315.962 68.596 316.504 68.1325 316.921 67.5596C317.337 66.9762 317.645 66.3252 317.843 65.6064C318.051 64.8877 318.155 64.1689 318.155 63.4502C318.155 62.846 318.077 62.2419 317.921 61.6377C317.764 61.0231 317.504 60.4658 317.139 59.9658C316.785 59.4554 316.296 59.0439 315.671 58.7314C315.046 58.4189 314.27 58.2627 313.343 58.2627C311.759 58.2627 310.478 58.7419 309.499 59.7002C308.53 60.6585 308.046 62.0752 308.046 63.9502C308.046 65.7002 308.478 67.0596 309.343 68.0283C310.207 68.9867 311.395 69.4658 312.905 69.4658Z" fill="#F39342"/>
<path d="M30.7227 110.044C29.6185 107.627 28.6393 105.284 27.7852 103.013C26.931 100.742 26.207 98.721 25.6133 96.9502C25.0612 99.9189 24.5977 102.919 24.2227 105.95C23.8477 108.971 23.3737 111.862 22.8008 114.622C22.6549 115.247 22.3893 115.664 22.0039 115.872C21.6185 116.07 21.2956 116.169 21.0352 116.169C20.5977 116.169 20.2539 116.039 20.0039 115.778C19.7539 115.507 19.6289 115.169 19.6289 114.763C19.6289 114.211 19.6914 113.367 19.8164 112.231C19.9518 111.086 20.1237 109.794 20.332 108.356C20.5404 106.919 20.7747 105.409 21.0352 103.825C21.2956 102.242 21.5612 100.711 21.832 99.2314C22.1133 97.7523 22.3789 96.4137 22.6289 95.2158C22.8893 94.0179 23.1133 93.096 23.3008 92.4502C23.6133 91.346 24.2487 90.7939 25.207 90.7939C25.7799 90.7939 26.2695 91.0752 26.6758 91.6377C27.0924 92.2002 27.5352 93.0648 28.0039 94.2314C28.4727 95.3877 29.0352 96.8564 29.6914 98.6377C30.3477 100.409 31.207 102.497 32.2695 104.903C33.3008 102.497 34.1341 100.414 34.7695 98.6533C35.4049 96.8929 35.9414 95.4294 36.3789 94.2627C36.8268 93.096 37.2539 92.2314 37.6602 91.6689C38.0768 91.1064 38.582 90.8252 39.1758 90.8252C39.7279 90.8252 40.1445 90.9658 40.4258 91.2471C40.7174 91.5179 40.9362 91.9294 41.082 92.4814C41.2487 93.1481 41.4518 94.0804 41.6914 95.2783C41.931 96.4658 42.1862 97.7835 42.457 99.2314C42.7383 100.679 43.0091 102.195 43.2695 103.778C43.5404 105.362 43.7852 106.877 44.0039 108.325C44.2227 109.763 44.3945 111.065 44.5195 112.231C44.6549 113.388 44.7227 114.278 44.7227 114.903C44.7227 115.289 44.5872 115.596 44.3164 115.825C44.056 116.054 43.7227 116.169 43.3164 116.169C43.056 116.169 42.7331 116.07 42.3477 115.872C41.9622 115.664 41.6966 115.247 41.5508 114.622C41.2695 113.257 41.0143 111.846 40.7852 110.388C40.556 108.919 40.3372 107.435 40.1289 105.935C39.931 104.435 39.7331 102.935 39.5352 101.435C39.3477 99.9346 39.1445 98.4398 38.9258 96.9502C38.6133 97.9085 38.2539 98.9658 37.8477 100.122C37.4414 101.268 37.0091 102.424 36.5508 103.591C36.0924 104.747 35.6237 105.893 35.1445 107.028C34.6654 108.153 34.1966 109.174 33.7383 110.091C33.5716 110.403 33.3477 110.638 33.0664 110.794C32.7956 110.95 32.5143 111.028 32.2227 111.028C31.9206 111.028 31.6289 110.95 31.3477 110.794C31.0768 110.638 30.8685 110.388 30.7227 110.044ZM62.5753 116.31C62.1899 116.31 61.8826 116.247 61.6534 116.122C61.4347 115.987 61.2628 115.81 61.1378 115.591C61.0232 115.372 60.9399 115.117 60.8878 114.825C60.8357 114.523 60.7992 114.205 60.7784 113.872C60.1742 114.612 59.3982 115.237 58.4503 115.747C57.5024 116.247 56.2992 116.497 54.8409 116.497C53.9034 116.497 52.9451 116.362 51.9659 116.091C50.9972 115.81 50.117 115.325 49.3253 114.638C48.5336 113.95 47.8878 113.034 47.3878 111.888C46.8878 110.731 46.6378 109.278 46.6378 107.528C46.6378 106.164 46.8045 104.882 47.1378 103.685C47.4711 102.476 47.9763 101.424 48.6534 100.528C49.3409 99.6325 50.2003 98.9189 51.2315 98.3877C52.2628 97.8564 53.4763 97.5908 54.8722 97.5908C56.1013 97.5908 57.1951 97.8148 58.1534 98.2627C59.1117 98.7002 59.9763 99.4242 60.7472 100.435C60.7472 100.153 60.7576 99.8617 60.7784 99.5596C60.7992 99.2575 60.8617 98.9814 60.9659 98.7314C61.0805 98.4814 61.2576 98.2783 61.4972 98.1221C61.7367 97.9658 62.0597 97.8877 62.4659 97.8877C62.8305 97.8877 63.169 98.0335 63.4815 98.3252C63.794 98.6064 63.9711 99.2262 64.0128 100.185C64.0857 101.455 64.1378 102.596 64.169 103.606C64.2107 104.617 64.2315 105.659 64.2315 106.731C64.2315 108.054 64.2211 109.268 64.2003 110.372C64.1795 111.476 64.117 112.653 64.0128 113.903C63.9711 114.455 63.9086 114.893 63.8253 115.216C63.742 115.539 63.6378 115.778 63.5128 115.935C63.3982 116.091 63.2524 116.19 63.0753 116.231C62.9086 116.284 62.742 116.31 62.5753 116.31ZM60.6378 107.169C60.6378 105.919 60.4503 104.898 60.0753 104.106C59.7003 103.315 59.2315 102.7 58.669 102.263C58.1065 101.815 57.5024 101.507 56.8565 101.341C56.2107 101.174 55.6117 101.091 55.0597 101.091C54.1951 101.091 53.4555 101.247 52.8409 101.56C52.2263 101.872 51.7263 102.299 51.3409 102.841C50.9555 103.372 50.6742 104.007 50.4972 104.747C50.3201 105.476 50.2315 106.273 50.2315 107.138C50.2315 109.242 50.6899 110.799 51.6065 111.81C52.5336 112.82 53.7888 113.325 55.3722 113.325C56.3097 113.325 57.1065 113.164 57.7628 112.841C58.4295 112.518 58.9711 112.08 59.3878 111.528C59.8149 110.976 60.1274 110.325 60.3253 109.575C60.5336 108.815 60.6378 108.013 60.6378 107.169ZM71.547 113.825C71.4741 112.315 71.4273 110.523 71.4064 108.45C71.396 106.367 71.3908 104.007 71.3908 101.372C71.1512 101.393 70.87 101.403 70.547 101.403C70.2241 101.403 69.9689 101.403 69.7814 101.403C69.3439 101.403 68.9533 101.393 68.6095 101.372C68.2658 101.351 67.9585 101.284 67.6877 101.169C67.4273 101.044 67.2241 100.867 67.0783 100.638C66.9325 100.409 66.8595 100.091 66.8595 99.6846C66.8595 98.5283 67.7241 97.9502 69.4533 97.9502C69.7137 97.9502 70.0366 97.9502 70.422 97.9502C70.8075 97.9502 71.1304 97.9762 71.3908 98.0283C71.3908 96.7575 71.4168 95.7367 71.4689 94.9658C71.521 94.195 71.6095 93.6012 71.7345 93.1846C71.87 92.7679 72.0523 92.4919 72.2814 92.3564C72.5106 92.221 72.8023 92.1533 73.1564 92.1533C73.5418 92.1533 73.8543 92.2887 74.0939 92.5596C74.3335 92.82 74.521 93.1533 74.6564 93.5596C74.7918 93.9658 74.8752 94.4242 74.9064 94.9346C74.9481 95.4346 74.9689 95.9242 74.9689 96.4033C74.9689 96.7367 74.9585 97.0439 74.9377 97.3252C74.9273 97.596 74.922 97.8408 74.922 98.0596C75.2658 97.9658 75.6148 97.9137 75.9689 97.9033C76.3335 97.8929 76.6825 97.8877 77.0158 97.8877C77.9012 97.8877 78.5835 98.0283 79.0627 98.3096C79.5418 98.5804 79.7814 99.0231 79.7814 99.6377C79.7814 100.023 79.6981 100.33 79.5314 100.56C79.3648 100.789 79.1408 100.966 78.8595 101.091C78.5887 101.205 78.2658 101.284 77.8908 101.325C77.5262 101.356 77.1252 101.372 76.6877 101.372C76.4481 101.372 76.172 101.372 75.8595 101.372C75.547 101.372 75.2606 101.346 75.0002 101.294C75.0002 102.575 75.0002 103.742 75.0002 104.794C75.0002 105.846 74.9845 106.862 74.9533 107.841C74.9325 108.81 74.9116 109.773 74.8908 110.731C74.87 111.69 74.8335 112.711 74.7814 113.794C74.7606 114.367 74.7085 114.81 74.6252 115.122C74.5418 115.435 74.4273 115.674 74.2814 115.841C74.1356 116.007 73.9689 116.112 73.7814 116.153C73.6043 116.185 73.396 116.2 73.1564 116.2C72.7293 116.2 72.3648 116.054 72.0627 115.763C71.7606 115.461 71.5887 114.815 71.547 113.825ZM89.0734 97.3721C89.5734 97.3721 90.2088 97.4137 90.9797 97.4971C91.7505 97.5804 92.4849 97.7367 93.1828 97.9658C93.8807 98.195 94.4797 98.5179 94.9797 98.9346C95.4797 99.3408 95.7297 99.8512 95.7297 100.466C95.7297 100.83 95.6255 101.148 95.4172 101.419C95.2193 101.679 94.9068 101.81 94.4797 101.81C94.1672 101.81 93.813 101.763 93.4172 101.669C93.0213 101.565 92.5891 101.45 92.1203 101.325C91.6516 101.19 91.1463 101.075 90.6047 100.981C90.063 100.877 89.4953 100.825 88.9016 100.825C87.8911 100.825 87.0682 100.981 86.4328 101.294C85.7974 101.606 85.4797 102.101 85.4797 102.778C85.4797 103.164 85.5891 103.487 85.8078 103.747C86.037 104.007 86.3495 104.242 86.7453 104.45C87.1411 104.659 87.6099 104.836 88.1516 104.981C88.6932 105.117 89.2661 105.257 89.8703 105.403C90.6099 105.601 91.3443 105.82 92.0734 106.06C92.813 106.299 93.4693 106.627 94.0422 107.044C94.6151 107.461 95.0786 107.987 95.4328 108.622C95.7974 109.257 95.9797 110.044 95.9797 110.981C95.9797 112.763 95.3078 114.174 93.9641 115.216C92.6203 116.257 90.6411 116.778 88.0266 116.778C87.4536 116.778 86.7713 116.737 85.9797 116.653C85.188 116.57 84.4432 116.414 83.7453 116.185C83.0474 115.955 82.4536 115.632 81.9641 115.216C81.4745 114.799 81.2297 114.242 81.2297 113.544C81.2297 113.065 81.3443 112.7 81.5734 112.45C81.8026 112.19 82.0838 112.06 82.4172 112.06C82.6776 112.06 82.9484 112.148 83.2297 112.325C83.5213 112.492 83.8703 112.669 84.2766 112.856C84.6932 113.044 85.188 113.226 85.7609 113.403C86.3338 113.57 87.0422 113.653 87.8859 113.653C88.1984 113.653 88.6047 113.638 89.1047 113.606C89.6151 113.565 90.1151 113.461 90.6047 113.294C91.0943 113.127 91.5109 112.893 91.8547 112.591C92.2088 112.289 92.3859 111.862 92.3859 111.31C92.3859 110.872 92.2661 110.507 92.0266 110.216C91.787 109.914 91.4641 109.653 91.0578 109.435C90.6516 109.216 90.1776 109.028 89.6359 108.872C89.0943 108.716 88.5213 108.554 87.9172 108.388C87.2297 108.2 86.5318 107.987 85.8234 107.747C85.1151 107.507 84.4693 107.195 83.8859 106.81C83.313 106.424 82.8443 105.94 82.4797 105.356C82.1255 104.763 81.9484 104.034 81.9484 103.169C81.9484 102.356 82.1151 101.596 82.4484 100.888C82.7818 100.179 83.2609 99.5648 83.8859 99.0439C84.5109 98.5127 85.2609 98.1012 86.1359 97.8096C87.0109 97.5179 87.9901 97.3721 89.0734 97.3721ZM99.5553 113.935C99.5032 113.049 99.4564 112.039 99.4147 110.903C99.3834 109.757 99.3678 108.502 99.3678 107.138C99.3678 105.429 99.3782 103.971 99.3991 102.763C99.4303 101.544 99.498 100.549 99.6022 99.7783C99.7064 98.9971 99.8782 98.4189 100.118 98.0439C100.368 97.6689 100.706 97.4814 101.133 97.4814C101.54 97.4814 101.899 97.6273 102.212 97.9189C102.524 98.2106 102.706 98.8356 102.758 99.7939C102.904 102.315 102.977 104.747 102.977 107.091C102.977 108.299 102.951 109.424 102.899 110.466C102.847 111.507 102.8 112.653 102.758 113.903C102.727 114.476 102.67 114.919 102.587 115.231C102.503 115.544 102.389 115.784 102.243 115.95C102.107 116.117 101.946 116.216 101.758 116.247C101.581 116.289 101.373 116.31 101.133 116.31C100.706 116.31 100.347 116.164 100.055 115.872C99.7636 115.57 99.597 114.924 99.5553 113.935ZM101.165 90.9658C101.717 90.9658 102.227 91.1846 102.696 91.6221C103.165 92.0492 103.399 92.5648 103.399 93.1689C103.399 93.7419 103.159 94.2419 102.68 94.6689C102.201 95.0856 101.659 95.2939 101.055 95.2939C100.555 95.2939 100.081 95.0856 99.6334 94.6689C99.1959 94.2419 98.9772 93.7158 98.9772 93.0908C98.9772 92.5179 99.1959 92.0231 99.6334 91.6064C100.081 91.1794 100.592 90.9658 101.165 90.9658ZM115.894 100.825C115.009 100.825 114.212 100.971 113.504 101.263C112.795 101.554 111.999 101.987 111.113 102.56C111.113 103.06 111.113 103.799 111.113 104.778C111.113 105.747 111.098 106.804 111.066 107.95C111.045 109.086 111.019 110.205 110.988 111.31C110.967 112.414 110.92 113.336 110.848 114.075C110.806 114.554 110.754 114.935 110.691 115.216C110.629 115.487 110.545 115.695 110.441 115.841C110.337 115.987 110.191 116.08 110.004 116.122C109.827 116.153 109.592 116.169 109.301 116.169C109.019 116.169 108.785 116.153 108.598 116.122C108.42 116.08 108.269 115.997 108.144 115.872C108.03 115.737 107.936 115.539 107.863 115.278C107.79 115.007 107.733 114.643 107.691 114.185C107.639 113.757 107.592 113.185 107.551 112.466C107.519 111.747 107.493 110.961 107.473 110.106C107.452 109.252 107.431 108.388 107.41 107.513C107.4 106.638 107.394 105.825 107.394 105.075C107.394 103.856 107.41 102.862 107.441 102.091C107.483 101.32 107.551 100.638 107.644 100.044C107.79 99.0335 107.983 98.3981 108.223 98.1377C108.462 97.8669 108.785 97.7314 109.191 97.7314C109.795 97.7314 110.249 97.9033 110.551 98.2471C110.853 98.5804 111.04 99.1325 111.113 99.9033C111.999 99.1325 112.952 98.5179 113.973 98.0596C114.993 97.6012 116.04 97.3721 117.113 97.3721C118.144 97.3721 119.087 97.6117 119.941 98.0908C120.795 98.57 121.499 99.3512 122.051 100.435C122.384 101.08 122.634 101.794 122.801 102.575C122.967 103.356 123.087 104.179 123.16 105.044C123.191 105.429 123.217 105.81 123.238 106.185C123.259 106.549 123.275 106.945 123.285 107.372C123.306 107.789 123.316 108.263 123.316 108.794C123.316 109.315 123.316 109.935 123.316 110.653C123.316 111.424 123.301 112.148 123.269 112.825C123.249 113.492 123.181 114.075 123.066 114.575C122.962 115.065 122.78 115.45 122.519 115.731C122.259 116.002 121.9 116.138 121.441 116.138C120.337 116.138 119.759 115.606 119.707 114.544C119.707 114.471 119.707 114.169 119.707 113.638C119.707 113.096 119.702 112.466 119.691 111.747C119.681 111.018 119.67 110.284 119.66 109.544C119.65 108.804 119.629 108.195 119.598 107.716C119.577 107.33 119.545 106.914 119.504 106.466C119.473 106.018 119.426 105.57 119.363 105.122C119.311 104.664 119.233 104.226 119.129 103.81C119.035 103.382 118.915 103.002 118.769 102.669C118.436 101.877 118.014 101.372 117.504 101.153C117.004 100.935 116.467 100.825 115.894 100.825ZM134.571 121.106C135.707 121.106 136.66 120.882 137.431 120.435C138.212 119.987 138.842 119.346 139.321 118.513C139.811 117.69 140.155 116.7 140.353 115.544C140.561 114.377 140.665 113.06 140.665 111.591C140.446 112.362 140.134 113.013 139.728 113.544C139.321 114.065 138.847 114.492 138.306 114.825C137.764 115.148 137.155 115.382 136.478 115.528C135.811 115.664 135.118 115.731 134.4 115.731C133.295 115.731 132.249 115.575 131.259 115.263C130.28 114.95 129.42 114.461 128.681 113.794C127.952 113.117 127.374 112.257 126.946 111.216C126.519 110.174 126.306 108.919 126.306 107.45C126.306 106.034 126.514 104.731 126.931 103.544C127.347 102.356 127.957 101.336 128.759 100.481C129.571 99.6169 130.551 98.945 131.696 98.4658C132.853 97.9762 134.176 97.7314 135.665 97.7314C136.457 97.7314 137.155 97.8044 137.759 97.9502C138.374 98.096 138.92 98.2887 139.4 98.5283C139.879 98.7679 140.306 99.0596 140.681 99.4033C141.056 99.7367 141.4 100.091 141.712 100.466C142.618 101.622 143.275 102.987 143.681 104.56C144.097 106.132 144.306 108.023 144.306 110.231C144.306 111.867 144.165 113.539 143.884 115.247C143.613 116.945 143.113 118.481 142.384 119.856C141.665 121.242 140.67 122.372 139.4 123.247C138.129 124.122 136.499 124.56 134.509 124.56C134.144 124.56 133.738 124.539 133.29 124.497C132.853 124.466 132.4 124.414 131.931 124.341C131.462 124.268 130.999 124.164 130.54 124.028C130.092 123.903 129.676 123.731 129.29 123.513C128.811 123.252 128.426 123.002 128.134 122.763C127.842 122.523 127.696 122.127 127.696 121.575C127.696 121.117 127.801 120.7 128.009 120.325C128.217 119.95 128.571 119.763 129.071 119.763C129.311 119.763 129.571 119.836 129.853 119.981C130.144 120.127 130.499 120.278 130.915 120.435C131.342 120.591 131.847 120.742 132.431 120.888C133.025 121.034 133.738 121.106 134.571 121.106ZM134.759 112.466C135.696 112.466 136.493 112.294 137.15 111.95C137.816 111.596 138.358 111.132 138.775 110.56C139.191 109.976 139.499 109.325 139.696 108.606C139.905 107.888 140.009 107.169 140.009 106.45C140.009 105.846 139.931 105.242 139.775 104.638C139.618 104.023 139.358 103.466 138.993 102.966C138.639 102.455 138.15 102.044 137.525 101.731C136.9 101.419 136.124 101.263 135.196 101.263C133.613 101.263 132.332 101.742 131.353 102.7C130.384 103.659 129.9 105.075 129.9 106.95C129.9 108.7 130.332 110.06 131.196 111.028C132.061 111.987 133.249 112.466 134.759 112.466ZM159.058 92.6221C159.058 94.0596 159.017 95.5648 158.933 97.1377C158.85 98.7106 158.746 100.242 158.621 101.731C158.933 101.086 159.34 100.528 159.84 100.06C160.35 99.5908 160.913 99.2158 161.527 98.9346C162.142 98.6429 162.782 98.4242 163.449 98.2783C164.126 98.1325 164.772 98.0596 165.387 98.0596C166.47 98.0596 167.486 98.2575 168.433 98.6533C169.381 99.0492 170.209 99.6273 170.918 100.388C171.626 101.138 172.178 102.075 172.574 103.2C172.97 104.315 173.168 105.591 173.168 107.028C173.168 108.414 172.965 109.685 172.558 110.841C172.152 111.997 171.543 112.992 170.73 113.825C169.928 114.648 168.933 115.289 167.746 115.747C166.558 116.195 165.199 116.419 163.668 116.419C161.574 116.419 159.933 116.002 158.746 115.169C157.558 114.325 156.678 113.2 156.105 111.794C155.532 110.388 155.178 108.773 155.043 106.95C154.907 105.127 154.84 103.221 154.84 101.231C154.84 99.2106 154.876 97.3877 154.949 95.7627C155.022 94.1273 155.131 92.8044 155.277 91.7939C155.423 90.8877 155.663 90.2419 155.996 89.8564C156.329 89.471 156.772 89.2783 157.324 89.2783C157.741 89.2783 158.069 89.3669 158.308 89.5439C158.548 89.721 158.72 89.9658 158.824 90.2783C158.928 90.5908 158.991 90.945 159.012 91.3408C159.043 91.7367 159.058 92.1637 159.058 92.6221ZM164.387 101.622C163.689 101.622 163.022 101.737 162.387 101.966C161.751 102.195 161.189 102.549 160.699 103.028C160.209 103.507 159.819 104.117 159.527 104.856C159.236 105.586 159.09 106.466 159.09 107.497C159.09 109.32 159.538 110.705 160.433 111.653C161.34 112.601 162.548 113.075 164.058 113.075C164.683 113.075 165.319 112.987 165.965 112.81C166.621 112.622 167.209 112.31 167.73 111.872C168.262 111.424 168.694 110.83 169.027 110.091C169.361 109.341 169.527 108.414 169.527 107.31C169.527 106.33 169.387 105.481 169.105 104.763C168.834 104.044 168.459 103.45 167.98 102.981C167.501 102.513 166.949 102.169 166.324 101.95C165.699 101.731 165.053 101.622 164.387 101.622ZM180.404 122.763C180.092 123.315 179.795 123.721 179.514 123.981C179.243 124.242 178.931 124.372 178.576 124.372C178.233 124.372 177.894 124.263 177.561 124.044C177.227 123.836 177.061 123.539 177.061 123.153C177.061 122.789 177.186 122.268 177.436 121.591C177.686 120.924 177.998 120.195 178.373 119.403C178.748 118.612 179.139 117.794 179.545 116.95C179.951 116.117 180.321 115.351 180.654 114.653L180.904 114.122C180.186 112.705 179.446 111.195 178.686 109.591C177.936 107.976 177.248 106.45 176.623 105.013C175.998 103.575 175.488 102.32 175.092 101.247C174.696 100.174 174.498 99.471 174.498 99.1377C174.498 98.8252 174.623 98.5544 174.873 98.3252C175.134 98.096 175.457 97.9814 175.842 97.9814C176.175 97.9814 176.498 98.0492 176.811 98.1846C177.123 98.32 177.41 98.6169 177.67 99.0752C178.056 99.7939 178.457 100.617 178.873 101.544C179.3 102.461 179.722 103.424 180.139 104.435C180.556 105.445 180.983 106.466 181.42 107.497C181.868 108.528 182.321 109.523 182.779 110.481C183.311 109.502 183.873 108.471 184.467 107.388C185.071 106.304 185.654 105.263 186.217 104.263C186.779 103.252 187.3 102.32 187.779 101.466C188.269 100.612 188.681 99.8981 189.014 99.3252C189.347 98.7731 189.681 98.3773 190.014 98.1377C190.358 97.8981 190.707 97.7783 191.061 97.7783C191.3 97.7783 191.54 97.8825 191.779 98.0908C192.019 98.2887 192.139 98.5544 192.139 98.8877C192.139 99.3877 191.915 100.2 191.467 101.325C191.029 102.44 190.462 103.731 189.764 105.2C189.066 106.659 188.279 108.221 187.404 109.888C186.529 111.554 185.66 113.19 184.795 114.794C183.931 116.388 183.108 117.877 182.326 119.263C181.545 120.659 180.904 121.825 180.404 122.763ZM209.748 92.8408C209.748 92.2679 209.795 91.8252 209.889 91.5127C209.983 91.2002 210.113 90.9606 210.28 90.7939C210.457 90.6273 210.649 90.5283 210.858 90.4971C211.076 90.4554 211.306 90.4346 211.545 90.4346C211.785 90.4346 212.014 90.4658 212.233 90.5283C212.451 90.5804 212.644 90.7002 212.811 90.8877C212.978 91.0648 213.108 91.3096 213.201 91.6221C213.295 91.9346 213.342 92.3304 213.342 92.8096V107.919C213.342 109.367 213.228 110.617 212.998 111.669C212.769 112.721 212.389 113.591 211.858 114.278C211.337 114.966 210.644 115.476 209.78 115.81C208.915 116.143 207.837 116.31 206.545 116.31C206.087 116.31 205.535 116.242 204.889 116.106C204.243 115.961 203.623 115.737 203.03 115.435C202.446 115.132 201.941 114.737 201.514 114.247C201.097 113.757 200.889 113.164 200.889 112.466C200.889 111.914 201.076 111.528 201.451 111.31C201.826 111.091 202.238 110.981 202.686 110.981C203.03 110.981 203.342 111.075 203.623 111.263C203.915 111.44 204.207 111.638 204.498 111.856C204.8 112.065 205.118 112.263 205.451 112.45C205.795 112.627 206.181 112.716 206.608 112.716C207.139 112.716 207.597 112.643 207.983 112.497C208.368 112.351 208.686 112.075 208.936 111.669C209.186 111.263 209.379 110.695 209.514 109.966C209.649 109.226 209.717 108.284 209.717 107.138L209.748 92.8408ZM218.428 112.216C218.98 112.216 219.485 112.435 219.944 112.872C220.412 113.299 220.647 113.81 220.647 114.403C220.647 114.976 220.407 115.476 219.928 115.903C219.449 116.32 218.912 116.528 218.319 116.528C217.808 116.528 217.329 116.32 216.881 115.903C216.444 115.476 216.225 114.95 216.225 114.325C216.225 113.752 216.444 113.257 216.881 112.841C217.329 112.424 217.845 112.216 218.428 112.216ZM227.14 113.903C227.14 114.476 227.083 114.919 226.968 115.231C226.864 115.544 226.734 115.784 226.577 115.95C226.421 116.117 226.239 116.216 226.03 116.247C225.833 116.289 225.635 116.31 225.437 116.31C224.791 116.31 224.364 116.169 224.155 115.888C223.958 115.596 223.822 114.945 223.749 113.935C223.697 113.403 223.661 112.638 223.64 111.638C223.619 110.627 223.603 109.429 223.593 108.044C223.583 106.648 223.567 105.112 223.546 103.435C223.536 101.747 223.53 99.9658 223.53 98.0908C223.53 97.2054 223.64 96.3096 223.859 95.4033C224.077 94.4867 224.489 93.6585 225.093 92.9189C225.708 92.1689 226.562 91.57 227.655 91.1221C228.749 90.6637 230.171 90.4346 231.921 90.4346C233.15 90.4346 234.317 90.5648 235.421 90.8252C236.525 91.0856 237.494 91.5439 238.327 92.2002C239.171 92.846 239.843 93.7106 240.343 94.7939C240.853 95.8669 241.109 97.2054 241.109 98.8096C241.109 100.497 240.833 101.893 240.28 102.997C239.728 104.101 238.947 104.976 237.937 105.622C236.926 106.268 235.723 106.726 234.327 106.997C232.942 107.257 231.421 107.388 229.765 107.388C229.359 107.388 228.947 107.388 228.53 107.388C228.124 107.388 227.671 107.362 227.171 107.31L227.14 113.903ZM237.499 98.7471C237.499 97.1325 237.046 95.9189 236.14 95.1064C235.244 94.2939 233.754 93.8877 231.671 93.8877C230.879 93.8877 230.202 93.9554 229.64 94.0908C229.077 94.2158 228.614 94.4398 228.249 94.7627C227.895 95.0856 227.624 95.5231 227.437 96.0752C227.26 96.6273 227.171 97.3252 227.171 98.1689C227.171 98.9814 227.171 99.9137 227.171 100.966C227.171 102.007 227.182 102.981 227.202 103.888C227.754 103.919 228.374 103.935 229.062 103.935C229.749 103.935 230.39 103.935 230.984 103.935C231.702 103.935 232.452 103.888 233.234 103.794C234.015 103.69 234.718 103.466 235.343 103.122C235.968 102.768 236.484 102.252 236.89 101.575C237.296 100.888 237.499 99.945 237.499 98.7471ZM241.864 112.216C242.416 112.216 242.921 112.435 243.38 112.872C243.848 113.299 244.083 113.81 244.083 114.403C244.083 114.976 243.843 115.476 243.364 115.903C242.885 116.32 242.348 116.528 241.755 116.528C241.244 116.528 240.765 116.32 240.317 115.903C239.88 115.476 239.661 114.95 239.661 114.325C239.661 113.752 239.88 113.257 240.317 112.841C240.765 112.424 241.281 112.216 241.864 112.216ZM262.803 107.31C262.47 107.341 262.126 107.362 261.772 107.372C261.428 107.382 261.079 107.388 260.725 107.388C260.319 107.388 259.907 107.388 259.49 107.388C259.084 107.388 258.631 107.362 258.131 107.31V114.622C258.131 115.393 257.944 115.867 257.569 116.044C257.204 116.221 256.746 116.31 256.194 116.31C255.902 116.31 255.673 116.289 255.506 116.247C255.339 116.216 255.199 116.148 255.084 116.044C254.98 115.94 254.897 115.778 254.834 115.56C254.772 115.341 254.73 115.039 254.709 114.653C254.657 114.226 254.621 113.601 254.6 112.778C254.579 111.945 254.563 110.867 254.553 109.544C254.543 108.221 254.527 106.622 254.506 104.747C254.496 102.862 254.49 100.643 254.49 98.0908C254.49 97.1117 254.61 96.1637 254.85 95.2471C255.089 94.32 255.522 93.5023 256.147 92.7939C256.772 92.0856 257.615 91.5179 258.678 91.0908C259.751 90.6533 261.115 90.4346 262.772 90.4346C263.949 90.4346 265.095 90.5648 266.209 90.8252C267.324 91.0856 268.313 91.5439 269.178 92.2002C270.043 92.846 270.74 93.721 271.272 94.8252C271.803 95.9294 272.069 97.3096 272.069 98.9658C272.069 101.174 271.595 102.882 270.647 104.091C269.699 105.299 268.397 106.159 266.74 106.669L271.553 113.294C271.99 113.867 272.209 114.455 272.209 115.06C272.209 115.539 272.048 115.914 271.725 116.185C271.402 116.466 271.001 116.606 270.522 116.606C269.99 116.606 269.532 116.455 269.147 116.153C268.761 115.851 268.402 115.461 268.069 114.981L262.803 107.31ZM268.459 98.9189C268.459 97.2627 267.959 96.0335 266.959 95.2314C265.97 94.4294 264.397 94.0283 262.24 94.0283C261.449 94.0283 260.787 94.096 260.256 94.2314C259.725 94.3564 259.303 94.6012 258.99 94.9658C258.678 95.3304 258.454 95.8304 258.319 96.4658C258.194 97.1012 258.131 97.9085 258.131 98.8877C258.131 99.5856 258.131 100.403 258.131 101.341C258.131 102.278 258.142 103.127 258.162 103.888C258.714 103.919 259.334 103.935 260.022 103.935C260.709 103.935 261.35 103.935 261.944 103.935C262.621 103.935 263.334 103.893 264.084 103.81C264.845 103.726 265.548 103.513 266.194 103.169C266.839 102.815 267.376 102.31 267.803 101.653C268.24 100.987 268.459 100.075 268.459 98.9189ZM275.559 113.935C275.507 113.049 275.46 112.039 275.419 110.903C275.387 109.757 275.372 108.502 275.372 107.138C275.372 105.429 275.382 103.971 275.403 102.763C275.434 101.544 275.502 100.549 275.606 99.7783C275.71 98.9971 275.882 98.4189 276.122 98.0439C276.372 97.6689 276.71 97.4814 277.137 97.4814C277.544 97.4814 277.903 97.6273 278.216 97.9189C278.528 98.2106 278.71 98.8356 278.762 99.7939C278.908 102.315 278.981 104.747 278.981 107.091C278.981 108.299 278.955 109.424 278.903 110.466C278.851 111.507 278.804 112.653 278.762 113.903C278.731 114.476 278.674 114.919 278.591 115.231C278.507 115.544 278.393 115.784 278.247 115.95C278.111 116.117 277.95 116.216 277.762 116.247C277.585 116.289 277.377 116.31 277.137 116.31C276.71 116.31 276.351 116.164 276.059 115.872C275.768 115.57 275.601 114.924 275.559 113.935ZM277.169 90.9658C277.721 90.9658 278.231 91.1846 278.7 91.6221C279.169 92.0492 279.403 92.5648 279.403 93.1689C279.403 93.7419 279.163 94.2419 278.684 94.6689C278.205 95.0856 277.663 95.2939 277.059 95.2939C276.559 95.2939 276.085 95.0856 275.637 94.6689C275.2 94.2419 274.981 93.7158 274.981 93.0908C274.981 92.5179 275.2 92.0231 275.637 91.6064C276.085 91.1794 276.596 90.9658 277.169 90.9658ZM294.664 116.138C293.852 116.179 292.945 116.216 291.945 116.247C290.956 116.289 289.846 116.31 288.617 116.31C287.159 116.31 285.997 116.299 285.133 116.278C284.268 116.257 283.612 116.205 283.164 116.122C282.727 116.028 282.44 115.898 282.305 115.731C282.169 115.565 282.102 115.325 282.102 115.013C282.102 114.44 282.289 113.778 282.664 113.028C283.039 112.268 283.482 111.513 283.992 110.763C284.513 110.002 285.029 109.299 285.539 108.653C286.06 107.997 286.466 107.476 286.758 107.091C287.57 106.018 288.372 105.06 289.164 104.216C289.956 103.372 290.831 102.497 291.789 101.591C291.237 101.632 290.607 101.653 289.898 101.653C289.19 101.653 288.513 101.653 287.867 101.653C286.857 101.653 286.008 101.643 285.32 101.622C284.643 101.601 284.091 101.539 283.664 101.435C283.247 101.32 282.956 101.143 282.789 100.903C282.622 100.664 282.539 100.33 282.539 99.9033C282.539 99.4867 282.669 99.1325 282.93 98.8408C283.201 98.5387 283.826 98.3512 284.805 98.2783C285.242 98.2575 285.565 98.2314 285.773 98.2002C285.992 98.1585 286.185 98.1325 286.352 98.1221C286.518 98.1012 286.701 98.0856 286.898 98.0752C287.107 98.0648 287.419 98.0596 287.836 98.0596C288.815 98.0596 289.773 98.0804 290.711 98.1221C291.648 98.1533 292.633 98.195 293.664 98.2471C293.904 98.2471 294.175 98.2731 294.477 98.3252C294.779 98.3669 295.06 98.4502 295.32 98.5752C295.581 98.6898 295.8 98.8564 295.977 99.0752C296.164 99.2835 296.258 99.5596 296.258 99.9033C296.258 100.476 295.945 101.242 295.32 102.2C294.695 103.159 293.909 104.221 292.961 105.388C292.013 106.554 290.982 107.778 289.867 109.06C288.753 110.341 287.701 111.58 286.711 112.778C286.982 112.757 287.294 112.742 287.648 112.731C288.013 112.721 288.326 112.716 288.586 112.716C289.669 112.716 290.664 112.737 291.57 112.778C292.487 112.81 293.508 112.846 294.633 112.888C295.206 112.919 295.648 112.976 295.961 113.06C296.273 113.143 296.513 113.257 296.68 113.403C296.857 113.539 296.961 113.705 296.992 113.903C297.023 114.091 297.039 114.304 297.039 114.544C297.039 114.981 296.888 115.346 296.586 115.638C296.294 115.919 295.654 116.086 294.664 116.138ZM314.899 116.31C314.514 116.31 314.207 116.247 313.977 116.122C313.759 115.987 313.587 115.81 313.462 115.591C313.347 115.372 313.264 115.117 313.212 114.825C313.16 114.523 313.123 114.205 313.102 113.872C312.498 114.612 311.722 115.237 310.774 115.747C309.826 116.247 308.623 116.497 307.165 116.497C306.227 116.497 305.269 116.362 304.29 116.091C303.321 115.81 302.441 115.325 301.649 114.638C300.858 113.95 300.212 113.034 299.712 111.888C299.212 110.731 298.962 109.278 298.962 107.528C298.962 106.164 299.129 104.882 299.462 103.685C299.795 102.476 300.3 101.424 300.977 100.528C301.665 99.6325 302.524 98.9189 303.556 98.3877C304.587 97.8564 305.8 97.5908 307.196 97.5908C308.425 97.5908 309.519 97.8148 310.477 98.2627C311.436 98.7002 312.3 99.4242 313.071 100.435C313.071 100.153 313.082 99.8617 313.102 99.5596C313.123 99.2575 313.186 98.9814 313.29 98.7314C313.405 98.4814 313.582 98.2783 313.821 98.1221C314.061 97.9658 314.384 97.8877 314.79 97.8877C315.155 97.8877 315.493 98.0335 315.806 98.3252C316.118 98.6064 316.295 99.2262 316.337 100.185C316.41 101.455 316.462 102.596 316.493 103.606C316.535 104.617 316.556 105.659 316.556 106.731C316.556 108.054 316.545 109.268 316.524 110.372C316.504 111.476 316.441 112.653 316.337 113.903C316.295 114.455 316.233 114.893 316.149 115.216C316.066 115.539 315.962 115.778 315.837 115.935C315.722 116.091 315.576 116.19 315.399 116.231C315.233 116.284 315.066 116.31 314.899 116.31ZM312.962 107.169C312.962 105.919 312.774 104.898 312.399 104.106C312.024 103.315 311.556 102.7 310.993 102.263C310.431 101.815 309.826 101.507 309.181 101.341C308.535 101.174 307.936 101.091 307.384 101.091C306.519 101.091 305.78 101.247 305.165 101.56C304.55 101.872 304.05 102.299 303.665 102.841C303.28 103.372 302.998 104.007 302.821 104.747C302.644 105.476 302.556 106.273 302.556 107.138C302.556 109.242 303.014 110.799 303.931 111.81C304.858 112.82 306.113 113.325 307.696 113.325C308.634 113.325 309.431 113.164 310.087 112.841C310.754 112.518 311.295 112.08 311.712 111.528C312.139 110.976 312.451 110.325 312.649 109.575C312.858 108.815 312.962 108.013 312.962 107.169ZM320.981 114.075C320.96 113.211 320.934 112.205 320.902 111.06C320.882 109.903 320.866 108.653 320.856 107.31C320.845 105.966 320.835 104.549 320.824 103.06C320.814 101.57 320.809 100.049 320.809 98.4971C320.809 96.7887 320.819 95.3252 320.84 94.1064C320.861 92.8773 320.923 91.8669 321.027 91.0752C321.142 90.2835 321.319 89.7054 321.559 89.3408C321.798 88.9658 322.137 88.7783 322.574 88.7783C322.981 88.7783 323.34 88.9085 323.652 89.1689C323.965 89.4294 324.142 90.0439 324.184 91.0127C324.288 92.7314 324.35 94.5231 324.371 96.3877C324.392 98.2523 324.402 100.08 324.402 101.872C324.402 102.955 324.402 103.997 324.402 104.997C324.402 105.987 324.392 106.971 324.371 107.95C324.35 108.919 324.324 109.909 324.293 110.919C324.272 111.919 324.236 112.961 324.184 114.044C324.163 114.617 324.111 115.06 324.027 115.372C323.944 115.685 323.829 115.929 323.684 116.106C323.538 116.273 323.376 116.372 323.199 116.403C323.022 116.435 322.814 116.45 322.574 116.45C322.137 116.45 321.772 116.304 321.481 116.013C321.199 115.711 321.033 115.065 320.981 114.075Z" fill="#F39342"/>
<path d="M136.596 30.6304C136.387 30.1095 136.158 29.5158 135.908 28.8491C135.658 28.172 135.398 27.4637 135.127 26.7241C134.481 26.745 133.804 26.7606 133.096 26.771C132.398 26.7814 131.689 26.7866 130.971 26.7866C130.044 26.7866 129.205 26.7866 128.455 26.7866C127.715 26.7866 127.038 26.7762 126.424 26.7554C126.163 27.495 125.913 28.1981 125.674 28.8647C125.445 29.521 125.226 30.1095 125.018 30.6304C124.59 31.7137 123.971 32.2554 123.158 32.2554C122.856 32.2554 122.57 32.1616 122.299 31.9741C122.038 31.7762 121.908 31.495 121.908 31.1304C121.908 30.7762 121.971 30.3075 122.096 29.7241C122.231 29.1304 122.398 28.5002 122.596 27.8335C122.794 27.1564 123.012 26.4637 123.252 25.7554C123.492 25.0366 123.715 24.3647 123.924 23.7397C124.132 23.0627 124.434 22.1981 124.83 21.146C125.226 20.0835 125.648 18.9793 126.096 17.8335C126.544 16.6772 126.992 15.5418 127.439 14.4272C127.887 13.3022 128.294 12.3231 128.658 11.4897C128.742 11.271 128.846 11.0314 128.971 10.771C129.106 10.5002 129.262 10.2502 129.439 10.021C129.627 9.78141 129.83 9.57829 130.049 9.41162C130.278 9.23454 130.528 9.146 130.799 9.146C131.08 9.146 131.335 9.23975 131.564 9.42725C131.804 9.60433 132.012 9.82308 132.189 10.0835C132.377 10.3335 132.538 10.5991 132.674 10.8804C132.809 11.1616 132.924 11.4064 133.018 11.6147C133.351 12.4689 133.736 13.4533 134.174 14.5679C134.611 15.672 135.049 16.7918 135.486 17.9272C135.924 19.0522 136.335 20.1304 136.721 21.1616C137.106 22.1825 137.419 23.0418 137.658 23.7397C137.846 24.3647 138.059 25.0314 138.299 25.7397C138.549 26.4377 138.778 27.1304 138.986 27.8179C139.205 28.495 139.382 29.1304 139.518 29.7241C139.663 30.3075 139.736 30.7762 139.736 31.1304C139.736 31.495 139.601 31.7762 139.33 31.9741C139.059 32.1616 138.778 32.2554 138.486 32.2554C138.101 32.2554 137.747 32.1252 137.424 31.8647C137.111 31.5939 136.835 31.1825 136.596 30.6304ZM130.924 23.5835C131.445 23.5835 131.96 23.5887 132.471 23.5991C132.981 23.6095 133.492 23.6252 134.002 23.646C133.752 22.896 133.497 22.1512 133.236 21.4116C132.976 20.6616 132.731 19.9481 132.502 19.271C132.283 18.5835 132.085 17.9481 131.908 17.3647C131.731 16.771 131.575 16.2502 131.439 15.8022C131.356 15.5314 131.262 15.3127 131.158 15.146C131.054 14.9689 130.913 14.8804 130.736 14.8804C130.57 14.8804 130.429 14.9741 130.314 15.1616C130.21 15.3387 130.117 15.5627 130.033 15.8335C129.783 16.7085 129.429 17.8491 128.971 19.2554C128.512 20.6512 128.023 22.1147 127.502 23.646C128.085 23.6252 128.663 23.6095 129.236 23.5991C129.809 23.5887 130.372 23.5835 130.924 23.5835ZM149.84 18.6304C149.049 18.6304 148.34 18.7606 147.715 19.021C147.09 19.271 146.382 19.6512 145.59 20.1616C145.59 20.6095 145.59 21.2658 145.59 22.1304C145.59 22.995 145.58 23.9325 145.559 24.9429C145.538 25.9533 145.517 26.9533 145.497 27.9429C145.476 28.922 145.429 29.7397 145.356 30.396C145.314 30.8231 145.267 31.1616 145.215 31.4116C145.163 31.6512 145.09 31.8387 144.997 31.9741C144.903 32.0991 144.773 32.1772 144.606 32.2085C144.45 32.2397 144.241 32.2554 143.981 32.2554C143.731 32.2554 143.523 32.2397 143.356 32.2085C143.2 32.1772 143.07 32.1043 142.965 31.9897C142.861 31.8647 142.773 31.6877 142.7 31.4585C142.637 31.2189 142.585 30.896 142.543 30.4897C142.502 30.1043 142.465 29.5939 142.434 28.9585C142.403 28.3231 142.377 27.6252 142.356 26.8647C142.335 26.1043 142.32 25.3387 142.309 24.5679C142.299 23.7866 142.293 23.0627 142.293 22.396C142.293 21.3127 142.309 20.4325 142.34 19.7554C142.372 19.0679 142.429 18.4533 142.512 17.9116C142.648 17.0158 142.82 16.4533 143.028 16.2241C143.236 15.9845 143.523 15.8647 143.887 15.8647C144.418 15.8647 144.82 16.0158 145.09 16.3179C145.361 16.62 145.528 17.1095 145.59 17.7866C146.382 17.1095 147.231 16.5679 148.137 16.1616C149.043 15.7554 149.976 15.5522 150.934 15.5522C151.851 15.5522 152.684 15.7658 153.434 16.1929C154.195 16.62 154.82 17.3127 155.309 18.271C155.611 18.8439 155.835 19.4793 155.981 20.1772C156.137 20.8647 156.247 21.5939 156.309 22.3647C156.33 22.7085 156.351 23.047 156.372 23.3804C156.392 23.7033 156.408 24.0522 156.418 24.4272C156.429 24.8022 156.434 25.2241 156.434 25.6929C156.434 26.1616 156.434 26.7189 156.434 27.3647C156.434 28.0418 156.424 28.6825 156.403 29.2866C156.382 29.8804 156.325 30.396 156.231 30.8335C156.137 31.271 155.971 31.6147 155.731 31.8647C155.502 32.1043 155.184 32.2241 154.778 32.2241C153.788 32.2241 153.273 31.7554 153.231 30.8179C153.231 30.7554 153.231 30.4845 153.231 30.0054C153.231 29.5262 153.226 28.9689 153.215 28.3335C153.205 27.6877 153.195 27.0366 153.184 26.3804C153.174 25.7137 153.158 25.1668 153.137 24.7397C153.116 24.396 153.09 24.0262 153.059 23.6304C153.028 23.2345 152.986 22.8335 152.934 22.4272C152.882 22.021 152.809 21.6356 152.715 21.271C152.632 20.896 152.528 20.5575 152.403 20.2554C152.101 19.547 151.726 19.0991 151.278 18.9116C150.83 18.7241 150.351 18.6304 149.84 18.6304ZM165.774 15.5522C166.222 15.5522 166.784 15.5887 167.461 15.6616C168.149 15.7345 168.8 15.8752 169.414 16.0835C170.039 16.2814 170.576 16.5627 171.024 16.9272C171.472 17.2918 171.696 17.7502 171.696 18.3022C171.696 18.6252 171.602 18.9064 171.414 19.146C171.237 19.3752 170.961 19.4897 170.586 19.4897C170.305 19.4897 169.987 19.4481 169.633 19.3647C169.279 19.271 168.894 19.1668 168.477 19.0522C168.06 18.9377 167.612 18.8387 167.133 18.7554C166.654 18.672 166.149 18.6304 165.618 18.6304C164.722 18.6304 163.993 18.771 163.43 19.0522C162.868 19.3231 162.586 19.7554 162.586 20.3491C162.586 20.6929 162.685 20.9845 162.883 21.2241C163.081 21.4533 163.357 21.6616 163.711 21.8491C164.065 22.0262 164.482 22.1772 164.961 22.3022C165.44 22.4272 165.946 22.5575 166.477 22.6929C167.144 22.8595 167.8 23.0522 168.446 23.271C169.102 23.4793 169.685 23.771 170.196 24.146C170.706 24.521 171.123 24.9897 171.446 25.5522C171.769 26.1147 171.93 26.8127 171.93 27.646C171.93 29.2293 171.331 30.4845 170.133 31.4116C168.935 32.3387 167.175 32.8022 164.852 32.8022C164.341 32.8022 163.732 32.7606 163.024 32.6772C162.326 32.6043 161.664 32.4689 161.039 32.271C160.425 32.0731 159.899 31.7866 159.461 31.4116C159.024 31.0366 158.805 30.5366 158.805 29.9116C158.805 29.495 158.904 29.1772 159.102 28.9585C159.31 28.7293 159.56 28.6147 159.852 28.6147C160.091 28.6147 160.336 28.6877 160.586 28.8335C160.847 28.9793 161.159 29.1408 161.524 29.3179C161.888 29.4845 162.326 29.646 162.836 29.8022C163.347 29.9481 163.977 30.021 164.727 30.021C164.998 30.021 165.357 30.0054 165.805 29.9741C166.253 29.9325 166.696 29.8387 167.133 29.6929C167.571 29.547 167.946 29.3439 168.258 29.0835C168.571 28.8127 168.727 28.4325 168.727 27.9429C168.727 27.5575 168.618 27.2293 168.399 26.9585C168.19 26.6877 167.904 26.4585 167.539 26.271C167.175 26.0835 166.753 25.922 166.274 25.7866C165.795 25.6408 165.289 25.495 164.758 25.3491C164.133 25.172 163.508 24.9793 162.883 24.771C162.258 24.5522 161.685 24.2762 161.164 23.9429C160.654 23.5991 160.237 23.1668 159.914 22.646C159.602 22.1147 159.446 21.4689 159.446 20.7085C159.446 19.9793 159.591 19.3022 159.883 18.6772C160.185 18.0418 160.612 17.4897 161.164 17.021C161.727 16.5522 162.394 16.1929 163.164 15.9429C163.946 15.6825 164.815 15.5522 165.774 15.5522ZM182.65 20.1616C182.775 19.8804 182.957 19.672 183.197 19.5366C183.447 19.4012 183.723 19.3335 184.025 19.3335C184.275 19.3335 184.52 19.396 184.759 19.521C185.009 19.646 185.213 19.8491 185.369 20.1304C185.983 21.2762 186.541 22.4429 187.041 23.6304C187.541 24.8179 188.082 26.0158 188.666 27.2241C189.197 25.5054 189.666 23.8387 190.072 22.2241C190.478 20.6095 190.895 19.0262 191.322 17.4741C191.468 16.922 191.666 16.5575 191.916 16.3804C192.176 16.1929 192.509 16.0991 192.916 16.0991C193.28 16.0991 193.577 16.2033 193.806 16.4116C194.046 16.6095 194.166 16.8752 194.166 17.2085C194.166 17.4897 194.093 17.9793 193.947 18.6772C193.812 19.3647 193.629 20.1616 193.4 21.0679C193.181 21.9741 192.937 22.9429 192.666 23.9741C192.405 24.995 192.14 25.9741 191.869 26.9116C191.608 27.8491 191.358 28.7033 191.119 29.4741C190.89 30.245 190.707 30.8179 190.572 31.1929C190.405 31.6929 190.202 32.0627 189.963 32.3022C189.733 32.5522 189.374 32.6772 188.884 32.6772C188.437 32.6772 188.062 32.5002 187.759 32.146C187.468 31.7918 187.192 31.37 186.931 30.8804C186.848 30.7137 186.707 30.4272 186.509 30.021C186.322 29.6147 186.093 29.1356 185.822 28.5835C185.562 28.021 185.275 27.4116 184.963 26.7554C184.65 26.0887 184.338 25.4168 184.025 24.7397C183.702 25.4168 183.374 26.0887 183.041 26.7554C182.707 27.4116 182.4 28.0262 182.119 28.5991C181.848 29.1616 181.608 29.646 181.4 30.0522C181.202 30.4585 181.062 30.745 180.978 30.9116C180.728 31.4012 180.457 31.8231 180.166 32.1772C179.874 32.5314 179.494 32.7085 179.025 32.7085C178.275 32.7085 177.713 32.2137 177.338 31.2241C177.181 30.8491 176.983 30.2814 176.744 29.521C176.515 28.7606 176.27 27.9116 176.009 26.9741C175.759 26.0366 175.504 25.0627 175.244 24.0522C174.994 23.0314 174.765 22.0731 174.556 21.1772C174.358 20.2814 174.192 19.495 174.056 18.8179C173.931 18.1304 173.869 17.6408 173.869 17.3491C173.869 16.9845 173.968 16.6877 174.166 16.4585C174.374 16.2189 174.671 16.0991 175.056 16.0991C175.483 16.0991 175.827 16.1929 176.088 16.3804C176.358 16.5575 176.572 16.922 176.728 17.4741C177.155 19.0262 177.567 20.6095 177.963 22.2241C178.369 23.8387 178.843 25.5054 179.384 27.2241C179.853 26.2033 180.322 25.1408 180.791 24.0366C181.259 22.922 181.879 21.6304 182.65 20.1616ZM204.435 26.3647C203.685 26.3647 202.899 26.3075 202.076 26.1929C201.264 26.0783 200.373 25.8283 199.404 25.4429C199.602 26.745 200.144 27.7293 201.029 28.396C201.915 29.0522 203.191 29.3804 204.857 29.3804C205.451 29.3804 205.988 29.3439 206.467 29.271C206.946 29.1877 207.368 29.0991 207.732 29.0054C208.097 28.9116 208.415 28.8283 208.685 28.7554C208.967 28.6825 209.227 28.646 209.467 28.646C209.758 28.646 210.04 28.7345 210.31 28.9116C210.592 29.0887 210.732 29.3908 210.732 29.8179C210.732 30.3595 210.514 30.8022 210.076 31.146C209.649 31.4793 209.118 31.7502 208.482 31.9585C207.857 32.1564 207.191 32.2918 206.482 32.3647C205.784 32.4377 205.165 32.4741 204.623 32.4741C203.363 32.4741 202.206 32.3075 201.154 31.9741C200.102 31.6304 199.191 31.1147 198.42 30.4272C197.649 29.7293 197.05 28.87 196.623 27.8491C196.196 26.8179 195.982 25.62 195.982 24.2554C195.982 22.9325 196.191 21.7606 196.607 20.7397C197.024 19.7085 197.592 18.8439 198.31 18.146C199.04 17.4377 199.899 16.9064 200.889 16.5522C201.889 16.1877 202.967 16.0054 204.123 16.0054C205.019 16.0054 205.883 16.1252 206.717 16.3647C207.56 16.5939 208.305 16.9429 208.951 17.4116C209.607 17.8804 210.133 18.4741 210.529 19.1929C210.925 19.9012 211.123 20.7345 211.123 21.6929C211.123 22.547 210.962 23.2762 210.639 23.8804C210.326 24.4741 209.873 24.9533 209.279 25.3179C208.696 25.672 207.993 25.9377 207.17 26.1147C206.347 26.2814 205.435 26.3647 204.435 26.3647ZM204.217 18.9429C203.633 18.9429 203.076 19.0158 202.545 19.1616C202.014 19.297 201.529 19.521 201.092 19.8335C200.654 20.1356 200.284 20.5366 199.982 21.0366C199.691 21.5366 199.488 22.1616 199.373 22.9116C200.185 23.2762 200.977 23.5262 201.748 23.6616C202.519 23.797 203.331 23.8647 204.185 23.8647C205.435 23.8647 206.363 23.7137 206.967 23.4116C207.581 23.0991 207.889 22.5366 207.889 21.7241C207.889 20.9845 207.607 20.3387 207.045 19.7866C206.482 19.2241 205.54 18.9429 204.217 18.9429ZM214.321 30.3022C214.238 29.5522 214.186 28.646 214.165 27.5835C214.144 26.521 214.134 25.2293 214.134 23.7085C214.134 22.2189 214.139 21.0158 214.149 20.0991C214.16 19.1825 214.217 18.37 214.321 17.6616C214.425 16.7866 214.587 16.2241 214.806 15.9741C215.035 15.7137 215.332 15.5835 215.696 15.5835C215.957 15.5835 216.186 15.6043 216.384 15.646C216.592 15.6877 216.774 15.7814 216.931 15.9272C217.087 16.0627 217.207 16.2606 217.29 16.521C217.384 16.771 217.431 17.12 217.431 17.5679C217.431 17.6512 217.441 17.7345 217.462 17.8179C217.462 17.9116 217.467 18.0054 217.477 18.0991C217.488 18.1929 217.493 18.3022 217.493 18.4272C218.066 17.7085 218.722 17.0939 219.462 16.5835C220.201 16.0627 221.04 15.8022 221.977 15.8022C223.227 15.8022 223.852 16.3283 223.852 17.3804C223.852 17.7658 223.774 18.0887 223.618 18.3491C223.462 18.5991 223.238 18.8022 222.946 18.9585C222.654 19.1147 222.321 19.2397 221.946 19.3335C221.582 19.4168 221.175 19.5002 220.727 19.5835C220.04 19.7085 219.399 19.9481 218.806 20.3022C218.212 20.6564 217.806 21.0991 217.587 21.6304C217.587 22.0366 217.592 22.3387 217.602 22.5366C217.613 22.7241 217.623 22.8804 217.634 23.0054C217.644 23.1304 217.649 23.271 217.649 23.4272C217.649 23.5731 217.649 23.8075 217.649 24.1304C217.649 25.2137 217.628 26.2345 217.587 27.1929C217.545 28.1408 217.503 29.1668 217.462 30.271C217.441 30.7814 217.378 31.1772 217.274 31.4585C217.181 31.7293 217.066 31.9429 216.931 32.0991C216.795 32.245 216.639 32.3335 216.462 32.3647C216.295 32.396 216.128 32.4116 215.962 32.4116C215.358 32.4116 214.951 32.2814 214.743 32.021C214.545 31.7502 214.404 31.1772 214.321 30.3022Z" fill="#3D7E81"/>
</svg>
