<svg width="557" height="212" viewBox="0 0 557 212" fill="none" xmlns="http://www.w3.org/2000/svg">
<path d="M212.884 41.5649C212.566 40.801 212.216 39.9256 211.834 38.9388C211.484 37.9202 211.102 36.8539 210.688 35.7398C209.733 35.7716 208.73 35.8035 207.68 35.8353C206.629 35.8353 205.563 35.8353 204.481 35.8353C203.112 35.8353 201.871 35.8353 200.757 35.8353C199.642 35.8353 198.624 35.8194 197.701 35.7876C197.319 36.9016 196.953 37.9521 196.603 38.9388C196.252 39.9256 195.918 40.801 195.6 41.5649C194.963 43.1883 194.04 44 192.831 44C192.385 44 191.955 43.8568 191.541 43.5703C191.159 43.2838 190.968 42.87 190.968 42.3289C190.968 41.7877 191.064 41.0874 191.255 40.228C191.446 39.3367 191.685 38.3977 191.971 37.4109C192.289 36.3923 192.624 35.3578 192.974 34.3074C193.324 33.2251 193.658 32.2225 193.977 31.2994C194.295 30.2808 194.74 28.9916 195.313 27.4319C195.918 25.8403 196.555 24.1851 197.223 22.4662C197.892 20.7473 198.56 19.0603 199.229 17.4051C199.897 15.718 200.502 14.2538 201.043 13.0123C201.17 12.694 201.33 12.3439 201.521 11.9619C201.711 11.5481 201.934 11.1661 202.189 10.816C202.475 10.4659 202.778 10.1635 203.096 9.90881C203.446 9.65416 203.828 9.52684 204.242 9.52684C204.656 9.52684 205.038 9.67008 205.388 9.95656C205.738 10.2112 206.041 10.5295 206.295 10.9115C206.582 11.2935 206.82 11.6914 207.011 12.1052C207.234 12.519 207.409 12.885 207.537 13.2033C208.046 14.4766 208.619 15.9408 209.255 17.596C209.924 19.2513 210.576 20.9224 211.213 22.6095C211.882 24.2965 212.502 25.904 213.075 27.4319C213.648 28.9598 214.11 30.2489 214.46 31.2994C214.746 32.2225 215.065 33.2092 215.415 34.2597C215.797 35.3101 216.147 36.3446 216.465 37.3632C216.784 38.3818 217.038 39.3367 217.229 40.228C217.452 41.0874 217.563 41.7877 217.563 42.3289C217.563 42.87 217.357 43.2838 216.943 43.5703C216.561 43.8568 216.147 44 215.701 44C215.128 44 214.603 43.809 214.126 43.427C213.648 43.0132 213.234 42.3925 212.884 41.5649ZM204.433 31.0606C205.197 31.0606 205.961 31.0765 206.725 31.1084C207.489 31.1084 208.253 31.1243 209.017 31.1561C208.635 30.042 208.253 28.9279 207.871 27.8138C207.489 26.6998 207.123 25.6334 206.773 24.6148C206.454 23.5962 206.152 22.6572 205.865 21.7978C205.611 20.9065 205.388 20.1266 205.197 19.4582C205.07 19.0444 204.926 18.7101 204.767 18.4555C204.608 18.2008 204.401 18.0735 204.147 18.0735C203.892 18.0735 203.685 18.2167 203.526 18.5032C203.367 18.7579 203.223 19.0921 203.096 19.5059C202.714 20.811 202.173 22.514 201.473 24.6148C200.804 26.6838 200.088 28.8643 199.324 31.1561C200.184 31.1243 201.043 31.1084 201.902 31.1084C202.762 31.0765 203.605 31.0606 204.433 31.0606ZM239.809 41.7559C238.791 40.3553 237.82 38.9707 236.897 37.6019C236.005 36.2014 235.035 34.6735 233.984 33.0182C232.966 31.363 231.788 29.5327 230.451 27.5274C229.146 25.4902 227.57 23.1187 225.724 20.4131C225.724 22.8004 225.724 24.949 225.724 26.8589C225.724 28.737 225.708 30.4877 225.676 32.1111C225.644 33.7344 225.613 35.2623 225.581 36.6947C225.549 38.1271 225.501 39.5596 225.438 40.992C225.406 41.7559 225.326 42.3448 225.199 42.7586C225.103 43.1724 224.96 43.4907 224.769 43.7135C224.578 43.9363 224.355 44.0637 224.101 44.0955C223.878 44.1592 223.607 44.191 223.289 44.191C222.716 44.191 222.238 44 221.857 43.618C221.475 43.2042 221.252 42.3448 221.188 41.0397C221.029 37.5383 220.933 34.0368 220.902 30.5354C220.902 27.0022 220.902 23.3575 220.902 19.6014C220.902 17.4687 220.918 15.7976 220.949 14.588C221.013 13.3784 221.124 12.4712 221.284 11.8664C221.475 11.2616 221.713 10.8797 222 10.7205C222.318 10.5614 222.732 10.4818 223.241 10.4818C223.75 10.4818 224.419 10.8797 225.247 11.6754C226.074 12.4394 226.981 13.458 227.968 14.7312C228.955 16.0045 230.005 17.4687 231.119 19.1239C232.265 20.7792 233.395 22.4821 234.509 24.2328C235.624 25.9836 236.69 27.7184 237.708 29.4372C238.759 31.1561 239.714 32.7158 240.573 34.1164C240.541 32.6204 240.526 30.981 240.526 29.1985C240.526 27.3841 240.526 25.3788 240.526 23.1824C240.526 20.6677 240.541 18.5987 240.573 16.9753C240.605 15.3201 240.685 14.015 240.812 13.0601C240.971 12.1052 241.21 11.4367 241.528 11.0547C241.846 10.6728 242.292 10.4818 242.865 10.4818C243.406 10.4818 243.884 10.6568 244.297 11.007C244.711 11.3571 244.95 12.1688 245.014 13.4421C245.077 14.588 245.125 15.6066 245.157 16.4979C245.189 17.3891 245.221 18.2804 245.252 19.1717C245.284 20.0311 245.3 20.9383 245.3 21.8932C245.3 22.8164 245.3 23.8668 245.3 25.0445C245.3 26.4769 245.3 27.8457 245.3 29.1508C245.3 30.4558 245.284 31.745 245.252 33.0182C245.221 34.2915 245.189 35.5807 245.157 36.8857C245.125 38.1908 245.077 39.5596 245.014 40.992C244.982 41.7559 244.902 42.3448 244.775 42.7586C244.679 43.1724 244.536 43.4907 244.345 43.7135C244.154 43.9363 243.931 44.0637 243.677 44.0955C243.454 44.1592 243.183 44.191 242.865 44.191C242.324 44.191 241.862 44.0318 241.48 43.7135C241.098 43.3952 240.541 42.7427 239.809 41.7559ZM262.207 10.2908C263.098 10.2908 264.117 10.3704 265.263 10.5295C266.441 10.6568 267.539 10.9115 268.557 11.2935C269.576 11.6436 270.435 12.1211 271.136 12.7259C271.836 13.2988 272.186 14.015 272.186 14.8745C272.186 15.3838 272.043 15.8135 271.756 16.1636C271.47 16.5138 271.008 16.6889 270.372 16.6889C269.894 16.6889 269.401 16.5934 268.892 16.4024C268.414 16.2114 267.857 16.0204 267.22 15.8294C266.616 15.6066 265.899 15.3997 265.072 15.2087C264.276 15.0177 263.337 14.9222 262.255 14.9222C260.154 14.9222 258.594 15.3042 257.576 16.0681C256.589 16.8003 256.095 17.8189 256.095 19.1239C256.095 20.0152 256.318 20.7632 256.764 21.368C257.21 21.9728 257.798 22.498 258.531 22.9437C259.294 23.3575 260.138 23.7076 261.061 23.9941C262.016 24.2806 262.987 24.5512 263.974 24.8058C265.088 25.0923 266.186 25.4424 267.268 25.8562C268.382 26.27 269.369 26.8112 270.228 27.4796C271.088 28.1481 271.772 28.9916 272.282 30.0102C272.823 31.0288 273.093 32.318 273.093 33.8777C273.093 35.5011 272.791 36.9653 272.186 38.2704C271.581 39.5436 270.754 40.6418 269.703 41.5649C268.653 42.4562 267.395 43.1565 265.931 43.6658C264.467 44.1432 262.875 44.382 261.157 44.382C260.202 44.382 259.088 44.2865 257.814 44.0955C256.541 43.9363 255.331 43.6499 254.186 43.2361C253.04 42.7904 252.069 42.2175 251.273 41.5172C250.477 40.7851 250.079 39.8938 250.079 38.8433C250.079 38.2067 250.238 37.6974 250.557 37.3155C250.907 36.9335 251.416 36.7425 252.085 36.7425C252.626 36.7425 253.071 36.8539 253.422 37.0767C253.772 37.2677 254.074 37.4905 254.329 37.7452C255.284 38.5728 256.366 39.1298 257.576 39.4163C258.785 39.7028 260.027 39.846 261.3 39.846C262.032 39.846 262.796 39.7983 263.592 39.7028C264.419 39.5755 265.167 39.3367 265.836 38.9866C266.504 38.6364 267.061 38.1431 267.507 37.5064C267.953 36.838 268.175 35.9467 268.175 34.8326C268.175 33.814 267.968 32.9864 267.555 32.3498C267.173 31.6813 266.647 31.1243 265.979 30.6787C265.311 30.233 264.515 29.867 263.592 29.5805C262.7 29.294 261.73 29.0075 260.679 28.721C259.501 28.4027 258.34 28.0526 257.194 27.6706C256.048 27.2886 255.029 26.7793 254.138 26.1427C253.247 25.4743 252.514 24.6466 251.941 23.6599C251.4 22.6413 251.13 21.3521 251.13 19.7924C251.13 18.2327 251.416 16.8639 251.989 15.6862C252.562 14.5084 253.342 13.5216 254.329 12.7259C255.316 11.9301 256.477 11.3253 257.814 10.9115C259.183 10.4977 260.647 10.2908 262.207 10.2908ZM291.43 19.6491C291.621 19.2035 291.907 18.8375 292.289 18.551C292.703 18.2645 293.132 18.1213 293.578 18.1213C293.992 18.1213 294.39 18.2645 294.772 18.551C295.154 18.8056 295.456 19.1558 295.679 19.6014C296.889 22.0842 298.082 24.774 299.26 27.6706C300.438 30.5354 301.504 33.257 302.459 35.8353C303 31.8882 303.589 27.9093 304.226 23.8986C304.862 19.8879 305.578 16.0522 306.374 12.3916C306.47 11.9778 306.613 11.6436 306.804 11.389C306.995 11.1025 307.202 10.8956 307.425 10.7683C307.648 10.6091 307.87 10.4977 308.093 10.434C308.348 10.3704 308.555 10.3385 308.714 10.3385C309.255 10.3385 309.701 10.4977 310.051 10.816C310.401 11.1025 310.576 11.5004 310.576 12.0097C310.576 12.5826 310.48 13.6012 310.289 15.0655C310.099 16.4979 309.844 18.1849 309.526 20.1266C309.207 22.0365 308.841 24.0737 308.427 26.2382C308.045 28.4027 307.663 30.4877 307.281 32.493C306.899 34.4984 306.533 36.3287 306.183 37.9839C305.833 39.6391 305.547 40.8965 305.324 41.7559C305.133 42.488 304.846 43.0451 304.464 43.427C304.082 43.7772 303.525 43.9523 302.793 43.9523C302.029 43.9523 301.377 43.618 300.836 42.9496C300.326 42.2493 299.753 41.167 299.117 39.7028C298.512 38.2386 297.78 36.3764 296.92 34.1164C296.061 31.8246 294.947 29.0871 293.578 25.904C292.178 29.0871 291.032 31.8246 290.14 34.1164C289.281 36.4083 288.533 38.2863 287.896 39.7505C287.291 41.2148 286.719 42.297 286.177 42.9973C285.636 43.6658 285 44 284.268 44C282.994 44 282.151 43.2679 281.737 41.8036C281.482 40.9442 281.18 39.7028 280.83 38.0794C280.48 36.4242 280.114 34.5939 279.732 32.5885C279.381 30.5832 279.015 28.5141 278.633 26.3814C278.251 24.2169 277.917 22.1797 277.631 20.2699C277.344 18.36 277.105 16.6889 276.915 15.2564C276.755 13.7922 276.676 12.7736 276.676 12.2007C276.676 11.6595 276.851 11.2139 277.201 10.8637C277.551 10.5136 278.045 10.3385 278.681 10.3385C279.127 10.3385 279.556 10.4818 279.97 10.7683C280.384 11.0229 280.686 11.564 280.877 12.3916C281.641 16.0522 282.31 19.8879 282.883 23.8986C283.488 27.9093 284.124 31.8882 284.793 35.8353C285.779 33.5116 286.766 31.0447 287.753 28.4346C288.74 25.8244 289.965 22.8959 291.43 19.6491ZM314.91 36.7425C314.846 35.7239 314.782 34.3392 314.719 32.5885C314.655 30.8378 314.623 29.0393 314.623 27.1931C314.623 26.1427 314.623 25.0605 314.623 23.9464C314.655 22.8004 314.687 21.6386 314.719 20.4608C314.782 18.1053 314.926 16.2591 315.148 14.9222C315.403 13.5853 315.881 12.5826 316.581 11.9142C317.313 11.2457 318.332 10.8319 319.637 10.6728C320.942 10.5136 322.677 10.434 324.841 10.434C324.873 10.434 325.207 10.434 325.844 10.434C326.512 10.434 327.308 10.4499 328.231 10.4818C329.154 10.4818 330.109 10.4977 331.096 10.5295C332.114 10.5613 332.958 10.5932 333.626 10.625C334.327 10.6887 334.884 10.7842 335.298 10.9115C335.743 11.007 336.077 11.1502 336.3 11.3412C336.523 11.5004 336.666 11.7073 336.73 11.9619C336.794 12.1847 336.826 12.4394 336.826 12.7259C336.826 13.458 336.619 13.9991 336.205 14.3493C335.791 14.6676 334.947 14.8745 333.674 14.97C333.038 15.0336 332.099 15.0814 330.857 15.1132C329.648 15.1132 328.406 15.1132 327.133 15.1132C325.86 15.1132 324.714 15.1291 323.695 15.161C322.677 15.161 322.04 15.161 321.785 15.161C320.958 15.1928 320.369 15.3838 320.019 15.7339C319.7 16.0522 319.541 16.8321 319.541 18.0735C319.541 18.36 319.557 19.0603 319.589 20.1744C319.653 21.2566 319.684 22.7845 319.684 24.7581H323.647C325.334 24.7581 326.703 24.7899 327.754 24.8535C328.836 24.8854 329.663 24.9809 330.236 25.14C330.841 25.2992 331.255 25.5538 331.478 25.904C331.701 26.2541 331.812 26.7157 331.812 27.2886C331.812 27.5751 331.78 27.8457 331.717 28.1003C331.685 28.3231 331.557 28.53 331.335 28.721C331.112 28.8802 330.793 29.0234 330.38 29.1508C329.966 29.2462 329.377 29.3258 328.613 29.3895C327.69 29.4532 326.815 29.5009 325.987 29.5327C325.191 29.5327 324.395 29.5327 323.6 29.5327H319.589C319.589 30.0102 319.589 30.5832 319.589 31.2516C319.589 31.9201 319.589 32.6044 319.589 33.3047C319.589 34.005 319.589 34.6894 319.589 35.3578C319.621 36.0263 319.653 36.5674 319.684 36.9812C319.716 37.4905 319.78 37.9202 319.875 38.2704C320.003 38.6205 320.21 38.907 320.496 39.1298C320.814 39.3526 321.26 39.5118 321.833 39.6073C322.438 39.7028 323.234 39.7505 324.22 39.7505H334.486C335.6 39.7505 336.3 39.9574 336.587 40.3712C336.873 40.7851 337.016 41.3421 337.016 42.0424C337.016 42.6153 336.889 43.061 336.635 43.3793C336.38 43.6658 335.759 43.8727 334.772 44C333.817 44.1592 332.369 44.2546 330.427 44.2865C328.518 44.3183 325.876 44.3342 322.501 44.3342C321.069 44.3342 319.891 44.2069 318.968 43.9523C318.045 43.6976 317.297 43.2679 316.724 42.6631C316.151 42.0583 315.721 41.2784 315.435 40.3235C315.18 39.3367 315.005 38.1431 314.91 36.7425ZM352.324 32.2543C351.878 32.2861 351.417 32.318 350.939 32.3498C350.494 32.3498 350.032 32.3498 349.554 32.3498C349.013 32.3498 348.472 32.3498 347.931 32.3498C347.39 32.3498 346.785 32.318 346.117 32.2543V41.9469C346.117 42.9655 345.862 43.6021 345.353 43.8568C344.875 44.0796 344.271 44.191 343.538 44.191C343.156 44.191 342.854 44.1592 342.631 44.0955C342.408 44.0637 342.217 43.9841 342.058 43.8568C341.931 43.6976 341.82 43.4748 341.724 43.1883C341.66 42.9018 341.613 42.5039 341.581 41.9946C341.517 41.4217 341.469 40.5941 341.438 39.5118C341.406 38.3977 341.374 36.9653 341.342 35.2146C341.342 33.4639 341.326 31.3471 341.294 28.8643C341.294 26.3496 341.294 23.4052 341.294 20.0311C341.294 18.726 341.453 17.4687 341.772 16.2591C342.09 15.0177 342.663 13.9355 343.491 13.0123C344.318 12.0574 345.432 11.2935 346.833 10.7205C348.265 10.1475 350.08 9.86106 352.276 9.86106C353.836 9.86106 355.348 10.0361 356.812 10.3863C358.308 10.7364 359.629 11.3412 360.775 12.2007C361.921 13.0601 362.844 14.2219 363.544 15.6862C364.245 17.1504 364.595 18.9807 364.595 21.177C364.595 24.1055 363.958 26.3814 362.685 28.0048C361.443 29.5964 359.725 30.7264 357.528 31.3949L363.926 40.1803C364.499 40.9442 364.786 41.7241 364.786 42.5199C364.786 43.1565 364.563 43.6499 364.117 44C363.703 44.382 363.178 44.573 362.542 44.573C361.841 44.573 361.237 44.382 360.727 44C360.218 43.5862 359.74 43.061 359.295 42.4244L352.324 32.2543ZM359.82 21.1293C359.82 18.9329 359.152 17.3096 357.815 16.2591C356.51 15.1769 354.425 14.6357 351.56 14.6357C350.509 14.6357 349.634 14.7312 348.934 14.9222C348.233 15.0814 347.676 15.3997 347.263 15.8772C346.849 16.3546 346.546 17.0231 346.355 17.8825C346.196 18.7101 346.117 19.7765 346.117 21.0816C346.117 22.0047 346.117 23.0869 346.117 24.3283C346.117 25.5697 346.133 26.6998 346.164 27.7184C346.897 27.7502 347.708 27.7661 348.6 27.7661C349.523 27.7661 350.382 27.7661 351.178 27.7661C352.069 27.7661 353.008 27.7184 353.995 27.6229C355.014 27.4955 355.953 27.2091 356.812 26.7634C357.671 26.286 358.388 25.6175 358.961 24.7581C359.534 23.8668 359.82 22.6572 359.82 21.1293Z" fill="#3D7E81"/>
<path d="M56.0856 67.8482C58.1411 67.8482 60.1967 68.0351 62.2523 68.4088C64.3701 68.7203 66.27 69.2497 67.9518 69.9972C69.6336 70.6824 71.004 71.5545 72.0629 72.6134C73.1841 73.61 73.7447 74.7935 73.7447 76.1639C73.7447 77.5966 73.371 78.6866 72.6235 79.4341C71.8761 80.1816 70.9417 80.5553 69.8205 80.5553C68.7616 80.5553 67.8272 80.3996 67.0174 80.0882C66.2077 79.7144 65.2733 79.3095 64.2144 78.8735C63.2178 78.4375 62.0031 78.0637 60.5705 77.7523C59.1378 77.3785 57.2379 77.1917 54.8709 77.1917C52.5039 77.1917 50.2303 77.8146 48.0502 79.0604C45.9323 80.2439 44.0636 81.9257 42.4441 84.1059C40.8869 86.2237 39.6411 88.7464 38.7067 91.6741C37.7724 94.6017 37.3052 97.7785 37.3052 101.204C37.3052 105.44 37.8347 109.084 38.8936 112.136C40.0148 115.188 41.4475 117.711 43.1916 119.704C44.9357 121.635 46.8978 123.099 49.078 124.096C51.3204 125.03 53.5628 125.497 55.8053 125.497C58.4837 125.497 60.7262 125.217 62.5326 124.657C64.339 124.096 65.8651 123.473 67.1109 122.788C68.419 122.103 69.5402 121.48 70.4745 120.919C71.4089 120.359 72.3121 120.078 73.1841 120.078C74.2431 120.078 75.084 120.39 75.7069 121.013C76.3298 121.573 76.6412 122.601 76.6412 124.096C76.6412 125.342 76.1429 126.619 75.1463 127.927C74.2119 129.173 72.8104 130.325 70.9417 131.384C69.1353 132.38 66.9552 133.221 64.4013 133.907C61.8474 134.529 58.9821 134.841 55.8053 134.841C52.3171 134.841 48.8288 134.156 45.3406 132.785C41.9147 131.415 38.8313 129.391 36.0906 126.712C33.4121 123.971 31.2319 120.577 29.5501 116.528C27.8683 112.417 27.0274 107.651 27.0274 102.232C27.0274 96.813 27.7749 91.9855 29.2698 87.7498C30.8271 83.5141 32.9138 79.9324 35.5299 77.0048C38.2084 74.0149 41.2918 71.7413 44.78 70.1841C48.3305 68.6268 52.099 67.8482 56.0856 67.8482ZM121.736 128.207C121.611 124.843 121.487 121.324 121.362 117.649C121.3 113.912 121.269 109.614 121.269 104.755C119.275 104.817 117.158 104.88 114.915 104.942C112.673 104.942 110.368 104.942 108.001 104.942C105.198 104.942 102.644 104.942 100.339 104.942C98.0346 104.942 95.979 104.911 94.1726 104.848C94.1104 108.773 94.0481 112.572 93.9858 116.247C93.9235 119.86 93.7989 123.816 93.612 128.114C93.5497 129.609 93.394 130.761 93.1449 131.571C92.958 132.38 92.6777 133.003 92.3039 133.439C91.9302 133.875 91.4942 134.125 90.9959 134.187C90.5598 134.311 90.0304 134.374 89.4075 134.374C88.2863 134.374 87.3519 134 86.6044 133.253C85.857 132.443 85.4209 130.761 85.2963 128.207C85.1718 125.965 85.0783 123.629 85.016 121.199C85.016 118.77 84.9849 116.154 84.9226 113.351C84.8603 110.548 84.8292 107.527 84.8292 104.288C84.8292 100.986 84.8292 97.3113 84.8292 93.2625C84.8292 88.8399 84.8603 85.0713 84.9226 81.9569C84.9849 78.7801 85.1406 76.195 85.3898 74.2018C85.7012 72.2085 86.1684 70.7447 86.7913 69.8103C87.4142 68.876 88.2863 68.4088 89.4075 68.4088C90.4664 68.4088 91.4007 68.7514 92.2105 69.4366C93.0203 70.1218 93.4875 71.7102 93.612 74.2018C93.7366 76.3196 93.8301 78.2506 93.8923 79.9947C93.9546 81.6766 94.0169 83.3584 94.0792 85.0402C94.1415 86.6597 94.1726 88.3416 94.1726 90.0857C94.1726 91.8298 94.1726 93.7608 94.1726 95.8786C98.8444 95.6918 103.423 95.5983 107.908 95.5983C110.088 95.5983 112.268 95.6295 114.448 95.6918C116.69 95.754 118.964 95.8475 121.269 95.9721V93.2625C121.269 88.8399 121.3 85.0713 121.362 81.9569C121.424 78.7801 121.58 76.195 121.829 74.2018C122.141 72.2085 122.608 70.7447 123.231 69.8103C123.854 68.876 124.726 68.4088 125.847 68.4088C126.906 68.4088 127.84 68.7514 128.65 69.4366C129.46 70.1218 129.927 71.7102 130.052 74.2018C130.176 76.4442 130.27 78.4375 130.332 80.1816C130.394 81.9257 130.456 83.6698 130.519 85.4139C130.581 87.0958 130.612 88.871 130.612 90.7397C130.612 92.5461 130.612 94.6017 130.612 96.9064C130.612 99.7095 130.612 102.388 130.612 104.942C130.612 107.496 130.581 110.018 130.519 112.51C130.456 115.002 130.394 117.524 130.332 120.078C130.27 122.632 130.176 125.311 130.052 128.114C129.989 129.609 129.834 130.761 129.584 131.571C129.398 132.38 129.117 133.003 128.743 133.439C128.37 133.875 127.934 134.125 127.435 134.187C126.999 134.311 126.47 134.374 125.847 134.374C124.726 134.374 123.791 134 123.044 133.253C122.296 132.443 121.86 130.761 121.736 128.207ZM143.259 128.207C143.134 125.965 143.041 123.629 142.978 121.199C142.978 118.77 142.947 116.154 142.885 113.351C142.823 110.548 142.792 107.527 142.792 104.288C142.792 100.986 142.792 97.3113 142.792 93.2625C142.792 88.8399 142.823 85.0713 142.885 81.9569C142.947 78.7801 143.134 76.195 143.446 74.2018C143.757 72.2085 144.224 70.7447 144.847 69.8103C145.532 68.876 146.436 68.4088 147.557 68.4088C148.117 68.4088 148.647 68.4711 149.145 68.5957C149.643 68.7203 150.079 69.0006 150.453 69.4366C150.827 69.8103 151.138 70.4021 151.388 71.2119C151.699 71.9593 151.886 72.956 151.948 74.2018C152.073 76.4442 152.166 78.4375 152.228 80.1816C152.291 81.9257 152.353 83.6698 152.415 85.4139C152.478 87.0958 152.509 88.871 152.509 90.7397C152.509 92.5461 152.509 94.6017 152.509 96.9064C152.509 99.7095 152.509 102.388 152.509 104.942C152.509 107.496 152.478 110.018 152.415 112.51C152.353 115.002 152.291 117.524 152.228 120.078C152.166 122.632 152.073 125.311 151.948 128.114C151.886 129.609 151.73 130.761 151.481 131.571C151.232 132.38 150.92 133.003 150.547 133.439C150.173 133.875 149.737 134.125 149.239 134.187C148.74 134.311 148.18 134.374 147.557 134.374C146.436 134.374 145.47 134 144.66 133.253C143.85 132.443 143.383 130.761 143.259 128.207ZM191.858 67.8482C193.913 67.8482 195.969 68.0351 198.025 68.4088C200.142 68.7203 202.042 69.2497 203.724 69.9972C205.406 70.6824 206.776 71.5545 207.835 72.6134C208.956 73.61 209.517 74.7935 209.517 76.1639C209.517 77.5966 209.143 78.6866 208.396 79.4341C207.648 80.1816 206.714 80.5553 205.593 80.5553C204.534 80.5553 203.6 80.3996 202.79 80.0882C201.98 79.7144 201.046 79.3095 199.987 78.8735C198.99 78.4375 197.775 78.0637 196.343 77.7523C194.91 77.3785 193.01 77.1917 190.643 77.1917C188.276 77.1917 186.003 77.8146 183.823 79.0604C181.705 80.2439 179.836 81.9257 178.216 84.1059C176.659 86.2237 175.413 88.7464 174.479 91.6741C173.545 94.6017 173.078 97.7785 173.078 101.204C173.078 105.44 173.607 109.084 174.666 112.136C175.787 115.188 177.22 117.711 178.964 119.704C180.708 121.635 182.67 123.099 184.85 124.096C187.093 125.03 189.335 125.497 191.578 125.497C194.256 125.497 196.499 125.217 198.305 124.657C200.111 124.096 201.637 123.473 202.883 122.788C204.191 122.103 205.313 121.48 206.247 120.919C207.181 120.359 208.084 120.078 208.956 120.078C210.015 120.078 210.856 120.39 211.479 121.013C212.102 121.573 212.414 122.601 212.414 124.096C212.414 125.342 211.915 126.619 210.919 127.927C209.984 129.173 208.583 130.325 206.714 131.384C204.908 132.38 202.727 133.221 200.174 133.907C197.62 134.529 194.754 134.841 191.578 134.841C188.089 134.841 184.601 134.156 181.113 132.785C177.687 131.415 174.604 129.391 171.863 126.712C169.184 123.971 167.004 120.577 165.322 116.528C163.641 112.417 162.8 107.651 162.8 102.232C162.8 96.813 163.547 91.9855 165.042 87.7498C166.599 83.5141 168.686 79.9324 171.302 77.0048C173.981 74.0149 177.064 71.7413 180.552 70.1841C184.103 68.6268 187.871 67.8482 191.858 67.8482ZM221.069 128.207C220.944 125.965 220.851 123.629 220.788 121.199C220.788 118.77 220.757 116.154 220.695 113.351C220.633 110.548 220.602 107.527 220.602 104.288C220.602 100.986 220.602 97.3113 220.602 93.2625C220.602 88.8399 220.633 85.0713 220.695 81.9569C220.757 78.7801 220.913 76.195 221.162 74.2018C221.474 72.2085 221.941 70.7447 222.564 69.8103C223.187 68.876 224.059 68.4088 225.18 68.4088C226.239 68.4088 227.173 68.7514 227.983 69.4366C228.793 70.1218 229.26 71.7102 229.384 74.2018C229.509 76.4442 229.602 78.4375 229.665 80.1816C229.727 81.9257 229.789 83.6698 229.852 85.4139C229.914 87.0958 229.945 88.871 229.945 90.7397C229.945 92.5461 229.945 94.6017 229.945 96.9064V101.765L249.94 78.8735C252.556 75.8836 254.581 73.9215 256.013 72.9871C257.446 71.9905 258.692 71.4922 259.751 71.4922C260.996 71.4922 261.9 71.8036 262.46 72.4265C263.083 73.0494 263.395 73.828 263.395 74.7624C263.395 75.1361 263.332 75.5099 263.208 75.8836C263.083 76.2573 262.803 76.7868 262.367 77.472C261.993 78.0949 261.401 78.9047 260.592 79.9013C259.782 80.8356 258.692 82.0503 257.321 83.5452L244.334 97.6539L264.796 126.806C265.294 127.491 265.668 128.207 265.917 128.955C266.229 129.702 266.385 130.418 266.385 131.104C266.385 132.287 266.042 133.253 265.357 134C264.734 134.81 263.613 135.215 261.993 135.215C260.685 135.215 259.502 134.841 258.443 134.093C257.446 133.408 256.512 132.38 255.64 131.01L237.887 104.755L229.852 113.538C229.789 115.905 229.727 118.272 229.665 120.639C229.602 123.006 229.509 125.497 229.384 128.114C229.322 129.609 229.166 130.761 228.917 131.571C228.73 132.38 228.45 133.003 228.076 133.439C227.703 133.875 227.267 134.125 226.768 134.187C226.332 134.311 225.803 134.374 225.18 134.374C224.059 134.374 223.124 134 222.377 133.253C221.629 132.443 221.193 130.761 221.069 128.207ZM274.449 119.798C274.325 117.805 274.2 115.095 274.075 111.669C273.951 108.243 273.889 104.724 273.889 101.111C273.889 99.0554 273.889 96.9376 273.889 94.7574C273.951 92.515 274.013 90.2414 274.075 87.9367C274.2 83.3272 274.48 79.7144 274.916 77.0982C275.415 74.4821 276.349 72.5199 277.719 71.2119C279.152 69.9038 281.145 69.094 283.699 68.7826C286.253 68.4711 289.648 68.3154 293.884 68.3154C293.946 68.3154 294.6 68.3154 295.846 68.3154C297.154 68.3154 298.711 68.3465 300.517 68.4088C302.324 68.4088 304.193 68.44 306.123 68.5023C308.117 68.5645 309.767 68.6268 311.076 68.6891C312.446 68.8137 313.536 69.0006 314.346 69.2497C315.218 69.4366 315.872 69.7169 316.308 70.0906C316.744 70.4021 317.024 70.807 317.149 71.3053C317.273 71.7413 317.336 72.2396 317.336 72.8002C317.336 74.2329 316.931 75.2918 316.121 75.977C315.311 76.5999 313.661 77.0048 311.169 77.1917C309.923 77.3163 308.086 77.4097 305.656 77.472C303.289 77.472 300.86 77.472 298.368 77.472C295.877 77.472 293.634 77.5031 291.641 77.5654C289.648 77.5654 288.402 77.5654 287.904 77.5654C286.284 77.6277 285.132 78.0014 284.447 78.6866C283.824 79.3095 283.512 80.8356 283.512 83.2649C283.512 83.8255 283.543 85.1959 283.606 87.3761C283.73 89.4939 283.793 92.4838 283.793 96.3458H291.548C294.849 96.3458 297.527 96.4081 299.583 96.5327C301.701 96.595 303.32 96.7818 304.442 97.0933C305.625 97.4047 306.435 97.903 306.871 98.5882C307.307 99.2734 307.525 100.177 307.525 101.298C307.525 101.858 307.463 102.388 307.338 102.886C307.276 103.322 307.027 103.727 306.591 104.101C306.155 104.412 305.532 104.693 304.722 104.942C303.912 105.129 302.76 105.284 301.265 105.409C299.458 105.534 297.746 105.627 296.126 105.689C294.569 105.689 293.011 105.689 291.454 105.689H283.606C283.606 106.624 283.606 107.745 283.606 109.053C283.606 110.361 283.606 111.7 283.606 113.071C283.606 114.441 283.606 115.78 283.606 117.088C283.668 118.396 283.73 119.455 283.793 120.265C283.855 121.262 283.979 122.103 284.166 122.788C284.415 123.473 284.82 124.034 285.381 124.47C286.004 124.906 286.876 125.217 287.997 125.404C289.181 125.591 290.738 125.684 292.669 125.684H312.757C314.938 125.684 316.308 126.089 316.868 126.899C317.429 127.709 317.709 128.799 317.709 130.169C317.709 131.29 317.46 132.162 316.962 132.785C316.464 133.346 315.249 133.751 313.318 134C311.449 134.311 308.615 134.498 304.815 134.561C301.078 134.623 295.908 134.654 289.305 134.654C286.502 134.654 284.197 134.405 282.391 133.907C280.585 133.408 279.121 132.567 278 131.384C276.878 130.2 276.038 128.674 275.477 126.806C274.979 124.875 274.636 122.539 274.449 119.798ZM363.081 129.609C361.087 126.868 359.188 124.158 357.381 121.48C355.637 118.739 353.737 115.749 351.682 112.51C349.688 109.271 347.384 105.689 344.768 101.765C342.214 97.7785 339.13 93.1379 335.517 87.8432C335.517 92.515 335.517 96.7195 335.517 100.457C335.517 104.132 335.486 107.558 335.424 110.735C335.362 113.912 335.299 116.901 335.237 119.704C335.175 122.508 335.081 125.311 334.957 128.114C334.895 129.609 334.739 130.761 334.49 131.571C334.303 132.38 334.023 133.003 333.649 133.439C333.275 133.875 332.839 134.125 332.341 134.187C331.905 134.311 331.375 134.374 330.752 134.374C329.631 134.374 328.697 134 327.949 133.253C327.202 132.443 326.766 130.761 326.641 128.207C326.33 121.355 326.143 114.503 326.081 107.651C326.081 100.737 326.081 93.605 326.081 86.2548C326.081 82.0814 326.112 78.8112 326.174 76.4442C326.299 74.0772 326.517 72.3019 326.828 71.1184C327.202 69.9349 327.669 69.1874 328.23 68.876C328.852 68.5645 329.662 68.4088 330.659 68.4088C331.656 68.4088 332.964 69.1874 334.583 70.7447C336.203 72.2396 337.978 74.2329 339.909 76.7245C341.84 79.2161 343.895 82.0814 346.076 85.3205C348.318 88.5596 350.529 91.8921 352.709 95.318C354.89 98.744 356.976 102.139 358.97 105.502C361.025 108.866 362.894 111.918 364.576 114.659C364.513 111.731 364.482 108.523 364.482 105.035C364.482 101.485 364.482 97.5605 364.482 93.2625C364.482 88.3416 364.513 84.2927 364.576 81.1159C364.638 77.8769 364.794 75.323 365.043 73.4543C365.354 71.5856 365.821 70.2775 366.444 69.53C367.067 68.7826 367.939 68.4088 369.061 68.4088C370.119 68.4088 371.054 68.7514 371.864 69.4366C372.673 70.1218 373.141 71.7102 373.265 74.2018C373.39 76.4442 373.483 78.4375 373.545 80.1816C373.608 81.9257 373.67 83.6698 373.732 85.4139C373.795 87.0958 373.826 88.871 373.826 90.7397C373.826 92.5461 373.826 94.6017 373.826 96.9064C373.826 99.7095 373.826 102.388 373.826 104.942C373.826 107.496 373.795 110.018 373.732 112.51C373.67 115.002 373.608 117.524 373.545 120.078C373.483 122.632 373.39 125.311 373.265 128.114C373.203 129.609 373.047 130.761 372.798 131.571C372.611 132.38 372.331 133.003 371.957 133.439C371.583 133.875 371.147 134.125 370.649 134.187C370.213 134.311 369.683 134.374 369.061 134.374C368.002 134.374 367.098 134.062 366.351 133.439C365.603 132.816 364.513 131.54 363.081 129.609ZM404.272 73.4543C404.272 71.9593 404.397 70.807 404.646 69.9972C404.895 69.1874 405.238 68.5645 405.674 68.1285C406.11 67.6925 406.608 67.4433 407.169 67.381C407.729 67.2565 408.321 67.1942 408.944 67.1942C409.567 67.1942 410.159 67.2876 410.719 67.4745C411.28 67.599 411.778 67.9105 412.214 68.4088C412.65 68.8448 412.993 69.4677 413.242 70.2775C413.491 71.0873 413.616 72.1151 413.616 73.3609V112.603C413.616 116.341 413.304 119.58 412.681 122.321C412.121 125.061 411.155 127.335 409.785 129.141C408.415 130.886 406.608 132.194 404.366 133.066C402.123 133.938 399.32 134.374 395.957 134.374C394.773 134.374 393.34 134.187 391.659 133.813C389.977 133.439 388.357 132.879 386.8 132.131C385.305 131.322 383.997 130.294 382.876 129.048C381.817 127.74 381.287 126.183 381.287 124.376C381.287 122.944 381.755 121.947 382.689 121.386C383.685 120.826 384.776 120.545 385.959 120.545C386.831 120.545 387.641 120.795 388.388 121.293C389.136 121.729 389.883 122.227 390.631 122.788C391.441 123.348 392.281 123.878 393.154 124.376C394.026 124.812 395.022 125.03 396.143 125.03C397.514 125.03 398.697 124.843 399.694 124.47C400.691 124.096 401.5 123.38 402.123 122.321C402.808 121.262 403.307 119.798 403.618 117.929C403.992 115.998 404.179 113.538 404.179 110.548L404.272 73.4543ZM449.848 134.934C446.111 134.934 442.591 134.187 439.29 132.692C436.051 131.197 433.217 129.048 430.787 126.245C428.358 123.38 426.427 119.891 424.994 115.78C423.624 111.669 422.939 106.997 422.939 101.765C422.939 96.8441 423.531 92.3281 424.714 88.217C425.96 84.1059 427.766 80.5553 430.133 77.5654C432.563 74.5755 435.552 72.2708 439.103 70.6512C442.654 68.9694 446.765 68.1285 451.436 68.1285C455.236 68.1285 458.849 68.8137 462.275 70.1841C465.701 71.5545 468.691 73.61 471.245 76.3508C473.861 79.0915 475.916 82.5175 477.411 86.6286C478.906 90.7397 479.654 95.536 479.654 101.018C479.654 105.565 479.031 109.894 477.785 114.005C476.601 118.116 474.764 121.729 472.272 124.843C469.843 127.896 466.76 130.356 463.022 132.225C459.285 134.031 454.893 134.934 449.848 134.934ZM450.035 126.151C453.461 126.151 456.451 125.466 459.005 124.096C461.558 122.663 463.676 120.795 465.358 118.49C467.04 116.185 468.286 113.538 469.096 110.548C469.905 107.496 470.31 104.381 470.31 101.204C470.31 97.3424 469.781 93.9165 468.722 90.9266C467.725 87.8744 466.355 85.3205 464.611 83.2649C462.867 81.2094 460.842 79.6521 458.537 78.5932C456.233 77.472 453.772 76.9114 451.156 76.9114C448.042 76.9114 445.301 77.5654 442.934 78.8735C440.629 80.1816 438.667 81.9569 437.047 84.1993C435.49 86.4417 434.307 89.089 433.497 92.1412C432.687 95.1312 432.282 98.3391 432.282 101.765C432.282 105.44 432.749 108.804 433.684 111.856C434.618 114.846 435.864 117.4 437.421 119.518C439.041 121.635 440.941 123.286 443.121 124.47C445.301 125.591 447.606 126.151 450.035 126.151ZM502.123 128.207C501.999 124.781 501.874 121.137 501.75 117.275C501.687 113.351 501.656 108.835 501.656 103.727L483.063 77.0982C482.564 76.4131 482.159 75.6967 481.848 74.9492C481.599 74.2018 481.474 73.4854 481.474 72.8002C481.474 71.6167 481.786 70.6512 482.409 69.9038C483.094 69.094 484.246 68.6891 485.866 68.6891C487.174 68.6891 488.326 69.0629 489.323 69.8103C490.382 70.4955 491.347 71.5233 492.219 72.8937L506.141 95.0377L520.063 72.8937C520.935 71.5233 521.869 70.4955 522.866 69.8103C523.925 69.0629 525.108 68.6891 526.416 68.6891C528.036 68.6891 529.157 69.094 529.78 69.9038C530.465 70.6512 530.808 71.6167 530.808 72.8002C530.808 73.4854 530.652 74.2018 530.341 74.9492C530.091 75.6967 529.718 76.4131 529.219 77.0982L511 103.167C511 107.402 510.937 111.482 510.813 115.406C510.75 119.268 510.626 123.504 510.439 128.114C510.377 129.609 510.221 130.761 509.972 131.571C509.785 132.38 509.505 133.003 509.131 133.439C508.757 133.875 508.321 134.125 507.823 134.187C507.387 134.311 506.857 134.374 506.234 134.374C505.113 134.374 504.179 134 503.431 133.253C502.684 132.443 502.248 130.761 502.123 128.207Z" fill="#F39342"/>
<path d="M0 185.203V172.859H1.39062V185.203H0ZM4.12466 185.203V175.875H5.51529V177.328C5.84862 176.88 6.26008 176.5 6.74966 176.188C7.23925 175.875 7.85904 175.719 8.60904 175.719C9.25487 175.719 9.85904 175.875 10.4215 176.188C10.9945 176.49 11.458 176.943 11.8122 177.547C12.1663 178.151 12.3434 178.896 12.3434 179.781V185.203H10.9528V179.812C10.9528 178.969 10.708 178.292 10.2184 177.781C9.72883 177.26 9.09862 177 8.32779 177C7.80696 177 7.333 177.12 6.90591 177.359C6.48925 177.589 6.15071 177.917 5.89029 178.344C5.64029 178.771 5.51529 179.266 5.51529 179.828V185.203H4.12466ZM19.6579 185.203V177.109H17.7516V175.875H19.6579V172.531H21.0641V175.875H23.2048V177.109H21.0641V185.203H19.6579ZM24.7398 185.203V172.141H26.1304V177.328C26.4638 176.88 26.8752 176.5 27.3648 176.188C27.8544 175.875 28.4742 175.719 29.2242 175.719C29.87 175.719 30.4742 175.875 31.0367 176.188C31.6096 176.49 32.0732 176.943 32.4273 177.547C32.7815 178.151 32.9586 178.896 32.9586 179.781V185.203H31.5679V179.812C31.5679 178.969 31.3232 178.292 30.8336 177.781C30.344 177.26 29.7138 177 28.9429 177C28.4221 177 27.9482 177.12 27.5211 177.359C27.1044 177.589 26.7659 177.917 26.5054 178.344C26.2554 178.771 26.1304 179.266 26.1304 179.828V185.203H24.7398ZM35.2368 174.312V172.484H36.7524V174.312H35.2368ZM35.2993 185.203V175.875H36.6899V185.203H35.2993ZM42.5144 185.359C41.6603 185.359 40.9363 185.219 40.3425 184.938C39.7488 184.646 39.2957 184.266 38.9832 183.797C38.6707 183.328 38.4988 182.823 38.4675 182.281H39.9207C39.9623 182.583 40.0717 182.885 40.2488 183.188C40.4259 183.479 40.7019 183.714 41.0769 183.891C41.4519 184.068 41.9363 184.156 42.53 184.156C42.7175 184.156 42.9467 184.141 43.2175 184.109C43.4988 184.068 43.7644 184 44.0144 183.906C44.2748 183.802 44.4884 183.651 44.655 183.453C44.8321 183.255 44.9207 183 44.9207 182.688C44.9207 182.302 44.7696 182.005 44.4675 181.797C44.1759 181.578 43.7905 181.411 43.3113 181.297C42.8425 181.182 42.3425 181.068 41.8113 180.953C41.28 180.839 40.78 180.693 40.3113 180.516C39.8425 180.328 39.4571 180.073 39.155 179.75C38.853 179.417 38.7019 178.964 38.7019 178.391C38.7019 177.547 39.0092 176.891 39.6238 176.422C40.2488 175.953 41.1603 175.719 42.3582 175.719C43.1811 175.719 43.8478 175.849 44.3582 176.109C44.879 176.359 45.2748 176.688 45.5457 177.094C45.8165 177.49 45.9728 177.917 46.0144 178.375H44.6082C44.5561 177.979 44.3582 177.641 44.0144 177.359C43.6707 177.068 43.1082 176.922 42.3269 176.922C40.8478 176.922 40.1082 177.37 40.1082 178.266C40.1082 178.641 40.254 178.927 40.5457 179.125C40.8478 179.323 41.2332 179.484 41.7019 179.609C42.1811 179.724 42.6811 179.833 43.2019 179.938C43.7332 180.042 44.2332 180.188 44.7019 180.375C45.1811 180.562 45.5665 180.828 45.8582 181.172C46.1603 181.505 46.3113 181.964 46.3113 182.547C46.3113 183.464 45.9675 184.161 45.28 184.641C44.5925 185.12 43.6707 185.359 42.5144 185.359ZM52.3868 185.203V172.859H61.293V174.203H53.7774V178.484H60.4805V179.844H53.7774V185.203H52.3868V185.203ZM66.624 185.359C65.7073 185.359 64.9105 185.146 64.2334 184.719C63.5563 184.281 63.0302 183.698 62.6552 182.969C62.2907 182.229 62.1084 181.417 62.1084 180.531C62.1084 179.646 62.2907 178.839 62.6552 178.109C63.0302 177.38 63.5563 176.802 64.2334 176.375C64.9105 175.938 65.7073 175.719 66.624 175.719C67.3948 175.719 68.0563 175.87 68.6084 176.172C69.1605 176.474 69.6084 176.88 69.9521 177.391V175.875H71.3584V185.203H69.9521V183.703C69.6084 184.203 69.1605 184.604 68.6084 184.906C68.0563 185.208 67.3948 185.359 66.624 185.359ZM66.7959 184.078C67.4938 184.078 68.0823 183.917 68.5615 183.594C69.0407 183.271 69.4052 182.839 69.6552 182.297C69.9052 181.755 70.0302 181.167 70.0302 180.531C70.0302 179.885 69.9052 179.297 69.6552 178.766C69.4052 178.234 69.0407 177.807 68.5615 177.484C68.0823 177.161 67.4938 177 66.7959 177C66.1188 177 65.5302 177.161 65.0302 177.484C64.5302 177.807 64.15 178.234 63.8896 178.766C63.6292 179.297 63.499 179.885 63.499 180.531C63.499 181.167 63.6292 181.755 63.8896 182.297C64.15 182.839 64.5302 183.271 65.0302 183.594C65.5302 183.917 66.1188 184.078 66.7959 184.078ZM77.1776 185.359C76.3234 185.359 75.5995 185.219 75.0057 184.938C74.412 184.646 73.9588 184.266 73.6463 183.797C73.3338 183.328 73.162 182.823 73.1307 182.281H74.5838C74.6255 182.583 74.7349 182.885 74.912 183.188C75.089 183.479 75.3651 183.714 75.7401 183.891C76.1151 184.068 76.5995 184.156 77.1932 184.156C77.3807 184.156 77.6099 184.141 77.8807 184.109C78.162 184.068 78.4276 184 78.6776 183.906C78.938 183.802 79.1515 183.651 79.3182 183.453C79.4953 183.255 79.5838 183 79.5838 182.688C79.5838 182.302 79.4328 182.005 79.1307 181.797C78.839 181.578 78.4536 181.411 77.9745 181.297C77.5057 181.182 77.0057 181.068 76.4745 180.953C75.9432 180.839 75.4432 180.693 74.9745 180.516C74.5057 180.328 74.1203 180.073 73.8182 179.75C73.5161 179.417 73.3651 178.964 73.3651 178.391C73.3651 177.547 73.6724 176.891 74.287 176.422C74.912 175.953 75.8234 175.719 77.0213 175.719C77.8442 175.719 78.5109 175.849 79.0213 176.109C79.5422 176.359 79.938 176.688 80.2088 177.094C80.4797 177.49 80.6359 177.917 80.6776 178.375H79.2713C79.2192 177.979 79.0213 177.641 78.6776 177.359C78.3338 177.068 77.7713 176.922 76.9901 176.922C75.5109 176.922 74.7713 177.37 74.7713 178.266C74.7713 178.641 74.9172 178.927 75.2088 179.125C75.5109 179.323 75.8963 179.484 76.3651 179.609C76.8442 179.724 77.3442 179.833 77.8651 179.938C78.3963 180.042 78.8963 180.188 79.3651 180.375C79.8442 180.562 80.2297 180.828 80.5213 181.172C80.8234 181.505 80.9745 181.964 80.9745 182.547C80.9745 183.464 80.6307 184.161 79.9432 184.641C79.2557 185.12 78.3338 185.359 77.1776 185.359ZM83.7793 185.203V177.109H81.873V175.875H83.7793V172.531H85.1855V175.875H87.3261V177.109H85.1855V185.203H83.7793ZM93.1319 185.203V172.859H102.038V174.203H94.5225V178.484H101.226V179.844H94.5225V185.203H93.1319ZM107.478 185.359C106.531 185.359 105.708 185.146 105.01 184.719C104.312 184.281 103.775 183.698 103.4 182.969C103.036 182.229 102.853 181.417 102.853 180.531C102.853 179.646 103.036 178.839 103.4 178.109C103.775 177.38 104.312 176.802 105.01 176.375C105.708 175.938 106.531 175.719 107.478 175.719C108.437 175.719 109.26 175.938 109.947 176.375C110.635 176.802 111.166 177.38 111.541 178.109C111.916 178.839 112.103 179.646 112.103 180.531C112.103 181.417 111.916 182.229 111.541 182.969C111.166 183.698 110.635 184.281 109.947 184.719C109.26 185.146 108.437 185.359 107.478 185.359ZM107.478 184.078C108.176 184.078 108.765 183.917 109.244 183.594C109.723 183.271 110.083 182.839 110.322 182.297C110.572 181.755 110.697 181.167 110.697 180.531C110.697 179.885 110.572 179.297 110.322 178.766C110.083 178.234 109.723 177.807 109.244 177.484C108.765 177.161 108.176 177 107.478 177C106.791 177 106.202 177.161 105.713 177.484C105.234 177.807 104.869 178.234 104.619 178.766C104.369 179.297 104.244 179.885 104.244 180.531C104.244 181.167 104.369 181.755 104.619 182.297C104.869 182.839 105.234 183.271 105.713 183.594C106.202 183.917 106.791 184.078 107.478 184.078ZM118.001 185.359C117.053 185.359 116.23 185.146 115.532 184.719C114.834 184.281 114.297 183.698 113.922 182.969C113.558 182.229 113.376 181.417 113.376 180.531C113.376 179.646 113.558 178.839 113.922 178.109C114.297 177.38 114.834 176.802 115.532 176.375C116.23 175.938 117.053 175.719 118.001 175.719C118.959 175.719 119.782 175.938 120.469 176.375C121.157 176.802 121.688 177.38 122.063 178.109C122.438 178.839 122.626 179.646 122.626 180.531C122.626 181.417 122.438 182.229 122.063 182.969C121.688 183.698 121.157 184.281 120.469 184.719C119.782 185.146 118.959 185.359 118.001 185.359ZM118.001 184.078C118.699 184.078 119.287 183.917 119.766 183.594C120.245 183.271 120.605 182.839 120.844 182.297C121.094 181.755 121.219 181.167 121.219 180.531C121.219 179.885 121.094 179.297 120.844 178.766C120.605 178.234 120.245 177.807 119.766 177.484C119.287 177.161 118.699 177 118.001 177C117.313 177 116.725 177.161 116.235 177.484C115.756 177.807 115.391 178.234 115.141 178.766C114.891 179.297 114.766 179.885 114.766 180.531C114.766 181.167 114.891 181.755 115.141 182.297C115.391 182.839 115.756 183.271 116.235 183.594C116.725 183.917 117.313 184.078 118.001 184.078ZM128.413 185.359C127.497 185.359 126.7 185.146 126.023 184.719C125.346 184.281 124.82 183.698 124.445 182.969C124.08 182.229 123.898 181.417 123.898 180.531C123.898 179.646 124.08 178.839 124.445 178.109C124.82 177.38 125.346 176.802 126.023 176.375C126.7 175.938 127.497 175.719 128.413 175.719C129.184 175.719 129.846 175.87 130.398 176.172C130.95 176.474 131.398 176.88 131.741 177.391V172.141H133.148V185.203H131.741V183.703C131.398 184.203 130.95 184.604 130.398 184.906C129.846 185.208 129.184 185.359 128.413 185.359ZM128.585 184.078C129.283 184.078 129.872 183.917 130.351 183.594C130.83 183.271 131.195 182.839 131.445 182.297C131.695 181.755 131.82 181.167 131.82 180.531C131.82 179.885 131.695 179.297 131.445 178.766C131.195 178.234 130.83 177.807 130.351 177.484C129.872 177.161 129.283 177 128.585 177C127.908 177 127.32 177.161 126.82 177.484C126.32 177.807 125.939 178.234 125.679 178.766C125.419 179.297 125.288 179.885 125.288 180.531C125.288 181.167 125.419 181.755 125.679 182.297C125.939 182.839 126.32 183.271 126.82 183.594C127.32 183.917 127.908 184.078 128.585 184.078ZM143.55 185.359C142.623 185.359 141.816 185.146 141.128 184.719C140.441 184.281 139.909 183.698 139.534 182.969C139.159 182.229 138.972 181.417 138.972 180.531C138.972 179.646 139.159 178.839 139.534 178.109C139.909 177.38 140.441 176.802 141.128 176.375C141.816 175.938 142.623 175.719 143.55 175.719C144.665 175.719 145.607 176.005 146.378 176.578C147.159 177.151 147.686 177.891 147.956 178.797H146.441C146.232 178.266 145.894 177.833 145.425 177.5C144.967 177.167 144.404 177 143.738 177C143.061 177 142.467 177.161 141.956 177.484C141.446 177.807 141.05 178.234 140.769 178.766C140.498 179.297 140.363 179.885 140.363 180.531C140.363 181.167 140.498 181.755 140.769 182.297C141.05 182.839 141.446 183.271 141.956 183.594C142.467 183.917 143.061 184.078 143.738 184.078C144.404 184.078 144.967 183.911 145.425 183.578C145.894 183.245 146.232 182.812 146.441 182.281H147.956C147.686 183.188 147.159 183.927 146.378 184.5C145.607 185.073 144.665 185.359 143.55 185.359ZM153.746 185.359C152.798 185.359 151.975 185.146 151.277 184.719C150.579 184.281 150.043 183.698 149.668 182.969C149.303 182.229 149.121 181.417 149.121 180.531C149.121 179.646 149.303 178.839 149.668 178.109C150.043 177.38 150.579 176.802 151.277 176.375C151.975 175.938 152.798 175.719 153.746 175.719C154.704 175.719 155.527 175.938 156.215 176.375C156.902 176.802 157.433 177.38 157.808 178.109C158.183 178.839 158.371 179.646 158.371 180.531C158.371 181.417 158.183 182.229 157.808 182.969C157.433 183.698 156.902 184.281 156.215 184.719C155.527 185.146 154.704 185.359 153.746 185.359ZM153.746 184.078C154.444 184.078 155.032 183.917 155.512 183.594C155.991 183.271 156.35 182.839 156.59 182.297C156.84 181.755 156.965 181.167 156.965 180.531C156.965 179.885 156.84 179.297 156.59 178.766C156.35 178.234 155.991 177.807 155.512 177.484C155.032 177.161 154.444 177 153.746 177C153.058 177 152.47 177.161 151.98 177.484C151.501 177.807 151.137 178.234 150.887 178.766C150.637 179.297 150.512 179.885 150.512 180.531C150.512 181.167 150.637 181.755 150.887 182.297C151.137 182.839 151.501 183.271 151.98 183.594C152.47 183.917 153.058 184.078 153.746 184.078ZM160.221 185.203V175.875H161.612V177.297C161.82 176.922 162.154 176.568 162.612 176.234C163.081 175.891 163.695 175.719 164.456 175.719C165.07 175.719 165.643 175.885 166.174 176.219C166.706 176.552 167.117 177.016 167.409 177.609C167.534 177.401 167.732 177.146 168.002 176.844C168.273 176.542 168.622 176.281 169.049 176.062C169.487 175.833 170.013 175.719 170.627 175.719C171.221 175.719 171.779 175.875 172.299 176.188C172.82 176.5 173.247 176.948 173.581 177.531C173.914 178.104 174.081 178.781 174.081 179.562V185.203H172.674V179.609C172.674 178.828 172.45 178.198 172.002 177.719C171.565 177.24 171.018 177 170.362 177C169.674 177 169.081 177.229 168.581 177.688C168.091 178.146 167.846 178.792 167.846 179.625V185.203H166.44V179.609C166.44 178.828 166.221 178.198 165.784 177.719C165.346 177.24 164.794 177 164.127 177C163.45 177 162.862 177.229 162.362 177.688C161.862 178.146 161.612 178.792 161.612 179.625V185.203H160.221ZM176.415 185.203V175.875H177.805V177.297C178.014 176.922 178.347 176.568 178.805 176.234C179.274 175.891 179.889 175.719 180.649 175.719C181.264 175.719 181.837 175.885 182.368 176.219C182.899 176.552 183.311 177.016 183.602 177.609C183.727 177.401 183.925 177.146 184.196 176.844C184.467 176.542 184.816 176.281 185.243 176.062C185.68 175.833 186.207 175.719 186.821 175.719C187.415 175.719 187.972 175.875 188.493 176.188C189.014 176.5 189.441 176.948 189.774 177.531C190.108 178.104 190.274 178.781 190.274 179.562V185.203H188.868V179.609C188.868 178.828 188.644 178.198 188.196 177.719C187.759 177.24 187.212 177 186.555 177C185.868 177 185.274 177.229 184.774 177.688C184.285 178.146 184.04 178.792 184.04 179.625V185.203H182.634V179.609C182.634 178.828 182.415 178.198 181.977 177.719C181.54 177.24 180.988 177 180.321 177C179.644 177 179.055 177.229 178.555 177.688C178.055 178.146 177.805 178.792 177.805 179.625V185.203H176.415ZM196.749 185.359C195.801 185.359 194.973 185.146 194.265 184.719C193.556 184.281 193.004 183.698 192.608 182.969C192.223 182.229 192.03 181.417 192.03 180.531C192.03 179.646 192.213 178.839 192.577 178.109C192.952 177.38 193.489 176.802 194.187 176.375C194.885 175.938 195.707 175.719 196.655 175.719C197.614 175.719 198.437 175.938 199.124 176.375C199.812 176.802 200.343 177.38 200.718 178.109C201.093 178.839 201.28 179.646 201.28 180.531V181.094H193.468C193.541 181.646 193.713 182.151 193.983 182.609C194.265 183.057 194.64 183.417 195.108 183.688C195.588 183.948 196.14 184.078 196.765 184.078C197.421 184.078 197.973 183.932 198.421 183.641C198.869 183.349 199.218 182.974 199.468 182.516H200.999C200.676 183.349 200.161 184.031 199.452 184.562C198.754 185.094 197.853 185.359 196.749 185.359ZM193.483 179.797H199.827C199.702 178.995 199.364 178.328 198.812 177.797C198.27 177.266 197.551 177 196.655 177C195.76 177 195.041 177.266 194.499 177.797C193.957 178.328 193.619 178.995 193.483 179.797ZM203 185.203V175.875H204.391V178.172C204.443 178.005 204.536 177.792 204.672 177.531C204.818 177.26 205.026 176.99 205.297 176.719C205.578 176.438 205.927 176.203 206.344 176.016C206.76 175.818 207.255 175.719 207.828 175.719H207.922V177.125H207.75C207.052 177.125 206.453 177.318 205.953 177.703C205.453 178.078 205.068 178.568 204.797 179.172C204.526 179.776 204.391 180.417 204.391 181.094V185.203H203ZM213.194 185.359C212.267 185.359 211.459 185.146 210.772 184.719C210.084 184.281 209.553 183.698 209.178 182.969C208.803 182.229 208.616 181.417 208.616 180.531C208.616 179.646 208.803 178.839 209.178 178.109C209.553 177.38 210.084 176.802 210.772 176.375C211.459 175.938 212.267 175.719 213.194 175.719C214.308 175.719 215.251 176.005 216.022 176.578C216.803 177.151 217.329 177.891 217.6 178.797H216.084C215.876 178.266 215.538 177.833 215.069 177.5C214.61 177.167 214.048 177 213.381 177C212.704 177 212.11 177.161 211.6 177.484C211.09 177.807 210.694 178.234 210.413 178.766C210.142 179.297 210.006 179.885 210.006 180.531C210.006 181.167 210.142 181.755 210.413 182.297C210.694 182.839 211.09 183.271 211.6 183.594C212.11 183.917 212.704 184.078 213.381 184.078C214.048 184.078 214.61 183.911 215.069 183.578C215.538 183.245 215.876 182.812 216.084 182.281H217.6C217.329 183.188 216.803 183.927 216.022 184.5C215.251 185.073 214.308 185.359 213.194 185.359ZM219.28 174.312V172.484H220.796V174.312H219.28ZM219.343 185.203V175.875H220.733V185.203H219.343ZM227.105 185.359C226.188 185.359 225.391 185.146 224.714 184.719C224.037 184.281 223.511 183.698 223.136 182.969C222.771 182.229 222.589 181.417 222.589 180.531C222.589 179.646 222.771 178.839 223.136 178.109C223.511 177.38 224.037 176.802 224.714 176.375C225.391 175.938 226.188 175.719 227.105 175.719C227.876 175.719 228.537 175.87 229.089 176.172C229.641 176.474 230.089 176.88 230.433 177.391V175.875H231.839V185.203H230.433V183.703C230.089 184.203 229.641 184.604 229.089 184.906C228.537 185.208 227.876 185.359 227.105 185.359ZM227.277 184.078C227.975 184.078 228.563 183.917 229.042 183.594C229.521 183.271 229.886 182.839 230.136 182.297C230.386 181.755 230.511 181.167 230.511 180.531C230.511 179.885 230.386 179.297 230.136 178.766C229.886 178.234 229.521 177.807 229.042 177.484C228.563 177.161 227.975 177 227.277 177C226.6 177 226.011 177.161 225.511 177.484C225.011 177.807 224.631 178.234 224.37 178.766C224.11 179.297 223.98 179.885 223.98 180.531C223.98 181.167 224.11 181.755 224.37 182.297C224.631 182.839 225.011 183.271 225.511 183.594C226.011 183.917 226.6 184.078 227.277 184.078ZM234.268 185.203V172.141H235.658V185.203H234.268ZM237.077 187.281L238.155 183.297H239.983L238.342 187.281H237.077ZM247.967 185.203L245.045 175.875H246.53L248.78 183.469L251.139 175.875H252.67L255.045 183.469L257.28 175.875H258.78L255.842 185.203H254.249L251.905 177.766L249.577 185.203H247.967ZM260.088 185.203V172.141H261.479V177.328C261.812 176.88 262.223 176.5 262.713 176.188C263.203 175.875 263.822 175.719 264.572 175.719C265.218 175.719 265.822 175.875 266.385 176.188C266.958 176.49 267.421 176.943 267.776 177.547C268.13 178.151 268.307 178.896 268.307 179.781V185.203H266.916V179.812C266.916 178.969 266.671 178.292 266.182 177.781C265.692 177.26 265.062 177 264.291 177C263.77 177 263.296 177.12 262.869 177.359C262.453 177.589 262.114 177.917 261.854 178.344C261.604 178.771 261.479 179.266 261.479 179.828V185.203H260.088ZM274.585 185.359C273.668 185.359 272.871 185.146 272.194 184.719C271.517 184.281 270.991 183.698 270.616 182.969C270.252 182.229 270.069 181.417 270.069 180.531C270.069 179.646 270.252 178.839 270.616 178.109C270.991 177.38 271.517 176.802 272.194 176.375C272.871 175.938 273.668 175.719 274.585 175.719C275.356 175.719 276.017 175.87 276.569 176.172C277.121 176.474 277.569 176.88 277.913 177.391V175.875H279.319V185.203H277.913V183.703C277.569 184.203 277.121 184.604 276.569 184.906C276.017 185.208 275.356 185.359 274.585 185.359ZM274.757 184.078C275.455 184.078 276.043 183.917 276.522 183.594C277.002 183.271 277.366 182.839 277.616 182.297C277.866 181.755 277.991 181.167 277.991 180.531C277.991 179.885 277.866 179.297 277.616 178.766C277.366 178.234 277.002 177.807 276.522 177.484C276.043 177.161 275.455 177 274.757 177C274.08 177 273.491 177.161 272.991 177.484C272.491 177.807 272.111 178.234 271.851 178.766C271.59 179.297 271.46 179.885 271.46 180.531C271.46 181.167 271.59 181.755 271.851 182.297C272.111 182.839 272.491 183.271 272.991 183.594C273.491 183.917 274.08 184.078 274.757 184.078ZM282.748 185.203V177.109H280.842V175.875H282.748V172.531H284.154V175.875H286.295V177.109H284.154V185.203H282.748ZM295.741 185.359C294.824 185.359 294.028 185.146 293.351 184.719C292.673 184.281 292.147 183.698 291.772 182.969C291.408 182.229 291.226 181.417 291.226 180.531C291.226 179.646 291.408 178.839 291.772 178.109C292.147 177.38 292.673 176.802 293.351 176.375C294.028 175.938 294.824 175.719 295.741 175.719C296.512 175.719 297.173 175.87 297.726 176.172C298.278 176.474 298.726 176.88 299.069 177.391V172.141H300.476V185.203H299.069V183.703C298.726 184.203 298.278 184.604 297.726 184.906C297.173 185.208 296.512 185.359 295.741 185.359ZM295.913 184.078C296.611 184.078 297.199 183.917 297.679 183.594C298.158 183.271 298.522 182.839 298.772 182.297C299.022 181.755 299.147 181.167 299.147 180.531C299.147 179.885 299.022 179.297 298.772 178.766C298.522 178.234 298.158 177.807 297.679 177.484C297.199 177.161 296.611 177 295.913 177C295.236 177 294.647 177.161 294.147 177.484C293.647 177.807 293.267 178.234 293.007 178.766C292.746 179.297 292.616 179.885 292.616 180.531C292.616 181.167 292.746 181.755 293.007 182.297C293.267 182.839 293.647 183.271 294.147 183.594C294.647 183.917 295.236 184.078 295.913 184.078ZM306.951 185.359C306.003 185.359 305.18 185.146 304.482 184.719C303.784 184.281 303.248 183.698 302.873 182.969C302.508 182.229 302.326 181.417 302.326 180.531C302.326 179.646 302.508 178.839 302.873 178.109C303.248 177.38 303.784 176.802 304.482 176.375C305.18 175.938 306.003 175.719 306.951 175.719C307.909 175.719 308.732 175.938 309.42 176.375C310.107 176.802 310.638 177.38 311.013 178.109C311.388 178.839 311.576 179.646 311.576 180.531C311.576 181.417 311.388 182.229 311.013 182.969C310.638 183.698 310.107 184.281 309.42 184.719C308.732 185.146 307.909 185.359 306.951 185.359ZM306.951 184.078C307.649 184.078 308.237 183.917 308.717 183.594C309.196 183.271 309.555 182.839 309.795 182.297C310.045 181.755 310.17 181.167 310.17 180.531C310.17 179.885 310.045 179.297 309.795 178.766C309.555 178.234 309.196 177.807 308.717 177.484C308.237 177.161 307.649 177 306.951 177C306.263 177 305.675 177.161 305.185 177.484C304.706 177.807 304.342 178.234 304.092 178.766C303.842 179.297 303.717 179.885 303.717 180.531C303.717 181.167 303.842 181.755 304.092 182.297C304.342 182.839 304.706 183.271 305.185 183.594C305.675 183.917 306.263 184.078 306.951 184.078ZM317.567 185.359C316.619 185.359 315.791 185.146 315.083 184.719C314.374 184.281 313.822 183.698 313.426 182.969C313.041 182.229 312.848 181.417 312.848 180.531C312.848 179.646 313.03 178.839 313.395 178.109C313.77 177.38 314.306 176.802 315.004 176.375C315.702 175.938 316.525 175.719 317.473 175.719C318.431 175.719 319.254 175.938 319.942 176.375C320.629 176.802 321.161 177.38 321.536 178.109C321.911 178.839 322.098 179.646 322.098 180.531V181.094H314.286C314.359 181.646 314.53 182.151 314.801 182.609C315.083 183.057 315.458 183.417 315.926 183.688C316.405 183.948 316.958 184.078 317.583 184.078C318.239 184.078 318.791 183.932 319.239 183.641C319.687 183.349 320.036 182.974 320.286 182.516H321.817C321.494 183.349 320.978 184.031 320.27 184.562C319.572 185.094 318.671 185.359 317.567 185.359ZM314.301 179.797H320.645C320.52 178.995 320.181 178.328 319.629 177.797C319.088 177.266 318.369 177 317.473 177C316.577 177 315.859 177.266 315.317 177.797C314.775 178.328 314.437 178.995 314.301 179.797ZM327.208 185.359C326.354 185.359 325.63 185.219 325.037 184.938C324.443 184.646 323.99 184.266 323.677 183.797C323.365 183.328 323.193 182.823 323.162 182.281H324.615C324.656 182.583 324.766 182.885 324.943 183.188C325.12 183.479 325.396 183.714 325.771 183.891C326.146 184.068 326.63 184.156 327.224 184.156C327.412 184.156 327.641 184.141 327.912 184.109C328.193 184.068 328.458 184 328.708 183.906C328.969 183.802 329.182 183.651 329.349 183.453C329.526 183.255 329.615 183 329.615 182.688C329.615 182.302 329.464 182.005 329.162 181.797C328.87 181.578 328.484 181.411 328.005 181.297C327.537 181.182 327.037 181.068 326.505 180.953C325.974 180.839 325.474 180.693 325.005 180.516C324.537 180.328 324.151 180.073 323.849 179.75C323.547 179.417 323.396 178.964 323.396 178.391C323.396 177.547 323.703 176.891 324.318 176.422C324.943 175.953 325.854 175.719 327.052 175.719C327.875 175.719 328.542 175.849 329.052 176.109C329.573 176.359 329.969 176.688 330.24 177.094C330.511 177.49 330.667 177.917 330.708 178.375H329.302C329.25 177.979 329.052 177.641 328.708 177.359C328.365 177.068 327.802 176.922 327.021 176.922C325.542 176.922 324.802 177.37 324.802 178.266C324.802 178.641 324.948 178.927 325.24 179.125C325.542 179.323 325.927 179.484 326.396 179.609C326.875 179.724 327.375 179.833 327.896 179.938C328.427 180.042 328.927 180.188 329.396 180.375C329.875 180.562 330.261 180.828 330.552 181.172C330.854 181.505 331.005 181.964 331.005 182.547C331.005 183.464 330.662 184.161 329.974 184.641C329.287 185.12 328.365 185.359 327.208 185.359ZM337.784 185.203V177.109H335.878V175.875H337.784V172.531H339.19V175.875H341.331V177.109H339.19V185.203H337.784ZM342.866 185.203V172.141H344.256V177.328C344.59 176.88 345.001 176.5 345.491 176.188C345.98 175.875 346.6 175.719 347.35 175.719C347.996 175.719 348.6 175.875 349.163 176.188C349.736 176.49 350.199 176.943 350.553 177.547C350.908 178.151 351.085 178.896 351.085 179.781V185.203H349.694V179.812C349.694 178.969 349.449 178.292 348.96 177.781C348.47 177.26 347.84 177 347.069 177C346.548 177 346.074 177.12 345.647 177.359C345.23 177.589 344.892 177.917 344.631 178.344C344.381 178.771 344.256 179.266 344.256 179.828V185.203H342.866ZM357.566 185.359C356.618 185.359 355.79 185.146 355.081 184.719C354.373 184.281 353.821 183.698 353.425 182.969C353.04 182.229 352.847 181.417 352.847 180.531C352.847 179.646 353.029 178.839 353.394 178.109C353.769 177.38 354.305 176.802 355.003 176.375C355.701 175.938 356.524 175.719 357.472 175.719C358.43 175.719 359.253 175.938 359.941 176.375C360.628 176.802 361.16 177.38 361.535 178.109C361.91 178.839 362.097 179.646 362.097 180.531V181.094H354.285C354.358 181.646 354.529 182.151 354.8 182.609C355.081 183.057 355.456 183.417 355.925 183.688C356.404 183.948 356.956 184.078 357.581 184.078C358.238 184.078 358.79 183.932 359.238 183.641C359.686 183.349 360.035 182.974 360.285 182.516H361.816C361.493 183.349 360.977 184.031 360.269 184.562C359.571 185.094 358.67 185.359 357.566 185.359ZM354.3 179.797H360.644C360.519 178.995 360.18 178.328 359.628 177.797C359.087 177.266 358.368 177 357.472 177C356.576 177 355.858 177.266 355.316 177.797C354.774 178.328 354.436 178.995 354.3 179.797ZM367.791 185.203V172.141H369.181V180.5L373.681 175.875H375.634L371.884 179.547L375.916 185.203H374.197L370.931 180.516L369.181 182.25V185.203H367.791ZM377.094 174.312V172.484H378.609V174.312H377.094ZM377.156 185.203V175.875H378.547V185.203H377.156ZM384.918 185.359C384.001 185.359 383.204 185.146 382.527 184.719C381.85 184.281 381.324 183.698 380.949 182.969C380.585 182.229 380.402 181.417 380.402 180.531C380.402 179.646 380.585 178.839 380.949 178.109C381.324 177.38 381.85 176.802 382.527 176.375C383.204 175.938 384.001 175.719 384.918 175.719C385.689 175.719 386.35 175.87 386.902 176.172C387.454 176.474 387.902 176.88 388.246 177.391V172.141H389.652V185.203H388.246V183.703C387.902 184.203 387.454 184.604 386.902 184.906C386.35 185.208 385.689 185.359 384.918 185.359ZM385.09 184.078C385.788 184.078 386.376 183.917 386.856 183.594C387.335 183.271 387.699 182.839 387.949 182.297C388.199 181.755 388.324 181.167 388.324 180.531C388.324 179.885 388.199 179.297 387.949 178.766C387.699 178.234 387.335 177.807 386.856 177.484C386.376 177.161 385.788 177 385.09 177C384.413 177 383.824 177.161 383.324 177.484C382.824 177.807 382.444 178.234 382.184 178.766C381.923 179.297 381.793 179.885 381.793 180.531C381.793 181.167 381.923 181.755 382.184 182.297C382.444 182.839 382.824 183.271 383.324 183.594C383.824 183.917 384.413 184.078 385.09 184.078ZM397.852 185.203L394.93 175.875H396.414L398.664 183.469L401.024 175.875H402.555L404.93 183.469L407.164 175.875H408.664L405.727 185.203H404.133L401.789 177.766L399.461 185.203H397.852ZM413.723 185.359C412.807 185.359 412.01 185.146 411.333 184.719C410.655 184.281 410.129 183.698 409.754 182.969C409.39 182.229 409.208 181.417 409.208 180.531C409.208 179.646 409.39 178.839 409.754 178.109C410.129 177.38 410.655 176.802 411.333 176.375C412.01 175.938 412.807 175.719 413.723 175.719C414.494 175.719 415.155 175.87 415.708 176.172C416.26 176.474 416.708 176.88 417.051 177.391V175.875H418.458V185.203H417.051V183.703C416.708 184.203 416.26 184.604 415.708 184.906C415.155 185.208 414.494 185.359 413.723 185.359ZM413.895 184.078C414.593 184.078 415.182 183.917 415.661 183.594C416.14 183.271 416.504 182.839 416.754 182.297C417.004 181.755 417.129 181.167 417.129 180.531C417.129 179.885 417.004 179.297 416.754 178.766C416.504 178.234 416.14 177.807 415.661 177.484C415.182 177.161 414.593 177 413.895 177C413.218 177 412.629 177.161 412.129 177.484C411.629 177.807 411.249 178.234 410.989 178.766C410.728 179.297 410.598 179.885 410.598 180.531C410.598 181.167 410.728 181.755 410.989 182.297C411.249 182.839 411.629 183.271 412.129 183.594C412.629 183.917 413.218 184.078 413.895 184.078ZM420.886 185.203V175.875H422.277V177.328C422.61 176.88 423.022 176.5 423.511 176.188C424.001 175.875 424.621 175.719 425.371 175.719C426.016 175.719 426.621 175.875 427.183 176.188C427.756 176.49 428.22 176.943 428.574 177.547C428.928 178.151 429.105 178.896 429.105 179.781V185.203H427.714V179.812C427.714 178.969 427.47 178.292 426.98 177.781C426.49 177.26 425.86 177 425.089 177C424.568 177 424.095 177.12 423.667 177.359C423.251 177.589 422.912 177.917 422.652 178.344C422.402 178.771 422.277 179.266 422.277 179.828V185.203H420.886ZM432.222 185.203V177.109H430.315V175.875H432.222V172.531H433.628V175.875H435.768V177.109H433.628V185.203H432.222ZM441.902 185.203V177.109H440.309V175.875H441.902V175.047C441.902 174.036 442.21 173.276 442.824 172.766C443.439 172.255 444.283 172 445.355 172H445.465V173.312H445.277C444.632 173.312 444.142 173.464 443.809 173.766C443.475 174.057 443.309 174.526 443.309 175.172V175.875H445.465V177.109H443.309V185.203H441.902ZM447.005 185.203V175.875H448.395V178.172C448.448 178.005 448.541 177.792 448.677 177.531C448.823 177.26 449.031 176.99 449.302 176.719C449.583 176.438 449.932 176.203 450.349 176.016C450.765 175.818 451.26 175.719 451.833 175.719H451.927V177.125H451.755C451.057 177.125 450.458 177.318 449.958 177.703C449.458 178.078 449.073 178.568 448.802 179.172C448.531 179.776 448.395 180.417 448.395 181.094V185.203H447.005ZM457.245 185.359C456.298 185.359 455.475 185.146 454.777 184.719C454.079 184.281 453.542 183.698 453.167 182.969C452.803 182.229 452.62 181.417 452.62 180.531C452.62 179.646 452.803 178.839 453.167 178.109C453.542 177.38 454.079 176.802 454.777 176.375C455.475 175.938 456.298 175.719 457.245 175.719C458.204 175.719 459.027 175.938 459.714 176.375C460.402 176.802 460.933 177.38 461.308 178.109C461.683 178.839 461.87 179.646 461.87 180.531C461.87 181.417 461.683 182.229 461.308 182.969C460.933 183.698 460.402 184.281 459.714 184.719C459.027 185.146 458.204 185.359 457.245 185.359ZM457.245 184.078C457.943 184.078 458.532 183.917 459.011 183.594C459.49 183.271 459.85 182.839 460.089 182.297C460.339 181.755 460.464 181.167 460.464 180.531C460.464 179.885 460.339 179.297 460.089 178.766C459.85 178.234 459.49 177.807 459.011 177.484C458.532 177.161 457.943 177 457.245 177C456.558 177 455.969 177.161 455.48 177.484C455.001 177.807 454.636 178.234 454.386 178.766C454.136 179.297 454.011 179.885 454.011 180.531C454.011 181.167 454.136 181.755 454.386 182.297C454.636 182.839 455.001 183.271 455.48 183.594C455.969 183.917 456.558 184.078 457.245 184.078ZM463.721 185.203V175.875H465.111V177.297C465.32 176.922 465.653 176.568 466.111 176.234C466.58 175.891 467.195 175.719 467.955 175.719C468.57 175.719 469.143 175.885 469.674 176.219C470.205 176.552 470.617 177.016 470.908 177.609C471.033 177.401 471.231 177.146 471.502 176.844C471.773 176.542 472.122 176.281 472.549 176.062C472.986 175.833 473.512 175.719 474.127 175.719C474.721 175.719 475.278 175.875 475.799 176.188C476.32 176.5 476.747 176.948 477.08 177.531C477.413 178.104 477.58 178.781 477.58 179.562V185.203H476.174V179.609C476.174 178.828 475.95 178.198 475.502 177.719C475.064 177.24 474.518 177 473.861 177C473.174 177 472.58 177.229 472.08 177.688C471.59 178.146 471.346 178.792 471.346 179.625V185.203H469.939V179.609C469.939 178.828 469.721 178.198 469.283 177.719C468.846 177.24 468.294 177 467.627 177C466.95 177 466.361 177.229 465.861 177.688C465.361 178.146 465.111 178.792 465.111 179.625V185.203H463.721ZM484.888 185.203V177.109H482.982V175.875H484.888V172.531H486.294V175.875H488.435V177.109H486.294V185.203H484.888ZM489.908 174.312V172.484H491.423V174.312H489.908ZM489.97 185.203V175.875H491.361V185.203H489.97ZM494.795 185.203V177.109H492.888V175.875H494.795V172.531H496.201V175.875H498.341V177.109H496.201V185.203H494.795ZM503.737 185.359C502.789 185.359 501.966 185.146 501.268 184.719C500.57 184.281 500.034 183.698 499.659 182.969C499.294 182.229 499.112 181.417 499.112 180.531C499.112 179.646 499.294 178.839 499.659 178.109C500.034 177.38 500.57 176.802 501.268 176.375C501.966 175.938 502.789 175.719 503.737 175.719C504.695 175.719 505.518 175.938 506.205 176.375C506.893 176.802 507.424 177.38 507.799 178.109C508.174 178.839 508.362 179.646 508.362 180.531C508.362 181.417 508.174 182.229 507.799 182.969C507.424 183.698 506.893 184.281 506.205 184.719C505.518 185.146 504.695 185.359 503.737 185.359ZM503.737 184.078C504.435 184.078 505.023 183.917 505.502 183.594C505.981 183.271 506.341 182.839 506.58 182.297C506.83 181.755 506.955 181.167 506.955 180.531C506.955 179.885 506.83 179.297 506.58 178.766C506.341 178.234 505.981 177.807 505.502 177.484C505.023 177.161 504.435 177 503.737 177C503.049 177 502.461 177.161 501.971 177.484C501.492 177.807 501.127 178.234 500.877 178.766C500.627 179.297 500.502 179.885 500.502 180.531C500.502 181.167 500.627 181.755 500.877 182.297C501.127 182.839 501.492 183.271 501.971 183.594C502.461 183.917 503.049 184.078 503.737 184.078ZM513.589 185.203L518.824 172.859H520.574L525.824 185.203H524.277L522.761 181.625H516.636L515.136 185.203H513.589ZM517.183 180.328H522.214L519.699 174.312L517.183 180.328ZM531.362 189.047C530.195 189.047 529.242 188.792 528.502 188.281C527.773 187.781 527.278 187.13 527.018 186.328H528.565C528.752 186.786 529.075 187.141 529.534 187.391C529.992 187.651 530.575 187.781 531.284 187.781C532.357 187.781 533.138 187.526 533.627 187.016C534.117 186.516 534.362 185.786 534.362 184.828V183.547C534.018 184.036 533.57 184.438 533.018 184.75C532.466 185.052 531.805 185.203 531.034 185.203C530.117 185.203 529.32 184.995 528.643 184.578C527.966 184.161 527.44 183.594 527.065 182.875C526.7 182.146 526.518 181.344 526.518 180.469C526.518 179.573 526.7 178.766 527.065 178.047C527.44 177.328 527.966 176.76 528.643 176.344C529.32 175.927 530.117 175.719 531.034 175.719C531.805 175.719 532.466 175.87 533.018 176.172C533.57 176.464 534.018 176.865 534.362 177.375V175.875H535.768V184.922C535.768 186.255 535.383 187.276 534.612 187.984C533.851 188.693 532.768 189.047 531.362 189.047ZM531.206 183.938C531.893 183.938 532.476 183.781 532.956 183.469C533.435 183.156 533.799 182.74 534.049 182.219C534.31 181.688 534.44 181.104 534.44 180.469C534.44 179.823 534.31 179.24 534.049 178.719C533.799 178.188 533.435 177.771 532.956 177.469C532.476 177.156 531.893 177 531.206 177C530.528 177 529.94 177.156 529.44 177.469C528.94 177.771 528.56 178.188 528.299 178.719C528.039 179.24 527.909 179.823 527.909 180.469C527.909 181.104 528.039 181.688 528.299 182.219C528.56 182.74 528.94 183.156 529.44 183.469C529.94 183.781 530.528 183.938 531.206 183.938ZM542.134 185.359C541.217 185.359 540.421 185.146 539.744 184.719C539.066 184.281 538.54 183.698 538.165 182.969C537.801 182.229 537.619 181.417 537.619 180.531C537.619 179.646 537.801 178.839 538.165 178.109C538.54 177.38 539.066 176.802 539.744 176.375C540.421 175.938 541.217 175.719 542.134 175.719C542.905 175.719 543.566 175.87 544.119 176.172C544.671 176.474 545.119 176.88 545.462 177.391V175.875H546.869V185.203H545.462V183.703C545.119 184.203 544.671 184.604 544.119 184.906C543.566 185.208 542.905 185.359 542.134 185.359ZM542.306 184.078C543.004 184.078 543.592 183.917 544.072 183.594C544.551 183.271 544.915 182.839 545.165 182.297C545.415 181.755 545.54 181.167 545.54 180.531C545.54 179.885 545.415 179.297 545.165 178.766C544.915 178.234 544.551 177.807 544.072 177.484C543.592 177.161 543.004 177 542.306 177C541.629 177 541.04 177.161 540.54 177.484C540.04 177.807 539.66 178.234 539.4 178.766C539.139 179.297 539.009 179.885 539.009 180.531C539.009 181.167 539.139 181.755 539.4 182.297C539.66 182.839 540.04 183.271 540.54 183.594C541.04 183.917 541.629 184.078 542.306 184.078ZM552.313 181.781C552.313 181.177 552.417 180.661 552.625 180.234C552.844 179.807 553.104 179.438 553.406 179.125C553.719 178.802 554.026 178.495 554.328 178.203C554.641 177.911 554.901 177.599 555.11 177.266C555.318 176.932 555.422 176.536 555.422 176.078C555.422 175.766 555.349 175.448 555.203 175.125C555.068 174.802 554.823 174.531 554.469 174.312C554.125 174.094 553.651 173.984 553.047 173.984C552.433 173.984 551.917 174.104 551.5 174.344C551.084 174.583 550.761 174.896 550.531 175.281C550.302 175.667 550.167 176.078 550.125 176.516H548.813C548.844 175.828 549.031 175.198 549.375 174.625C549.719 174.042 550.193 173.578 550.797 173.234C551.401 172.88 552.11 172.703 552.922 172.703C553.818 172.703 554.547 172.87 555.11 173.203C555.683 173.526 556.099 173.948 556.36 174.469C556.62 174.979 556.75 175.516 556.75 176.078C556.75 176.661 556.646 177.151 556.438 177.547C556.24 177.932 555.985 178.281 555.672 178.594C555.37 178.896 555.063 179.193 554.75 179.484C554.448 179.766 554.193 180.089 553.985 180.453C553.776 180.818 553.672 181.26 553.672 181.781H552.313ZM552.094 185.203V183.297H553.906V185.203H552.094Z" fill="black"/>
<path d="M120.65 198.744L122.291 194.775H123.557L122.479 198.744H120.65ZM117.838 198.712L119.479 194.744H120.744L119.666 198.712H117.838ZM125.206 196.712V194.884H126.722V196.712H125.206ZM125.269 207.603V198.275H126.66V207.603H125.269ZM132.484 207.759C131.63 207.759 130.906 207.619 130.312 207.337C129.718 207.046 129.265 206.666 128.953 206.197C128.64 205.728 128.468 205.223 128.437 204.681H129.89C129.932 204.983 130.041 205.285 130.218 205.587C130.396 205.879 130.672 206.113 131.047 206.291C131.422 206.468 131.906 206.556 132.5 206.556C132.687 206.556 132.916 206.541 133.187 206.509C133.468 206.468 133.734 206.4 133.984 206.306C134.245 206.202 134.458 206.051 134.625 205.853C134.802 205.655 134.89 205.4 134.89 205.087C134.89 204.702 134.739 204.405 134.437 204.197C134.146 203.978 133.76 203.811 133.281 203.697C132.812 203.582 132.312 203.468 131.781 203.353C131.25 203.238 130.75 203.093 130.281 202.916C129.812 202.728 129.427 202.473 129.125 202.15C128.823 201.817 128.672 201.363 128.672 200.791C128.672 199.947 128.979 199.291 129.593 198.822C130.218 198.353 131.13 198.119 132.328 198.119C133.151 198.119 133.817 198.249 134.328 198.509C134.849 198.759 135.245 199.087 135.515 199.494C135.786 199.889 135.942 200.317 135.984 200.775H134.578C134.526 200.379 134.328 200.041 133.984 199.759C133.64 199.468 133.078 199.322 132.297 199.322C130.817 199.322 130.078 199.77 130.078 200.666C130.078 201.041 130.224 201.327 130.515 201.525C130.817 201.723 131.203 201.884 131.672 202.009C132.151 202.124 132.651 202.233 133.172 202.337C133.703 202.442 134.203 202.587 134.672 202.775C135.151 202.962 135.536 203.228 135.828 203.572C136.13 203.905 136.281 204.363 136.281 204.947C136.281 205.863 135.937 206.561 135.25 207.041C134.562 207.52 133.64 207.759 132.484 207.759ZM142.023 207.759C141.107 207.759 140.31 207.546 139.633 207.119C138.956 206.681 138.43 206.098 138.055 205.369C137.69 204.629 137.508 203.817 137.508 202.931C137.508 202.046 137.69 201.238 138.055 200.509C138.43 199.78 138.956 199.202 139.633 198.775C140.31 198.337 141.107 198.119 142.023 198.119C142.794 198.119 143.456 198.27 144.008 198.572C144.56 198.874 145.008 199.28 145.351 199.791V198.275H146.758V207.603H145.351V206.103C145.008 206.603 144.56 207.004 144.008 207.306C143.456 207.608 142.794 207.759 142.023 207.759ZM142.195 206.478C142.893 206.478 143.482 206.317 143.961 205.994C144.44 205.671 144.805 205.238 145.055 204.697C145.305 204.155 145.43 203.567 145.43 202.931C145.43 202.285 145.305 201.697 145.055 201.166C144.805 200.634 144.44 200.207 143.961 199.884C143.482 199.561 142.893 199.4 142.195 199.4C141.518 199.4 140.93 199.561 140.43 199.884C139.93 200.207 139.549 200.634 139.289 201.166C139.028 201.697 138.898 202.285 138.898 202.931C138.898 203.567 139.028 204.155 139.289 204.697C139.549 205.238 139.93 205.671 140.43 205.994C140.93 206.317 141.518 206.478 142.195 206.478ZM153.16 211.291V198.275H154.551V199.775C154.905 199.264 155.358 198.863 155.91 198.572C156.462 198.27 157.124 198.119 157.894 198.119C158.801 198.119 159.592 198.337 160.269 198.775C160.946 199.202 161.473 199.78 161.848 200.509C162.223 201.238 162.41 202.046 162.41 202.931C162.41 203.817 162.223 204.629 161.848 205.369C161.473 206.098 160.946 206.681 160.269 207.119C159.592 207.546 158.801 207.759 157.894 207.759C157.124 207.759 156.462 207.608 155.91 207.306C155.358 206.994 154.905 206.587 154.551 206.087V211.291H153.16ZM157.707 206.478C158.405 206.478 158.999 206.317 159.488 205.994C159.978 205.671 160.353 205.238 160.613 204.697C160.874 204.155 161.004 203.567 161.004 202.931C161.004 202.285 160.874 201.697 160.613 201.166C160.353 200.634 159.978 200.207 159.488 199.884C158.999 199.561 158.405 199.4 157.707 199.4C157.019 199.4 156.431 199.561 155.941 199.884C155.462 200.207 155.098 200.634 154.848 201.166C154.598 201.697 154.473 202.285 154.473 202.931C154.473 203.567 154.598 204.155 154.848 204.697C155.098 205.238 155.462 205.671 155.941 205.994C156.431 206.317 157.019 206.478 157.707 206.478ZM168.198 207.759C167.281 207.759 166.484 207.546 165.807 207.119C165.13 206.681 164.604 206.098 164.229 205.369C163.865 204.629 163.682 203.817 163.682 202.931C163.682 202.046 163.865 201.238 164.229 200.509C164.604 199.78 165.13 199.202 165.807 198.775C166.484 198.337 167.281 198.119 168.198 198.119C168.969 198.119 169.63 198.27 170.182 198.572C170.734 198.874 171.182 199.28 171.526 199.791V198.275H172.932V207.603H171.526V206.103C171.182 206.603 170.734 207.004 170.182 207.306C169.63 207.608 168.969 207.759 168.198 207.759ZM168.37 206.478C169.068 206.478 169.656 206.317 170.135 205.994C170.615 205.671 170.979 205.238 171.229 204.697C171.479 204.155 171.604 203.567 171.604 202.931C171.604 202.285 171.479 201.697 171.229 201.166C170.979 200.634 170.615 200.207 170.135 199.884C169.656 199.561 169.068 199.4 168.37 199.4C167.693 199.4 167.104 199.561 166.604 199.884C166.104 200.207 165.724 200.634 165.464 201.166C165.203 201.697 165.073 202.285 165.073 202.931C165.073 203.567 165.203 204.155 165.464 204.697C165.724 205.238 166.104 205.671 166.604 205.994C167.104 206.317 167.693 206.478 168.37 206.478ZM174.345 209.681L175.423 205.697H177.252L175.611 209.681H174.345ZM183.377 196.712V194.884H184.892V196.712H183.377ZM183.439 207.603V198.275H184.83V207.603H183.439ZM190.654 207.759C189.8 207.759 189.076 207.619 188.482 207.337C187.889 207.046 187.436 206.666 187.123 206.197C186.811 205.728 186.639 205.223 186.607 204.681H188.061C188.102 204.983 188.212 205.285 188.389 205.587C188.566 205.879 188.842 206.113 189.217 206.291C189.592 206.468 190.076 206.556 190.67 206.556C190.857 206.556 191.087 206.541 191.357 206.509C191.639 206.468 191.904 206.4 192.154 206.306C192.415 206.202 192.628 206.051 192.795 205.853C192.972 205.655 193.061 205.4 193.061 205.087C193.061 204.702 192.909 204.405 192.607 204.197C192.316 203.978 191.93 203.811 191.451 203.697C190.982 203.582 190.482 203.468 189.951 203.353C189.42 203.238 188.92 203.093 188.451 202.916C187.982 202.728 187.597 202.473 187.295 202.15C186.993 201.817 186.842 201.363 186.842 200.791C186.842 199.947 187.149 199.291 187.764 198.822C188.389 198.353 189.3 198.119 190.498 198.119C191.321 198.119 191.988 198.249 192.498 198.509C193.019 198.759 193.415 199.087 193.686 199.494C193.956 199.889 194.113 200.317 194.154 200.775H192.748C192.696 200.379 192.498 200.041 192.154 199.759C191.811 199.468 191.248 199.322 190.467 199.322C188.988 199.322 188.248 199.77 188.248 200.666C188.248 201.041 188.394 201.327 188.686 201.525C188.988 201.723 189.373 201.884 189.842 202.009C190.321 202.124 190.821 202.233 191.342 202.337C191.873 202.442 192.373 202.587 192.842 202.775C193.321 202.962 193.706 203.228 193.998 203.572C194.3 203.905 194.451 204.363 194.451 204.947C194.451 205.863 194.107 206.561 193.42 207.041C192.732 207.52 191.811 207.759 190.654 207.759ZM200.193 207.759C199.277 207.759 198.48 207.546 197.803 207.119C197.126 206.681 196.6 206.098 196.225 205.369C195.86 204.629 195.678 203.817 195.678 202.931C195.678 202.046 195.86 201.238 196.225 200.509C196.6 199.78 197.126 199.202 197.803 198.775C198.48 198.337 199.277 198.119 200.193 198.119C200.964 198.119 201.626 198.27 202.178 198.572C202.73 198.874 203.178 199.28 203.522 199.791V198.275H204.928V207.603H203.522V206.103C203.178 206.603 202.73 207.004 202.178 207.306C201.626 207.608 200.964 207.759 200.193 207.759ZM200.365 206.478C201.063 206.478 201.652 206.317 202.131 205.994C202.61 205.671 202.975 205.238 203.225 204.697C203.475 204.155 203.6 203.567 203.6 202.931C203.6 202.285 203.475 201.697 203.225 201.166C202.975 200.634 202.61 200.207 202.131 199.884C201.652 199.561 201.063 199.4 200.365 199.4C199.688 199.4 199.1 199.561 198.6 199.884C198.1 200.207 197.719 200.634 197.459 201.166C197.199 201.697 197.068 202.285 197.068 202.931C197.068 203.567 197.199 204.155 197.459 204.697C197.719 205.238 198.1 205.671 198.6 205.994C199.1 206.317 199.688 206.478 200.365 206.478ZM211.33 211.291V198.275H212.721V199.775C213.075 199.264 213.528 198.863 214.08 198.572C214.632 198.27 215.294 198.119 216.065 198.119C216.971 198.119 217.762 198.337 218.44 198.775C219.117 199.202 219.643 199.78 220.018 200.509C220.393 201.238 220.58 202.046 220.58 202.931C220.58 203.817 220.393 204.629 220.018 205.369C219.643 206.098 219.117 206.681 218.44 207.119C217.762 207.546 216.971 207.759 216.065 207.759C215.294 207.759 214.632 207.608 214.08 207.306C213.528 206.994 213.075 206.587 212.721 206.087V211.291H211.33ZM215.877 206.478C216.575 206.478 217.169 206.317 217.658 205.994C218.148 205.671 218.523 205.238 218.783 204.697C219.044 204.155 219.174 203.567 219.174 202.931C219.174 202.285 219.044 201.697 218.783 201.166C218.523 200.634 218.148 200.207 217.658 199.884C217.169 199.561 216.575 199.4 215.877 199.4C215.19 199.4 214.601 199.561 214.111 199.884C213.632 200.207 213.268 200.634 213.018 201.166C212.768 201.697 212.643 202.285 212.643 202.931C212.643 203.567 212.768 204.155 213.018 204.697C213.268 205.238 213.632 205.671 214.111 205.994C214.601 206.317 215.19 206.478 215.877 206.478ZM226.368 207.759C225.451 207.759 224.655 207.546 223.978 207.119C223.3 206.681 222.774 206.098 222.399 205.369C222.035 204.629 221.853 203.817 221.853 202.931C221.853 202.046 222.035 201.238 222.399 200.509C222.774 199.78 223.3 199.202 223.978 198.775C224.655 198.337 225.451 198.119 226.368 198.119C227.139 198.119 227.8 198.27 228.353 198.572C228.905 198.874 229.353 199.28 229.696 199.791V198.275H231.103V207.603H229.696V206.103C229.353 206.603 228.905 207.004 228.353 207.306C227.8 207.608 227.139 207.759 226.368 207.759ZM226.54 206.478C227.238 206.478 227.826 206.317 228.306 205.994C228.785 205.671 229.149 205.238 229.399 204.697C229.649 204.155 229.774 203.567 229.774 202.931C229.774 202.285 229.649 201.697 229.399 201.166C229.149 200.634 228.785 200.207 228.306 199.884C227.826 199.561 227.238 199.4 226.54 199.4C225.863 199.4 225.274 199.561 224.774 199.884C224.274 200.207 223.894 200.634 223.634 201.166C223.373 201.697 223.243 202.285 223.243 202.931C223.243 203.567 223.373 204.155 223.634 204.697C223.894 205.238 224.274 205.671 224.774 205.994C225.274 206.317 225.863 206.478 226.54 206.478ZM232.516 209.681L233.594 205.697H235.422L233.781 209.681H232.516ZM241.547 196.712V194.884H243.062V196.712H241.547ZM241.609 207.603V198.275H243V207.603H241.609ZM248.824 207.759C247.97 207.759 247.246 207.619 246.653 207.337C246.059 207.046 245.606 206.666 245.293 206.197C244.981 205.728 244.809 205.223 244.778 204.681H246.231C246.272 204.983 246.382 205.285 246.559 205.587C246.736 205.879 247.012 206.113 247.387 206.291C247.762 206.468 248.246 206.556 248.84 206.556C249.028 206.556 249.257 206.541 249.528 206.509C249.809 206.468 250.074 206.4 250.324 206.306C250.585 206.202 250.798 206.051 250.965 205.853C251.142 205.655 251.231 205.4 251.231 205.087C251.231 204.702 251.08 204.405 250.778 204.197C250.486 203.978 250.1 203.811 249.621 203.697C249.153 203.582 248.653 203.468 248.121 203.353C247.59 203.238 247.09 203.093 246.621 202.916C246.153 202.728 245.767 202.473 245.465 202.15C245.163 201.817 245.012 201.363 245.012 200.791C245.012 199.947 245.319 199.291 245.934 198.822C246.559 198.353 247.47 198.119 248.668 198.119C249.491 198.119 250.158 198.249 250.668 198.509C251.189 198.759 251.585 199.087 251.856 199.494C252.127 199.889 252.283 200.317 252.324 200.775H250.918C250.866 200.379 250.668 200.041 250.324 199.759C249.981 199.468 249.418 199.322 248.637 199.322C247.158 199.322 246.418 199.77 246.418 200.666C246.418 201.041 246.564 201.327 246.856 201.525C247.158 201.723 247.543 201.884 248.012 202.009C248.491 202.124 248.991 202.233 249.512 202.337C250.043 202.442 250.543 202.587 251.012 202.775C251.491 202.962 251.877 203.228 252.168 203.572C252.47 203.905 252.621 204.363 252.621 204.947C252.621 205.863 252.278 206.561 251.59 207.041C250.903 207.52 249.981 207.759 248.824 207.759ZM258.364 207.759C257.447 207.759 256.65 207.546 255.973 207.119C255.296 206.681 254.77 206.098 254.395 205.369C254.03 204.629 253.848 203.817 253.848 202.931C253.848 202.046 254.03 201.238 254.395 200.509C254.77 199.78 255.296 199.202 255.973 198.775C256.65 198.337 257.447 198.119 258.364 198.119C259.134 198.119 259.796 198.27 260.348 198.572C260.9 198.874 261.348 199.28 261.692 199.791V198.275H263.098V207.603H261.692V206.103C261.348 206.603 260.9 207.004 260.348 207.306C259.796 207.608 259.134 207.759 258.364 207.759ZM258.535 206.478C259.233 206.478 259.822 206.317 260.301 205.994C260.78 205.671 261.145 205.238 261.395 204.697C261.645 204.155 261.77 203.567 261.77 202.931C261.77 202.285 261.645 201.697 261.395 201.166C261.145 200.634 260.78 200.207 260.301 199.884C259.822 199.561 259.233 199.4 258.535 199.4C257.858 199.4 257.27 199.561 256.77 199.884C256.27 200.207 255.89 200.634 255.629 201.166C255.369 201.697 255.239 202.285 255.239 202.931C255.239 203.567 255.369 204.155 255.629 204.697C255.89 205.238 256.27 205.671 256.77 205.994C257.27 206.317 257.858 206.478 258.535 206.478ZM269.5 211.291V198.275H270.891V199.775C271.245 199.264 271.698 198.863 272.25 198.572C272.802 198.27 273.464 198.119 274.235 198.119C275.141 198.119 275.933 198.337 276.61 198.775C277.287 199.202 277.813 199.78 278.188 200.509C278.563 201.238 278.75 202.046 278.75 202.931C278.75 203.817 278.563 204.629 278.188 205.369C277.813 206.098 277.287 206.681 276.61 207.119C275.933 207.546 275.141 207.759 274.235 207.759C273.464 207.759 272.802 207.608 272.25 207.306C271.698 206.994 271.245 206.587 270.891 206.087V211.291H269.5ZM274.047 206.478C274.745 206.478 275.339 206.317 275.829 205.994C276.318 205.671 276.693 205.238 276.954 204.697C277.214 204.155 277.344 203.567 277.344 202.931C277.344 202.285 277.214 201.697 276.954 201.166C276.693 200.634 276.318 200.207 275.829 199.884C275.339 199.561 274.745 199.4 274.047 199.4C273.36 199.4 272.771 199.561 272.282 199.884C271.802 200.207 271.438 200.634 271.188 201.166C270.938 201.697 270.813 202.285 270.813 202.931C270.813 203.567 270.938 204.155 271.188 204.697C271.438 205.238 271.802 205.671 272.282 205.994C272.771 206.317 273.36 206.478 274.047 206.478ZM284.538 207.759C283.622 207.759 282.825 207.546 282.148 207.119C281.471 206.681 280.945 206.098 280.57 205.369C280.205 204.629 280.023 203.817 280.023 202.931C280.023 202.046 280.205 201.238 280.57 200.509C280.945 199.78 281.471 199.202 282.148 198.775C282.825 198.337 283.622 198.119 284.538 198.119C285.309 198.119 285.971 198.27 286.523 198.572C287.075 198.874 287.523 199.28 287.866 199.791V198.275H289.273V207.603H287.866V206.103C287.523 206.603 287.075 207.004 286.523 207.306C285.971 207.608 285.309 207.759 284.538 207.759ZM284.71 206.478C285.408 206.478 285.997 206.317 286.476 205.994C286.955 205.671 287.32 205.238 287.57 204.697C287.82 204.155 287.945 203.567 287.945 202.931C287.945 202.285 287.82 201.697 287.57 201.166C287.32 200.634 286.955 200.207 286.476 199.884C285.997 199.561 285.408 199.4 284.71 199.4C284.033 199.4 283.445 199.561 282.945 199.884C282.445 200.207 282.064 200.634 281.804 201.166C281.544 201.697 281.413 202.285 281.413 202.931C281.413 203.567 281.544 204.155 281.804 204.697C282.064 205.238 282.445 205.671 282.945 205.994C283.445 206.317 284.033 206.478 284.71 206.478ZM291.701 207.603V198.275H293.092V199.728C293.425 199.28 293.837 198.9 294.326 198.587C294.816 198.275 295.436 198.119 296.186 198.119C296.832 198.119 297.436 198.275 297.998 198.587C298.571 198.889 299.035 199.343 299.389 199.947C299.743 200.551 299.92 201.296 299.92 202.181V207.603H298.529V202.212C298.529 201.369 298.285 200.692 297.795 200.181C297.305 199.66 296.675 199.4 295.904 199.4C295.384 199.4 294.91 199.52 294.483 199.759C294.066 199.988 293.727 200.317 293.467 200.744C293.217 201.171 293.092 201.666 293.092 202.228V207.603H291.701ZM306.526 211.447C305.36 211.447 304.407 211.192 303.667 210.681C302.938 210.181 302.443 209.53 302.183 208.728H303.729C303.917 209.186 304.24 209.541 304.698 209.791C305.157 210.051 305.74 210.181 306.448 210.181C307.521 210.181 308.302 209.926 308.792 209.416C309.282 208.916 309.526 208.186 309.526 207.228V205.947C309.183 206.436 308.735 206.837 308.183 207.15C307.631 207.452 306.969 207.603 306.198 207.603C305.282 207.603 304.485 207.395 303.808 206.978C303.131 206.561 302.604 205.994 302.229 205.275C301.865 204.546 301.683 203.744 301.683 202.869C301.683 201.973 301.865 201.166 302.229 200.447C302.604 199.728 303.131 199.16 303.808 198.744C304.485 198.327 305.282 198.119 306.198 198.119C306.969 198.119 307.631 198.27 308.183 198.572C308.735 198.863 309.183 199.264 309.526 199.775V198.275H310.933V207.322C310.933 208.655 310.547 209.676 309.776 210.384C309.016 211.093 307.933 211.447 306.526 211.447V211.447ZM306.37 206.337C307.058 206.337 307.641 206.181 308.12 205.869C308.599 205.556 308.964 205.139 309.214 204.619C309.474 204.087 309.604 203.504 309.604 202.869C309.604 202.223 309.474 201.639 309.214 201.119C308.964 200.587 308.599 200.171 308.12 199.869C307.641 199.556 307.058 199.4 306.37 199.4C305.693 199.4 305.104 199.556 304.604 199.869C304.104 200.171 303.724 200.587 303.464 201.119C303.203 201.639 303.073 202.223 303.073 202.869C303.073 203.504 303.203 204.087 303.464 204.619C303.724 205.139 304.104 205.556 304.604 205.869C305.104 206.181 305.693 206.337 306.37 206.337ZM317.054 209.994V208.962H326.382V209.994H317.054ZM328.248 209.994V208.962H337.576V209.994H328.248ZM339.441 209.994V208.962H348.769V209.994H339.441ZM350.635 209.994V208.962H359.963V209.994H350.635ZM361.829 209.994V208.962H371.157V209.994H361.829ZM373.023 209.994V208.962H382.351V209.994H373.023ZM384.216 209.994V208.962H393.544V209.994H384.216ZM395.41 209.994V208.962H404.738V209.994H395.41ZM406.604 209.994V208.962H415.932V209.994H406.604ZM417.798 209.994V208.962H427.126V209.994H417.798ZM429.601 204.181L429.241 195.259H430.976L430.632 204.181H429.601ZM429.21 207.603V205.697H431.023V207.603H429.21ZM438.63 194.759L436.989 198.728H435.724L436.802 194.759H438.63ZM435.833 194.759L434.192 198.728H432.927L434.005 194.759H435.833Z" fill="black"/>
</svg>
