<svg width="442" height="153" viewBox="0 0 442 153" fill="none" xmlns="http://www.w3.org/2000/svg">
<path d="M122.721 45.6035C121.221 45.6035 119.814 45.3066 118.502 44.7129C117.2 44.1087 116.064 43.2441 115.096 42.1191C114.127 40.9837 113.361 39.5931 112.799 37.9473C112.247 36.3014 111.971 34.4368 111.971 32.3535C111.971 30.3848 112.21 28.5827 112.689 26.9473C113.179 25.3014 113.903 23.8796 114.861 22.6816C115.82 21.4837 117.007 20.5566 118.424 19.9004C119.84 19.2441 121.481 18.916 123.346 18.916C124.867 18.916 126.309 19.1921 127.674 19.7441C129.049 20.2858 130.252 21.1035 131.283 22.1973C132.314 23.291 133.127 24.6608 133.721 26.3066C134.325 27.9421 134.627 29.8587 134.627 32.0566C134.627 33.8483 134.393 35.541 133.924 37.1348C133.465 38.7181 132.768 40.1348 131.83 41.3848L133.955 43.1348C134.226 43.3639 134.476 43.6452 134.705 43.9785C134.945 44.3118 135.064 44.6921 135.064 45.1191C135.064 45.6191 134.867 46.015 134.471 46.3066C134.075 46.6087 133.601 46.7598 133.049 46.7598C132.351 46.7598 131.617 46.4108 130.846 45.7129L128.908 44.041C128.064 44.5306 127.132 44.916 126.111 45.1973C125.09 45.4681 123.96 45.6035 122.721 45.6035ZM122.783 42.0879C124.158 42.0879 125.356 41.8118 126.377 41.2598C127.398 40.6973 128.242 39.9577 128.908 39.041C129.585 38.1139 130.085 37.0462 130.408 35.8379C130.731 34.6296 130.893 33.39 130.893 32.1191C130.893 30.5775 130.684 29.2077 130.268 28.0098C129.861 26.8014 129.309 25.7858 128.611 24.9629C127.913 24.14 127.101 23.5098 126.174 23.0723C125.257 22.6348 124.278 22.416 123.236 22.416C121.997 22.416 120.908 22.6816 119.971 23.2129C119.033 23.7337 118.247 24.4421 117.611 25.3379C116.986 26.2337 116.507 27.2858 116.174 28.4941C115.851 29.6921 115.689 30.9785 115.689 32.3535C115.689 33.8223 115.877 35.1608 116.252 36.3691C116.627 37.5671 117.132 38.5931 117.768 39.4473C118.403 40.291 119.153 40.9421 120.018 41.4004C120.893 41.8587 121.814 42.0879 122.783 42.0879ZM147.35 45.8691C144.516 45.8691 142.438 45.0931 141.115 43.541C140.594 42.9473 140.152 42.1868 139.787 41.2598C139.433 40.3223 139.146 39.1087 138.928 37.6191C138.719 36.1191 138.568 34.2702 138.475 32.0723C138.391 29.8639 138.35 27.1816 138.35 24.0254C138.35 23.0046 138.376 22.166 138.428 21.5098C138.48 20.8431 138.579 20.3171 138.725 19.9316C138.881 19.5462 139.074 19.2806 139.303 19.1348C139.542 18.9889 139.85 18.916 140.225 18.916C140.943 18.916 141.449 19.2389 141.74 19.8848C142.042 20.5306 142.193 21.6504 142.193 23.2441C142.193 23.7858 142.188 24.2702 142.178 24.6973C142.167 25.1243 142.162 25.5566 142.162 25.9941C142.162 26.4212 142.157 26.9004 142.146 27.4316C142.136 27.9525 142.131 28.5827 142.131 29.3223C142.131 31.8118 142.209 33.8796 142.365 35.5254C142.532 37.1712 142.813 38.4837 143.209 39.4629C143.605 40.4421 144.146 41.1348 144.834 41.541C145.521 41.9368 146.37 42.1348 147.381 42.1348C148.454 42.1348 149.344 41.916 150.053 41.4785C150.761 41.041 151.329 40.3066 151.756 39.2754C152.183 38.2441 152.485 36.8691 152.662 35.1504C152.85 33.4316 152.943 31.291 152.943 28.7285C152.943 27.6139 152.938 26.6608 152.928 25.8691C152.917 25.0671 152.912 24.3431 152.912 23.6973C152.912 22.7702 152.943 21.9993 153.006 21.3848C153.068 20.7598 153.167 20.265 153.303 19.9004C153.438 19.5358 153.631 19.2806 153.881 19.1348C154.131 18.9889 154.443 18.916 154.818 18.916C155.193 18.916 155.506 18.9889 155.756 19.1348C156.006 19.2806 156.204 19.541 156.35 19.916C156.495 20.291 156.594 20.8118 156.646 21.4785C156.699 22.1348 156.725 22.9837 156.725 24.0254C156.725 28.4108 156.584 32.015 156.303 34.8379C156.032 37.6608 155.547 39.89 154.85 41.5254C154.152 43.1504 153.199 44.2806 151.99 44.916C150.792 45.5514 149.245 45.8691 147.35 45.8691ZM161.429 39.5566C161.377 38.7546 161.325 37.6712 161.273 36.3066C161.22 34.9421 161.194 33.5358 161.194 32.0879C161.194 31.265 161.2 30.416 161.21 29.541C161.231 28.6556 161.252 27.7493 161.273 26.8223C161.325 24.9785 161.444 23.5358 161.632 22.4941C161.819 21.4525 162.189 20.6712 162.741 20.1504C163.304 19.6191 164.095 19.2962 165.116 19.1816C166.137 19.0566 167.497 18.9941 169.194 18.9941C169.215 18.9941 169.481 18.9941 169.991 18.9941C170.502 18.9941 171.116 18.9993 171.835 19.0098C172.554 19.0202 173.304 19.041 174.085 19.0723C174.877 19.0931 175.533 19.1139 176.054 19.1348C176.606 19.1868 177.049 19.2598 177.382 19.3535C177.715 19.4368 177.97 19.5462 178.148 19.6816C178.325 19.8171 178.434 19.9785 178.476 20.166C178.528 20.3535 178.554 20.5566 178.554 20.7754C178.554 21.3483 178.392 21.765 178.069 22.0254C177.747 22.2858 177.09 22.4525 176.101 22.5254C175.601 22.5775 174.872 22.6139 173.913 22.6348C172.955 22.6452 171.976 22.6504 170.976 22.6504C169.986 22.6504 169.09 22.6556 168.288 22.666C167.497 22.6764 167.002 22.6816 166.804 22.6816C166.158 22.7025 165.7 22.8483 165.429 23.1191C165.168 23.3796 165.038 23.9941 165.038 24.9629C165.038 25.1816 165.059 25.7233 165.101 26.5879C165.142 27.4421 165.163 28.64 165.163 30.1816H168.257C169.569 30.1816 170.642 30.2025 171.476 30.2441C172.319 30.2754 172.97 30.3535 173.429 30.4785C173.887 30.6035 174.2 30.8066 174.366 31.0879C174.543 31.3587 174.632 31.7181 174.632 32.166C174.632 32.3848 174.611 32.5879 174.569 32.7754C174.538 32.9629 174.434 33.1243 174.257 33.2598C174.09 33.3952 173.845 33.5098 173.523 33.6035C173.2 33.6868 172.736 33.7546 172.132 33.8066C171.413 33.8587 170.736 33.89 170.101 33.9004C169.465 33.9108 168.835 33.916 168.21 33.916H165.085C165.085 34.291 165.085 34.7389 165.085 35.2598C165.085 35.7806 165.085 36.3171 165.085 36.8691C165.085 37.4108 165.09 37.9473 165.101 38.4785C165.111 38.9993 165.132 39.4212 165.163 39.7441C165.184 40.14 165.236 40.4785 165.319 40.7598C165.413 41.0306 165.575 41.2546 165.804 41.4316C166.043 41.5983 166.392 41.7181 166.851 41.791C167.309 41.8639 167.929 41.9004 168.71 41.9004H176.726C177.601 41.9004 178.148 42.0618 178.366 42.3848C178.595 42.7077 178.71 43.1452 178.71 43.6973C178.71 44.1452 178.611 44.4889 178.413 44.7285C178.215 44.9577 177.736 45.1296 176.976 45.2441C176.215 45.3587 175.08 45.4264 173.569 45.4473C172.069 45.4785 170.002 45.4941 167.366 45.4941C166.241 45.4941 165.314 45.3952 164.585 45.1973C163.866 44.9889 163.283 44.6504 162.835 44.1816C162.387 43.7129 162.059 43.0983 161.851 42.3379C161.642 41.5775 161.502 40.6504 161.429 39.5566ZM190.797 18.8691C191.495 18.8691 192.297 18.9264 193.203 19.041C194.12 19.1556 194.974 19.3587 195.766 19.6504C196.557 19.9316 197.229 20.3014 197.781 20.7598C198.333 21.2181 198.609 21.7858 198.609 22.4629C198.609 22.8587 198.495 23.1921 198.266 23.4629C198.047 23.7337 197.688 23.8691 197.188 23.8691C196.813 23.8691 196.432 23.7962 196.047 23.6504C195.662 23.5046 195.224 23.3535 194.734 23.1973C194.255 23.0306 193.698 22.8743 193.063 22.7285C192.427 22.5723 191.688 22.4941 190.844 22.4941C189.198 22.4941 187.979 22.7858 187.188 23.3691C186.406 23.9525 186.016 24.7546 186.016 25.7754C186.016 26.4733 186.188 27.0618 186.531 27.541C186.886 28.0098 187.354 28.416 187.938 28.7598C188.531 29.0931 189.193 29.3743 189.922 29.6035C190.662 29.8223 191.417 30.0306 192.188 30.2285C193.052 30.4473 193.912 30.7181 194.766 31.041C195.63 31.3639 196.396 31.791 197.063 32.3223C197.74 32.8431 198.281 33.4993 198.688 34.291C199.104 35.0827 199.313 36.0931 199.313 37.3223C199.313 38.5827 199.073 39.7181 198.594 40.7285C198.125 41.7389 197.479 42.5983 196.656 43.3066C195.833 44.015 194.849 44.5618 193.703 44.9473C192.568 45.3327 191.328 45.5254 189.984 45.5254C189.234 45.5254 188.359 45.4577 187.359 45.3223C186.37 45.1868 185.427 44.9525 184.531 44.6191C183.636 44.2754 182.875 43.8275 182.25 43.2754C181.625 42.7129 181.313 42.0202 181.313 41.1973C181.313 40.6973 181.443 40.3014 181.703 40.0098C181.974 39.7077 182.37 39.5566 182.891 39.5566C183.307 39.5566 183.651 39.64 183.922 39.8066C184.203 39.9629 184.443 40.14 184.641 40.3379C185.391 40.9837 186.234 41.4212 187.172 41.6504C188.12 41.8691 189.094 41.9785 190.094 41.9785C190.667 41.9785 191.271 41.9368 191.906 41.8535C192.542 41.7598 193.12 41.5775 193.641 41.3066C194.162 41.0358 194.594 40.6452 194.938 40.1348C195.292 39.6243 195.469 38.9316 195.469 38.0566C195.469 37.265 195.313 36.6139 195 36.1035C194.688 35.5931 194.271 35.166 193.75 34.8223C193.229 34.4681 192.615 34.1816 191.906 33.9629C191.198 33.7337 190.432 33.5098 189.609 33.291C188.682 33.041 187.771 32.765 186.875 32.4629C185.979 32.1608 185.182 31.7546 184.484 31.2441C183.797 30.7337 183.234 30.0879 182.797 29.3066C182.359 28.5254 182.141 27.5254 182.141 26.3066C182.141 25.0879 182.365 24.0202 182.813 23.1035C183.261 22.1764 183.87 21.4004 184.641 20.7754C185.412 20.1504 186.323 19.6764 187.375 19.3535C188.438 19.0306 189.578 18.8691 190.797 18.8691ZM217.944 22.5254C217.246 22.5775 216.501 22.6191 215.71 22.6504C214.928 22.6712 214.064 22.6921 213.116 22.7129C213.147 23.39 213.173 24.0202 213.194 24.6035C213.225 25.1868 213.251 25.7806 213.272 26.3848C213.293 26.9785 213.308 27.5983 213.319 28.2441C213.34 28.89 213.35 29.6139 213.35 30.416C213.35 31.5306 213.35 32.6035 213.35 33.6348C213.35 34.666 213.335 35.7025 213.303 36.7441C213.282 37.7754 213.256 38.8118 213.225 39.8535C213.204 40.8952 213.168 41.9785 213.116 43.1035C213.095 43.6973 213.038 44.1556 212.944 44.4785C212.861 44.8014 212.746 45.0514 212.6 45.2285C212.454 45.4056 212.277 45.5098 212.069 45.541C211.871 45.5827 211.652 45.6035 211.413 45.6035C210.965 45.6035 210.585 45.4473 210.272 45.1348C209.96 44.8223 209.777 44.1556 209.725 43.1348C209.673 42.2389 209.642 41.2962 209.631 40.3066C209.621 39.3066 209.6 38.2337 209.569 37.0879C209.548 35.9421 209.538 34.7077 209.538 33.3848C209.538 32.0514 209.538 30.5723 209.538 28.9473C209.538 27.5827 209.543 26.39 209.553 25.3691C209.574 24.3483 209.605 23.4629 209.647 22.7129H208.116C207.074 22.7129 206.183 22.7025 205.444 22.6816C204.715 22.6608 204.111 22.5931 203.631 22.4785C203.163 22.3639 202.824 22.1816 202.616 21.9316C202.407 21.6816 202.303 21.3327 202.303 20.8848C202.303 20.666 202.324 20.4629 202.366 20.2754C202.418 20.0879 202.532 19.916 202.71 19.7598C202.887 19.5931 203.126 19.4629 203.428 19.3691C203.741 19.265 204.147 19.1868 204.647 19.1348C205.126 19.1139 205.548 19.0931 205.913 19.0723C206.288 19.041 206.663 19.015 207.038 18.9941C207.413 18.9629 207.798 18.9473 208.194 18.9473C208.59 18.9473 209.053 18.9473 209.585 18.9473C211.043 18.9473 212.423 18.9629 213.725 18.9941C215.038 19.015 216.428 19.0618 217.897 19.1348C218.501 19.1868 218.965 19.2598 219.288 19.3535C219.611 19.4368 219.855 19.5514 220.022 19.6973C220.199 19.8431 220.303 20.015 220.335 20.2129C220.376 20.4108 220.397 20.6348 220.397 20.8848C220.397 21.3327 220.241 21.7077 219.928 22.0098C219.626 22.3118 218.965 22.4837 217.944 22.5254ZM224.319 42.916C224.267 42.0202 224.236 41.0879 224.225 40.1191C224.215 39.1504 224.194 38.1087 224.163 36.9941C224.142 35.8691 224.132 34.6556 224.132 33.3535C224.132 32.041 224.132 30.5723 224.132 28.9473C224.132 27.1868 224.142 25.6764 224.163 24.416C224.194 23.1556 224.272 22.1296 224.397 21.3379C224.522 20.5462 224.715 19.9629 224.975 19.5879C225.236 19.2129 225.59 19.0254 226.038 19.0254C226.267 19.0254 226.48 19.0514 226.678 19.1035C226.876 19.1452 227.048 19.2493 227.194 19.416C227.34 19.5827 227.47 19.8223 227.585 20.1348C227.699 20.4368 227.767 20.8379 227.788 21.3379C227.84 22.2337 227.876 23.0306 227.897 23.7285C227.928 24.4264 227.954 25.1191 227.975 25.8066C228.007 26.4837 228.022 27.1921 228.022 27.9316C228.022 28.6608 228.022 29.4889 228.022 30.416C228.022 31.5306 228.022 32.5983 228.022 33.6191C228.022 34.64 228.007 35.6504 227.975 36.6504C227.954 37.64 227.928 38.6452 227.897 39.666C227.876 40.6868 227.84 41.7546 227.788 42.8691C227.767 43.4733 227.704 43.9368 227.6 44.2598C227.507 44.5827 227.382 44.8327 227.225 45.0098C227.079 45.1764 226.908 45.2806 226.71 45.3223C226.512 45.3639 226.288 45.3848 226.038 45.3848C225.59 45.3848 225.204 45.2285 224.882 44.916C224.559 44.6035 224.371 43.9368 224.319 42.916ZM242.88 45.6035C241.38 45.6035 239.974 45.3066 238.661 44.7129C237.359 44.1087 236.224 43.2441 235.255 42.1191C234.286 40.9837 233.521 39.5931 232.958 37.9473C232.406 36.3014 232.13 34.4368 232.13 32.3535C232.13 30.3848 232.37 28.5827 232.849 26.9473C233.339 25.3014 234.063 23.8796 235.021 22.6816C235.979 21.4837 237.167 20.5566 238.583 19.9004C240 19.2441 241.641 18.916 243.505 18.916C245.026 18.916 246.469 19.1921 247.833 19.7441C249.208 20.2858 250.411 21.1035 251.443 22.1973C252.474 23.291 253.287 24.6608 253.88 26.3066C254.484 27.9421 254.787 29.8587 254.787 32.0566C254.787 33.8691 254.542 35.5983 254.052 37.2441C253.573 38.8796 252.839 40.3171 251.849 41.5566C250.87 42.7858 249.63 43.7702 248.13 44.5098C246.641 45.2389 244.891 45.6035 242.88 45.6035V45.6035ZM242.943 42.0879C244.318 42.0879 245.516 41.8118 246.536 41.2598C247.557 40.6973 248.401 39.9577 249.068 39.041C249.745 38.1139 250.245 37.0462 250.568 35.8379C250.891 34.6296 251.052 33.39 251.052 32.1191C251.052 30.5775 250.844 29.2077 250.427 28.0098C250.021 26.8014 249.469 25.7858 248.771 24.9629C248.073 24.14 247.26 23.5098 246.333 23.0723C245.417 22.6348 244.438 22.416 243.396 22.416C242.156 22.416 241.068 22.6816 240.13 23.2129C239.193 23.7337 238.406 24.4421 237.771 25.3379C237.146 26.2337 236.667 27.2858 236.333 28.4941C236.01 29.6921 235.849 30.9785 235.849 32.3535C235.849 33.8223 236.036 35.1608 236.411 36.3691C236.786 37.5671 237.292 38.5931 237.927 39.4473C238.563 40.291 239.313 40.9421 240.177 41.4004C241.052 41.8587 241.974 42.0879 242.943 42.0879ZM273.29 43.4785C272.499 42.3848 271.749 41.2962 271.04 40.2129C270.332 39.1296 269.572 37.9421 268.759 36.6504C267.947 35.3483 267.025 33.9108 265.993 32.3379C264.962 30.7546 263.728 28.9056 262.29 26.791C262.29 28.6556 262.29 30.3275 262.29 31.8066C262.29 33.2858 262.275 34.6608 262.243 35.9316C262.223 37.2025 262.197 38.4004 262.165 39.5254C262.145 40.64 262.108 41.7546 262.056 42.8691C262.035 43.4733 261.978 43.9368 261.884 44.2598C261.801 44.5827 261.686 44.8327 261.54 45.0098C261.395 45.1764 261.228 45.2806 261.04 45.3223C260.853 45.3639 260.634 45.3848 260.384 45.3848C259.936 45.3848 259.561 45.2285 259.259 44.916C258.957 44.6035 258.785 43.9368 258.743 42.916C258.618 40.1764 258.546 37.4316 258.525 34.6816C258.514 31.9316 258.509 29.0879 258.509 26.1504C258.509 24.4837 258.53 23.1816 258.572 22.2441C258.613 21.2962 258.702 20.5879 258.837 20.1191C258.973 19.64 259.155 19.3379 259.384 19.2129C259.624 19.0879 259.941 19.0254 260.337 19.0254C260.743 19.0254 261.27 19.3327 261.915 19.9473C262.561 20.5514 263.27 21.3535 264.04 22.3535C264.811 23.3431 265.639 24.4889 266.525 25.791C267.41 27.0827 268.285 28.4108 269.15 29.7754C270.025 31.14 270.863 32.4941 271.665 33.8379C272.478 35.1816 273.223 36.4004 273.9 37.4941C273.868 36.3275 273.853 35.041 273.853 33.6348C273.853 32.2285 273.853 30.666 273.853 28.9473C273.853 26.9889 273.863 25.3691 273.884 24.0879C273.915 22.8066 273.988 21.791 274.103 21.041C274.217 20.291 274.395 19.7702 274.634 19.4785C274.884 19.1764 275.233 19.0254 275.681 19.0254C276.108 19.0254 276.483 19.1608 276.806 19.4316C277.129 19.7025 277.316 20.3379 277.368 21.3379C277.421 22.2337 277.457 23.0306 277.478 23.7285C277.499 24.4264 277.52 25.1191 277.54 25.8066C277.572 26.4837 277.587 27.1921 277.587 27.9316C277.587 28.6608 277.587 29.4889 277.587 30.416C277.587 31.5306 277.587 32.5983 277.587 33.6191C277.587 34.64 277.572 35.6504 277.54 36.6504C277.52 37.64 277.499 38.6452 277.478 39.666C277.457 40.6868 277.421 41.7546 277.368 42.8691C277.337 43.4733 277.28 43.9368 277.197 44.2598C277.113 44.5827 276.993 44.8327 276.837 45.0098C276.691 45.1764 276.525 45.2806 276.337 45.3223C276.15 45.3639 275.931 45.3848 275.681 45.3848C275.264 45.3848 274.905 45.2598 274.603 45.0098C274.301 44.7598 273.863 44.2493 273.29 43.4785Z" fill="#3D7E81"/>
<path d="M14.3389 88.3208V76.5083H9.71387V75.0864H20.4482V76.5083H15.8389V88.3208H14.3389ZM22.0295 88.3208V74.3208H23.5295V79.8833C23.8941 79.4041 24.3368 78.9979 24.8576 78.6646C25.3784 78.3312 26.0451 78.1646 26.8576 78.1646C27.5451 78.1646 28.1909 78.326 28.7951 78.6489C29.4097 78.9718 29.9045 79.4614 30.2795 80.1177C30.6649 80.7635 30.8576 81.5604 30.8576 82.5083V88.3208H29.3576V82.5396C29.3576 81.6333 29.0972 80.9041 28.5764 80.3521C28.0555 79.8 27.3784 79.5239 26.5451 79.5239C25.993 79.5239 25.4878 79.6489 25.0295 79.8989C24.5816 80.1489 24.217 80.5083 23.9357 80.9771C23.6649 81.4354 23.5295 81.9614 23.5295 82.5552V88.3208H22.0295ZM33.287 76.6333V74.6802H34.912V76.6333H33.287ZM33.3495 88.3208V78.3208H34.8495V88.3208H33.3495ZM41.0901 88.4771C40.1734 88.4771 39.3974 88.326 38.762 88.0239C38.1265 87.7114 37.6422 87.3052 37.3088 86.8052C36.9755 86.3052 36.788 85.7635 36.7463 85.1802H38.3088C38.3505 85.5135 38.4651 85.8364 38.6526 86.1489C38.8505 86.4614 39.1474 86.7166 39.5432 86.9146C39.9495 87.1021 40.4703 87.1958 41.1057 87.1958C41.314 87.1958 41.564 87.1802 41.8557 87.1489C42.1474 87.1073 42.4286 87.0343 42.6995 86.9302C42.9703 86.8156 43.1995 86.6541 43.387 86.4458C43.5745 86.2271 43.6682 85.951 43.6682 85.6177C43.6682 85.2114 43.5068 84.8937 43.1838 84.6646C42.8713 84.4354 42.4599 84.2583 41.9495 84.1333C41.4495 84.0083 40.913 83.8885 40.3401 83.7739C39.7776 83.6489 39.2411 83.4927 38.7307 83.3052C38.2203 83.1073 37.8036 82.8312 37.4807 82.4771C37.1682 82.1229 37.012 81.6385 37.012 81.0239C37.012 80.1177 37.3401 79.4146 37.9963 78.9146C38.663 78.4146 39.6422 78.1646 40.9338 78.1646C41.8088 78.1646 42.5224 78.3 43.0745 78.5708C43.637 78.8416 44.0588 79.1906 44.3401 79.6177C44.6318 80.0448 44.8036 80.5083 44.8557 81.0083H43.3401C43.2776 80.5812 43.064 80.2166 42.6995 79.9146C42.3349 79.6021 41.7307 79.4458 40.887 79.4458C39.3036 79.4458 38.512 79.925 38.512 80.8833C38.512 81.2791 38.6682 81.5864 38.9807 81.8052C39.3036 82.0135 39.7203 82.1854 40.2307 82.3208C40.7411 82.4458 41.2776 82.5656 41.8401 82.6802C42.413 82.7843 42.9495 82.9406 43.4495 83.1489C43.9599 83.3468 44.3713 83.6281 44.6838 83.9927C45.0068 84.3573 45.1682 84.8521 45.1682 85.4771C45.1682 86.4562 44.7984 87.201 44.0588 87.7114C43.3193 88.2218 42.3297 88.4771 41.0901 88.4771ZM54.9901 88.4771C54.0734 88.4771 53.2973 88.326 52.6619 88.0239C52.0265 87.7114 51.5421 87.3052 51.2088 86.8052C50.8755 86.3052 50.688 85.7635 50.6463 85.1802H52.2088C52.2505 85.5135 52.3651 85.8364 52.5526 86.1489C52.7505 86.4614 53.0473 86.7166 53.4432 86.9146C53.8494 87.1021 54.3703 87.1958 55.0057 87.1958C55.214 87.1958 55.464 87.1802 55.7557 87.1489C56.0473 87.1073 56.3286 87.0343 56.5994 86.9302C56.8703 86.8156 57.0994 86.6541 57.2869 86.4458C57.4744 86.2271 57.5682 85.951 57.5682 85.6177C57.5682 85.2114 57.4067 84.8937 57.0838 84.6646C56.7713 84.4354 56.3598 84.2583 55.8494 84.1333C55.3494 84.0083 54.813 83.8885 54.2401 83.7739C53.6776 83.6489 53.1411 83.4927 52.6307 83.3052C52.1203 83.1073 51.7036 82.8312 51.3807 82.4771C51.0682 82.1229 50.9119 81.6385 50.9119 81.0239C50.9119 80.1177 51.2401 79.4146 51.8963 78.9146C52.563 78.4146 53.5421 78.1646 54.8338 78.1646C55.7088 78.1646 56.4223 78.3 56.9744 78.5708C57.5369 78.8416 57.9588 79.1906 58.2401 79.6177C58.5317 80.0448 58.7036 80.5083 58.7557 81.0083H57.2401C57.1776 80.5812 56.964 80.2166 56.5994 79.9146C56.2348 79.6021 55.6307 79.4458 54.7869 79.4458C53.2036 79.4458 52.4119 79.925 52.4119 80.8833C52.4119 81.2791 52.5682 81.5864 52.8807 81.8052C53.2036 82.0135 53.6203 82.1854 54.1307 82.3208C54.6411 82.4458 55.1776 82.5656 55.7401 82.6802C56.313 82.7843 56.8494 82.9406 57.3494 83.1489C57.8598 83.3468 58.2713 83.6281 58.5838 83.9927C58.9067 84.3573 59.0682 84.8521 59.0682 85.4771C59.0682 86.4562 58.6984 87.201 57.9588 87.7114C57.2192 88.2218 56.2296 88.4771 54.9901 88.4771ZM65.3332 88.4771C64.3227 88.4771 63.4425 88.2479 62.6925 87.7896C61.9425 87.3312 61.3696 86.7114 60.9738 85.9302C60.578 85.1385 60.38 84.2687 60.38 83.3208C60.38 82.3625 60.578 81.4927 60.9738 80.7114C61.3696 79.9302 61.9425 79.3104 62.6925 78.8521C63.4425 78.3937 64.3227 78.1646 65.3332 78.1646C66.3644 78.1646 67.2498 78.3937 67.9894 78.8521C68.729 79.3104 69.2967 79.9302 69.6925 80.7114C70.0884 81.4927 70.2863 82.3625 70.2863 83.3208C70.2863 84.2687 70.0884 85.1385 69.6925 85.9302C69.2967 86.7114 68.729 87.3312 67.9894 87.7896C67.2498 88.2479 66.3644 88.4771 65.3332 88.4771ZM65.3332 87.1177C66.0832 87.1177 66.7134 86.9458 67.2238 86.6021C67.7342 86.2583 68.1196 85.7948 68.38 85.2114C68.6509 84.6281 68.7863 83.9979 68.7863 83.3208C68.7863 82.6229 68.6509 81.9875 68.38 81.4146C68.1196 80.8416 67.7342 80.3833 67.2238 80.0396C66.7134 79.6958 66.0832 79.5239 65.3332 79.5239C64.604 79.5239 63.979 79.6958 63.4582 80.0396C62.9373 80.3833 62.5415 80.8416 62.2707 81.4146C62.0102 81.9875 61.88 82.6229 61.88 83.3208C61.88 83.9979 62.0102 84.6281 62.2707 85.2114C62.5415 85.7948 62.9373 86.2583 63.4582 86.6021C63.979 86.9458 64.604 87.1177 65.3332 87.1177ZM72.9569 88.3208V79.6333H71.2382V78.3208H72.9569V77.4458C72.9569 76.3521 73.285 75.5343 73.9413 74.9927C74.5975 74.4406 75.5038 74.1646 76.66 74.1646H76.7694V75.5864H76.5663C75.8788 75.5864 75.3527 75.7427 74.9882 76.0552C74.634 76.3677 74.4569 76.8677 74.4569 77.5552V78.3208H76.7694V79.6333H74.4569V88.3208H72.9569ZM79.4875 88.3208V79.6333H77.4563V78.3208H79.4875V74.7427H80.9875V78.3208H83.3V79.6333H80.9875V88.3208H79.4875ZM93.4081 88.4771C92.4394 88.4771 91.5904 88.2479 90.8613 87.7896C90.1321 87.3312 89.5696 86.7114 89.1738 85.9302C88.7779 85.1385 88.58 84.2687 88.58 83.3208C88.58 82.3625 88.7779 81.4927 89.1738 80.7114C89.5696 79.9302 90.1321 79.3104 90.8613 78.8521C91.5904 78.3937 92.4394 78.1646 93.4081 78.1646C94.2415 78.1646 94.955 78.326 95.5488 78.6489C96.1425 78.9614 96.6217 79.3937 96.9863 79.9458V74.3208H98.4863V88.3208H96.9863V86.7271C96.6217 87.2583 96.1425 87.6854 95.5488 88.0083C94.955 88.3208 94.2415 88.4771 93.4081 88.4771ZM93.6113 87.1177C94.3613 87.1177 94.9915 86.9458 95.5019 86.6021C96.0123 86.2583 96.4029 85.7948 96.6738 85.2114C96.9446 84.6281 97.08 83.9979 97.08 83.3208C97.08 82.6229 96.9446 81.9875 96.6738 81.4146C96.4029 80.8416 96.0123 80.3833 95.5019 80.0396C94.9915 79.6958 94.3613 79.5239 93.6113 79.5239C92.8821 79.5239 92.2467 79.6958 91.705 80.0396C91.1738 80.3833 90.7675 80.8416 90.4863 81.4146C90.2154 81.9875 90.08 82.6229 90.08 83.3208C90.08 83.9979 90.2154 84.6281 90.4863 85.2114C90.7675 85.7948 91.1738 86.2583 91.705 86.6021C92.2467 86.9458 92.8821 87.1177 93.6113 87.1177ZM101.089 88.3208V78.3208H102.589V80.7739C102.641 80.6073 102.746 80.3833 102.902 80.1021C103.058 79.8104 103.282 79.5187 103.574 79.2271C103.865 78.925 104.235 78.675 104.683 78.4771C105.131 78.2687 105.662 78.1646 106.277 78.1646H106.371V79.6646H106.199C105.449 79.6646 104.803 79.8677 104.261 80.2739C103.72 80.6802 103.303 81.2062 103.011 81.8521C102.73 82.4979 102.589 83.1854 102.589 83.9146V88.3208H101.089ZM107.927 76.6333V74.6802H109.552V76.6333H107.927ZM107.989 88.3208V78.3208H109.489V88.3208H107.989ZM112.089 88.3208V78.3208H113.589V79.8833C113.954 79.4041 114.397 78.9979 114.917 78.6646C115.438 78.3312 116.105 78.1646 116.917 78.1646C117.605 78.1646 118.251 78.326 118.855 78.6489C119.47 78.9718 119.964 79.4614 120.339 80.1177C120.725 80.7635 120.917 81.5604 120.917 82.5083V88.3208H119.417V82.5396C119.417 81.6333 119.157 80.9041 118.636 80.3521C118.115 79.8 117.438 79.5239 116.605 79.5239C116.053 79.5239 115.548 79.6489 115.089 79.8989C114.641 80.1489 114.277 80.5083 113.996 80.9771C113.725 81.4354 113.589 81.9614 113.589 82.5552V88.3208H112.089ZM123.409 88.3208V74.3208H124.909V83.2739L129.737 78.3208H131.831L127.816 82.2583L132.128 88.3208H130.3L126.8 83.3052L124.909 85.1646V88.3208H123.409ZM136.475 88.3208L142.1 75.0864H143.975L149.6 88.3208H147.928L146.319 84.4771H139.756L138.131 88.3208H136.475ZM140.334 83.1021H145.725L143.037 76.6333L140.334 83.1021ZM155.168 88.4771C154.199 88.4771 153.35 88.2479 152.621 87.7896C151.892 87.3312 151.33 86.7114 150.934 85.9302C150.538 85.1385 150.34 84.2687 150.34 83.3208C150.34 82.3625 150.538 81.4927 150.934 80.7114C151.33 79.9302 151.892 79.3104 152.621 78.8521C153.35 78.3937 154.199 78.1646 155.168 78.1646C156.001 78.1646 156.715 78.326 157.309 78.6489C157.902 78.9614 158.382 79.3937 158.746 79.9458V74.3208H160.246V88.3208H158.746V86.7271C158.382 87.2583 157.902 87.6854 157.309 88.0083C156.715 88.3208 156.001 88.4771 155.168 88.4771ZM155.371 87.1177C156.121 87.1177 156.751 86.9458 157.262 86.6021C157.772 86.2583 158.163 85.7948 158.434 85.2114C158.705 84.6281 158.84 83.9979 158.84 83.3208C158.84 82.6229 158.705 81.9875 158.434 81.4146C158.163 80.8416 157.772 80.3833 157.262 80.0396C156.751 79.6958 156.121 79.5239 155.371 79.5239C154.642 79.5239 154.007 79.6958 153.465 80.0396C152.934 80.3833 152.527 80.8416 152.246 81.4146C151.975 81.9875 151.84 82.6229 151.84 83.3208C151.84 83.9979 151.975 84.6281 152.246 85.2114C152.527 85.7948 152.934 86.2583 153.465 86.6021C154.007 86.9458 154.642 87.1177 155.371 87.1177ZM172.187 88.4771C171.365 88.4771 170.656 88.3208 170.062 88.0083C169.469 87.6854 168.984 87.2583 168.609 86.7271V88.3208H167.109V74.3208H168.609V79.9458C168.984 79.3937 169.469 78.9614 170.062 78.6489C170.656 78.326 171.365 78.1646 172.187 78.1646C173.167 78.1646 174.016 78.3937 174.734 78.8521C175.463 79.3104 176.026 79.9302 176.422 80.7114C176.828 81.4927 177.031 82.3625 177.031 83.3208C177.031 84.2687 176.828 85.1385 176.422 85.9302C176.026 86.7114 175.463 87.3312 174.734 87.7896C174.016 88.2479 173.167 88.4771 172.187 88.4771ZM172 87.1177C172.74 87.1177 173.37 86.9458 173.891 86.6021C174.422 86.2583 174.828 85.7948 175.109 85.2114C175.391 84.6281 175.531 83.9979 175.531 83.3208C175.531 82.6229 175.391 81.9875 175.109 81.4146C174.828 80.8416 174.422 80.3833 173.891 80.0396C173.37 79.6958 172.74 79.5239 172 79.5239C171.26 79.5239 170.63 79.6958 170.109 80.0396C169.588 80.3833 169.193 80.8416 168.922 81.4146C168.661 81.9875 168.531 82.6229 168.531 83.3208C168.531 83.9979 168.661 84.6281 168.922 85.2114C169.193 85.7948 169.588 86.2583 170.109 86.6021C170.63 86.9458 171.26 87.1177 172 87.1177ZM183.447 88.4771C182.436 88.4771 181.551 88.2479 180.791 87.7896C180.03 87.3312 179.442 86.7114 179.025 85.9302C178.608 85.1385 178.4 84.2687 178.4 83.3208C178.4 82.3625 178.598 81.4927 178.994 80.7114C179.39 79.9302 179.962 79.3104 180.712 78.8521C181.462 78.3937 182.343 78.1646 183.353 78.1646C184.384 78.1646 185.27 78.3937 186.009 78.8521C186.749 79.3104 187.317 79.9302 187.712 80.7114C188.108 81.4927 188.306 82.3625 188.306 83.3208V83.9146H179.931C180.015 84.5083 180.202 85.05 180.494 85.5396C180.796 86.0187 181.202 86.4041 181.712 86.6958C182.223 86.9771 182.811 87.1177 183.478 87.1177C184.176 87.1177 184.765 86.9614 185.244 86.6489C185.733 86.3364 186.108 85.9354 186.369 85.4458H188.009C187.666 86.3312 187.113 87.0604 186.353 87.6333C185.603 88.1958 184.634 88.4771 183.447 88.4771ZM179.947 82.5239H186.759C186.624 81.6698 186.259 80.9562 185.666 80.3833C185.082 79.8104 184.311 79.5239 183.353 79.5239C182.395 79.5239 181.624 79.8104 181.041 80.3833C180.457 80.9562 180.093 81.6698 179.947 82.5239ZM194.446 88.4771C193.446 88.4771 192.582 88.2479 191.852 87.7896C191.123 87.3312 190.556 86.7114 190.149 85.9302C189.743 85.1385 189.54 84.2687 189.54 83.3208C189.54 82.3625 189.743 81.4927 190.149 80.7114C190.556 79.9302 191.123 79.3104 191.852 78.8521C192.582 78.3937 193.446 78.1646 194.446 78.1646C195.634 78.1646 196.644 78.4718 197.477 79.0864C198.311 79.701 198.873 80.4927 199.165 81.4614H197.556C197.326 80.8885 196.962 80.425 196.462 80.0708C195.962 79.7062 195.358 79.5239 194.649 79.5239C193.92 79.5239 193.28 79.6958 192.727 80.0396C192.186 80.3833 191.769 80.8416 191.477 81.4146C191.186 81.9875 191.04 82.6229 191.04 83.3208C191.04 83.9979 191.186 84.6281 191.477 85.2114C191.769 85.7948 192.186 86.2583 192.727 86.6021C193.28 86.9458 193.92 87.1177 194.649 87.1177C195.358 87.1177 195.962 86.9406 196.462 86.5864C196.962 86.2218 197.326 85.7531 197.556 85.1802H199.165C198.873 86.1489 198.311 86.9406 197.477 87.5552C196.644 88.1698 195.634 88.4771 194.446 88.4771ZM205.248 88.4771C204.279 88.4771 203.43 88.2479 202.701 87.7896C201.972 87.3312 201.41 86.7114 201.014 85.9302C200.618 85.1385 200.42 84.2687 200.42 83.3208C200.42 82.3625 200.618 81.4927 201.014 80.7114C201.41 79.9302 201.972 79.3104 202.701 78.8521C203.43 78.3937 204.279 78.1646 205.248 78.1646C206.081 78.1646 206.795 78.326 207.389 78.6489C207.982 78.9614 208.462 79.3937 208.826 79.9458V78.3208H210.326V88.3208H208.826V86.7271C208.462 87.2583 207.982 87.6854 207.389 88.0083C206.795 88.3208 206.081 88.4771 205.248 88.4771ZM205.451 87.1177C206.201 87.1177 206.831 86.9458 207.342 86.6021C207.852 86.2583 208.243 85.7948 208.514 85.2114C208.785 84.6281 208.92 83.9979 208.92 83.3208C208.92 82.6229 208.785 81.9875 208.514 81.4146C208.243 80.8416 207.852 80.3833 207.342 80.0396C206.831 79.6958 206.201 79.5239 205.451 79.5239C204.722 79.5239 204.087 79.6958 203.545 80.0396C203.014 80.3833 202.607 80.8416 202.326 81.4146C202.055 81.9875 201.92 82.6229 201.92 83.3208C201.92 83.9979 202.055 84.6281 202.326 85.2114C202.607 85.7948 203.014 86.2583 203.545 86.6021C204.087 86.9458 204.722 87.1177 205.451 87.1177ZM212.929 88.3208V78.3208H214.429V79.8364C214.658 79.4406 215.018 79.0656 215.507 78.7114C216.007 78.3468 216.664 78.1646 217.476 78.1646C218.143 78.1646 218.757 78.3416 219.32 78.6958C219.893 79.05 220.336 79.5448 220.648 80.1802C220.783 79.951 220.992 79.6802 221.273 79.3677C221.565 79.0448 221.945 78.7635 222.414 78.5239C222.882 78.2843 223.44 78.1646 224.086 78.1646C224.731 78.1646 225.33 78.3312 225.882 78.6646C226.445 78.9979 226.903 79.4771 227.257 80.1021C227.612 80.7166 227.789 81.4406 227.789 82.2739V88.3208H226.289V82.3208C226.289 81.4771 226.049 80.8 225.57 80.2896C225.101 79.7791 224.518 79.5239 223.82 79.5239C223.08 79.5239 222.445 79.7739 221.914 80.2739C221.382 80.7635 221.117 81.451 221.117 82.3364V88.3208H219.617V82.3208C219.617 81.4771 219.377 80.8 218.898 80.2896C218.429 79.7791 217.841 79.5239 217.132 79.5239C216.403 79.5239 215.768 79.7739 215.226 80.2739C214.695 80.7635 214.429 81.451 214.429 82.3364V88.3208H212.929ZM234.727 88.4771C233.716 88.4771 232.831 88.2479 232.071 87.7896C231.31 87.3312 230.722 86.7114 230.305 85.9302C229.888 85.1385 229.68 84.2687 229.68 83.3208C229.68 82.3625 229.878 81.4927 230.274 80.7114C230.669 79.9302 231.242 79.3104 231.992 78.8521C232.742 78.3937 233.623 78.1646 234.633 78.1646C235.664 78.1646 236.55 78.3937 237.289 78.8521C238.029 79.3104 238.597 79.9302 238.992 80.7114C239.388 81.4927 239.586 82.3625 239.586 83.3208V83.9146H231.211C231.294 84.5083 231.482 85.05 231.774 85.5396C232.076 86.0187 232.482 86.4041 232.992 86.6958C233.503 86.9771 234.091 87.1177 234.758 87.1177C235.456 87.1177 236.044 86.9614 236.524 86.6489C237.013 86.3364 237.388 85.9354 237.649 85.4458H239.289C238.946 86.3312 238.393 87.0604 237.633 87.6333C236.883 88.1958 235.914 88.4771 234.727 88.4771ZM231.227 82.5239H238.039C237.904 81.6698 237.539 80.9562 236.946 80.3833C236.362 79.8104 235.591 79.5239 234.633 79.5239C233.675 79.5239 232.904 79.8104 232.321 80.3833C231.737 80.9562 231.373 81.6698 231.227 82.5239ZM249.33 88.4771C248.413 88.4771 247.637 88.326 247.002 88.0239C246.366 87.7114 245.882 87.3052 245.549 86.8052C245.215 86.3052 245.028 85.7635 244.986 85.1802H246.549C246.59 85.5135 246.705 85.8364 246.892 86.1489C247.09 86.4614 247.387 86.7166 247.783 86.9146C248.189 87.1021 248.71 87.1958 249.345 87.1958C249.554 87.1958 249.804 87.1802 250.095 87.1489C250.387 87.1073 250.668 87.0343 250.939 86.9302C251.21 86.8156 251.439 86.6541 251.627 86.4458C251.814 86.2271 251.908 85.951 251.908 85.6177C251.908 85.2114 251.747 84.8937 251.424 84.6646C251.111 84.4354 250.7 84.2583 250.189 84.1333C249.689 84.0083 249.153 83.8885 248.58 83.7739C248.017 83.6489 247.481 83.4927 246.97 83.3052C246.46 83.1073 246.043 82.8312 245.72 82.4771C245.408 82.1229 245.252 81.6385 245.252 81.0239C245.252 80.1177 245.58 79.4146 246.236 78.9146C246.903 78.4146 247.882 78.1646 249.174 78.1646C250.049 78.1646 250.762 78.3 251.314 78.5708C251.877 78.8416 252.299 79.1906 252.58 79.6177C252.872 80.0448 253.043 80.5083 253.095 81.0083H251.58C251.517 80.5812 251.304 80.2166 250.939 79.9146C250.575 79.6021 249.97 79.4458 249.127 79.4458C247.543 79.4458 246.752 79.925 246.752 80.8833C246.752 81.2791 246.908 81.5864 247.22 81.8052C247.543 82.0135 247.96 82.1854 248.47 82.3208C248.981 82.4458 249.517 82.5656 250.08 82.6802C250.653 82.7843 251.189 82.9406 251.689 83.1489C252.2 83.3468 252.611 83.6281 252.924 83.9927C253.247 84.3573 253.408 84.8521 253.408 85.4771C253.408 86.4562 253.038 87.201 252.299 87.7114C251.559 88.2218 250.569 88.4771 249.33 88.4771V88.4771ZM259.673 88.4771C258.663 88.4771 257.782 88.2479 257.032 87.7896C256.282 87.3312 255.709 86.7114 255.314 85.9302C254.918 85.1385 254.72 84.2687 254.72 83.3208C254.72 82.3625 254.918 81.4927 255.314 80.7114C255.709 79.9302 256.282 79.3104 257.032 78.8521C257.782 78.3937 258.663 78.1646 259.673 78.1646C260.704 78.1646 261.59 78.3937 262.329 78.8521C263.069 79.3104 263.636 79.9302 264.032 80.7114C264.428 81.4927 264.626 82.3625 264.626 83.3208C264.626 84.2687 264.428 85.1385 264.032 85.9302C263.636 86.7114 263.069 87.3312 262.329 87.7896C261.59 88.2479 260.704 88.4771 259.673 88.4771ZM259.673 87.1177C260.423 87.1177 261.053 86.9458 261.564 86.6021C262.074 86.2583 262.459 85.7948 262.72 85.2114C262.991 84.6281 263.126 83.9979 263.126 83.3208C263.126 82.6229 262.991 81.9875 262.72 81.4146C262.459 80.8416 262.074 80.3833 261.564 80.0396C261.053 79.6958 260.423 79.5239 259.673 79.5239C258.944 79.5239 258.319 79.6958 257.798 80.0396C257.277 80.3833 256.881 80.8416 256.61 81.4146C256.35 81.9875 256.22 82.6229 256.22 83.3208C256.22 83.9979 256.35 84.6281 256.61 85.2114C256.881 85.7948 257.277 86.2583 257.798 86.6021C258.319 86.9458 258.944 87.1177 259.673 87.1177ZM271.469 92.2739V78.3208H272.969V79.9146C273.344 79.3729 273.829 78.9458 274.422 78.6333C275.016 78.3208 275.724 78.1646 276.547 78.1646C277.526 78.1646 278.375 78.3937 279.094 78.8521C279.823 79.3104 280.386 79.9302 280.782 80.7114C281.188 81.4927 281.391 82.3625 281.391 83.3208C281.391 84.2687 281.188 85.1385 280.782 85.9302C280.386 86.7114 279.823 87.3312 279.094 87.7896C278.375 88.2479 277.526 88.4771 276.547 88.4771C275.724 88.4771 275.016 88.3156 274.422 87.9927C273.829 87.6698 273.344 87.2375 272.969 86.6958V92.2739H271.469ZM276.36 87.1177C277.099 87.1177 277.73 86.9458 278.25 86.6021C278.782 86.2583 279.188 85.7948 279.469 85.2114C279.75 84.6281 279.891 83.9979 279.891 83.3208C279.891 82.6229 279.75 81.9875 279.469 81.4146C279.188 80.8416 278.782 80.3833 278.25 80.0396C277.73 79.6958 277.099 79.5239 276.36 79.5239C275.62 79.5239 274.99 79.6958 274.469 80.0396C273.948 80.3833 273.553 80.8416 273.282 81.4146C273.021 81.9875 272.891 82.6229 272.891 83.3208C272.891 83.9979 273.021 84.6281 273.282 85.2114C273.553 85.7948 273.948 86.2583 274.469 86.6021C274.99 86.9458 275.62 87.1177 276.36 87.1177ZM287.713 88.4771C286.703 88.4771 285.822 88.2479 285.072 87.7896C284.322 87.3312 283.749 86.7114 283.354 85.9302C282.958 85.1385 282.76 84.2687 282.76 83.3208C282.76 82.3625 282.958 81.4927 283.354 80.7114C283.749 79.9302 284.322 79.3104 285.072 78.8521C285.822 78.3937 286.703 78.1646 287.713 78.1646C288.744 78.1646 289.63 78.3937 290.369 78.8521C291.109 79.3104 291.677 79.9302 292.072 80.7114C292.468 81.4927 292.666 82.3625 292.666 83.3208C292.666 84.2687 292.468 85.1385 292.072 85.9302C291.677 86.7114 291.109 87.3312 290.369 87.7896C289.63 88.2479 288.744 88.4771 287.713 88.4771ZM287.713 87.1177C288.463 87.1177 289.093 86.9458 289.604 86.6021C290.114 86.2583 290.499 85.7948 290.76 85.2114C291.031 84.6281 291.166 83.9979 291.166 83.3208C291.166 82.6229 291.031 81.9875 290.76 81.4146C290.499 80.8416 290.114 80.3833 289.604 80.0396C289.093 79.6958 288.463 79.5239 287.713 79.5239C286.984 79.5239 286.359 79.6958 285.838 80.0396C285.317 80.3833 284.921 80.8416 284.65 81.4146C284.39 81.9875 284.26 82.6229 284.26 83.3208C284.26 83.9979 284.39 84.6281 284.65 85.2114C284.921 85.7948 285.317 86.2583 285.838 86.6021C286.359 86.9458 286.984 87.1177 287.713 87.1177ZM294.649 92.2739V78.3208H296.149V79.9146C296.524 79.3729 297.009 78.9458 297.602 78.6333C298.196 78.3208 298.904 78.1646 299.727 78.1646C300.706 78.1646 301.555 78.3937 302.274 78.8521C303.003 79.3104 303.566 79.9302 303.962 80.7114C304.368 81.4927 304.571 82.3625 304.571 83.3208C304.571 84.2687 304.368 85.1385 303.962 85.9302C303.566 86.7114 303.003 87.3312 302.274 87.7896C301.555 88.2479 300.706 88.4771 299.727 88.4771C298.904 88.4771 298.196 88.3156 297.602 87.9927C297.009 87.6698 296.524 87.2375 296.149 86.6958V92.2739H294.649ZM299.54 87.1177C300.279 87.1177 300.91 86.9458 301.43 86.6021C301.962 86.2583 302.368 85.7948 302.649 85.2114C302.93 84.6281 303.071 83.9979 303.071 83.3208C303.071 82.6229 302.93 81.9875 302.649 81.4146C302.368 80.8416 301.962 80.3833 301.43 80.0396C300.91 79.6958 300.279 79.5239 299.54 79.5239C298.8 79.5239 298.17 79.6958 297.649 80.0396C297.128 80.3833 296.733 80.8416 296.462 81.4146C296.201 81.9875 296.071 82.6229 296.071 83.3208C296.071 83.9979 296.201 84.6281 296.462 85.2114C296.733 85.7948 297.128 86.2583 297.649 86.6021C298.17 86.9458 298.8 87.1177 299.54 87.1177ZM310.455 88.4771C309.778 88.4771 309.133 88.3156 308.518 87.9927C307.903 87.6698 307.403 87.1854 307.018 86.5396C306.643 85.8833 306.455 85.0812 306.455 84.1333V78.3208H307.955V84.1021C307.955 85.0083 308.216 85.7375 308.737 86.2896C309.268 86.8416 309.94 87.1177 310.752 87.1177C311.315 87.1177 311.82 86.9875 312.268 86.7271C312.726 86.4666 313.091 86.1125 313.362 85.6646C313.633 85.2062 313.768 84.6802 313.768 84.0864V78.3208H315.268V88.3208H313.768V86.7583C313.414 87.2375 312.976 87.6437 312.455 87.9771C311.935 88.3104 311.268 88.4771 310.455 88.4771ZM317.869 88.3208V74.3208H319.369V88.3208H317.869ZM326.188 88.4771C325.219 88.4771 324.37 88.2479 323.641 87.7896C322.912 87.3312 322.349 86.7114 321.954 85.9302C321.558 85.1385 321.36 84.2687 321.36 83.3208C321.36 82.3625 321.558 81.4927 321.954 80.7114C322.349 79.9302 322.912 79.3104 323.641 78.8521C324.37 78.3937 325.219 78.1646 326.188 78.1646C327.021 78.1646 327.735 78.326 328.329 78.6489C328.922 78.9614 329.401 79.3937 329.766 79.9458V78.3208H331.266V88.3208H329.766V86.7271C329.401 87.2583 328.922 87.6854 328.329 88.0083C327.735 88.3208 327.021 88.4771 326.188 88.4771ZM326.391 87.1177C327.141 87.1177 327.771 86.9458 328.282 86.6021C328.792 86.2583 329.183 85.7948 329.454 85.2114C329.724 84.6281 329.86 83.9979 329.86 83.3208C329.86 82.6229 329.724 81.9875 329.454 81.4146C329.183 80.8416 328.792 80.3833 328.282 80.0396C327.771 79.6958 327.141 79.5239 326.391 79.5239C325.662 79.5239 325.026 79.6958 324.485 80.0396C323.954 80.3833 323.547 80.8416 323.266 81.4146C322.995 81.9875 322.86 82.6229 322.86 83.3208C322.86 83.9979 322.995 84.6281 323.266 85.2114C323.547 85.7948 323.954 86.2583 324.485 86.6021C325.026 86.9458 325.662 87.1177 326.391 87.1177ZM333.869 88.3208V78.3208H335.369V80.7739C335.421 80.6073 335.525 80.3833 335.682 80.1021C335.838 79.8104 336.062 79.5187 336.354 79.2271C336.645 78.925 337.015 78.675 337.463 78.4771C337.911 78.2687 338.442 78.1646 339.057 78.1646H339.15V79.6646H338.979C338.229 79.6646 337.583 79.8677 337.041 80.2739C336.499 80.6802 336.083 81.2062 335.791 81.8521C335.51 82.4979 335.369 83.1854 335.369 83.9146V88.3208H333.869ZM349.467 88.4771C348.456 88.4771 347.571 88.2479 346.81 87.7896C346.05 87.3312 345.461 86.7114 345.045 85.9302C344.628 85.1385 344.42 84.2687 344.42 83.3208C344.42 82.3625 344.618 81.4927 345.014 80.7114C345.409 79.9302 345.982 79.3104 346.732 78.8521C347.482 78.3937 348.362 78.1646 349.373 78.1646C350.404 78.1646 351.29 78.3937 352.029 78.8521C352.769 79.3104 353.336 79.9302 353.732 80.7114C354.128 81.4927 354.326 82.3625 354.326 83.3208V83.9146H345.951C346.034 84.5083 346.222 85.05 346.514 85.5396C346.816 86.0187 347.222 86.4041 347.732 86.6958C348.243 86.9771 348.831 87.1177 349.498 87.1177C350.196 87.1177 350.784 86.9614 351.264 86.6489C351.753 86.3364 352.128 85.9354 352.389 85.4458H354.029C353.685 86.3312 353.133 87.0604 352.373 87.6333C351.623 88.1958 350.654 88.4771 349.467 88.4771ZM345.967 82.5239H352.779C352.644 81.6698 352.279 80.9562 351.685 80.3833C351.102 79.8104 350.331 79.5239 349.373 79.5239C348.415 79.5239 347.644 79.8104 347.06 80.3833C346.477 80.9562 346.112 81.6698 345.967 82.5239ZM359.81 88.4771C358.893 88.4771 358.117 88.326 357.482 88.0239C356.846 87.7114 356.362 87.3052 356.029 86.8052C355.695 86.3052 355.508 85.7635 355.466 85.1802H357.029C357.07 85.5135 357.185 85.8364 357.372 86.1489C357.57 86.4614 357.867 86.7166 358.263 86.9146C358.669 87.1021 359.19 87.1958 359.825 87.1958C360.034 87.1958 360.284 87.1802 360.575 87.1489C360.867 87.1073 361.148 87.0343 361.419 86.9302C361.69 86.8156 361.919 86.6541 362.107 86.4458C362.294 86.2271 362.388 85.951 362.388 85.6177C362.388 85.2114 362.226 84.8937 361.904 84.6646C361.591 84.4354 361.18 84.2583 360.669 84.1333C360.169 84.0083 359.633 83.8885 359.06 83.7739C358.497 83.6489 357.961 83.4927 357.45 83.3052C356.94 83.1073 356.523 82.8312 356.2 82.4771C355.888 82.1229 355.732 81.6385 355.732 81.0239C355.732 80.1177 356.06 79.4146 356.716 78.9146C357.383 78.4146 358.362 78.1646 359.654 78.1646C360.529 78.1646 361.242 78.3 361.794 78.5708C362.357 78.8416 362.779 79.1906 363.06 79.6177C363.351 80.0448 363.523 80.5083 363.575 81.0083H362.06C361.997 80.5812 361.784 80.2166 361.419 79.9146C361.055 79.6021 360.45 79.4458 359.607 79.4458C358.023 79.4458 357.232 79.925 357.232 80.8833C357.232 81.2791 357.388 81.5864 357.7 81.8052C358.023 82.0135 358.44 82.1854 358.95 82.3208C359.461 82.4458 359.997 82.5656 360.56 82.6802C361.133 82.7843 361.669 82.9406 362.169 83.1489C362.68 83.3468 363.091 83.6281 363.404 83.9927C363.726 84.3573 363.888 84.8521 363.888 85.4771C363.888 86.4562 363.518 87.201 362.779 87.7114C362.039 88.2218 361.049 88.4771 359.81 88.4771ZM365.809 92.2739V78.3208H367.309V79.9146C367.684 79.3729 368.168 78.9458 368.762 78.6333C369.356 78.3208 370.064 78.1646 370.887 78.1646C371.866 78.1646 372.715 78.3937 373.434 78.8521C374.163 79.3104 374.726 79.9302 375.122 80.7114C375.528 81.4927 375.731 82.3625 375.731 83.3208C375.731 84.2687 375.528 85.1385 375.122 85.9302C374.726 86.7114 374.163 87.3312 373.434 87.7896C372.715 88.2479 371.866 88.4771 370.887 88.4771C370.064 88.4771 369.356 88.3156 368.762 87.9927C368.168 87.6698 367.684 87.2375 367.309 86.6958V92.2739H365.809ZM370.7 87.1177C371.439 87.1177 372.07 86.9458 372.59 86.6021C373.122 86.2583 373.528 85.7948 373.809 85.2114C374.09 84.6281 374.231 83.9979 374.231 83.3208C374.231 82.6229 374.09 81.9875 373.809 81.4146C373.528 80.8416 373.122 80.3833 372.59 80.0396C372.07 79.6958 371.439 79.5239 370.7 79.5239C369.96 79.5239 369.33 79.6958 368.809 80.0396C368.288 80.3833 367.892 80.8416 367.622 81.4146C367.361 81.9875 367.231 82.6229 367.231 83.3208C367.231 83.9979 367.361 84.6281 367.622 85.2114C367.892 85.7948 368.288 86.2583 368.809 86.6021C369.33 86.9458 369.96 87.1177 370.7 87.1177ZM382.147 88.4771C381.136 88.4771 380.251 88.2479 379.49 87.7896C378.73 87.3312 378.141 86.7114 377.725 85.9302C377.308 85.1385 377.1 84.2687 377.1 83.3208C377.1 82.3625 377.298 81.4927 377.694 80.7114C378.089 79.9302 378.662 79.3104 379.412 78.8521C380.162 78.3937 381.042 78.1646 382.053 78.1646C383.084 78.1646 383.97 78.3937 384.709 78.8521C385.449 79.3104 386.016 79.9302 386.412 80.7114C386.808 81.4927 387.006 82.3625 387.006 83.3208V83.9146H378.631C378.714 84.5083 378.902 85.05 379.194 85.5396C379.496 86.0187 379.902 86.4041 380.412 86.6958C380.923 86.9771 381.511 87.1177 382.178 87.1177C382.876 87.1177 383.464 86.9614 383.944 86.6489C384.433 86.3364 384.808 85.9354 385.069 85.4458H386.709C386.365 86.3312 385.813 87.0604 385.053 87.6333C384.303 88.1958 383.334 88.4771 382.147 88.4771ZM378.647 82.5239H385.459C385.324 81.6698 384.959 80.9562 384.365 80.3833C383.782 79.8104 383.011 79.5239 382.053 79.5239C381.095 79.5239 380.324 79.8104 379.74 80.3833C379.157 80.9562 378.792 81.6698 378.647 82.5239ZM393.146 88.4771C392.146 88.4771 391.281 88.2479 390.552 87.7896C389.823 87.3312 389.255 86.7114 388.849 85.9302C388.443 85.1385 388.24 84.2687 388.24 83.3208C388.24 82.3625 388.443 81.4927 388.849 80.7114C389.255 79.9302 389.823 79.3104 390.552 78.8521C391.281 78.3937 392.146 78.1646 393.146 78.1646C394.333 78.1646 395.344 78.4718 396.177 79.0864C397.011 79.701 397.573 80.4927 397.865 81.4614H396.255C396.026 80.8885 395.662 80.425 395.162 80.0708C394.662 79.7062 394.057 79.5239 393.349 79.5239C392.62 79.5239 391.979 79.6958 391.427 80.0396C390.886 80.3833 390.469 80.8416 390.177 81.4146C389.886 81.9875 389.74 82.6229 389.74 83.3208C389.74 83.9979 389.886 84.6281 390.177 85.2114C390.469 85.7948 390.886 86.2583 391.427 86.6021C391.979 86.9458 392.62 87.1177 393.349 87.1177C394.057 87.1177 394.662 86.9406 395.162 86.5864C395.662 86.2218 396.026 85.7531 396.255 85.1802H397.865C397.573 86.1489 397.011 86.9406 396.177 87.5552C395.344 88.1698 394.333 88.4771 393.146 88.4771ZM399.667 76.6333V74.6802H401.292V76.6333H399.667ZM399.729 88.3208V78.3208H401.229V88.3208H399.729ZM408.048 88.4771C407.079 88.4771 406.23 88.2479 405.501 87.7896C404.772 87.3312 404.209 86.7114 403.813 85.9302C403.418 85.1385 403.22 84.2687 403.22 83.3208C403.22 82.3625 403.418 81.4927 403.813 80.7114C404.209 79.9302 404.772 79.3104 405.501 78.8521C406.23 78.3937 407.079 78.1646 408.048 78.1646C408.881 78.1646 409.595 78.326 410.188 78.6489C410.782 78.9614 411.261 79.3937 411.626 79.9458V78.3208H413.126V88.3208H411.626V86.7271C411.261 87.2583 410.782 87.6854 410.188 88.0083C409.595 88.3208 408.881 88.4771 408.048 88.4771ZM408.251 87.1177C409.001 87.1177 409.631 86.9458 410.142 86.6021C410.652 86.2583 411.043 85.7948 411.313 85.2114C411.584 84.6281 411.72 83.9979 411.72 83.3208C411.72 82.6229 411.584 81.9875 411.313 81.4146C411.043 80.8416 410.652 80.3833 410.142 80.0396C409.631 79.6958 409.001 79.5239 408.251 79.5239C407.522 79.5239 406.886 79.6958 406.345 80.0396C405.813 80.3833 405.407 80.8416 405.126 81.4146C404.855 81.9875 404.72 82.6229 404.72 83.3208C404.72 83.9979 404.855 84.6281 405.126 85.2114C405.407 85.7948 405.813 86.2583 406.345 86.6021C406.886 86.9458 407.522 87.1177 408.251 87.1177ZM415.729 88.3208V74.3208H417.229V88.3208H415.729ZM419.829 88.3208V74.3208H421.329V88.3208H419.829ZM424.976 92.2739L426.788 88.1802L422.71 78.3208H424.367L427.585 86.5239L430.867 78.3208H432.507L426.585 92.2739H424.976Z" fill="black"/>
<path d="M125.545 112.321L122.404 102.321H124.014L126.404 110.461L128.951 102.321H130.592L133.123 110.461L135.529 102.321H137.123L133.998 112.321H132.264L129.764 104.336L127.264 112.321H125.545ZM138.527 112.321V98.3208H140.027V103.883C140.392 103.404 140.835 102.998 141.356 102.665C141.876 102.331 142.543 102.165 143.356 102.165C144.043 102.165 144.689 102.326 145.293 102.649C145.908 102.972 146.402 103.461 146.777 104.118C147.163 104.764 147.356 105.56 147.356 106.508V112.321H145.856V106.54C145.856 105.633 145.595 104.904 145.074 104.352C144.553 103.8 143.876 103.524 143.043 103.524C142.491 103.524 141.986 103.649 141.527 103.899C141.079 104.149 140.715 104.508 140.434 104.977C140.163 105.435 140.027 105.961 140.027 106.555V112.321H138.527ZM154.285 112.477C153.274 112.477 152.389 112.248 151.629 111.79C150.868 111.331 150.28 110.711 149.863 109.93C149.446 109.139 149.238 108.269 149.238 107.321C149.238 106.362 149.436 105.493 149.832 104.711C150.228 103.93 150.801 103.31 151.551 102.852C152.301 102.394 153.181 102.165 154.191 102.165C155.222 102.165 156.108 102.394 156.847 102.852C157.587 103.31 158.155 103.93 158.551 104.711C158.946 105.493 159.144 106.362 159.144 107.321V107.915H150.769C150.853 108.508 151.04 109.05 151.332 109.54C151.634 110.019 152.04 110.404 152.551 110.696C153.061 110.977 153.649 111.118 154.316 111.118C155.014 111.118 155.603 110.961 156.082 110.649C156.571 110.336 156.946 109.935 157.207 109.446H158.847C158.504 110.331 157.952 111.06 157.191 111.633C156.441 112.196 155.472 112.477 154.285 112.477ZM150.785 106.524H157.597C157.462 105.67 157.097 104.956 156.504 104.383C155.92 103.81 155.149 103.524 154.191 103.524C153.233 103.524 152.462 103.81 151.879 104.383C151.295 104.956 150.931 105.67 150.785 106.524ZM160.987 112.321V102.321H162.487V103.883C162.852 103.404 163.295 102.998 163.815 102.665C164.336 102.331 165.003 102.165 165.815 102.165C166.503 102.165 167.149 102.326 167.753 102.649C168.368 102.972 168.862 103.461 169.237 104.118C169.623 104.764 169.815 105.56 169.815 106.508V112.321H168.315V106.54C168.315 105.633 168.055 104.904 167.534 104.352C167.013 103.8 166.336 103.524 165.503 103.524C164.951 103.524 164.446 103.649 163.987 103.899C163.539 104.149 163.175 104.508 162.894 104.977C162.623 105.435 162.487 105.961 162.487 106.555V112.321H160.987ZM177.645 112.321V103.633H175.614V102.321H177.645V98.7427H179.145V102.321H181.458V103.633H179.145V112.321H177.645ZM183.087 112.321V98.3208H184.587V103.883C184.952 103.404 185.395 102.998 185.915 102.665C186.436 102.331 187.103 102.165 187.915 102.165C188.603 102.165 189.249 102.326 189.853 102.649C190.468 102.972 190.962 103.461 191.337 104.118C191.723 104.764 191.915 105.56 191.915 106.508V112.321H190.415V106.54C190.415 105.633 190.155 104.904 189.634 104.352C189.113 103.8 188.436 103.524 187.603 103.524C187.051 103.524 186.546 103.649 186.087 103.899C185.639 104.149 185.275 104.508 184.994 104.977C184.723 105.435 184.587 105.961 184.587 106.555V112.321H183.087ZM194.345 100.633V98.6802H195.97V100.633H194.345ZM194.407 112.321V102.321H195.907V112.321H194.407ZM202.148 112.477C201.231 112.477 200.455 112.326 199.82 112.024C199.184 111.711 198.7 111.305 198.367 110.805C198.033 110.305 197.846 109.764 197.804 109.18H199.367C199.408 109.514 199.523 109.836 199.71 110.149C199.908 110.461 200.205 110.717 200.601 110.915C201.007 111.102 201.528 111.196 202.164 111.196C202.372 111.196 202.622 111.18 202.914 111.149C203.205 111.107 203.486 111.034 203.757 110.93C204.028 110.816 204.257 110.654 204.445 110.446C204.632 110.227 204.726 109.951 204.726 109.618C204.726 109.211 204.565 108.894 204.242 108.665C203.929 108.435 203.518 108.258 203.007 108.133C202.507 108.008 201.971 107.889 201.398 107.774C200.835 107.649 200.299 107.493 199.789 107.305C199.278 107.107 198.861 106.831 198.539 106.477C198.226 106.123 198.07 105.639 198.07 105.024C198.07 104.118 198.398 103.415 199.054 102.915C199.721 102.415 200.7 102.165 201.992 102.165C202.867 102.165 203.58 102.3 204.132 102.571C204.695 102.842 205.117 103.191 205.398 103.618C205.69 104.045 205.861 104.508 205.914 105.008H204.398C204.335 104.581 204.122 104.217 203.757 103.915C203.393 103.602 202.789 103.446 201.945 103.446C200.361 103.446 199.57 103.925 199.57 104.883C199.57 105.279 199.726 105.586 200.039 105.805C200.361 106.014 200.778 106.185 201.289 106.321C201.799 106.446 202.335 106.566 202.898 106.68C203.471 106.784 204.007 106.941 204.507 107.149C205.018 107.347 205.429 107.628 205.742 107.993C206.065 108.357 206.226 108.852 206.226 109.477C206.226 110.456 205.856 111.201 205.117 111.711C204.377 112.222 203.388 112.477 202.148 112.477ZM216.985 116.446C215.735 116.446 214.715 116.175 213.923 115.633C213.142 115.092 212.61 114.389 212.329 113.524H213.985C214.194 114.014 214.543 114.394 215.032 114.665C215.522 114.946 216.147 115.086 216.907 115.086C218.053 115.086 218.886 114.816 219.407 114.274C219.939 113.732 220.204 112.946 220.204 111.915V110.54C219.84 111.071 219.36 111.503 218.767 111.836C218.173 112.159 217.459 112.321 216.626 112.321C215.657 112.321 214.808 112.097 214.079 111.649C213.35 111.201 212.788 110.592 212.392 109.821C211.996 109.05 211.798 108.191 211.798 107.243C211.798 106.284 211.996 105.425 212.392 104.665C212.788 103.894 213.35 103.284 214.079 102.836C214.808 102.389 215.657 102.165 216.626 102.165C217.459 102.165 218.173 102.321 218.767 102.633C219.36 102.946 219.84 103.373 220.204 103.915V102.321H221.704V112.024C221.704 113.451 221.293 114.545 220.47 115.305C219.657 116.066 218.496 116.446 216.985 116.446ZM216.829 110.961C217.558 110.961 218.178 110.795 218.689 110.461C219.209 110.128 219.605 109.68 219.876 109.118C220.157 108.545 220.298 107.92 220.298 107.243C220.298 106.545 220.157 105.92 219.876 105.368C219.605 104.805 219.209 104.357 218.689 104.024C218.178 103.691 217.558 103.524 216.829 103.524C216.1 103.524 215.465 103.691 214.923 104.024C214.392 104.357 213.985 104.805 213.704 105.368C213.433 105.92 213.298 106.545 213.298 107.243C213.298 107.92 213.433 108.545 213.704 109.118C213.985 109.68 214.392 110.128 214.923 110.461C215.465 110.795 216.1 110.961 216.829 110.961ZM224.245 100.633V98.6802H225.87V100.633H224.245ZM224.307 112.321V102.321H225.807V112.321H224.307ZM228.407 112.321V102.321H229.907V104.774C229.959 104.607 230.064 104.383 230.22 104.102C230.376 103.81 230.6 103.519 230.892 103.227C231.183 102.925 231.553 102.675 232.001 102.477C232.449 102.269 232.98 102.165 233.595 102.165H233.689V103.665H233.517C232.767 103.665 232.121 103.868 231.579 104.274C231.037 104.68 230.621 105.206 230.329 105.852C230.048 106.498 229.907 107.185 229.907 107.915V112.321H228.407ZM235.307 112.321V98.3208H236.807V112.321H235.307ZM247.308 112.477C246.391 112.477 245.615 112.326 244.98 112.024C244.344 111.711 243.86 111.305 243.527 110.805C243.193 110.305 243.006 109.764 242.964 109.18H244.527C244.568 109.514 244.683 109.836 244.87 110.149C245.068 110.461 245.365 110.717 245.761 110.915C246.167 111.102 246.688 111.196 247.324 111.196C247.532 111.196 247.782 111.18 248.074 111.149C248.365 111.107 248.646 111.034 248.917 110.93C249.188 110.816 249.417 110.654 249.605 110.446C249.792 110.227 249.886 109.951 249.886 109.618C249.886 109.211 249.725 108.894 249.402 108.665C249.089 108.435 248.678 108.258 248.167 108.133C247.667 108.008 247.131 107.889 246.558 107.774C245.995 107.649 245.459 107.493 244.949 107.305C244.438 107.107 244.021 106.831 243.699 106.477C243.386 106.123 243.23 105.639 243.23 105.024C243.23 104.118 243.558 103.415 244.214 102.915C244.881 102.415 245.86 102.165 247.152 102.165C248.027 102.165 248.74 102.3 249.292 102.571C249.855 102.842 250.277 103.191 250.558 103.618C250.85 104.045 251.021 104.508 251.074 105.008H249.558C249.495 104.581 249.282 104.217 248.917 103.915C248.553 103.602 247.949 103.446 247.105 103.446C245.521 103.446 244.73 103.925 244.73 104.883C244.73 105.279 244.886 105.586 245.199 105.805C245.521 106.014 245.938 106.185 246.449 106.321C246.959 106.446 247.495 106.566 248.058 106.68C248.631 106.784 249.167 106.941 249.667 107.149C250.178 107.347 250.589 107.628 250.902 107.993C251.225 108.357 251.386 108.852 251.386 109.477C251.386 110.456 251.016 111.201 250.277 111.711C249.537 112.222 248.547 112.477 247.308 112.477ZM253.307 112.321V98.3208H254.807V103.883C255.172 103.404 255.615 102.998 256.135 102.665C256.656 102.331 257.323 102.165 258.135 102.165C258.823 102.165 259.469 102.326 260.073 102.649C260.687 102.972 261.182 103.461 261.557 104.118C261.943 104.764 262.135 105.56 262.135 106.508V112.321H260.635V106.54C260.635 105.633 260.375 104.904 259.854 104.352C259.333 103.8 258.656 103.524 257.823 103.524C257.271 103.524 256.766 103.649 256.307 103.899C255.859 104.149 255.495 104.508 255.214 104.977C254.943 105.435 254.807 105.961 254.807 106.555V112.321H253.307ZM268.971 112.477C267.961 112.477 267.08 112.248 266.33 111.79C265.58 111.331 265.007 110.711 264.612 109.93C264.216 109.139 264.018 108.269 264.018 107.321C264.018 106.362 264.216 105.493 264.612 104.711C265.007 103.93 265.58 103.31 266.33 102.852C267.08 102.394 267.961 102.165 268.971 102.165C270.002 102.165 270.888 102.394 271.627 102.852C272.367 103.31 272.935 103.93 273.33 104.711C273.726 105.493 273.924 106.362 273.924 107.321C273.924 108.269 273.726 109.139 273.33 109.93C272.935 110.711 272.367 111.331 271.627 111.79C270.888 112.248 270.002 112.477 268.971 112.477ZM268.971 111.118C269.721 111.118 270.351 110.946 270.862 110.602C271.372 110.258 271.757 109.795 272.018 109.211C272.289 108.628 272.424 107.998 272.424 107.321C272.424 106.623 272.289 105.987 272.018 105.415C271.757 104.842 271.372 104.383 270.862 104.04C270.351 103.696 269.721 103.524 268.971 103.524C268.242 103.524 267.617 103.696 267.096 104.04C266.575 104.383 266.179 104.842 265.909 105.415C265.648 105.987 265.518 106.623 265.518 107.321C265.518 107.998 265.648 108.628 265.909 109.211C266.179 109.795 266.575 110.258 267.096 110.602C267.617 110.946 268.242 111.118 268.971 111.118ZM279.813 112.477C279.136 112.477 278.491 112.316 277.876 111.993C277.261 111.67 276.761 111.185 276.376 110.54C276.001 109.883 275.813 109.081 275.813 108.133V102.321H277.313V108.102C277.313 109.008 277.574 109.737 278.095 110.29C278.626 110.842 279.298 111.118 280.11 111.118C280.673 111.118 281.178 110.987 281.626 110.727C282.084 110.467 282.449 110.112 282.72 109.665C282.991 109.206 283.126 108.68 283.126 108.086V102.321H284.626V112.321H283.126V110.758C282.772 111.237 282.334 111.644 281.813 111.977C281.293 112.31 280.626 112.477 279.813 112.477ZM288.305 112.321V103.633H286.274V102.321H288.305V98.7427H289.805V102.321H292.118V103.633H289.805V112.321H288.305ZM297.985 112.477C296.974 112.477 296.089 112.248 295.328 111.79C294.568 111.331 293.979 110.711 293.563 109.93C293.146 109.139 292.938 108.269 292.938 107.321C292.938 106.362 293.136 105.493 293.532 104.711C293.927 103.93 294.5 103.31 295.25 102.852C296 102.394 296.881 102.165 297.891 102.165C298.922 102.165 299.808 102.394 300.547 102.852C301.287 103.31 301.854 103.93 302.25 104.711C302.646 105.493 302.844 106.362 302.844 107.321V107.915H294.469C294.552 108.508 294.74 109.05 295.032 109.54C295.334 110.019 295.74 110.404 296.25 110.696C296.761 110.977 297.349 111.118 298.016 111.118C298.714 111.118 299.302 110.961 299.782 110.649C300.271 110.336 300.646 109.935 300.907 109.446H302.547C302.203 110.331 301.651 111.06 300.891 111.633C300.141 112.196 299.172 112.477 297.985 112.477ZM294.485 106.524H301.297C301.162 105.67 300.797 104.956 300.203 104.383C299.62 103.81 298.849 103.524 297.891 103.524C296.933 103.524 296.162 103.81 295.578 104.383C294.995 104.956 294.631 105.67 294.485 106.524ZM308.906 112.477C307.937 112.477 307.088 112.248 306.359 111.79C305.63 111.331 305.067 110.711 304.672 109.93C304.276 109.139 304.078 108.269 304.078 107.321C304.078 106.362 304.276 105.493 304.672 104.711C305.067 103.93 305.63 103.31 306.359 102.852C307.088 102.394 307.937 102.165 308.906 102.165C309.739 102.165 310.453 102.326 311.047 102.649C311.64 102.961 312.119 103.394 312.484 103.946V98.3208H313.984V112.321H312.484V110.727C312.119 111.258 311.64 111.685 311.047 112.008C310.453 112.321 309.739 112.477 308.906 112.477ZM309.109 111.118C309.859 111.118 310.489 110.946 311 110.602C311.51 110.258 311.901 109.795 312.172 109.211C312.442 108.628 312.578 107.998 312.578 107.321C312.578 106.623 312.442 105.987 312.172 105.415C311.901 104.842 311.51 104.383 311 104.04C310.489 103.696 309.859 103.524 309.109 103.524C308.38 103.524 307.744 103.696 307.203 104.04C306.672 104.383 306.265 104.842 305.984 105.415C305.713 105.987 305.578 106.623 305.578 107.321C305.578 107.998 305.713 108.628 305.984 109.211C306.265 109.795 306.672 110.258 307.203 110.602C307.744 110.946 308.38 111.118 309.109 111.118ZM315.509 114.54L316.665 110.274H318.634L316.868 114.54H315.509Z" fill="black"/>
<path d="M139.045 126.821L140.811 122.555H142.17L141.014 126.821H139.045ZM136.029 126.774L137.795 122.508H139.154L137.998 126.774H136.029ZM144.316 136.321V123.086H145.816V136.321H144.316ZM152.987 136.321V122.321H154.487V136.321H152.987ZM161.431 136.477C160.421 136.477 159.541 136.248 158.791 135.79C158.041 135.331 157.468 134.711 157.072 133.93C156.676 133.139 156.478 132.269 156.478 131.321C156.478 130.362 156.676 129.493 157.072 128.711C157.468 127.93 158.041 127.31 158.791 126.852C159.541 126.394 160.421 126.165 161.431 126.165C162.462 126.165 163.348 126.394 164.087 126.852C164.827 127.31 165.395 127.93 165.791 128.711C166.186 129.493 166.384 130.362 166.384 131.321C166.384 132.269 166.186 133.139 165.791 133.93C165.395 134.711 164.827 135.331 164.087 135.79C163.348 136.248 162.462 136.477 161.431 136.477ZM161.431 135.118C162.181 135.118 162.811 134.946 163.322 134.602C163.832 134.258 164.218 133.795 164.478 133.211C164.749 132.628 164.884 131.998 164.884 131.321C164.884 130.623 164.749 129.987 164.478 129.415C164.218 128.842 163.832 128.383 163.322 128.04C162.811 127.696 162.181 127.524 161.431 127.524C160.702 127.524 160.077 127.696 159.556 128.04C159.035 128.383 158.639 128.842 158.369 129.415C158.108 129.987 157.978 130.623 157.978 131.321C157.978 131.998 158.108 132.628 158.369 133.211C158.639 133.795 159.035 134.258 159.556 134.602C160.077 134.946 160.702 135.118 161.431 135.118ZM170.886 136.321L166.964 126.321H168.605L171.777 134.727L174.917 126.321H176.558L172.652 136.321H170.886ZM182.185 136.477C181.174 136.477 180.289 136.248 179.529 135.79C178.768 135.331 178.18 134.711 177.763 133.93C177.346 133.139 177.138 132.269 177.138 131.321C177.138 130.362 177.336 129.493 177.732 128.711C178.128 127.93 178.701 127.31 179.451 126.852C180.201 126.394 181.081 126.165 182.091 126.165C183.122 126.165 184.008 126.394 184.747 126.852C185.487 127.31 186.055 127.93 186.451 128.711C186.846 129.493 187.044 130.362 187.044 131.321V131.915H178.669C178.753 132.508 178.94 133.05 179.232 133.54C179.534 134.019 179.94 134.404 180.451 134.696C180.961 134.977 181.549 135.118 182.216 135.118C182.914 135.118 183.503 134.961 183.982 134.649C184.471 134.336 184.846 133.935 185.107 133.446H186.747C186.404 134.331 185.852 135.06 185.091 135.633C184.341 136.196 183.372 136.477 182.185 136.477ZM178.685 130.524H185.497C185.362 129.67 184.997 128.956 184.404 128.383C183.82 127.81 183.049 127.524 182.091 127.524C181.133 127.524 180.362 127.81 179.779 128.383C179.195 128.956 178.831 129.67 178.685 130.524ZM194.194 140.274L196.007 136.18L191.929 126.321H193.585L196.804 134.524L200.085 126.321H201.725L195.804 140.274H194.194ZM207.231 136.477C206.221 136.477 205.34 136.248 204.59 135.79C203.84 135.331 203.268 134.711 202.872 133.93C202.476 133.139 202.278 132.269 202.278 131.321C202.278 130.362 202.476 129.493 202.872 128.711C203.268 127.93 203.84 127.31 204.59 126.852C205.34 126.394 206.221 126.165 207.231 126.165C208.262 126.165 209.148 126.394 209.887 126.852C210.627 127.31 211.195 127.93 211.59 128.711C211.986 129.493 212.184 130.362 212.184 131.321C212.184 132.269 211.986 133.139 211.59 133.93C211.195 134.711 210.627 135.331 209.887 135.79C209.148 136.248 208.262 136.477 207.231 136.477ZM207.231 135.118C207.981 135.118 208.611 134.946 209.122 134.602C209.632 134.258 210.018 133.795 210.278 133.211C210.549 132.628 210.684 131.998 210.684 131.321C210.684 130.623 210.549 129.987 210.278 129.415C210.018 128.842 209.632 128.383 209.122 128.04C208.611 127.696 207.981 127.524 207.231 127.524C206.502 127.524 205.877 127.696 205.356 128.04C204.835 128.383 204.439 128.842 204.169 129.415C203.908 129.987 203.778 130.623 203.778 131.321C203.778 131.998 203.908 132.628 204.169 133.211C204.439 133.795 204.835 134.258 205.356 134.602C205.877 134.946 206.502 135.118 207.231 135.118ZM218.074 136.477C217.396 136.477 216.751 136.316 216.136 135.993C215.521 135.67 215.021 135.185 214.636 134.54C214.261 133.883 214.074 133.081 214.074 132.133V126.321H215.574V132.102C215.574 133.008 215.834 133.737 216.355 134.29C216.886 134.842 217.558 135.118 218.37 135.118C218.933 135.118 219.438 134.987 219.886 134.727C220.344 134.467 220.709 134.112 220.98 133.665C221.251 133.206 221.386 132.68 221.386 132.086V126.321H222.886V136.321H221.386V134.758C221.032 135.237 220.594 135.644 220.074 135.977C219.553 136.31 218.886 136.477 218.074 136.477ZM229.45 138.883V137.774H239.45V138.883H229.45ZM241.45 138.883V137.774H251.45V138.883H241.45ZM253.45 138.883V137.774H263.45V138.883H253.45ZM265.45 138.883V137.774H275.45V138.883H265.45ZM277.45 138.883V137.774H287.45V138.883H277.45ZM290.107 132.665L289.732 123.086H291.591L291.216 132.665H290.107ZM289.685 136.321V134.274H291.638V136.321H289.685ZM294.527 132.665L294.152 123.086H296.011L295.636 132.665H294.527ZM294.105 136.321V134.274H296.058V136.321H294.105ZM298.947 132.665L298.572 123.086H300.431L300.056 132.665H298.947ZM298.525 136.321V134.274H300.478V136.321H298.525ZM308.632 122.555L306.867 126.821H305.507L306.663 122.555H308.632ZM305.632 122.555L303.867 126.821H302.507L303.663 122.555H305.632ZM307.953 136.321V134.274H309.89V136.321H307.953Z" fill="black"/>
<path d="M289.131 32.4629C289.131 30.9421 289.271 29.3848 289.553 27.791C289.844 26.1973 290.36 24.7546 291.1 23.4629C291.85 22.1712 292.865 21.1139 294.146 20.291C295.428 19.4681 297.063 19.0566 299.053 19.0566C300.626 19.0566 301.964 19.2962 303.068 19.7754C304.173 20.2441 305.084 20.8639 305.803 21.6348C306.532 22.4056 307.094 23.2858 307.49 24.2754C307.886 25.2546 308.183 26.2806 308.381 27.3535C308.579 28.416 308.699 29.4733 308.74 30.5254C308.782 31.5671 308.803 32.5254 308.803 33.4004C308.803 35.14 308.594 36.7389 308.178 38.1973C307.771 39.6452 307.152 40.8952 306.318 41.9473C305.485 42.9889 304.438 43.8014 303.178 44.3848C301.917 44.9681 300.443 45.2598 298.756 45.2598C296.985 45.2598 295.485 44.9212 294.256 44.2441C293.027 43.5566 292.032 42.6348 291.271 41.4785C290.511 40.3223 289.964 38.9681 289.631 37.416C289.298 35.8535 289.131 34.2025 289.131 32.4629ZM292.85 32.3848C292.85 33.6035 292.954 34.7702 293.162 35.8848C293.381 36.9889 293.725 37.9577 294.193 38.791C294.673 39.6243 295.292 40.291 296.053 40.791C296.813 41.2806 297.74 41.5254 298.834 41.5254C299.876 41.5254 300.787 41.3171 301.568 40.9004C302.36 40.4733 303.016 39.8848 303.537 39.1348C304.058 38.3743 304.443 37.4733 304.693 36.4316C304.943 35.3796 305.068 34.2441 305.068 33.0254C305.068 32.0983 305.027 31.0462 304.943 29.8691C304.87 28.6816 304.641 27.5671 304.256 26.5254C303.87 25.4837 303.266 24.6035 302.443 23.8848C301.631 23.1556 300.49 22.791 299.021 22.791C297.771 22.791 296.756 23.0931 295.975 23.6973C295.193 24.291 294.563 25.0566 294.084 25.9941C293.615 26.9212 293.292 27.9525 293.115 29.0879C292.938 30.2129 292.85 31.3118 292.85 32.3848ZM320.289 22.6816C319.393 22.6816 318.648 22.7754 318.055 22.9629C317.461 23.1504 316.961 23.3952 316.555 23.6973C316.159 23.9889 315.841 24.2962 315.602 24.6191C315.372 24.9421 315.148 25.2546 314.93 25.5566C314.721 25.8587 314.497 26.1035 314.258 26.291C314.029 26.4681 313.737 26.5566 313.383 26.5566C312.789 26.5566 312.372 26.4056 312.133 26.1035C311.904 25.791 311.789 25.3743 311.789 24.8535C311.789 23.7493 312.195 22.7285 313.008 21.791C313.258 21.4889 313.602 21.1712 314.039 20.8379C314.477 20.5046 314.997 20.2025 315.602 19.9316C316.216 19.6504 316.925 19.416 317.727 19.2285C318.539 19.041 319.456 18.9473 320.477 18.9473C323.195 18.9473 325.3 19.6087 326.789 20.9316C328.279 22.2441 329.023 24.0983 329.023 26.4941C329.023 26.9629 328.982 27.4837 328.898 28.0566C328.815 28.6296 328.654 29.2285 328.414 29.8535C328.175 30.4681 327.841 31.1139 327.414 31.791C326.997 32.4577 326.44 33.14 325.742 33.8379C325.117 34.4629 324.456 35.0358 323.758 35.5566C323.07 36.0775 322.352 36.6035 321.602 37.1348C320.852 37.6556 320.07 38.2077 319.258 38.791C318.456 39.3743 317.643 40.041 316.82 40.791C317.622 41.2077 318.482 41.4785 319.398 41.6035C320.315 41.7285 321.346 41.791 322.492 41.791C323.565 41.791 324.425 41.7702 325.07 41.7285C325.716 41.6764 326.237 41.6139 326.633 41.541C327.039 41.4577 327.352 41.3952 327.57 41.3535C327.8 41.3014 328.039 41.2754 328.289 41.2754C329.206 41.2754 329.664 41.6973 329.664 42.541C329.664 43.291 329.352 43.8639 328.727 44.2598C328.102 44.6556 327.352 44.9473 326.477 45.1348C325.612 45.3223 324.716 45.4316 323.789 45.4629C322.872 45.5046 322.117 45.5254 321.523 45.5254C321.201 45.5254 320.747 45.5046 320.164 45.4629C319.581 45.4316 318.951 45.3639 318.273 45.2598C317.607 45.166 316.93 45.0254 316.242 44.8379C315.555 44.6504 314.93 44.4004 314.367 44.0879C313.815 43.7754 313.362 43.39 313.008 42.9316C312.664 42.4733 312.492 41.9212 312.492 41.2754C312.492 40.4004 312.81 39.5723 313.445 38.791C314.081 38.0098 314.867 37.2389 315.805 36.4785C316.753 35.7181 317.773 34.9577 318.867 34.1973C319.971 33.4368 320.992 32.6556 321.93 31.8535C322.878 31.041 323.669 30.2025 324.305 29.3379C324.94 28.4629 325.258 27.515 325.258 26.4941C325.258 25.2233 324.826 24.2702 323.961 23.6348C323.107 22.9993 321.883 22.6816 320.289 22.6816Z" fill="#F39342"/>
</svg>
