<svg width="585" height="105" viewBox="0 0 585 105" fill="none" xmlns="http://www.w3.org/2000/svg">
<path d="M193.896 45.2151C192.396 45.2151 190.99 44.9182 189.678 44.3245C188.376 43.7203 187.24 42.8557 186.271 41.7307C185.303 40.5953 184.537 39.2047 183.975 37.5588C183.423 35.913 183.146 34.0484 183.146 31.9651C183.146 29.9963 183.386 28.1943 183.865 26.5588C184.355 24.913 185.079 23.4911 186.037 22.2932C186.995 21.0953 188.183 20.1682 189.6 19.512C191.016 18.8557 192.657 18.5276 194.521 18.5276C196.042 18.5276 197.485 18.8036 198.85 19.3557C200.225 19.8974 201.428 20.7151 202.459 21.8088C203.49 22.9026 204.303 24.2724 204.896 25.9182C205.501 27.5536 205.803 29.4703 205.803 31.6682C205.803 33.4599 205.568 35.1526 205.1 36.7463C204.641 38.3297 203.943 39.7463 203.006 40.9963L205.131 42.7463C205.402 42.9755 205.652 43.2568 205.881 43.5901C206.12 43.9234 206.24 44.3036 206.24 44.7307C206.24 45.2307 206.042 45.6265 205.646 45.9182C205.251 46.2203 204.777 46.3713 204.225 46.3713C203.527 46.3713 202.792 46.0224 202.021 45.3245L200.084 43.6526C199.24 44.1422 198.308 44.5276 197.287 44.8088C196.266 45.0797 195.136 45.2151 193.896 45.2151ZM193.959 41.6995C195.334 41.6995 196.532 41.4234 197.553 40.8713C198.574 40.3088 199.417 39.5693 200.084 38.6526C200.761 37.7255 201.261 36.6578 201.584 35.4495C201.907 34.2411 202.068 33.0015 202.068 31.7307C202.068 30.189 201.86 28.8193 201.443 27.6213C201.037 26.413 200.485 25.3974 199.787 24.5745C199.089 23.7515 198.277 23.1213 197.35 22.6838C196.433 22.2463 195.454 22.0276 194.412 22.0276C193.173 22.0276 192.084 22.2932 191.146 22.8245C190.209 23.3453 189.423 24.0536 188.787 24.9495C188.162 25.8453 187.683 26.8974 187.35 28.1057C187.027 29.3036 186.865 30.5901 186.865 31.9651C186.865 33.4338 187.053 34.7724 187.428 35.9807C187.803 37.1786 188.308 38.2047 188.943 39.0588C189.579 39.9026 190.329 40.5536 191.193 41.012C192.068 41.4703 192.99 41.6995 193.959 41.6995ZM218.525 45.4807C215.692 45.4807 213.614 44.7047 212.291 43.1526C211.77 42.5588 211.327 41.7984 210.963 40.8713C210.609 39.9338 210.322 38.7203 210.103 37.2307C209.895 35.7307 209.744 33.8818 209.65 31.6838C209.567 29.4755 209.525 26.7932 209.525 23.637C209.525 22.6161 209.551 21.7776 209.603 21.1213C209.656 20.4547 209.755 19.9286 209.9 19.5432C210.057 19.1578 210.249 18.8922 210.478 18.7463C210.718 18.6005 211.025 18.5276 211.4 18.5276C212.119 18.5276 212.624 18.8505 212.916 19.4963C213.218 20.1422 213.369 21.262 213.369 22.8557C213.369 23.3974 213.364 23.8818 213.353 24.3088C213.343 24.7359 213.338 25.1682 213.338 25.6057C213.338 26.0328 213.333 26.512 213.322 27.0432C213.312 27.564 213.307 28.1943 213.307 28.9338C213.307 31.4234 213.385 33.4911 213.541 35.137C213.708 36.7828 213.989 38.0953 214.385 39.0745C214.781 40.0536 215.322 40.7463 216.01 41.1526C216.697 41.5484 217.546 41.7463 218.557 41.7463C219.63 41.7463 220.52 41.5276 221.228 41.0901C221.937 40.6526 222.505 39.9182 222.932 38.887C223.359 37.8557 223.661 36.4807 223.838 34.762C224.025 33.0432 224.119 30.9026 224.119 28.3401C224.119 27.2255 224.114 26.2724 224.103 25.4807C224.093 24.6786 224.088 23.9547 224.088 23.3088C224.088 22.3818 224.119 21.6109 224.182 20.9963C224.244 20.3713 224.343 19.8765 224.478 19.512C224.614 19.1474 224.807 18.8922 225.057 18.7463C225.307 18.6005 225.619 18.5276 225.994 18.5276C226.369 18.5276 226.682 18.6005 226.932 18.7463C227.182 18.8922 227.38 19.1526 227.525 19.5276C227.671 19.9026 227.77 20.4234 227.822 21.0901C227.874 21.7463 227.9 22.5953 227.9 23.637C227.9 28.0224 227.76 31.6265 227.478 34.4495C227.208 37.2724 226.723 39.5015 226.025 41.137C225.327 42.762 224.374 43.8922 223.166 44.5276C221.968 45.163 220.421 45.4807 218.525 45.4807ZM232.605 39.1682C232.553 38.3661 232.5 37.2828 232.448 35.9182C232.396 34.5536 232.37 33.1474 232.37 31.6995C232.37 30.8765 232.375 30.0276 232.386 29.1526C232.407 28.2672 232.428 27.3609 232.448 26.4338C232.5 24.5901 232.62 23.1474 232.808 22.1057C232.995 21.064 233.365 20.2828 233.917 19.762C234.48 19.2307 235.271 18.9078 236.292 18.7932C237.313 18.6682 238.672 18.6057 240.37 18.6057C240.391 18.6057 240.657 18.6057 241.167 18.6057C241.678 18.6057 242.292 18.6109 243.011 18.6213C243.73 18.6318 244.48 18.6526 245.261 18.6838C246.053 18.7047 246.709 18.7255 247.23 18.7463C247.782 18.7984 248.224 18.8713 248.558 18.9651C248.891 19.0484 249.146 19.1578 249.323 19.2932C249.5 19.4286 249.61 19.5901 249.652 19.7776C249.704 19.9651 249.73 20.1682 249.73 20.387C249.73 20.9599 249.568 21.3765 249.245 21.637C248.922 21.8974 248.266 22.064 247.277 22.137C246.777 22.189 246.047 22.2255 245.089 22.2463C244.131 22.2568 243.151 22.262 242.151 22.262C241.162 22.262 240.266 22.2672 239.464 22.2776C238.672 22.288 238.178 22.2932 237.98 22.2932C237.334 22.314 236.875 22.4599 236.605 22.7307C236.344 22.9911 236.214 23.6057 236.214 24.5745C236.214 24.7932 236.235 25.3349 236.276 26.1995C236.318 27.0536 236.339 28.2515 236.339 29.7932H239.433C240.745 29.7932 241.818 29.814 242.651 29.8557C243.495 29.887 244.146 29.9651 244.605 30.0901C245.063 30.2151 245.375 30.4182 245.542 30.6995C245.719 30.9703 245.808 31.3297 245.808 31.7776C245.808 31.9963 245.787 32.1995 245.745 32.387C245.714 32.5745 245.61 32.7359 245.433 32.8713C245.266 33.0068 245.021 33.1213 244.698 33.2151C244.375 33.2984 243.912 33.3661 243.308 33.4182C242.589 33.4703 241.912 33.5015 241.276 33.512C240.641 33.5224 240.011 33.5276 239.386 33.5276H236.261C236.261 33.9026 236.261 34.3505 236.261 34.8713C236.261 35.3922 236.261 35.9286 236.261 36.4807C236.261 37.0224 236.266 37.5588 236.276 38.0901C236.287 38.6109 236.308 39.0328 236.339 39.3557C236.36 39.7515 236.412 40.0901 236.495 40.3713C236.589 40.6422 236.75 40.8661 236.98 41.0432C237.219 41.2099 237.568 41.3297 238.026 41.4026C238.485 41.4755 239.105 41.512 239.886 41.512H247.902C248.777 41.512 249.323 41.6734 249.542 41.9963C249.771 42.3193 249.886 42.7568 249.886 43.3088C249.886 43.7568 249.787 44.1005 249.589 44.3401C249.391 44.5693 248.912 44.7411 248.152 44.8557C247.391 44.9703 246.256 45.038 244.745 45.0588C243.245 45.0901 241.178 45.1057 238.542 45.1057C237.417 45.1057 236.49 45.0068 235.761 44.8088C235.042 44.6005 234.459 44.262 234.011 43.7932C233.563 43.3245 233.235 42.7099 233.026 41.9495C232.818 41.189 232.678 40.262 232.605 39.1682ZM261.973 18.4807C262.671 18.4807 263.473 18.538 264.379 18.6526C265.296 18.7672 266.15 18.9703 266.942 19.262C267.733 19.5432 268.405 19.913 268.957 20.3713C269.509 20.8297 269.785 21.3974 269.785 22.0745C269.785 22.4703 269.671 22.8036 269.442 23.0745C269.223 23.3453 268.863 23.4807 268.363 23.4807C267.988 23.4807 267.608 23.4078 267.223 23.262C266.837 23.1161 266.4 22.9651 265.91 22.8088C265.431 22.6422 264.874 22.4859 264.238 22.3401C263.603 22.1838 262.863 22.1057 262.02 22.1057C260.374 22.1057 259.155 22.3974 258.363 22.9807C257.582 23.564 257.192 24.3661 257.192 25.387C257.192 26.0849 257.363 26.6734 257.707 27.1526C258.061 27.6213 258.53 28.0276 259.113 28.3713C259.707 28.7047 260.369 28.9859 261.098 29.2151C261.837 29.4338 262.593 29.6422 263.363 29.8401C264.228 30.0588 265.087 30.3297 265.942 30.6526C266.806 30.9755 267.572 31.4026 268.238 31.9338C268.915 32.4547 269.457 33.1109 269.863 33.9026C270.28 34.6943 270.488 35.7047 270.488 36.9338C270.488 38.1943 270.249 39.3297 269.77 40.3401C269.301 41.3505 268.655 42.2099 267.832 42.9182C267.009 43.6265 266.025 44.1734 264.879 44.5588C263.744 44.9443 262.504 45.137 261.16 45.137C260.41 45.137 259.535 45.0693 258.535 44.9338C257.546 44.7984 256.603 44.564 255.707 44.2307C254.811 43.887 254.051 43.439 253.426 42.887C252.801 42.3245 252.488 41.6318 252.488 40.8088C252.488 40.3088 252.619 39.913 252.879 39.6213C253.15 39.3193 253.546 39.1682 254.067 39.1682C254.483 39.1682 254.827 39.2515 255.098 39.4182C255.379 39.5745 255.619 39.7515 255.817 39.9495C256.567 40.5953 257.41 41.0328 258.348 41.262C259.296 41.4807 260.27 41.5901 261.27 41.5901C261.843 41.5901 262.447 41.5484 263.082 41.4651C263.718 41.3713 264.296 41.189 264.817 40.9182C265.337 40.6474 265.77 40.2568 266.113 39.7463C266.468 39.2359 266.645 38.5432 266.645 37.6682C266.645 36.8765 266.488 36.2255 266.176 35.7151C265.863 35.2047 265.447 34.7776 264.926 34.4338C264.405 34.0797 263.79 33.7932 263.082 33.5745C262.374 33.3453 261.608 33.1213 260.785 32.9026C259.858 32.6526 258.947 32.3765 258.051 32.0745C257.155 31.7724 256.358 31.3661 255.66 30.8557C254.973 30.3453 254.41 29.6995 253.973 28.9182C253.535 28.137 253.317 27.137 253.317 25.9182C253.317 24.6995 253.54 23.6318 253.988 22.7151C254.436 21.788 255.046 21.012 255.817 20.387C256.587 19.762 257.499 19.288 258.551 18.9651C259.613 18.6422 260.754 18.4807 261.973 18.4807ZM289.12 22.137C288.422 22.189 287.677 22.2307 286.885 22.262C286.104 22.2828 285.239 22.3036 284.292 22.3245C284.323 23.0015 284.349 23.6318 284.37 24.2151C284.401 24.7984 284.427 25.3922 284.448 25.9963C284.469 26.5901 284.484 27.2099 284.495 27.8557C284.516 28.5015 284.526 29.2255 284.526 30.0276C284.526 31.1422 284.526 32.2151 284.526 33.2463C284.526 34.2776 284.51 35.314 284.479 36.3557C284.458 37.387 284.432 38.4234 284.401 39.4651C284.38 40.5068 284.344 41.5901 284.292 42.7151C284.271 43.3088 284.213 43.7672 284.12 44.0901C284.036 44.413 283.922 44.663 283.776 44.8401C283.63 45.0172 283.453 45.1213 283.245 45.1526C283.047 45.1943 282.828 45.2151 282.588 45.2151C282.141 45.2151 281.76 45.0588 281.448 44.7463C281.135 44.4338 280.953 43.7672 280.901 42.7463C280.849 41.8505 280.818 40.9078 280.807 39.9182C280.797 38.9182 280.776 37.8453 280.745 36.6995C280.724 35.5536 280.713 34.3193 280.713 32.9963C280.713 31.663 280.713 30.1838 280.713 28.5588C280.713 27.1943 280.719 26.0015 280.729 24.9807C280.75 23.9599 280.781 23.0745 280.823 22.3245H279.292C278.25 22.3245 277.359 22.314 276.62 22.2932C275.891 22.2724 275.286 22.2047 274.807 22.0901C274.338 21.9755 274 21.7932 273.792 21.5432C273.583 21.2932 273.479 20.9443 273.479 20.4963C273.479 20.2776 273.5 20.0745 273.542 19.887C273.594 19.6995 273.708 19.5276 273.885 19.3713C274.062 19.2047 274.302 19.0745 274.604 18.9807C274.917 18.8765 275.323 18.7984 275.823 18.7463C276.302 18.7255 276.724 18.7047 277.088 18.6838C277.463 18.6526 277.838 18.6265 278.213 18.6057C278.588 18.5745 278.974 18.5588 279.37 18.5588C279.766 18.5588 280.229 18.5588 280.76 18.5588C282.219 18.5588 283.599 18.5745 284.901 18.6057C286.213 18.6265 287.604 18.6734 289.073 18.7463C289.677 18.7984 290.141 18.8713 290.463 18.9651C290.786 19.0484 291.031 19.163 291.198 19.3088C291.375 19.4547 291.479 19.6265 291.51 19.8245C291.552 20.0224 291.573 20.2463 291.573 20.4963C291.573 20.9443 291.417 21.3193 291.104 21.6213C290.802 21.9234 290.141 22.0953 289.12 22.137ZM295.495 42.5276C295.443 41.6318 295.412 40.6995 295.401 39.7307C295.391 38.762 295.37 37.7203 295.339 36.6057C295.318 35.4807 295.307 34.2672 295.307 32.9651C295.307 31.6526 295.307 30.1838 295.307 28.5588C295.307 26.7984 295.318 25.288 295.339 24.0276C295.37 22.7672 295.448 21.7411 295.573 20.9495C295.698 20.1578 295.891 19.5745 296.151 19.1995C296.412 18.8245 296.766 18.637 297.214 18.637C297.443 18.637 297.656 18.663 297.854 18.7151C298.052 18.7568 298.224 18.8609 298.37 19.0276C298.516 19.1943 298.646 19.4338 298.76 19.7463C298.875 20.0484 298.943 20.4495 298.964 20.9495C299.016 21.8453 299.052 22.6422 299.073 23.3401C299.104 24.038 299.13 24.7307 299.151 25.4182C299.182 26.0953 299.198 26.8036 299.198 27.5432C299.198 28.2724 299.198 29.1005 299.198 30.0276C299.198 31.1422 299.198 32.2099 299.198 33.2307C299.198 34.2515 299.182 35.262 299.151 36.262C299.13 37.2515 299.104 38.2568 299.073 39.2776C299.052 40.2984 299.016 41.3661 298.964 42.4807C298.943 43.0849 298.88 43.5484 298.776 43.8713C298.682 44.1943 298.557 44.4443 298.401 44.6213C298.255 44.788 298.083 44.8922 297.885 44.9338C297.688 44.9755 297.464 44.9963 297.214 44.9963C296.766 44.9963 296.38 44.8401 296.057 44.5276C295.734 44.2151 295.547 43.5484 295.495 42.5276ZM314.056 45.2151C312.556 45.2151 311.15 44.9182 309.837 44.3245C308.535 43.7203 307.4 42.8557 306.431 41.7307C305.462 40.5953 304.697 39.2047 304.134 37.5588C303.582 35.913 303.306 34.0484 303.306 31.9651C303.306 29.9963 303.546 28.1943 304.025 26.5588C304.514 24.913 305.238 23.4911 306.197 22.2932C307.155 21.0953 308.343 20.1682 309.759 19.512C311.176 18.8557 312.816 18.5276 314.681 18.5276C316.202 18.5276 317.645 18.8036 319.009 19.3557C320.384 19.8974 321.587 20.7151 322.619 21.8088C323.65 22.9026 324.462 24.2724 325.056 25.9182C325.66 27.5536 325.962 29.4703 325.962 31.6682C325.962 33.4807 325.718 35.2099 325.228 36.8557C324.749 38.4911 324.014 39.9286 323.025 41.1682C322.046 42.3974 320.806 43.3818 319.306 44.1213C317.816 44.8505 316.066 45.2151 314.056 45.2151V45.2151ZM314.119 41.6995C315.494 41.6995 316.691 41.4234 317.712 40.8713C318.733 40.3088 319.577 39.5693 320.244 38.6526C320.921 37.7255 321.421 36.6578 321.744 35.4495C322.066 34.2411 322.228 33.0015 322.228 31.7307C322.228 30.189 322.02 28.8193 321.603 27.6213C321.197 26.413 320.645 25.3974 319.947 24.5745C319.249 23.7515 318.436 23.1213 317.509 22.6838C316.593 22.2463 315.613 22.0276 314.572 22.0276C313.332 22.0276 312.244 22.2932 311.306 22.8245C310.369 23.3453 309.582 24.0536 308.947 24.9495C308.322 25.8453 307.843 26.8974 307.509 28.1057C307.186 29.3036 307.025 30.5901 307.025 31.9651C307.025 33.4338 307.212 34.7724 307.587 35.9807C307.962 37.1786 308.468 38.2047 309.103 39.0588C309.738 39.9026 310.488 40.5536 311.353 41.012C312.228 41.4703 313.15 41.6995 314.119 41.6995ZM344.466 43.0901C343.674 41.9963 342.924 40.9078 342.216 39.8245C341.508 38.7411 340.747 37.5536 339.935 36.262C339.122 34.9599 338.201 33.5224 337.169 31.9495C336.138 30.3661 334.904 28.5172 333.466 26.4026C333.466 28.2672 333.466 29.939 333.466 31.4182C333.466 32.8974 333.451 34.2724 333.419 35.5432C333.398 36.814 333.372 38.012 333.341 39.137C333.32 40.2515 333.284 41.3661 333.232 42.4807C333.211 43.0849 333.154 43.5484 333.06 43.8713C332.977 44.1943 332.862 44.4443 332.716 44.6213C332.57 44.788 332.404 44.8922 332.216 44.9338C332.029 44.9755 331.81 44.9963 331.56 44.9963C331.112 44.9963 330.737 44.8401 330.435 44.5276C330.133 44.2151 329.961 43.5484 329.919 42.5276C329.794 39.788 329.721 37.0432 329.701 34.2932C329.69 31.5432 329.685 28.6995 329.685 25.762C329.685 24.0953 329.706 22.7932 329.747 21.8557C329.789 20.9078 329.878 20.1995 330.013 19.7307C330.148 19.2515 330.331 18.9495 330.56 18.8245C330.799 18.6995 331.117 18.637 331.513 18.637C331.919 18.637 332.445 18.9443 333.091 19.5588C333.737 20.163 334.445 20.9651 335.216 21.9651C335.987 22.9547 336.815 24.1005 337.701 25.4026C338.586 26.6943 339.461 28.0224 340.326 29.387C341.201 30.7515 342.039 32.1057 342.841 33.4495C343.654 34.7932 344.398 36.012 345.076 37.1057C345.044 35.939 345.029 34.6526 345.029 33.2463C345.029 31.8401 345.029 30.2776 345.029 28.5588C345.029 26.6005 345.039 24.9807 345.06 23.6995C345.091 22.4182 345.164 21.4026 345.279 20.6526C345.393 19.9026 345.57 19.3818 345.81 19.0901C346.06 18.788 346.409 18.637 346.857 18.637C347.284 18.637 347.659 18.7724 347.982 19.0432C348.305 19.314 348.492 19.9495 348.544 20.9495C348.596 21.8453 348.633 22.6422 348.654 23.3401C348.674 24.038 348.695 24.7307 348.716 25.4182C348.747 26.0953 348.763 26.8036 348.763 27.5432C348.763 28.2724 348.763 29.1005 348.763 30.0276C348.763 31.1422 348.763 32.2099 348.763 33.2307C348.763 34.2515 348.747 35.262 348.716 36.262C348.695 37.2515 348.674 38.2568 348.654 39.2776C348.633 40.2984 348.596 41.3661 348.544 42.4807C348.513 43.0849 348.456 43.5484 348.372 43.8713C348.289 44.1943 348.169 44.4443 348.013 44.6213C347.867 44.788 347.701 44.8922 347.513 44.9338C347.326 44.9755 347.107 44.9963 346.857 44.9963C346.44 44.9963 346.081 44.8713 345.779 44.6213C345.477 44.3713 345.039 43.8609 344.466 43.0901Z" fill="#3D7E81"/>
<path d="M360.306 32.0745C360.306 30.5536 360.447 28.9963 360.728 27.4026C361.02 25.8088 361.535 24.3661 362.275 23.0745C363.025 21.7828 364.041 20.7255 365.322 19.9026C366.603 19.0797 368.238 18.6682 370.228 18.6682C371.801 18.6682 373.139 18.9078 374.244 19.387C375.348 19.8557 376.259 20.4755 376.978 21.2463C377.707 22.0172 378.27 22.8974 378.666 23.887C379.061 24.8661 379.358 25.8922 379.556 26.9651C379.754 28.0276 379.874 29.0849 379.916 30.137C379.957 31.1786 379.978 32.137 379.978 33.012C379.978 34.7515 379.77 36.3505 379.353 37.8088C378.947 39.2568 378.327 40.5068 377.494 41.5588C376.66 42.6005 375.613 43.413 374.353 43.9963C373.093 44.5797 371.619 44.8713 369.931 44.8713C368.16 44.8713 366.66 44.5328 365.431 43.8557C364.202 43.1682 363.207 42.2463 362.447 41.0901C361.686 39.9338 361.139 38.5797 360.806 37.0276C360.473 35.4651 360.306 33.814 360.306 32.0745ZM364.025 31.9963C364.025 33.2151 364.129 34.3818 364.337 35.4963C364.556 36.6005 364.9 37.5693 365.369 38.4026C365.848 39.2359 366.468 39.9026 367.228 40.4026C367.988 40.8922 368.916 41.137 370.009 41.137C371.051 41.137 371.962 40.9286 372.744 40.512C373.535 40.0849 374.192 39.4963 374.712 38.7463C375.233 37.9859 375.619 37.0849 375.869 36.0432C376.119 34.9911 376.244 33.8557 376.244 32.637C376.244 31.7099 376.202 30.6578 376.119 29.4807C376.046 28.2932 375.817 27.1786 375.431 26.137C375.046 25.0953 374.442 24.2151 373.619 23.4963C372.806 22.7672 371.666 22.4026 370.197 22.4026C368.947 22.4026 367.931 22.7047 367.15 23.3088C366.369 23.9026 365.738 24.6682 365.259 25.6057C364.791 26.5328 364.468 27.564 364.291 28.6995C364.113 29.8245 364.025 30.9234 364.025 31.9963ZM386.168 22.4495C385.376 22.4495 384.793 22.2463 384.418 21.8401C384.043 21.4234 383.855 21.0015 383.855 20.5745C383.855 20.1265 384.063 19.762 384.48 19.4807C384.907 19.189 385.47 18.9651 386.168 18.8088C386.865 18.6422 387.662 18.5276 388.558 18.4651C389.454 18.4026 390.36 18.3713 391.277 18.3713C392.048 18.3713 392.907 18.4026 393.855 18.4651C394.803 18.5276 395.688 18.6786 396.511 18.9182C397.334 19.1578 398.016 19.5068 398.558 19.9651C399.11 20.4234 399.386 21.0484 399.386 21.8401C399.386 22.4651 399.147 23.1161 398.668 23.7932C398.199 24.4599 397.652 25.0953 397.027 25.6995C396.402 26.2932 395.782 26.8193 395.168 27.2776C394.563 27.7359 394.126 28.064 393.855 28.262C396.49 28.262 398.407 28.9234 399.605 30.2463C400.803 31.5693 401.402 33.4599 401.402 35.9182C401.402 37.4599 401.121 38.8036 400.558 39.9495C399.996 41.0953 399.246 42.0484 398.308 42.8088C397.381 43.5693 396.313 44.137 395.105 44.512C393.897 44.8765 392.657 45.0588 391.386 45.0588C390.345 45.0588 389.319 44.9755 388.308 44.8088C387.308 44.6318 386.407 44.3245 385.605 43.887C384.813 43.4495 384.173 42.8661 383.683 42.137C383.204 41.3974 382.964 40.4807 382.964 39.387C382.964 38.2411 383.584 37.6682 384.824 37.6682C385.199 37.6682 385.49 37.762 385.699 37.9495C385.907 38.137 386.095 38.3609 386.261 38.6213C386.428 38.8818 386.595 39.1734 386.761 39.4963C386.938 39.8193 387.194 40.1161 387.527 40.387C387.86 40.6474 388.308 40.8713 388.871 41.0588C389.433 41.2359 390.173 41.3245 391.089 41.3245C391.819 41.3245 392.527 41.2463 393.214 41.0901C393.912 40.9234 394.537 40.6578 395.089 40.2932C395.641 39.9182 396.084 39.413 396.418 38.7776C396.751 38.1422 396.918 37.3505 396.918 36.4026C396.918 34.5588 396.537 33.2515 395.777 32.4807C395.016 31.7099 393.954 31.3245 392.589 31.3245C392.235 31.3245 391.907 31.3818 391.605 31.4963C391.313 31.6109 391.016 31.7359 390.714 31.8713C390.423 32.0068 390.115 32.1318 389.793 32.2463C389.47 32.3505 389.105 32.4026 388.699 32.4026C388.303 32.4026 387.954 32.2255 387.652 31.8713C387.36 31.5068 387.214 31.038 387.214 30.4651C387.214 30.0693 387.407 29.6109 387.793 29.0901C388.178 28.5693 388.709 27.9755 389.386 27.3088C390.074 26.6318 390.902 25.887 391.871 25.0745C392.85 24.262 393.933 23.387 395.121 22.4495C394.871 22.4495 394.579 22.4495 394.246 22.4495C393.912 22.4495 393.574 22.4547 393.23 22.4651C392.897 22.4755 392.569 22.4807 392.246 22.4807C391.923 22.4807 391.652 22.4807 391.433 22.4807C390.485 22.4807 389.558 22.4755 388.652 22.4651C387.746 22.4547 386.918 22.4495 386.168 22.4495Z" fill="#F39342"/>
<path d="M14.418 66.3845V54.0408H15.8086V66.3845H14.418ZM18.5426 66.3845V57.0564H19.9333V58.5095C20.2666 58.0616 20.678 57.6814 21.1676 57.3689C21.6572 57.0564 22.277 56.9001 23.027 56.9001C23.6728 56.9001 24.277 57.0564 24.8395 57.3689C25.4124 57.671 25.876 58.1241 26.2301 58.7283C26.5843 59.3324 26.7614 60.0772 26.7614 60.9626V66.3845H25.3708V60.9939C25.3708 60.1501 25.126 59.4731 24.6364 58.9626C24.1468 58.4418 23.5166 58.1814 22.7458 58.1814C22.2249 58.1814 21.751 58.3012 21.3239 58.5408C20.9072 58.7699 20.5687 59.0981 20.3083 59.5251C20.0583 59.9522 19.9333 60.447 19.9333 61.0095V66.3845H18.5426ZM34.0759 66.3845V58.2908H32.1696V57.0564H34.0759V53.7126H35.4821V57.0564H37.6227V58.2908H35.4821V66.3845H34.0759ZM39.1578 66.3845V53.322H40.5484V58.5095C40.8817 58.0616 41.2932 57.6814 41.7828 57.3689C42.2724 57.0564 42.8922 56.9001 43.6422 56.9001C44.288 56.9001 44.8922 57.0564 45.4547 57.3689C46.0276 57.671 46.4911 58.1241 46.8453 58.7283C47.1995 59.3324 47.3765 60.0772 47.3765 60.9626V66.3845H45.9859V60.9939C45.9859 60.1501 45.7411 59.4731 45.2515 58.9626C44.762 58.4418 44.1317 58.1814 43.3609 58.1814C42.8401 58.1814 42.3661 58.3012 41.939 58.5408C41.5224 58.7699 41.1838 59.0981 40.9234 59.5251C40.6734 59.9522 40.5484 60.447 40.5484 61.0095V66.3845H39.1578ZM49.6547 55.4939V53.6658H51.1703V55.4939H49.6547ZM49.7172 66.3845V57.0564H51.1078V66.3845H49.7172ZM56.9324 66.5408C56.0782 66.5408 55.3543 66.4001 54.7605 66.1189C54.1668 65.8272 53.7136 65.447 53.4011 64.9783C53.0886 64.5095 52.9168 64.0043 52.8855 63.4626H54.3386C54.3803 63.7647 54.4897 64.0668 54.6668 64.3689C54.8438 64.6606 55.1199 64.8949 55.4949 65.072C55.8699 65.2491 56.3543 65.3376 56.948 65.3376C57.1355 65.3376 57.3647 65.322 57.6355 65.2908C57.9168 65.2491 58.1824 65.1814 58.4324 65.0876C58.6928 64.9835 58.9063 64.8324 59.073 64.6345C59.2501 64.4366 59.3386 64.1814 59.3386 63.8689C59.3386 63.4835 59.1876 63.1866 58.8855 62.9783C58.5938 62.7595 58.2084 62.5929 57.7293 62.4783C57.2605 62.3637 56.7605 62.2491 56.2293 62.1345C55.698 62.0199 55.198 61.8741 54.7293 61.697C54.2605 61.5095 53.8751 61.2543 53.573 60.9314C53.2709 60.5981 53.1199 60.1449 53.1199 59.572C53.1199 58.7283 53.4272 58.072 54.0418 57.6033C54.6668 57.1345 55.5782 56.9001 56.7761 56.9001C57.5991 56.9001 58.2657 57.0304 58.7761 57.2908C59.297 57.5408 59.6928 57.8689 59.9636 58.2751C60.2345 58.671 60.3907 59.0981 60.4324 59.5564H59.0261C58.9741 59.1606 58.7761 58.822 58.4324 58.5408C58.0886 58.2491 57.5261 58.1033 56.7449 58.1033C55.2657 58.1033 54.5261 58.5512 54.5261 59.447C54.5261 59.822 54.672 60.1085 54.9636 60.3064C55.2657 60.5043 55.6511 60.6658 56.1199 60.7908C56.5991 60.9054 57.0991 61.0147 57.6199 61.1189C58.1511 61.2231 58.6511 61.3689 59.1199 61.5564C59.5991 61.7439 59.9845 62.0095 60.2761 62.3533C60.5782 62.6866 60.7293 63.1449 60.7293 63.7283C60.7293 64.6449 60.3855 65.3429 59.698 65.822C59.0105 66.3012 58.0886 66.5408 56.9324 66.5408ZM66.8047 66.3845V54.0408H75.711V55.3845H68.1954V59.6658H74.8985V61.0251H68.1954V66.3845H66.8047V66.3845ZM81.042 66.5408C80.1253 66.5408 79.3284 66.3272 78.6513 65.9001C77.9743 65.4626 77.4482 64.8793 77.0732 64.1501C76.7086 63.4106 76.5263 62.5981 76.5263 61.7126C76.5263 60.8272 76.7086 60.0199 77.0732 59.2908C77.4482 58.5616 77.9743 57.9835 78.6513 57.5564C79.3284 57.1189 80.1253 56.9001 81.042 56.9001C81.8128 56.9001 82.4743 57.0512 83.0263 57.3533C83.5784 57.6554 84.0263 58.0616 84.3701 58.572V57.0564H85.7763V66.3845H84.3701V64.8845C84.0263 65.3845 83.5784 65.7856 83.0263 66.0876C82.4743 66.3897 81.8128 66.5408 81.042 66.5408ZM81.2138 65.2595C81.9118 65.2595 82.5003 65.0981 82.9795 64.7751C83.4586 64.4522 83.8232 64.0199 84.0732 63.4783C84.3232 62.9366 84.4482 62.3481 84.4482 61.7126C84.4482 61.0668 84.3232 60.4783 84.0732 59.947C83.8232 59.4158 83.4586 58.9887 82.9795 58.6658C82.5003 58.3429 81.9118 58.1814 81.2138 58.1814C80.5368 58.1814 79.9482 58.3429 79.4482 58.6658C78.9482 58.9887 78.568 59.4158 78.3076 59.947C78.0472 60.4783 77.917 61.0668 77.917 61.7126C77.917 62.3481 78.0472 62.9366 78.3076 63.4783C78.568 64.0199 78.9482 64.4522 79.4482 64.7751C79.9482 65.0981 80.5368 65.2595 81.2138 65.2595ZM91.5956 66.5408C90.7414 66.5408 90.0174 66.4001 89.4237 66.1189C88.8299 65.8272 88.3768 65.447 88.0643 64.9783C87.7518 64.5095 87.5799 64.0043 87.5487 63.4626H89.0018C89.0435 63.7647 89.1528 64.0668 89.3299 64.3689C89.507 64.6606 89.7831 64.8949 90.1581 65.072C90.5331 65.2491 91.0174 65.3376 91.6112 65.3376C91.7987 65.3376 92.0278 65.322 92.2987 65.2908C92.5799 65.2491 92.8456 65.1814 93.0956 65.0876C93.356 64.9835 93.5695 64.8324 93.7362 64.6345C93.9133 64.4366 94.0018 64.1814 94.0018 63.8689C94.0018 63.4835 93.8508 63.1866 93.5487 62.9783C93.257 62.7595 92.8716 62.5929 92.3924 62.4783C91.9237 62.3637 91.4237 62.2491 90.8924 62.1345C90.3612 62.0199 89.8612 61.8741 89.3924 61.697C88.9237 61.5095 88.5383 61.2543 88.2362 60.9314C87.9341 60.5981 87.7831 60.1449 87.7831 59.572C87.7831 58.7283 88.0903 58.072 88.7049 57.6033C89.3299 57.1345 90.2414 56.9001 91.4393 56.9001C92.2622 56.9001 92.9289 57.0304 93.4393 57.2908C93.9601 57.5408 94.356 57.8689 94.6268 58.2751C94.8976 58.671 95.0539 59.0981 95.0956 59.5564H93.6893C93.6372 59.1606 93.4393 58.822 93.0956 58.5408C92.7518 58.2491 92.1893 58.1033 91.4081 58.1033C89.9289 58.1033 89.1893 58.5512 89.1893 59.447C89.1893 59.822 89.3351 60.1085 89.6268 60.3064C89.9289 60.5043 90.3143 60.6658 90.7831 60.7908C91.2622 60.9054 91.7622 61.0147 92.2831 61.1189C92.8143 61.2231 93.3143 61.3689 93.7831 61.5564C94.2622 61.7439 94.6476 62.0095 94.9393 62.3533C95.2414 62.6866 95.3924 63.1449 95.3924 63.7283C95.3924 64.6449 95.0487 65.3429 94.3612 65.822C93.6737 66.3012 92.7518 66.5408 91.5956 66.5408ZM98.1972 66.3845V58.2908H96.291V57.0564H98.1972V53.7126H99.6035V57.0564H101.744V58.2908H99.6035V66.3845H98.1972ZM107.55 66.3845V54.0408H116.456V55.3845H108.94V59.6658H115.644V61.0251H108.94V66.3845H107.55ZM121.896 66.5408C120.949 66.5408 120.126 66.3272 119.428 65.9001C118.73 65.4626 118.193 64.8793 117.818 64.1501C117.454 63.4106 117.271 62.5981 117.271 61.7126C117.271 60.8272 117.454 60.0199 117.818 59.2908C118.193 58.5616 118.73 57.9835 119.428 57.5564C120.126 57.1189 120.949 56.9001 121.896 56.9001C122.855 56.9001 123.678 57.1189 124.365 57.5564C125.053 57.9835 125.584 58.5616 125.959 59.2908C126.334 60.0199 126.521 60.8272 126.521 61.7126C126.521 62.5981 126.334 63.4106 125.959 64.1501C125.584 64.8793 125.053 65.4626 124.365 65.9001C123.678 66.3272 122.855 66.5408 121.896 66.5408ZM121.896 65.2595C122.594 65.2595 123.183 65.0981 123.662 64.7751C124.141 64.4522 124.501 64.0199 124.74 63.4783C124.99 62.9366 125.115 62.3481 125.115 61.7126C125.115 61.0668 124.99 60.4783 124.74 59.947C124.501 59.4158 124.141 58.9887 123.662 58.6658C123.183 58.3429 122.594 58.1814 121.896 58.1814C121.209 58.1814 120.62 58.3429 120.131 58.6658C119.652 58.9887 119.287 59.4158 119.037 59.947C118.787 60.4783 118.662 61.0668 118.662 61.7126C118.662 62.3481 118.787 62.9366 119.037 63.4783C119.287 64.0199 119.652 64.4522 120.131 64.7751C120.62 65.0981 121.209 65.2595 121.896 65.2595ZM132.419 66.5408C131.471 66.5408 130.648 66.3272 129.95 65.9001C129.252 65.4626 128.715 64.8793 128.34 64.1501C127.976 63.4106 127.794 62.5981 127.794 61.7126C127.794 60.8272 127.976 60.0199 128.34 59.2908C128.715 58.5616 129.252 57.9835 129.95 57.5564C130.648 57.1189 131.471 56.9001 132.419 56.9001C133.377 56.9001 134.2 57.1189 134.887 57.5564C135.575 57.9835 136.106 58.5616 136.481 59.2908C136.856 60.0199 137.044 60.8272 137.044 61.7126C137.044 62.5981 136.856 63.4106 136.481 64.1501C136.106 64.8793 135.575 65.4626 134.887 65.9001C134.2 66.3272 133.377 66.5408 132.419 66.5408ZM132.419 65.2595C133.116 65.2595 133.705 65.0981 134.184 64.7751C134.663 64.4522 135.023 64.0199 135.262 63.4783C135.512 62.9366 135.637 62.3481 135.637 61.7126C135.637 61.0668 135.512 60.4783 135.262 59.947C135.023 59.4158 134.663 58.9887 134.184 58.6658C133.705 58.3429 133.116 58.1814 132.419 58.1814C131.731 58.1814 131.143 58.3429 130.653 58.6658C130.174 58.9887 129.809 59.4158 129.559 59.947C129.309 60.4783 129.184 61.0668 129.184 61.7126C129.184 62.3481 129.309 62.9366 129.559 63.4783C129.809 64.0199 130.174 64.4522 130.653 64.7751C131.143 65.0981 131.731 65.2595 132.419 65.2595ZM142.831 66.5408C141.915 66.5408 141.118 66.3272 140.441 65.9001C139.764 65.4626 139.238 64.8793 138.863 64.1501C138.498 63.4106 138.316 62.5981 138.316 61.7126C138.316 60.8272 138.498 60.0199 138.863 59.2908C139.238 58.5616 139.764 57.9835 140.441 57.5564C141.118 57.1189 141.915 56.9001 142.831 56.9001C143.602 56.9001 144.264 57.0512 144.816 57.3533C145.368 57.6554 145.816 58.0616 146.159 58.572V53.322H147.566V66.3845H146.159V64.8845C145.816 65.3845 145.368 65.7856 144.816 66.0876C144.264 66.3897 143.602 66.5408 142.831 66.5408ZM143.003 65.2595C143.701 65.2595 144.29 65.0981 144.769 64.7751C145.248 64.4522 145.613 64.0199 145.863 63.4783C146.113 62.9366 146.238 62.3481 146.238 61.7126C146.238 61.0668 146.113 60.4783 145.863 59.947C145.613 59.4158 145.248 58.9887 144.769 58.6658C144.29 58.3429 143.701 58.1814 143.003 58.1814C142.326 58.1814 141.738 58.3429 141.238 58.6658C140.738 58.9887 140.357 59.4158 140.097 59.947C139.837 60.4783 139.706 61.0668 139.706 61.7126C139.706 62.3481 139.837 62.9366 140.097 63.4783C140.357 64.0199 140.738 64.4522 141.238 64.7751C141.738 65.0981 142.326 65.2595 143.003 65.2595ZM157.968 66.5408C157.041 66.5408 156.234 66.3272 155.546 65.9001C154.859 65.4626 154.327 64.8793 153.952 64.1501C153.577 63.4106 153.39 62.5981 153.39 61.7126C153.39 60.8272 153.577 60.0199 153.952 59.2908C154.327 58.5616 154.859 57.9835 155.546 57.5564C156.234 57.1189 157.041 56.9001 157.968 56.9001C159.083 56.9001 160.025 57.1866 160.796 57.7595C161.577 58.3324 162.103 59.072 162.374 59.9783H160.859C160.65 59.447 160.312 59.0147 159.843 58.6814C159.385 58.3481 158.822 58.1814 158.156 58.1814C157.478 58.1814 156.885 58.3429 156.374 58.6658C155.864 58.9887 155.468 59.4158 155.187 59.947C154.916 60.4783 154.781 61.0668 154.781 61.7126C154.781 62.3481 154.916 62.9366 155.187 63.4783C155.468 64.0199 155.864 64.4522 156.374 64.7751C156.885 65.0981 157.478 65.2595 158.156 65.2595C158.822 65.2595 159.385 65.0929 159.843 64.7595C160.312 64.4262 160.65 63.9939 160.859 63.4626H162.374C162.103 64.3689 161.577 65.1085 160.796 65.6814C160.025 66.2543 159.083 66.5408 157.968 66.5408ZM168.164 66.5408C167.216 66.5408 166.393 66.3272 165.695 65.9001C164.997 65.4626 164.461 64.8793 164.086 64.1501C163.721 63.4106 163.539 62.5981 163.539 61.7126C163.539 60.8272 163.721 60.0199 164.086 59.2908C164.461 58.5616 164.997 57.9835 165.695 57.5564C166.393 57.1189 167.216 56.9001 168.164 56.9001C169.122 56.9001 169.945 57.1189 170.633 57.5564C171.32 57.9835 171.851 58.5616 172.226 59.2908C172.601 60.0199 172.789 60.8272 172.789 61.7126C172.789 62.5981 172.601 63.4106 172.226 64.1501C171.851 64.8793 171.32 65.4626 170.633 65.9001C169.945 66.3272 169.122 66.5408 168.164 66.5408ZM168.164 65.2595C168.862 65.2595 169.45 65.0981 169.93 64.7751C170.409 64.4522 170.768 64.0199 171.008 63.4783C171.258 62.9366 171.383 62.3481 171.383 61.7126C171.383 61.0668 171.258 60.4783 171.008 59.947C170.768 59.4158 170.409 58.9887 169.93 58.6658C169.45 58.3429 168.862 58.1814 168.164 58.1814C167.476 58.1814 166.888 58.3429 166.398 58.6658C165.919 58.9887 165.555 59.4158 165.305 59.947C165.055 60.4783 164.93 61.0668 164.93 61.7126C164.93 62.3481 165.055 62.9366 165.305 63.4783C165.555 64.0199 165.919 64.4522 166.398 64.7751C166.888 65.0981 167.476 65.2595 168.164 65.2595ZM174.639 66.3845V57.0564H176.03V58.4783C176.238 58.1033 176.571 57.7491 177.03 57.4158C177.499 57.072 178.113 56.9001 178.874 56.9001C179.488 56.9001 180.061 57.0668 180.592 57.4001C181.124 57.7335 181.535 58.197 181.827 58.7908C181.952 58.5824 182.15 58.3272 182.42 58.0251C182.691 57.7231 183.04 57.4626 183.467 57.2439C183.905 57.0147 184.431 56.9001 185.045 56.9001C185.639 56.9001 186.196 57.0564 186.717 57.3689C187.238 57.6814 187.665 58.1293 187.999 58.7126C188.332 59.2856 188.499 59.9626 188.499 60.7439V66.3845H187.092V60.7908C187.092 60.0095 186.868 59.3793 186.42 58.9001C185.983 58.421 185.436 58.1814 184.78 58.1814C184.092 58.1814 183.499 58.4106 182.999 58.8689C182.509 59.3272 182.264 59.9731 182.264 60.8064V66.3845H180.858V60.7908C180.858 60.0095 180.639 59.3793 180.202 58.9001C179.764 58.421 179.212 58.1814 178.545 58.1814C177.868 58.1814 177.28 58.4106 176.78 58.8689C176.28 59.3272 176.03 59.9731 176.03 60.8064V66.3845H174.639ZM190.833 66.3845V57.0564H192.223V58.4783C192.432 58.1033 192.765 57.7491 193.223 57.4158C193.692 57.072 194.307 56.9001 195.067 56.9001C195.682 56.9001 196.255 57.0668 196.786 57.4001C197.317 57.7335 197.729 58.197 198.02 58.7908C198.145 58.5824 198.343 58.3272 198.614 58.0251C198.885 57.7231 199.234 57.4626 199.661 57.2439C200.098 57.0147 200.624 56.9001 201.239 56.9001C201.833 56.9001 202.39 57.0564 202.911 57.3689C203.432 57.6814 203.859 58.1293 204.192 58.7126C204.526 59.2856 204.692 59.9626 204.692 60.7439V66.3845H203.286V60.7908C203.286 60.0095 203.062 59.3793 202.614 58.9001C202.177 58.421 201.63 58.1814 200.973 58.1814C200.286 58.1814 199.692 58.4106 199.192 58.8689C198.703 59.3272 198.458 59.9731 198.458 60.8064V66.3845H197.052V60.7908C197.052 60.0095 196.833 59.3793 196.395 58.9001C195.958 58.421 195.406 58.1814 194.739 58.1814C194.062 58.1814 193.473 58.4106 192.973 58.8689C192.473 59.3272 192.223 59.9731 192.223 60.8064V66.3845H190.833ZM211.167 66.5408C210.219 66.5408 209.391 66.3272 208.683 65.9001C207.974 65.4626 207.422 64.8793 207.026 64.1501C206.641 63.4106 206.448 62.5981 206.448 61.7126C206.448 60.8272 206.631 60.0199 206.995 59.2908C207.37 58.5616 207.907 57.9835 208.605 57.5564C209.303 57.1189 210.125 56.9001 211.073 56.9001C212.032 56.9001 212.855 57.1189 213.542 57.5564C214.23 57.9835 214.761 58.5616 215.136 59.2908C215.511 60.0199 215.698 60.8272 215.698 61.7126V62.2751H207.886C207.959 62.8272 208.131 63.3324 208.401 63.7908C208.683 64.2387 209.058 64.5981 209.526 64.8689C210.006 65.1293 210.558 65.2595 211.183 65.2595C211.839 65.2595 212.391 65.1137 212.839 64.822C213.287 64.5304 213.636 64.1554 213.886 63.697H215.417C215.094 64.5304 214.579 65.2126 213.87 65.7439C213.172 66.2751 212.271 66.5408 211.167 66.5408ZM207.901 60.9783H214.245C214.12 60.1762 213.782 59.5095 213.23 58.9783C212.688 58.447 211.969 58.1814 211.073 58.1814C210.178 58.1814 209.459 58.447 208.917 58.9783C208.375 59.5095 208.037 60.1762 207.901 60.9783ZM217.418 66.3845V57.0564H218.809V59.3533C218.861 59.1866 218.954 58.9731 219.09 58.7126C219.236 58.4418 219.444 58.171 219.715 57.9001C219.996 57.6189 220.345 57.3845 220.762 57.197C221.178 56.9991 221.673 56.9001 222.246 56.9001H222.34V58.3064H222.168C221.47 58.3064 220.871 58.4991 220.371 58.8845C219.871 59.2595 219.486 59.7491 219.215 60.3533C218.944 60.9574 218.809 61.5981 218.809 62.2751V66.3845H217.418ZM227.612 66.5408C226.685 66.5408 225.877 66.3272 225.19 65.9001C224.502 65.4626 223.971 64.8793 223.596 64.1501C223.221 63.4106 223.034 62.5981 223.034 61.7126C223.034 60.8272 223.221 60.0199 223.596 59.2908C223.971 58.5616 224.502 57.9835 225.19 57.5564C225.877 57.1189 226.685 56.9001 227.612 56.9001C228.726 56.9001 229.669 57.1866 230.44 57.7595C231.221 58.3324 231.747 59.072 232.018 59.9783H230.502C230.294 59.447 229.956 59.0147 229.487 58.6814C229.028 58.3481 228.466 58.1814 227.799 58.1814C227.122 58.1814 226.528 58.3429 226.018 58.6658C225.508 58.9887 225.112 59.4158 224.831 59.947C224.56 60.4783 224.424 61.0668 224.424 61.7126C224.424 62.3481 224.56 62.9366 224.831 63.4783C225.112 64.0199 225.508 64.4522 226.018 64.7751C226.528 65.0981 227.122 65.2595 227.799 65.2595C228.466 65.2595 229.028 65.0929 229.487 64.7595C229.956 64.4262 230.294 63.9939 230.502 63.4626H232.018C231.747 64.3689 231.221 65.1085 230.44 65.6814C229.669 66.2543 228.726 66.5408 227.612 66.5408ZM233.698 55.4939V53.6658H235.214V55.4939H233.698ZM233.761 66.3845V57.0564H235.151V66.3845H233.761ZM241.523 66.5408C240.606 66.5408 239.809 66.3272 239.132 65.9001C238.455 65.4626 237.929 64.8793 237.554 64.1501C237.189 63.4106 237.007 62.5981 237.007 61.7126C237.007 60.8272 237.189 60.0199 237.554 59.2908C237.929 58.5616 238.455 57.9835 239.132 57.5564C239.809 57.1189 240.606 56.9001 241.523 56.9001C242.294 56.9001 242.955 57.0512 243.507 57.3533C244.059 57.6554 244.507 58.0616 244.851 58.572V57.0564H246.257V66.3845H244.851V64.8845C244.507 65.3845 244.059 65.7856 243.507 66.0876C242.955 66.3897 242.294 66.5408 241.523 66.5408ZM241.695 65.2595C242.393 65.2595 242.981 65.0981 243.46 64.7751C243.939 64.4522 244.304 64.0199 244.554 63.4783C244.804 62.9366 244.929 62.3481 244.929 61.7126C244.929 61.0668 244.804 60.4783 244.554 59.947C244.304 59.4158 243.939 58.9887 243.46 58.6658C242.981 58.3429 242.393 58.1814 241.695 58.1814C241.018 58.1814 240.429 58.3429 239.929 58.6658C239.429 58.9887 239.049 59.4158 238.788 59.947C238.528 60.4783 238.398 61.0668 238.398 61.7126C238.398 62.3481 238.528 62.9366 238.788 63.4783C239.049 64.0199 239.429 64.4522 239.929 64.7751C240.429 65.0981 241.018 65.2595 241.695 65.2595ZM248.686 66.3845V53.322H250.076V66.3845H248.686ZM251.495 68.4626L252.573 64.4783H254.401L252.76 68.4626H251.495ZM262.385 66.3845L259.463 57.0564H260.948L263.198 64.6501L265.557 57.0564H267.088L269.463 64.6501L271.698 57.0564H273.198L270.26 66.3845H268.667L266.323 58.947L263.995 66.3845H262.385ZM274.506 66.3845V53.322H275.897V58.5095C276.23 58.0616 276.641 57.6814 277.131 57.3689C277.621 57.0564 278.24 56.9001 278.99 56.9001C279.636 56.9001 280.24 57.0564 280.803 57.3689C281.376 57.671 281.839 58.1241 282.194 58.7283C282.548 59.3324 282.725 60.0772 282.725 60.9626V66.3845H281.334V60.9939C281.334 60.1501 281.089 59.4731 280.6 58.9626C280.11 58.4418 279.48 58.1814 278.709 58.1814C278.188 58.1814 277.714 58.3012 277.287 58.5408C276.871 58.7699 276.532 59.0981 276.272 59.5251C276.022 59.9522 275.897 60.447 275.897 61.0095V66.3845H274.506ZM289.003 66.5408C288.086 66.5408 287.289 66.3272 286.612 65.9001C285.935 65.4626 285.409 64.8793 285.034 64.1501C284.67 63.4106 284.487 62.5981 284.487 61.7126C284.487 60.8272 284.67 60.0199 285.034 59.2908C285.409 58.5616 285.935 57.9835 286.612 57.5564C287.289 57.1189 288.086 56.9001 289.003 56.9001C289.774 56.9001 290.435 57.0512 290.987 57.3533C291.539 57.6554 291.987 58.0616 292.331 58.572V57.0564H293.737V66.3845H292.331V64.8845C291.987 65.3845 291.539 65.7856 290.987 66.0876C290.435 66.3897 289.774 66.5408 289.003 66.5408ZM289.175 65.2595C289.873 65.2595 290.461 65.0981 290.94 64.7751C291.42 64.4522 291.784 64.0199 292.034 63.4783C292.284 62.9366 292.409 62.3481 292.409 61.7126C292.409 61.0668 292.284 60.4783 292.034 59.947C291.784 59.4158 291.42 58.9887 290.94 58.6658C290.461 58.3429 289.873 58.1814 289.175 58.1814C288.498 58.1814 287.909 58.3429 287.409 58.6658C286.909 58.9887 286.529 59.4158 286.269 59.947C286.008 60.4783 285.878 61.0668 285.878 61.7126C285.878 62.3481 286.008 62.9366 286.269 63.4783C286.529 64.0199 286.909 64.4522 287.409 64.7751C287.909 65.0981 288.498 65.2595 289.175 65.2595ZM297.166 66.3845V58.2908H295.26V57.0564H297.166V53.7126H298.572V57.0564H300.713V58.2908H298.572V66.3845H297.166ZM310.159 66.5408C309.242 66.5408 308.446 66.3272 307.768 65.9001C307.091 65.4626 306.565 64.8793 306.19 64.1501C305.826 63.4106 305.643 62.5981 305.643 61.7126C305.643 60.8272 305.826 60.0199 306.19 59.2908C306.565 58.5616 307.091 57.9835 307.768 57.5564C308.446 57.1189 309.242 56.9001 310.159 56.9001C310.93 56.9001 311.591 57.0512 312.143 57.3533C312.696 57.6554 313.143 58.0616 313.487 58.572V53.322H314.893V66.3845H313.487V64.8845C313.143 65.3845 312.696 65.7856 312.143 66.0876C311.591 66.3897 310.93 66.5408 310.159 66.5408ZM310.331 65.2595C311.029 65.2595 311.617 65.0981 312.097 64.7751C312.576 64.4522 312.94 64.0199 313.19 63.4783C313.44 62.9366 313.565 62.3481 313.565 61.7126C313.565 61.0668 313.44 60.4783 313.19 59.947C312.94 59.4158 312.576 58.9887 312.097 58.6658C311.617 58.3429 311.029 58.1814 310.331 58.1814C309.654 58.1814 309.065 58.3429 308.565 58.6658C308.065 58.9887 307.685 59.4158 307.425 59.947C307.164 60.4783 307.034 61.0668 307.034 61.7126C307.034 62.3481 307.164 62.9366 307.425 63.4783C307.685 64.0199 308.065 64.4522 308.565 64.7751C309.065 65.0981 309.654 65.2595 310.331 65.2595ZM321.369 66.5408C320.421 66.5408 319.598 66.3272 318.9 65.9001C318.202 65.4626 317.666 64.8793 317.291 64.1501C316.926 63.4106 316.744 62.5981 316.744 61.7126C316.744 60.8272 316.926 60.0199 317.291 59.2908C317.666 58.5616 318.202 57.9835 318.9 57.5564C319.598 57.1189 320.421 56.9001 321.369 56.9001C322.327 56.9001 323.15 57.1189 323.838 57.5564C324.525 57.9835 325.056 58.5616 325.431 59.2908C325.806 60.0199 325.994 60.8272 325.994 61.7126C325.994 62.5981 325.806 63.4106 325.431 64.1501C325.056 64.8793 324.525 65.4626 323.838 65.9001C323.15 66.3272 322.327 66.5408 321.369 66.5408ZM321.369 65.2595C322.067 65.2595 322.655 65.0981 323.135 64.7751C323.614 64.4522 323.973 64.0199 324.213 63.4783C324.463 62.9366 324.588 62.3481 324.588 61.7126C324.588 61.0668 324.463 60.4783 324.213 59.947C323.973 59.4158 323.614 58.9887 323.135 58.6658C322.655 58.3429 322.067 58.1814 321.369 58.1814C320.681 58.1814 320.093 58.3429 319.603 58.6658C319.124 58.9887 318.76 59.4158 318.51 59.947C318.26 60.4783 318.135 61.0668 318.135 61.7126C318.135 62.3481 318.26 62.9366 318.51 63.4783C318.76 64.0199 319.124 64.4522 319.603 64.7751C320.093 65.0981 320.681 65.2595 321.369 65.2595ZM331.985 66.5408C331.037 66.5408 330.209 66.3272 329.5 65.9001C328.792 65.4626 328.24 64.8793 327.844 64.1501C327.459 63.4106 327.266 62.5981 327.266 61.7126C327.266 60.8272 327.448 60.0199 327.813 59.2908C328.188 58.5616 328.724 57.9835 329.422 57.5564C330.12 57.1189 330.943 56.9001 331.891 56.9001C332.849 56.9001 333.672 57.1189 334.36 57.5564C335.047 57.9835 335.579 58.5616 335.954 59.2908C336.329 60.0199 336.516 60.8272 336.516 61.7126V62.2751H328.704C328.777 62.8272 328.948 63.3324 329.219 63.7908C329.5 64.2387 329.875 64.5981 330.344 64.8689C330.823 65.1293 331.375 65.2595 332 65.2595C332.657 65.2595 333.209 65.1137 333.657 64.822C334.105 64.5304 334.454 64.1554 334.704 63.697H336.235C335.912 64.5304 335.396 65.2126 334.688 65.7439C333.99 66.2751 333.089 66.5408 331.985 66.5408ZM328.719 60.9783H335.063C334.938 60.1762 334.599 59.5095 334.047 58.9783C333.506 58.447 332.787 58.1814 331.891 58.1814C330.995 58.1814 330.277 58.447 329.735 58.9783C329.193 59.5095 328.855 60.1762 328.719 60.9783ZM341.626 66.5408C340.772 66.5408 340.048 66.4001 339.455 66.1189C338.861 65.8272 338.408 65.447 338.095 64.9783C337.783 64.5095 337.611 64.0043 337.58 63.4626H339.033C339.074 63.7647 339.184 64.0668 339.361 64.3689C339.538 64.6606 339.814 64.8949 340.189 65.072C340.564 65.2491 341.048 65.3376 341.642 65.3376C341.83 65.3376 342.059 65.322 342.33 65.2908C342.611 65.2491 342.876 65.1814 343.126 65.0876C343.387 64.9835 343.6 64.8324 343.767 64.6345C343.944 64.4366 344.033 64.1814 344.033 63.8689C344.033 63.4835 343.882 63.1866 343.58 62.9783C343.288 62.7595 342.902 62.5929 342.423 62.4783C341.955 62.3637 341.455 62.2491 340.923 62.1345C340.392 62.0199 339.892 61.8741 339.423 61.697C338.955 61.5095 338.569 61.2543 338.267 60.9314C337.965 60.5981 337.814 60.1449 337.814 59.572C337.814 58.7283 338.121 58.072 338.736 57.6033C339.361 57.1345 340.272 56.9001 341.47 56.9001C342.293 56.9001 342.96 57.0304 343.47 57.2908C343.991 57.5408 344.387 57.8689 344.658 58.2751C344.928 58.671 345.085 59.0981 345.126 59.5564H343.72C343.668 59.1606 343.47 58.822 343.126 58.5408C342.783 58.2491 342.22 58.1033 341.439 58.1033C339.96 58.1033 339.22 58.5512 339.22 59.447C339.22 59.822 339.366 60.1085 339.658 60.3064C339.96 60.5043 340.345 60.6658 340.814 60.7908C341.293 60.9054 341.793 61.0147 342.314 61.1189C342.845 61.2231 343.345 61.3689 343.814 61.5564C344.293 61.7439 344.678 62.0095 344.97 62.3533C345.272 62.6866 345.423 63.1449 345.423 63.7283C345.423 64.6449 345.08 65.3429 344.392 65.822C343.705 66.3012 342.783 66.5408 341.626 66.5408ZM352.202 66.3845V58.2908H350.296V57.0564H352.202V53.7126H353.608V57.0564H355.749V58.2908H353.608V66.3845H352.202ZM357.284 66.3845V53.322H358.674V58.5095C359.008 58.0616 359.419 57.6814 359.909 57.3689C360.398 57.0564 361.018 56.9001 361.768 56.9001C362.414 56.9001 363.018 57.0564 363.581 57.3689C364.154 57.671 364.617 58.1241 364.971 58.7283C365.325 59.3324 365.503 60.0772 365.503 60.9626V66.3845H364.112V60.9939C364.112 60.1501 363.867 59.4731 363.378 58.9626C362.888 58.4418 362.258 58.1814 361.487 58.1814C360.966 58.1814 360.492 58.3012 360.065 58.5408C359.648 58.7699 359.31 59.0981 359.049 59.5251C358.799 59.9522 358.674 60.447 358.674 61.0095V66.3845H357.284ZM371.984 66.5408C371.036 66.5408 370.208 66.3272 369.499 65.9001C368.791 65.4626 368.239 64.8793 367.843 64.1501C367.458 63.4106 367.265 62.5981 367.265 61.7126C367.265 60.8272 367.447 60.0199 367.812 59.2908C368.187 58.5616 368.723 57.9835 369.421 57.5564C370.119 57.1189 370.942 56.9001 371.89 56.9001C372.848 56.9001 373.671 57.1189 374.359 57.5564C375.046 57.9835 375.578 58.5616 375.953 59.2908C376.328 60.0199 376.515 60.8272 376.515 61.7126V62.2751H368.703C368.775 62.8272 368.947 63.3324 369.218 63.7908C369.499 64.2387 369.874 64.5981 370.343 64.8689C370.822 65.1293 371.374 65.2595 371.999 65.2595C372.656 65.2595 373.208 65.1137 373.656 64.822C374.104 64.5304 374.453 64.1554 374.703 63.697H376.234C375.911 64.5304 375.395 65.2126 374.687 65.7439C373.989 66.2751 373.088 66.5408 371.984 66.5408ZM368.718 60.9783H375.062C374.937 60.1762 374.598 59.5095 374.046 58.9783C373.505 58.447 372.786 58.1814 371.89 58.1814C370.994 58.1814 370.275 58.447 369.734 58.9783C369.192 59.5095 368.854 60.1762 368.718 60.9783ZM382.209 66.3845V53.322H383.599V61.6814L388.099 57.0564H390.052L386.302 60.7283L390.334 66.3845H388.615L385.349 61.697L383.599 63.4314V66.3845H382.209ZM391.511 55.4939V53.6658H393.027V55.4939H391.511ZM391.574 66.3845V57.0564H392.965V66.3845H391.574ZM399.336 66.5408C398.419 66.5408 397.622 66.3272 396.945 65.9001C396.268 65.4626 395.742 64.8793 395.367 64.1501C395.003 63.4106 394.82 62.5981 394.82 61.7126C394.82 60.8272 395.003 60.0199 395.367 59.2908C395.742 58.5616 396.268 57.9835 396.945 57.5564C397.622 57.1189 398.419 56.9001 399.336 56.9001C400.107 56.9001 400.768 57.0512 401.32 57.3533C401.872 57.6554 402.32 58.0616 402.664 58.572V53.322H404.07V66.3845H402.664V64.8845C402.32 65.3845 401.872 65.7856 401.32 66.0876C400.768 66.3897 400.107 66.5408 399.336 66.5408ZM399.508 65.2595C400.206 65.2595 400.794 65.0981 401.273 64.7751C401.753 64.4522 402.117 64.0199 402.367 63.4783C402.617 62.9366 402.742 62.3481 402.742 61.7126C402.742 61.0668 402.617 60.4783 402.367 59.947C402.117 59.4158 401.753 58.9887 401.273 58.6658C400.794 58.3429 400.206 58.1814 399.508 58.1814C398.831 58.1814 398.242 58.3429 397.742 58.6658C397.242 58.9887 396.862 59.4158 396.602 59.947C396.341 60.4783 396.211 61.0668 396.211 61.7126C396.211 62.3481 396.341 62.9366 396.602 63.4783C396.862 64.0199 397.242 64.4522 397.742 64.7751C398.242 65.0981 398.831 65.2595 399.508 65.2595ZM412.27 66.3845L409.348 57.0564H410.832L413.082 64.6501L415.442 57.0564H416.973L419.348 64.6501L421.582 57.0564H423.082L420.145 66.3845H418.551L416.207 58.947L413.879 66.3845H412.27ZM428.141 66.5408C427.225 66.5408 426.428 66.3272 425.751 65.9001C425.073 65.4626 424.547 64.8793 424.172 64.1501C423.808 63.4106 423.626 62.5981 423.626 61.7126C423.626 60.8272 423.808 60.0199 424.172 59.2908C424.547 58.5616 425.073 57.9835 425.751 57.5564C426.428 57.1189 427.225 56.9001 428.141 56.9001C428.912 56.9001 429.573 57.0512 430.126 57.3533C430.678 57.6554 431.126 58.0616 431.469 58.572V57.0564H432.876V66.3845H431.469V64.8845C431.126 65.3845 430.678 65.7856 430.126 66.0876C429.573 66.3897 428.912 66.5408 428.141 66.5408ZM428.313 65.2595C429.011 65.2595 429.6 65.0981 430.079 64.7751C430.558 64.4522 430.922 64.0199 431.172 63.4783C431.422 62.9366 431.547 62.3481 431.547 61.7126C431.547 61.0668 431.422 60.4783 431.172 59.947C430.922 59.4158 430.558 58.9887 430.079 58.6658C429.6 58.3429 429.011 58.1814 428.313 58.1814C427.636 58.1814 427.047 58.3429 426.547 58.6658C426.047 58.9887 425.667 59.4158 425.407 59.947C425.146 60.4783 425.016 61.0668 425.016 61.7126C425.016 62.3481 425.146 62.9366 425.407 63.4783C425.667 64.0199 426.047 64.4522 426.547 64.7751C427.047 65.0981 427.636 65.2595 428.313 65.2595ZM435.304 66.3845V57.0564H436.695V58.5095C437.028 58.0616 437.44 57.6814 437.929 57.3689C438.419 57.0564 439.039 56.9001 439.789 56.9001C440.434 56.9001 441.039 57.0564 441.601 57.3689C442.174 57.671 442.637 58.1241 442.992 58.7283C443.346 59.3324 443.523 60.0772 443.523 60.9626V66.3845H442.132V60.9939C442.132 60.1501 441.887 59.4731 441.398 58.9626C440.908 58.4418 440.278 58.1814 439.507 58.1814C438.986 58.1814 438.512 58.3012 438.085 58.5408C437.669 58.7699 437.33 59.0981 437.07 59.5251C436.82 59.9522 436.695 60.447 436.695 61.0095V66.3845H435.304ZM446.64 66.3845V58.2908H444.733V57.0564H446.64V53.7126H448.046V57.0564H450.186V58.2908H448.046V66.3845H446.64ZM456.32 66.3845V58.2908H454.727V57.0564H456.32V56.2283C456.32 55.2179 456.628 54.4574 457.242 53.947C457.857 53.4366 458.701 53.1814 459.773 53.1814H459.883V54.4939H459.695C459.049 54.4939 458.56 54.6449 458.227 54.947C457.893 55.2387 457.727 55.7074 457.727 56.3533V57.0564H459.883V58.2908H457.727V66.3845H456.32ZM461.423 66.3845V57.0564H462.813V59.3533C462.865 59.1866 462.959 58.9731 463.095 58.7126C463.24 58.4418 463.449 58.171 463.72 57.9001C464.001 57.6189 464.35 57.3845 464.767 57.197C465.183 56.9991 465.678 56.9001 466.251 56.9001H466.345V58.3064H466.173C465.475 58.3064 464.876 58.4991 464.376 58.8845C463.876 59.2595 463.49 59.7491 463.22 60.3533C462.949 60.9574 462.813 61.5981 462.813 62.2751V66.3845H461.423ZM471.663 66.5408C470.715 66.5408 469.893 66.3272 469.195 65.9001C468.497 65.4626 467.96 64.8793 467.585 64.1501C467.221 63.4106 467.038 62.5981 467.038 61.7126C467.038 60.8272 467.221 60.0199 467.585 59.2908C467.96 58.5616 468.497 57.9835 469.195 57.5564C469.893 57.1189 470.715 56.9001 471.663 56.9001C472.622 56.9001 473.445 57.1189 474.132 57.5564C474.82 57.9835 475.351 58.5616 475.726 59.2908C476.101 60.0199 476.288 60.8272 476.288 61.7126C476.288 62.5981 476.101 63.4106 475.726 64.1501C475.351 64.8793 474.82 65.4626 474.132 65.9001C473.445 66.3272 472.622 66.5408 471.663 66.5408ZM471.663 65.2595C472.361 65.2595 472.95 65.0981 473.429 64.7751C473.908 64.4522 474.268 64.0199 474.507 63.4783C474.757 62.9366 474.882 62.3481 474.882 61.7126C474.882 61.0668 474.757 60.4783 474.507 59.947C474.268 59.4158 473.908 58.9887 473.429 58.6658C472.95 58.3429 472.361 58.1814 471.663 58.1814C470.976 58.1814 470.387 58.3429 469.898 58.6658C469.419 58.9887 469.054 59.4158 468.804 59.947C468.554 60.4783 468.429 61.0668 468.429 61.7126C468.429 62.3481 468.554 62.9366 468.804 63.4783C469.054 64.0199 469.419 64.4522 469.898 64.7751C470.387 65.0981 470.976 65.2595 471.663 65.2595ZM478.139 66.3845V57.0564H479.529V58.4783C479.738 58.1033 480.071 57.7491 480.529 57.4158C480.998 57.072 481.613 56.9001 482.373 56.9001C482.988 56.9001 483.561 57.0668 484.092 57.4001C484.623 57.7335 485.035 58.197 485.326 58.7908C485.451 58.5824 485.649 58.3272 485.92 58.0251C486.191 57.7231 486.54 57.4626 486.967 57.2439C487.404 57.0147 487.93 56.9001 488.545 56.9001C489.139 56.9001 489.696 57.0564 490.217 57.3689C490.738 57.6814 491.165 58.1293 491.498 58.7126C491.831 59.2856 491.998 59.9626 491.998 60.7439V66.3845H490.592V60.7908C490.592 60.0095 490.368 59.3793 489.92 58.9001C489.482 58.421 488.936 58.1814 488.279 58.1814C487.592 58.1814 486.998 58.4106 486.498 58.8689C486.008 59.3272 485.764 59.9731 485.764 60.8064V66.3845H484.357V60.7908C484.357 60.0095 484.139 59.3793 483.701 58.9001C483.264 58.421 482.712 58.1814 482.045 58.1814C481.368 58.1814 480.779 58.4106 480.279 58.8689C479.779 59.3272 479.529 59.9731 479.529 60.8064V66.3845H478.139ZM499.306 66.3845V58.2908H497.4V57.0564H499.306V53.7126H500.712V57.0564H502.853V58.2908H500.712V66.3845H499.306ZM504.326 55.4939V53.6658H505.841V55.4939H504.326ZM504.388 66.3845V57.0564H505.779V66.3845H504.388ZM509.213 66.3845V58.2908H507.306V57.0564H509.213V53.7126H510.619V57.0564H512.759V58.2908H510.619V66.3845H509.213ZM518.155 66.5408C517.207 66.5408 516.384 66.3272 515.686 65.9001C514.988 65.4626 514.452 64.8793 514.077 64.1501C513.712 63.4106 513.53 62.5981 513.53 61.7126C513.53 60.8272 513.712 60.0199 514.077 59.2908C514.452 58.5616 514.988 57.9835 515.686 57.5564C516.384 57.1189 517.207 56.9001 518.155 56.9001C519.113 56.9001 519.936 57.1189 520.623 57.5564C521.311 57.9835 521.842 58.5616 522.217 59.2908C522.592 60.0199 522.78 60.8272 522.78 61.7126C522.78 62.5981 522.592 63.4106 522.217 64.1501C521.842 64.8793 521.311 65.4626 520.623 65.9001C519.936 66.3272 519.113 66.5408 518.155 66.5408ZM518.155 65.2595C518.853 65.2595 519.441 65.0981 519.92 64.7751C520.399 64.4522 520.759 64.0199 520.998 63.4783C521.248 62.9366 521.373 62.3481 521.373 61.7126C521.373 61.0668 521.248 60.4783 520.998 59.947C520.759 59.4158 520.399 58.9887 519.92 58.6658C519.441 58.3429 518.853 58.1814 518.155 58.1814C517.467 58.1814 516.879 58.3429 516.389 58.6658C515.91 58.9887 515.545 59.4158 515.295 59.947C515.045 60.4783 514.92 61.0668 514.92 61.7126C514.92 62.3481 515.045 62.9366 515.295 63.4783C515.545 64.0199 515.91 64.4522 516.389 64.7751C516.879 65.0981 517.467 65.2595 518.155 65.2595ZM528.007 66.3845L533.242 54.0408H534.992L540.242 66.3845H538.695L537.179 62.8064H531.054L529.554 66.3845H528.007ZM531.601 61.5095H536.632L534.117 55.4939L531.601 61.5095ZM545.78 70.2283C544.613 70.2283 543.66 69.9731 542.92 69.4626C542.191 68.9626 541.696 68.3116 541.436 67.5095H542.983C543.17 67.9679 543.493 68.322 543.952 68.572C544.41 68.8324 544.993 68.9626 545.702 68.9626C546.775 68.9626 547.556 68.7074 548.045 68.197C548.535 67.697 548.78 66.9679 548.78 66.0095V64.7283C548.436 65.2179 547.988 65.6189 547.436 65.9314C546.884 66.2335 546.222 66.3845 545.452 66.3845C544.535 66.3845 543.738 66.1762 543.061 65.7595C542.384 65.3429 541.858 64.7751 541.483 64.0564C541.118 63.3272 540.936 62.5251 540.936 61.6501C540.936 60.7543 541.118 59.947 541.483 59.2283C541.858 58.5095 542.384 57.9418 543.061 57.5251C543.738 57.1085 544.535 56.9001 545.452 56.9001C546.222 56.9001 546.884 57.0512 547.436 57.3533C547.988 57.6449 548.436 58.046 548.78 58.5564V57.0564H550.186V66.1033C550.186 67.4366 549.801 68.4574 549.03 69.1658C548.269 69.8741 547.186 70.2283 545.78 70.2283ZM545.624 65.1189C546.311 65.1189 546.894 64.9626 547.374 64.6501C547.853 64.3376 548.217 63.921 548.467 63.4001C548.728 62.8689 548.858 62.2856 548.858 61.6501C548.858 61.0043 548.728 60.421 548.467 59.9001C548.217 59.3689 547.853 58.9522 547.374 58.6501C546.894 58.3376 546.311 58.1814 545.624 58.1814C544.946 58.1814 544.358 58.3376 543.858 58.6501C543.358 58.9522 542.978 59.3689 542.717 59.9001C542.457 60.421 542.327 61.0043 542.327 61.6501C542.327 62.2856 542.457 62.8689 542.717 63.4001C542.978 63.921 543.358 64.3376 543.858 64.6501C544.358 64.9626 544.946 65.1189 545.624 65.1189ZM556.552 66.5408C555.635 66.5408 554.839 66.3272 554.161 65.9001C553.484 65.4626 552.958 64.8793 552.583 64.1501C552.219 63.4106 552.036 62.5981 552.036 61.7126C552.036 60.8272 552.219 60.0199 552.583 59.2908C552.958 58.5616 553.484 57.9835 554.161 57.5564C554.839 57.1189 555.635 56.9001 556.552 56.9001C557.323 56.9001 557.984 57.0512 558.536 57.3533C559.089 57.6554 559.536 58.0616 559.88 58.572V57.0564H561.286V66.3845H559.88V64.8845C559.536 65.3845 559.089 65.7856 558.536 66.0876C557.984 66.3897 557.323 66.5408 556.552 66.5408ZM556.724 65.2595C557.422 65.2595 558.01 65.0981 558.49 64.7751C558.969 64.4522 559.333 64.0199 559.583 63.4783C559.833 62.9366 559.958 62.3481 559.958 61.7126C559.958 61.0668 559.833 60.4783 559.583 59.947C559.333 59.4158 558.969 58.9887 558.49 58.6658C558.01 58.3429 557.422 58.1814 556.724 58.1814C556.047 58.1814 555.458 58.3429 554.958 58.6658C554.458 58.9887 554.078 59.4158 553.818 59.947C553.557 60.4783 553.427 61.0668 553.427 61.7126C553.427 62.3481 553.557 62.9366 553.818 63.4783C554.078 64.0199 554.458 64.4522 554.958 64.7751C555.458 65.0981 556.047 65.2595 556.724 65.2595ZM566.731 62.9626C566.731 62.3585 566.835 61.8429 567.043 61.4158C567.262 60.9887 567.522 60.6189 567.824 60.3064C568.137 59.9835 568.444 59.6762 568.746 59.3845C569.059 59.0929 569.319 58.7804 569.528 58.447C569.736 58.1137 569.84 57.7179 569.84 57.2595C569.84 56.947 569.767 56.6293 569.621 56.3064C569.486 55.9835 569.241 55.7126 568.887 55.4939C568.543 55.2751 568.069 55.1658 567.465 55.1658C566.851 55.1658 566.335 55.2856 565.918 55.5251C565.502 55.7647 565.179 56.0772 564.949 56.4626C564.72 56.8481 564.585 57.2595 564.543 57.697H563.231C563.262 57.0095 563.449 56.3793 563.793 55.8064C564.137 55.2231 564.611 54.7595 565.215 54.4158C565.819 54.0616 566.528 53.8845 567.34 53.8845C568.236 53.8845 568.965 54.0512 569.528 54.3845C570.101 54.7074 570.517 55.1293 570.778 55.6501C571.038 56.1606 571.168 56.697 571.168 57.2595C571.168 57.8429 571.064 58.3324 570.856 58.7283C570.658 59.1137 570.403 59.4626 570.09 59.7751C569.788 60.0772 569.481 60.3741 569.168 60.6658C568.866 60.947 568.611 61.2699 568.403 61.6345C568.194 61.9991 568.09 62.4418 568.09 62.9626H566.731ZM566.512 66.3845V64.4783H568.324V66.3845H566.512Z" fill="black"/>
<path d="M135.068 79.925L136.709 75.9563H137.975L136.896 79.925H135.068ZM132.256 79.8938L133.896 75.925H135.162L134.084 79.8938H132.256ZM139.624 77.8938V76.0657H141.14V77.8938H139.624ZM139.687 88.7844V79.4563H141.078V88.7844H139.687ZM146.902 88.9407C146.048 88.9407 145.324 88.8 144.73 88.5188C144.136 88.2271 143.683 87.8469 143.371 87.3782C143.058 86.9094 142.886 86.4042 142.855 85.8625H144.308C144.35 86.1646 144.459 86.4667 144.636 86.7688C144.814 87.0605 145.09 87.2948 145.465 87.4719C145.84 87.649 146.324 87.7375 146.918 87.7375C147.105 87.7375 147.334 87.7219 147.605 87.6907C147.886 87.649 148.152 87.5813 148.402 87.4875C148.662 87.3834 148.876 87.2323 149.043 87.0344C149.22 86.8365 149.308 86.5813 149.308 86.2688C149.308 85.8834 149.157 85.5865 148.855 85.3782C148.564 85.1594 148.178 84.9928 147.699 84.8782C147.23 84.7636 146.73 84.649 146.199 84.5344C145.668 84.4198 145.168 84.274 144.699 84.0969C144.23 83.9094 143.845 83.6542 143.543 83.3313C143.241 82.998 143.09 82.5448 143.09 81.9719C143.09 81.1282 143.397 80.4719 144.011 80.0032C144.636 79.5344 145.548 79.3 146.746 79.3C147.569 79.3 148.235 79.4303 148.746 79.6907C149.267 79.9407 149.662 80.2688 149.933 80.675C150.204 81.0709 150.36 81.498 150.402 81.9563H148.996C148.944 81.5605 148.746 81.2219 148.402 80.9407C148.058 80.649 147.496 80.5032 146.715 80.5032C145.235 80.5032 144.496 80.9511 144.496 81.8469C144.496 82.2219 144.642 82.5084 144.933 82.7063C145.235 82.9042 145.621 83.0657 146.09 83.1907C146.569 83.3053 147.069 83.4146 147.59 83.5188C148.121 83.623 148.621 83.7688 149.09 83.9563C149.569 84.1438 149.954 84.4094 150.246 84.7532C150.548 85.0865 150.699 85.5448 150.699 86.1282C150.699 87.0448 150.355 87.7428 149.668 88.2219C148.98 88.7011 148.058 88.9407 146.902 88.9407ZM156.441 88.9407C155.525 88.9407 154.728 88.7271 154.051 88.3C153.374 87.8625 152.848 87.2792 152.473 86.55C152.108 85.8105 151.926 84.998 151.926 84.1125C151.926 83.2271 152.108 82.4198 152.473 81.6907C152.848 80.9615 153.374 80.3834 154.051 79.9563C154.728 79.5188 155.525 79.3 156.441 79.3C157.212 79.3 157.874 79.4511 158.426 79.7532C158.978 80.0553 159.426 80.4615 159.769 80.9719V79.4563H161.176V88.7844H159.769V87.2844C159.426 87.7844 158.978 88.1855 158.426 88.4875C157.874 88.7896 157.212 88.9407 156.441 88.9407ZM156.613 87.6594C157.311 87.6594 157.9 87.498 158.379 87.175C158.858 86.8521 159.223 86.4198 159.473 85.8782C159.723 85.3365 159.848 84.748 159.848 84.1125C159.848 83.4667 159.723 82.8782 159.473 82.3469C159.223 81.8157 158.858 81.3886 158.379 81.0657C157.9 80.7428 157.311 80.5813 156.613 80.5813C155.936 80.5813 155.348 80.7428 154.848 81.0657C154.348 81.3886 153.967 81.8157 153.707 82.3469C153.446 82.8782 153.316 83.4667 153.316 84.1125C153.316 84.748 153.446 85.3365 153.707 85.8782C153.967 86.4198 154.348 86.8521 154.848 87.175C155.348 87.498 155.936 87.6594 156.613 87.6594ZM167.578 92.4719V79.4563H168.969V80.9563C169.323 80.4459 169.776 80.0448 170.328 79.7532C170.88 79.4511 171.542 79.3 172.312 79.3C173.219 79.3 174.01 79.5188 174.687 79.9563C175.364 80.3834 175.891 80.9615 176.266 81.6907C176.641 82.4198 176.828 83.2271 176.828 84.1125C176.828 84.998 176.641 85.8105 176.266 86.55C175.891 87.2792 175.364 87.8625 174.687 88.3C174.01 88.7271 173.219 88.9407 172.312 88.9407C171.542 88.9407 170.88 88.7896 170.328 88.4875C169.776 88.175 169.323 87.7688 168.969 87.2688V92.4719H167.578ZM172.125 87.6594C172.823 87.6594 173.417 87.498 173.906 87.175C174.396 86.8521 174.771 86.4198 175.031 85.8782C175.292 85.3365 175.422 84.748 175.422 84.1125C175.422 83.4667 175.292 82.8782 175.031 82.3469C174.771 81.8157 174.396 81.3886 173.906 81.0657C173.417 80.7428 172.823 80.5813 172.125 80.5813C171.437 80.5813 170.849 80.7428 170.359 81.0657C169.88 81.3886 169.516 81.8157 169.266 82.3469C169.016 82.8782 168.891 83.4667 168.891 84.1125C168.891 84.748 169.016 85.3365 169.266 85.8782C169.516 86.4198 169.88 86.8521 170.359 87.175C170.849 87.498 171.437 87.6594 172.125 87.6594ZM182.616 88.9407C181.699 88.9407 180.902 88.7271 180.225 88.3C179.548 87.8625 179.022 87.2792 178.647 86.55C178.283 85.8105 178.1 84.998 178.1 84.1125C178.1 83.2271 178.283 82.4198 178.647 81.6907C179.022 80.9615 179.548 80.3834 180.225 79.9563C180.902 79.5188 181.699 79.3 182.616 79.3C183.387 79.3 184.048 79.4511 184.6 79.7532C185.152 80.0553 185.6 80.4615 185.944 80.9719V79.4563H187.35V88.7844H185.944V87.2844C185.6 87.7844 185.152 88.1855 184.6 88.4875C184.048 88.7896 183.387 88.9407 182.616 88.9407ZM182.788 87.6594C183.486 87.6594 184.074 87.498 184.553 87.175C185.033 86.8521 185.397 86.4198 185.647 85.8782C185.897 85.3365 186.022 84.748 186.022 84.1125C186.022 83.4667 185.897 82.8782 185.647 82.3469C185.397 81.8157 185.033 81.3886 184.553 81.0657C184.074 80.7428 183.486 80.5813 182.788 80.5813C182.111 80.5813 181.522 80.7428 181.022 81.0657C180.522 81.3886 180.142 81.8157 179.882 82.3469C179.621 82.8782 179.491 83.4667 179.491 84.1125C179.491 84.748 179.621 85.3365 179.882 85.8782C180.142 86.4198 180.522 86.8521 181.022 87.175C181.522 87.498 182.111 87.6594 182.788 87.6594ZM188.763 90.8625L189.841 86.8782H191.67L190.029 90.8625H188.763ZM197.795 77.8938V76.0657H199.31V77.8938H197.795ZM197.857 88.7844V79.4563H199.248V88.7844H197.857ZM205.072 88.9407C204.218 88.9407 203.494 88.8 202.9 88.5188C202.307 88.2271 201.853 87.8469 201.541 87.3782C201.228 86.9094 201.057 86.4042 201.025 85.8625H202.478C202.52 86.1646 202.63 86.4667 202.807 86.7688C202.984 87.0605 203.26 87.2948 203.635 87.4719C204.01 87.649 204.494 87.7375 205.088 87.7375C205.275 87.7375 205.505 87.7219 205.775 87.6907C206.057 87.649 206.322 87.5813 206.572 87.4875C206.833 87.3834 207.046 87.2323 207.213 87.0344C207.39 86.8365 207.478 86.5813 207.478 86.2688C207.478 85.8834 207.327 85.5865 207.025 85.3782C206.734 85.1594 206.348 84.9928 205.869 84.8782C205.4 84.7636 204.9 84.649 204.369 84.5344C203.838 84.4198 203.338 84.274 202.869 84.0969C202.4 83.9094 202.015 83.6542 201.713 83.3313C201.411 82.998 201.26 82.5448 201.26 81.9719C201.26 81.1282 201.567 80.4719 202.182 80.0032C202.807 79.5344 203.718 79.3 204.916 79.3C205.739 79.3 206.406 79.4303 206.916 79.6907C207.437 79.9407 207.833 80.2688 208.103 80.675C208.374 81.0709 208.531 81.498 208.572 81.9563H207.166C207.114 81.5605 206.916 81.2219 206.572 80.9407C206.228 80.649 205.666 80.5032 204.885 80.5032C203.406 80.5032 202.666 80.9511 202.666 81.8469C202.666 82.2219 202.812 82.5084 203.103 82.7063C203.406 82.9042 203.791 83.0657 204.26 83.1907C204.739 83.3053 205.239 83.4146 205.76 83.5188C206.291 83.623 206.791 83.7688 207.26 83.9563C207.739 84.1438 208.124 84.4094 208.416 84.7532C208.718 85.0865 208.869 85.5448 208.869 86.1282C208.869 87.0448 208.525 87.7428 207.838 88.2219C207.15 88.7011 206.228 88.9407 205.072 88.9407ZM214.611 88.9407C213.695 88.9407 212.898 88.7271 212.221 88.3C211.544 87.8625 211.018 87.2792 210.643 86.55C210.278 85.8105 210.096 84.998 210.096 84.1125C210.096 83.2271 210.278 82.4198 210.643 81.6907C211.018 80.9615 211.544 80.3834 212.221 79.9563C212.898 79.5188 213.695 79.3 214.611 79.3C215.382 79.3 216.044 79.4511 216.596 79.7532C217.148 80.0553 217.596 80.4615 217.94 80.9719V79.4563H219.346V88.7844H217.94V87.2844C217.596 87.7844 217.148 88.1855 216.596 88.4875C216.044 88.7896 215.382 88.9407 214.611 88.9407ZM214.783 87.6594C215.481 87.6594 216.07 87.498 216.549 87.175C217.028 86.8521 217.393 86.4198 217.643 85.8782C217.893 85.3365 218.018 84.748 218.018 84.1125C218.018 83.4667 217.893 82.8782 217.643 82.3469C217.393 81.8157 217.028 81.3886 216.549 81.0657C216.07 80.7428 215.481 80.5813 214.783 80.5813C214.106 80.5813 213.518 80.7428 213.018 81.0657C212.518 81.3886 212.137 81.8157 211.877 82.3469C211.617 82.8782 211.486 83.4667 211.486 84.1125C211.486 84.748 211.617 85.3365 211.877 85.8782C212.137 86.4198 212.518 86.8521 213.018 87.175C213.518 87.498 214.106 87.6594 214.783 87.6594ZM225.748 92.4719V79.4563H227.139V80.9563C227.493 80.4459 227.946 80.0448 228.498 79.7532C229.05 79.4511 229.712 79.3 230.483 79.3C231.389 79.3 232.18 79.5188 232.858 79.9563C233.535 80.3834 234.061 80.9615 234.436 81.6907C234.811 82.4198 234.998 83.2271 234.998 84.1125C234.998 84.998 234.811 85.8105 234.436 86.55C234.061 87.2792 233.535 87.8625 232.858 88.3C232.18 88.7271 231.389 88.9407 230.483 88.9407C229.712 88.9407 229.05 88.7896 228.498 88.4875C227.946 88.175 227.493 87.7688 227.139 87.2688V92.4719H225.748ZM230.295 87.6594C230.993 87.6594 231.587 87.498 232.076 87.175C232.566 86.8521 232.941 86.4198 233.201 85.8782C233.462 85.3365 233.592 84.748 233.592 84.1125C233.592 83.4667 233.462 82.8782 233.201 82.3469C232.941 81.8157 232.566 81.3886 232.076 81.0657C231.587 80.7428 230.993 80.5813 230.295 80.5813C229.608 80.5813 229.019 80.7428 228.529 81.0657C228.05 81.3886 227.686 81.8157 227.436 82.3469C227.186 82.8782 227.061 83.4667 227.061 84.1125C227.061 84.748 227.186 85.3365 227.436 85.8782C227.686 86.4198 228.05 86.8521 228.529 87.175C229.019 87.498 229.608 87.6594 230.295 87.6594ZM240.786 88.9407C239.869 88.9407 239.073 88.7271 238.396 88.3C237.718 87.8625 237.192 87.2792 236.817 86.55C236.453 85.8105 236.271 84.998 236.271 84.1125C236.271 83.2271 236.453 82.4198 236.817 81.6907C237.192 80.9615 237.718 80.3834 238.396 79.9563C239.073 79.5188 239.869 79.3 240.786 79.3C241.557 79.3 242.218 79.4511 242.771 79.7532C243.323 80.0553 243.771 80.4615 244.114 80.9719V79.4563H245.521V88.7844H244.114V87.2844C243.771 87.7844 243.323 88.1855 242.771 88.4875C242.218 88.7896 241.557 88.9407 240.786 88.9407ZM240.958 87.6594C241.656 87.6594 242.244 87.498 242.724 87.175C243.203 86.8521 243.567 86.4198 243.817 85.8782C244.067 85.3365 244.192 84.748 244.192 84.1125C244.192 83.4667 244.067 82.8782 243.817 82.3469C243.567 81.8157 243.203 81.3886 242.724 81.0657C242.244 80.7428 241.656 80.5813 240.958 80.5813C240.281 80.5813 239.692 80.7428 239.192 81.0657C238.692 81.3886 238.312 81.8157 238.052 82.3469C237.791 82.8782 237.661 83.4667 237.661 84.1125C237.661 84.748 237.791 85.3365 238.052 85.8782C238.312 86.4198 238.692 86.8521 239.192 87.175C239.692 87.498 240.281 87.6594 240.958 87.6594ZM246.933 90.8625L248.012 86.8782H249.84L248.199 90.8625H246.933ZM255.965 77.8938V76.0657H257.48V77.8938H255.965ZM256.027 88.7844V79.4563H257.418V88.7844H256.027ZM263.242 88.9407C262.388 88.9407 261.664 88.8 261.071 88.5188C260.477 88.2271 260.024 87.8469 259.711 87.3782C259.399 86.9094 259.227 86.4042 259.196 85.8625H260.649C260.69 86.1646 260.8 86.4667 260.977 86.7688C261.154 87.0605 261.43 87.2948 261.805 87.4719C262.18 87.649 262.664 87.7375 263.258 87.7375C263.446 87.7375 263.675 87.7219 263.946 87.6907C264.227 87.649 264.492 87.5813 264.742 87.4875C265.003 87.3834 265.216 87.2323 265.383 87.0344C265.56 86.8365 265.649 86.5813 265.649 86.2688C265.649 85.8834 265.498 85.5865 265.196 85.3782C264.904 85.1594 264.518 84.9928 264.039 84.8782C263.571 84.7636 263.071 84.649 262.539 84.5344C262.008 84.4198 261.508 84.274 261.039 84.0969C260.571 83.9094 260.185 83.6542 259.883 83.3313C259.581 82.998 259.43 82.5448 259.43 81.9719C259.43 81.1282 259.737 80.4719 260.352 80.0032C260.977 79.5344 261.888 79.3 263.086 79.3C263.909 79.3 264.576 79.4303 265.086 79.6907C265.607 79.9407 266.003 80.2688 266.274 80.675C266.544 81.0709 266.701 81.498 266.742 81.9563H265.336C265.284 81.5605 265.086 81.2219 264.742 80.9407C264.399 80.649 263.836 80.5032 263.055 80.5032C261.576 80.5032 260.836 80.9511 260.836 81.8469C260.836 82.2219 260.982 82.5084 261.274 82.7063C261.576 82.9042 261.961 83.0657 262.43 83.1907C262.909 83.3053 263.409 83.4146 263.93 83.5188C264.461 83.623 264.961 83.7688 265.43 83.9563C265.909 84.1438 266.294 84.4094 266.586 84.7532C266.888 85.0865 267.039 85.5448 267.039 86.1282C267.039 87.0448 266.696 87.7428 266.008 88.2219C265.321 88.7011 264.399 88.9407 263.242 88.9407ZM272.782 88.9407C271.865 88.9407 271.068 88.7271 270.391 88.3C269.714 87.8625 269.188 87.2792 268.813 86.55C268.448 85.8105 268.266 84.998 268.266 84.1125C268.266 83.2271 268.448 82.4198 268.813 81.6907C269.188 80.9615 269.714 80.3834 270.391 79.9563C271.068 79.5188 271.865 79.3 272.782 79.3C273.552 79.3 274.214 79.4511 274.766 79.7532C275.318 80.0553 275.766 80.4615 276.11 80.9719V79.4563H277.516V88.7844H276.11V87.2844C275.766 87.7844 275.318 88.1855 274.766 88.4875C274.214 88.7896 273.552 88.9407 272.782 88.9407ZM272.953 87.6594C273.651 87.6594 274.24 87.498 274.719 87.175C275.198 86.8521 275.563 86.4198 275.813 85.8782C276.063 85.3365 276.188 84.748 276.188 84.1125C276.188 83.4667 276.063 82.8782 275.813 82.3469C275.563 81.8157 275.198 81.3886 274.719 81.0657C274.24 80.7428 273.651 80.5813 272.953 80.5813C272.276 80.5813 271.688 80.7428 271.188 81.0657C270.688 81.3886 270.308 81.8157 270.047 82.3469C269.787 82.8782 269.657 83.4667 269.657 84.1125C269.657 84.748 269.787 85.3365 270.047 85.8782C270.308 86.4198 270.688 86.8521 271.188 87.175C271.688 87.498 272.276 87.6594 272.953 87.6594ZM283.918 92.4719V79.4563H285.309V80.9563C285.663 80.4459 286.116 80.0448 286.668 79.7532C287.22 79.4511 287.882 79.3 288.653 79.3C289.559 79.3 290.351 79.5188 291.028 79.9563C291.705 80.3834 292.231 80.9615 292.606 81.6907C292.981 82.4198 293.168 83.2271 293.168 84.1125C293.168 84.998 292.981 85.8105 292.606 86.55C292.231 87.2792 291.705 87.8625 291.028 88.3C290.351 88.7271 289.559 88.9407 288.653 88.9407C287.882 88.9407 287.22 88.7896 286.668 88.4875C286.116 88.175 285.663 87.7688 285.309 87.2688V92.4719H283.918ZM288.465 87.6594C289.163 87.6594 289.757 87.498 290.246 87.175C290.736 86.8521 291.111 86.4198 291.371 85.8782C291.632 85.3365 291.762 84.748 291.762 84.1125C291.762 83.4667 291.632 82.8782 291.371 82.3469C291.111 81.8157 290.736 81.3886 290.246 81.0657C289.757 80.7428 289.163 80.5813 288.465 80.5813C287.778 80.5813 287.189 80.7428 286.7 81.0657C286.22 81.3886 285.856 81.8157 285.606 82.3469C285.356 82.8782 285.231 83.4667 285.231 84.1125C285.231 84.748 285.356 85.3365 285.606 85.8782C285.856 86.4198 286.22 86.8521 286.7 87.175C287.189 87.498 287.778 87.6594 288.465 87.6594ZM298.956 88.9407C298.04 88.9407 297.243 88.7271 296.566 88.3C295.889 87.8625 295.363 87.2792 294.988 86.55C294.623 85.8105 294.441 84.998 294.441 84.1125C294.441 83.2271 294.623 82.4198 294.988 81.6907C295.363 80.9615 295.889 80.3834 296.566 79.9563C297.243 79.5188 298.04 79.3 298.956 79.3C299.727 79.3 300.389 79.4511 300.941 79.7532C301.493 80.0553 301.941 80.4615 302.284 80.9719V79.4563H303.691V88.7844H302.284V87.2844C301.941 87.7844 301.493 88.1855 300.941 88.4875C300.389 88.7896 299.727 88.9407 298.956 88.9407ZM299.128 87.6594C299.826 87.6594 300.415 87.498 300.894 87.175C301.373 86.8521 301.738 86.4198 301.988 85.8782C302.238 85.3365 302.363 84.748 302.363 84.1125C302.363 83.4667 302.238 82.8782 301.988 82.3469C301.738 81.8157 301.373 81.3886 300.894 81.0657C300.415 80.7428 299.826 80.5813 299.128 80.5813C298.451 80.5813 297.863 80.7428 297.363 81.0657C296.863 81.3886 296.482 81.8157 296.222 82.3469C295.962 82.8782 295.831 83.4667 295.831 84.1125C295.831 84.748 295.962 85.3365 296.222 85.8782C296.482 86.4198 296.863 86.8521 297.363 87.175C297.863 87.498 298.451 87.6594 299.128 87.6594ZM306.119 88.7844V79.4563H307.51V80.9094C307.843 80.4615 308.255 80.0813 308.744 79.7688C309.234 79.4563 309.854 79.3 310.604 79.3C311.25 79.3 311.854 79.4563 312.416 79.7688C312.989 80.0709 313.453 80.524 313.807 81.1282C314.161 81.7323 314.338 82.4771 314.338 83.3625V88.7844H312.947V83.3938C312.947 82.55 312.703 81.873 312.213 81.3625C311.723 80.8417 311.093 80.5813 310.322 80.5813C309.802 80.5813 309.328 80.7011 308.901 80.9407C308.484 81.1698 308.145 81.498 307.885 81.925C307.635 82.3521 307.51 82.8469 307.51 83.4094V88.7844H306.119ZM320.944 92.6282C319.778 92.6282 318.825 92.373 318.085 91.8625C317.356 91.3625 316.861 90.7115 316.601 89.9094H318.147C318.335 90.3678 318.658 90.7219 319.116 90.9719C319.575 91.2323 320.158 91.3625 320.866 91.3625C321.939 91.3625 322.72 91.1073 323.21 90.5969C323.7 90.0969 323.944 89.3678 323.944 88.4094V87.1282C323.601 87.6178 323.153 88.0188 322.601 88.3313C322.049 88.6334 321.387 88.7844 320.616 88.7844C319.7 88.7844 318.903 88.5761 318.226 88.1594C317.549 87.7428 317.022 87.175 316.647 86.4563C316.283 85.7271 316.101 84.925 316.101 84.05C316.101 83.1542 316.283 82.3469 316.647 81.6282C317.022 80.9094 317.549 80.3417 318.226 79.925C318.903 79.5084 319.7 79.3 320.616 79.3C321.387 79.3 322.049 79.4511 322.601 79.7532C323.153 80.0448 323.601 80.4459 323.944 80.9563V79.4563H325.351V88.5032C325.351 89.8365 324.965 90.8573 324.194 91.5657C323.434 92.274 322.351 92.6282 320.944 92.6282V92.6282ZM320.788 87.5188C321.476 87.5188 322.059 87.3625 322.538 87.05C323.017 86.7375 323.382 86.3209 323.632 85.8C323.892 85.2688 324.022 84.6855 324.022 84.05C324.022 83.4042 323.892 82.8209 323.632 82.3C323.382 81.7688 323.017 81.3521 322.538 81.05C322.059 80.7375 321.476 80.5813 320.788 80.5813C320.111 80.5813 319.522 80.7375 319.022 81.05C318.522 81.3521 318.142 81.7688 317.882 82.3C317.621 82.8209 317.491 83.4042 317.491 84.05C317.491 84.6855 317.621 85.2688 317.882 85.8C318.142 86.3209 318.522 86.7375 319.022 87.05C319.522 87.3625 320.111 87.5188 320.788 87.5188ZM331.472 91.175V90.1438H340.8V91.175H331.472ZM342.665 91.175V90.1438H351.994V91.175H342.665ZM353.859 91.175V90.1438H363.187V91.175H353.859ZM365.053 91.175V90.1438H374.381V91.175H365.053ZM376.247 91.175V90.1438H385.575V91.175H376.247ZM387.441 91.175V90.1438H396.769V91.175H387.441ZM398.634 91.175V90.1438H407.962V91.175H398.634ZM409.828 91.175V90.1438H419.156V91.175H409.828ZM421.022 91.175V90.1438H430.35V91.175H421.022ZM432.216 91.175V90.1438H441.544V91.175H432.216ZM444.019 85.3625L443.659 76.4407H445.394L445.05 85.3625H444.019ZM443.628 88.7844V86.8782H445.441V88.7844H443.628ZM453.048 75.9407L451.407 79.9094H450.142L451.22 75.9407H453.048ZM450.251 75.9407L448.61 79.9094H447.345L448.423 75.9407H450.251Z" fill="black"/>
</svg>
