<svg width="351" height="208" viewBox="0 0 351 208" fill="none" xmlns="http://www.w3.org/2000/svg">
<path d="M38.4771 33.3442C37.0812 33.3442 35.9562 33.2349 35.1021 33.0161C34.2583 32.7869 33.6073 32.4692 33.1489 32.063C32.6906 31.6463 32.3781 31.1411 32.2114 30.5474C32.0552 29.9432 31.9406 29.2713 31.8677 28.5317C31.7948 27.6567 31.7375 26.5057 31.6958 25.0786C31.6541 23.6411 31.6333 22.1515 31.6333 20.6099C31.6333 19.8703 31.6385 19.0838 31.6489 18.2505C31.6698 17.4172 31.6854 16.5942 31.6958 15.7817C31.7062 14.9692 31.7218 14.2192 31.7427 13.5317C31.7739 12.8338 31.8156 12.2349 31.8677 11.7349C31.9406 10.964 32.0604 10.2661 32.2271 9.64111C32.4041 9.01611 32.7323 8.47965 33.2114 8.03174C33.701 7.58382 34.3885 7.24528 35.2739 7.01611C36.1593 6.77653 37.3364 6.65674 38.8052 6.65674C42.1385 6.65674 44.6333 7.27132 46.2896 8.50049C47.9458 9.72965 48.7739 11.4797 48.7739 13.7505C48.7739 14.9172 48.5187 16.0005 48.0083 17.0005C47.4979 17.9901 46.6177 18.7349 45.3677 19.2349C46.0656 19.3599 46.701 19.6203 47.2739 20.0161C47.8468 20.4119 48.3364 20.8911 48.7427 21.4536C49.1593 22.0161 49.4718 22.6411 49.6802 23.3286C49.8989 24.0057 50.0083 24.6932 50.0083 25.3911C50.0083 26.2869 49.8208 27.2036 49.4458 28.1411C49.0708 29.0682 48.4354 29.9172 47.5396 30.688C46.6437 31.4588 45.4562 32.0942 43.9771 32.5942C42.4979 33.0942 40.6646 33.3442 38.4771 33.3442ZM46.2739 25.2817C46.2739 24.3859 46.0656 23.6672 45.6489 23.1255C45.2427 22.5734 44.7166 22.1567 44.0708 21.8755C43.425 21.5838 42.701 21.3911 41.8989 21.2974C41.1073 21.1932 40.3104 21.1411 39.5083 21.1411C38.8937 21.1411 38.2479 21.1411 37.5708 21.1411C36.9041 21.1411 36.2843 21.1515 35.7114 21.1724C35.6802 21.6932 35.6541 22.2297 35.6333 22.7817C35.6125 23.3234 35.5916 23.839 35.5708 24.3286C35.5604 24.8182 35.5552 25.2453 35.5552 25.6099C35.5552 25.964 35.5552 26.214 35.5552 26.3599C35.5552 27.0369 35.6021 27.5994 35.6958 28.0474C35.8 28.4953 35.9875 28.8547 36.2583 29.1255C36.5396 29.3963 36.9354 29.589 37.4458 29.7036C37.9562 29.8182 38.6073 29.8755 39.3989 29.8755C41.5864 29.8755 43.2791 29.4901 44.4771 28.7192C45.675 27.9484 46.2739 26.8026 46.2739 25.2817ZM39.3677 10.2036C38.5448 10.2036 37.8781 10.2713 37.3677 10.4067C36.8573 10.5422 36.4718 10.7244 36.2114 10.9536C35.951 11.1724 35.7739 11.4432 35.6802 11.7661C35.5968 12.089 35.5552 12.438 35.5552 12.813V18.0474C35.9093 18.0682 36.2791 18.0786 36.6646 18.0786C37.05 18.0786 37.4146 18.0786 37.7583 18.0786C38.6541 18.0786 39.5291 18.0161 40.3833 17.8911C41.2479 17.7661 42.0291 17.5578 42.7271 17.2661C43.425 16.964 43.9823 16.5526 44.3989 16.0317C44.826 15.5005 45.0396 14.8234 45.0396 14.0005C45.0396 12.8859 44.5864 11.9744 43.6802 11.2661C42.7739 10.5578 41.3364 10.2036 39.3677 10.2036ZM63.374 33.7192C61.874 33.7192 60.4677 33.4224 59.1552 32.8286C57.8531 32.2244 56.7177 31.3599 55.749 30.2349C54.7802 29.0994 54.0146 27.7088 53.4521 26.063C52.9 24.4172 52.624 22.5526 52.624 20.4692C52.624 18.5005 52.8635 16.6984 53.3427 15.063C53.8323 13.4172 54.5563 11.9953 55.5146 10.7974C56.4729 9.59945 57.6604 8.67236 59.0771 8.01611C60.4938 7.35986 62.1344 7.03174 63.999 7.03174C65.5198 7.03174 66.9625 7.30778 68.3271 7.85986C69.7021 8.40153 70.9052 9.21924 71.9365 10.313C72.9677 11.4067 73.7802 12.7765 74.374 14.4224C74.9781 16.0578 75.2802 17.9744 75.2802 20.1724C75.2802 21.9849 75.0354 23.714 74.5458 25.3599C74.0667 26.9953 73.3323 28.4328 72.3427 29.6724C71.3635 30.9015 70.124 31.8859 68.624 32.6255C67.1344 33.3547 65.3844 33.7192 63.374 33.7192ZM63.4365 30.2036C64.8115 30.2036 66.0094 29.9276 67.0302 29.3755C68.051 28.813 68.8948 28.0734 69.5615 27.1567C70.2385 26.2297 70.7385 25.1619 71.0615 23.9536C71.3844 22.7453 71.5458 21.5057 71.5458 20.2349C71.5458 18.6932 71.3375 17.3234 70.9208 16.1255C70.5146 14.9172 69.9625 13.9015 69.2646 13.0786C68.5667 12.2557 67.7542 11.6255 66.8271 11.188C65.9104 10.7505 64.9313 10.5317 63.8896 10.5317C62.65 10.5317 61.5615 10.7974 60.624 11.3286C59.6865 11.8494 58.9 12.5578 58.2646 13.4536C57.6396 14.3494 57.1604 15.4015 56.8271 16.6099C56.5042 17.8078 56.3427 19.0942 56.3427 20.4692C56.3427 21.938 56.5302 23.2765 56.9052 24.4849C57.2802 25.6828 57.7854 26.7088 58.4208 27.563C59.0563 28.4067 59.8063 29.0578 60.6708 29.5161C61.5458 29.9744 62.4677 30.2036 63.4365 30.2036ZM93.7841 31.5942C92.9924 30.5005 92.2424 29.4119 91.5341 28.3286C90.8258 27.2453 90.0653 26.0578 89.2528 24.7661C88.4403 23.464 87.5185 22.0265 86.4872 20.4536C85.456 18.8703 84.2216 17.0213 82.7841 14.9067C82.7841 16.7713 82.7841 18.4432 82.7841 19.9224C82.7841 21.4015 82.7685 22.7765 82.7372 24.0474C82.7164 25.3182 82.6903 26.5161 82.6591 27.6411C82.6383 28.7557 82.6018 29.8703 82.5497 30.9849C82.5289 31.589 82.4716 32.0526 82.3778 32.3755C82.2945 32.6984 82.1799 32.9484 82.0341 33.1255C81.8883 33.2922 81.7216 33.3963 81.5341 33.438C81.3466 33.4797 81.1278 33.5005 80.8778 33.5005C80.4299 33.5005 80.0549 33.3442 79.7528 33.0317C79.4508 32.7192 79.2789 32.0526 79.2372 31.0317C79.1122 28.2922 79.0393 25.5474 79.0185 22.7974C79.008 20.0474 79.0028 17.2036 79.0028 14.2661C79.0028 12.5994 79.0237 11.2974 79.0653 10.3599C79.107 9.41195 79.1955 8.70361 79.331 8.23486C79.4664 7.7557 79.6487 7.45361 79.8778 7.32861C80.1174 7.20361 80.4351 7.14111 80.831 7.14111C81.2372 7.14111 81.7633 7.4484 82.4091 8.06299C83.0549 8.66715 83.7633 9.46924 84.5341 10.4692C85.3049 11.4588 86.133 12.6047 87.0185 13.9067C87.9039 15.1984 88.7789 16.5265 89.6435 17.8911C90.5185 19.2557 91.357 20.6099 92.1591 21.9536C92.9716 23.2974 93.7164 24.5161 94.3935 25.6099C94.3622 24.4432 94.3466 23.1567 94.3466 21.7505C94.3466 20.3442 94.3466 18.7817 94.3466 17.063C94.3466 15.1047 94.357 13.4849 94.3778 12.2036C94.4091 10.9224 94.482 9.90674 94.5966 9.15674C94.7112 8.40674 94.8883 7.8859 95.1278 7.59424C95.3778 7.29215 95.7268 7.14111 96.1747 7.14111C96.6018 7.14111 96.9768 7.27653 97.2997 7.54736C97.6226 7.8182 97.8101 8.45361 97.8622 9.45361C97.9143 10.3494 97.9508 11.1463 97.9716 11.8442C97.9924 12.5422 98.0133 13.2349 98.0341 13.9224C98.0653 14.5994 98.081 15.3078 98.081 16.0474C98.081 16.7765 98.081 17.6047 98.081 18.5317C98.081 19.6463 98.081 20.714 98.081 21.7349C98.081 22.7557 98.0653 23.7661 98.0341 24.7661C98.0133 25.7557 97.9924 26.7609 97.9716 27.7817C97.9508 28.8026 97.9143 29.8703 97.8622 30.9849C97.831 31.589 97.7737 32.0526 97.6903 32.3755C97.607 32.6984 97.4872 32.9484 97.331 33.1255C97.1851 33.2922 97.0185 33.3963 96.831 33.438C96.6435 33.4797 96.4247 33.5005 96.1747 33.5005C95.758 33.5005 95.3987 33.3755 95.0966 33.1255C94.7945 32.8755 94.357 32.3651 93.7841 31.5942ZM111.557 33.9849C108.724 33.9849 106.646 33.2088 105.323 31.6567C104.802 31.063 104.359 30.3026 103.994 29.3755C103.64 28.438 103.354 27.2244 103.135 25.7349C102.927 24.2349 102.776 22.3859 102.682 20.188C102.599 17.9797 102.557 15.2974 102.557 12.1411C102.557 11.1203 102.583 10.2817 102.635 9.62549C102.687 8.95882 102.786 8.43278 102.932 8.04736C103.088 7.66195 103.281 7.39632 103.51 7.25049C103.75 7.10465 104.057 7.03174 104.432 7.03174C105.151 7.03174 105.656 7.35465 105.948 8.00049C106.25 8.64632 106.401 9.76611 106.401 11.3599C106.401 11.9015 106.396 12.3859 106.385 12.813C106.375 13.2401 106.369 13.6724 106.369 14.1099C106.369 14.5369 106.364 15.0161 106.354 15.5474C106.343 16.0682 106.338 16.6984 106.338 17.438C106.338 19.9276 106.416 21.9953 106.573 23.6411C106.739 25.2869 107.021 26.5994 107.416 27.5786C107.812 28.5578 108.354 29.2505 109.041 29.6567C109.729 30.0526 110.578 30.2505 111.588 30.2505C112.661 30.2505 113.552 30.0317 114.26 29.5942C114.968 29.1567 115.536 28.4224 115.963 27.3911C116.39 26.3599 116.692 24.9849 116.869 23.2661C117.057 21.5474 117.151 19.4067 117.151 16.8442C117.151 15.7297 117.146 14.7765 117.135 13.9849C117.125 13.1828 117.119 12.4588 117.119 11.813C117.119 10.8859 117.151 10.1151 117.213 9.50049C117.276 8.87549 117.375 8.3807 117.51 8.01611C117.646 7.65153 117.838 7.39632 118.088 7.25049C118.338 7.10465 118.651 7.03174 119.026 7.03174C119.401 7.03174 119.713 7.10465 119.963 7.25049C120.213 7.39632 120.411 7.65674 120.557 8.03174C120.703 8.40674 120.802 8.92757 120.854 9.59424C120.906 10.2505 120.932 11.0994 120.932 12.1411C120.932 16.5265 120.791 20.1307 120.51 22.9536C120.239 25.7765 119.755 28.0057 119.057 29.6411C118.359 31.2661 117.406 32.3963 116.198 33.0317C115 33.6672 113.453 33.9849 111.557 33.9849ZM133.391 6.98486C134.089 6.98486 134.891 7.04215 135.797 7.15674C136.714 7.27132 137.568 7.47445 138.36 7.76611C139.152 8.04736 139.824 8.41715 140.376 8.87549C140.928 9.33382 141.204 9.90153 141.204 10.5786C141.204 10.9744 141.089 11.3078 140.86 11.5786C140.641 11.8494 140.282 11.9849 139.782 11.9849C139.407 11.9849 139.027 11.9119 138.641 11.7661C138.256 11.6203 137.818 11.4692 137.329 11.313C136.85 11.1463 136.292 10.9901 135.657 10.8442C135.021 10.688 134.282 10.6099 133.438 10.6099C131.792 10.6099 130.574 10.9015 129.782 11.4849C129.001 12.0682 128.61 12.8703 128.61 13.8911C128.61 14.589 128.782 15.1776 129.126 15.6567C129.48 16.1255 129.949 16.5317 130.532 16.8755C131.126 17.2088 131.787 17.4901 132.516 17.7192C133.256 17.938 134.011 18.1463 134.782 18.3442C135.646 18.563 136.506 18.8338 137.36 19.1567C138.225 19.4797 138.99 19.9067 139.657 20.438C140.334 20.9588 140.876 21.6151 141.282 22.4067C141.699 23.1984 141.907 24.2088 141.907 25.438C141.907 26.6984 141.667 27.8338 141.188 28.8442C140.719 29.8547 140.074 30.714 139.251 31.4224C138.428 32.1307 137.443 32.6776 136.297 33.063C135.162 33.4484 133.922 33.6411 132.579 33.6411C131.829 33.6411 130.954 33.5734 129.954 33.438C128.964 33.3026 128.021 33.0682 127.126 32.7349C126.23 32.3911 125.469 31.9432 124.844 31.3911C124.219 30.8286 123.907 30.1359 123.907 29.313C123.907 28.813 124.037 28.4172 124.297 28.1255C124.568 27.8234 124.964 27.6724 125.485 27.6724C125.902 27.6724 126.245 27.7557 126.516 27.9224C126.797 28.0786 127.037 28.2557 127.235 28.4536C127.985 29.0994 128.829 29.5369 129.766 29.7661C130.714 29.9849 131.688 30.0942 132.688 30.0942C133.261 30.0942 133.865 30.0526 134.501 29.9692C135.136 29.8755 135.714 29.6932 136.235 29.4224C136.756 29.1515 137.188 28.7609 137.532 28.2505C137.886 27.7401 138.063 27.0474 138.063 26.1724C138.063 25.3807 137.907 24.7297 137.594 24.2192C137.282 23.7088 136.865 23.2817 136.344 22.938C135.824 22.5838 135.209 22.2974 134.501 22.0786C133.792 21.8494 133.027 21.6255 132.204 21.4067C131.277 21.1567 130.365 20.8807 129.469 20.5786C128.574 20.2765 127.777 19.8703 127.079 19.3599C126.391 18.8494 125.829 18.2036 125.391 17.4224C124.954 16.6411 124.735 15.6411 124.735 14.4224C124.735 13.2036 124.959 12.1359 125.407 11.2192C125.855 10.2922 126.464 9.51611 127.235 8.89111C128.006 8.26611 128.917 7.79215 129.969 7.46924C131.032 7.14632 132.172 6.98486 133.391 6.98486ZM163.824 33.7192C162.324 33.7192 160.918 33.4224 159.605 32.8286C158.303 32.2244 157.168 31.3599 156.199 30.2349C155.23 29.0994 154.465 27.7088 153.902 26.063C153.35 24.4172 153.074 22.5526 153.074 20.4692C153.074 18.5005 153.314 16.6984 153.793 15.063C154.282 13.4172 155.006 11.9953 155.965 10.7974C156.923 9.59945 158.111 8.67236 159.527 8.01611C160.944 7.35986 162.585 7.03174 164.449 7.03174C165.97 7.03174 167.413 7.30778 168.777 7.85986C170.152 8.40153 171.355 9.21924 172.387 10.313C173.418 11.4067 174.23 12.7765 174.824 14.4224C175.428 16.0578 175.73 17.9744 175.73 20.1724C175.73 21.964 175.496 23.6567 175.027 25.2505C174.569 26.8338 173.871 28.2505 172.933 29.5005L175.058 31.2505C175.329 31.4797 175.579 31.7609 175.808 32.0942C176.048 32.4276 176.168 32.8078 176.168 33.2349C176.168 33.7349 175.97 34.1307 175.574 34.4224C175.178 34.7244 174.704 34.8755 174.152 34.8755C173.454 34.8755 172.72 34.5265 171.949 33.8286L170.012 32.1567C169.168 32.6463 168.236 33.0317 167.215 33.313C166.194 33.5838 165.064 33.7192 163.824 33.7192ZM163.887 30.2036C165.262 30.2036 166.46 29.9276 167.48 29.3755C168.501 28.813 169.345 28.0734 170.012 27.1567C170.689 26.2297 171.189 25.1619 171.512 23.9536C171.835 22.7453 171.996 21.5057 171.996 20.2349C171.996 18.6932 171.788 17.3234 171.371 16.1255C170.965 14.9172 170.413 13.9015 169.715 13.0786C169.017 12.2557 168.204 11.6255 167.277 11.188C166.361 10.7505 165.381 10.5317 164.34 10.5317C163.1 10.5317 162.012 10.7974 161.074 11.3286C160.137 11.8494 159.35 12.5578 158.715 13.4536C158.09 14.3494 157.611 15.4015 157.277 16.6099C156.954 17.8078 156.793 19.0942 156.793 20.4692C156.793 21.938 156.98 23.2765 157.355 24.4849C157.73 25.6828 158.236 26.7088 158.871 27.563C159.506 28.4067 160.256 29.0578 161.121 29.5161C161.996 29.9744 162.918 30.2036 163.887 30.2036ZM188.453 33.9849C185.62 33.9849 183.542 33.2088 182.219 31.6567C181.698 31.063 181.255 30.3026 180.89 29.3755C180.536 28.438 180.25 27.2244 180.031 25.7349C179.823 24.2349 179.672 22.3859 179.578 20.188C179.495 17.9797 179.453 15.2974 179.453 12.1411C179.453 11.1203 179.479 10.2817 179.531 9.62549C179.583 8.95882 179.682 8.43278 179.828 8.04736C179.984 7.66195 180.177 7.39632 180.406 7.25049C180.646 7.10465 180.953 7.03174 181.328 7.03174C182.047 7.03174 182.552 7.35465 182.844 8.00049C183.146 8.64632 183.297 9.76611 183.297 11.3599C183.297 11.9015 183.292 12.3859 183.281 12.813C183.271 13.2401 183.265 13.6724 183.265 14.1099C183.265 14.5369 183.26 15.0161 183.25 15.5474C183.239 16.0682 183.234 16.6984 183.234 17.438C183.234 19.9276 183.312 21.9953 183.469 23.6411C183.635 25.2869 183.917 26.5994 184.312 27.5786C184.708 28.5578 185.25 29.2505 185.937 29.6567C186.625 30.0526 187.474 30.2505 188.484 30.2505C189.557 30.2505 190.448 30.0317 191.156 29.5942C191.864 29.1567 192.432 28.4224 192.859 27.3911C193.286 26.3599 193.588 24.9849 193.765 23.2661C193.953 21.5474 194.047 19.4067 194.047 16.8442C194.047 15.7297 194.042 14.7765 194.031 13.9849C194.021 13.1828 194.015 12.4588 194.015 11.813C194.015 10.8859 194.047 10.1151 194.109 9.50049C194.172 8.87549 194.271 8.3807 194.406 8.01611C194.542 7.65153 194.734 7.39632 194.984 7.25049C195.234 7.10465 195.547 7.03174 195.922 7.03174C196.297 7.03174 196.609 7.10465 196.859 7.25049C197.109 7.39632 197.307 7.65674 197.453 8.03174C197.599 8.40674 197.698 8.92757 197.75 9.59424C197.802 10.2505 197.828 11.0994 197.828 12.1411C197.828 16.5265 197.687 20.1307 197.406 22.9536C197.135 25.7765 196.651 28.0057 195.953 29.6411C195.255 31.2661 194.302 32.3963 193.094 33.0317C191.896 33.6672 190.349 33.9849 188.453 33.9849ZM202.532 27.6724C202.48 26.8703 202.428 25.7869 202.376 24.4224C202.324 23.0578 202.298 21.6515 202.298 20.2036C202.298 19.3807 202.303 18.5317 202.313 17.6567C202.334 16.7713 202.355 15.8651 202.376 14.938C202.428 13.0942 202.548 11.6515 202.735 10.6099C202.923 9.5682 203.293 8.78695 203.845 8.26611C204.407 7.73486 205.199 7.41195 206.22 7.29736C207.241 7.17236 208.6 7.10986 210.298 7.10986C210.319 7.10986 210.584 7.10986 211.095 7.10986C211.605 7.10986 212.22 7.11507 212.938 7.12549C213.657 7.1359 214.407 7.15674 215.188 7.18799C215.98 7.20882 216.636 7.22965 217.157 7.25049C217.709 7.30257 218.152 7.37549 218.485 7.46924C218.819 7.55257 219.074 7.66195 219.251 7.79736C219.428 7.93278 219.537 8.09424 219.579 8.28174C219.631 8.46924 219.657 8.67236 219.657 8.89111C219.657 9.46403 219.496 9.8807 219.173 10.1411C218.85 10.4015 218.194 10.5682 217.204 10.6411C216.704 10.6932 215.975 10.7297 215.017 10.7505C214.058 10.7609 213.079 10.7661 212.079 10.7661C211.09 10.7661 210.194 10.7713 209.392 10.7817C208.6 10.7922 208.105 10.7974 207.907 10.7974C207.261 10.8182 206.803 10.964 206.532 11.2349C206.272 11.4953 206.142 12.1099 206.142 13.0786C206.142 13.2974 206.162 13.839 206.204 14.7036C206.246 15.5578 206.267 16.7557 206.267 18.2974H209.36C210.673 18.2974 211.746 18.3182 212.579 18.3599C213.423 18.3911 214.074 18.4692 214.532 18.5942C214.991 18.7192 215.303 18.9224 215.47 19.2036C215.647 19.4744 215.735 19.8338 215.735 20.2817C215.735 20.5005 215.715 20.7036 215.673 20.8911C215.642 21.0786 215.537 21.2401 215.36 21.3755C215.194 21.5109 214.949 21.6255 214.626 21.7192C214.303 21.8026 213.84 21.8703 213.235 21.9224C212.517 21.9744 211.84 22.0057 211.204 22.0161C210.569 22.0265 209.938 22.0317 209.313 22.0317H206.188C206.188 22.4067 206.188 22.8547 206.188 23.3755C206.188 23.8963 206.188 24.4328 206.188 24.9849C206.188 25.5265 206.194 26.063 206.204 26.5942C206.215 27.1151 206.235 27.5369 206.267 27.8599C206.287 28.2557 206.34 28.5942 206.423 28.8755C206.517 29.1463 206.678 29.3703 206.907 29.5474C207.147 29.714 207.496 29.8338 207.954 29.9067C208.412 29.9797 209.032 30.0161 209.813 30.0161H217.829C218.704 30.0161 219.251 30.1776 219.47 30.5005C219.699 30.8234 219.813 31.2609 219.813 31.813C219.813 32.2609 219.715 32.6047 219.517 32.8442C219.319 33.0734 218.84 33.2453 218.079 33.3599C217.319 33.4744 216.183 33.5422 214.673 33.563C213.173 33.5942 211.105 33.6099 208.47 33.6099C207.345 33.6099 206.418 33.5109 205.688 33.313C204.97 33.1047 204.386 32.7661 203.938 32.2974C203.491 31.8286 203.162 31.214 202.954 30.4536C202.746 29.6932 202.605 28.7661 202.532 27.6724ZM231.9 6.98486C232.598 6.98486 233.4 7.04215 234.307 7.15674C235.223 7.27132 236.077 7.47445 236.869 7.76611C237.661 8.04736 238.333 8.41715 238.885 8.87549C239.437 9.33382 239.713 9.90153 239.713 10.5786C239.713 10.9744 239.598 11.3078 239.369 11.5786C239.15 11.8494 238.791 11.9849 238.291 11.9849C237.916 11.9849 237.536 11.9119 237.15 11.7661C236.765 11.6203 236.327 11.4692 235.838 11.313C235.359 11.1463 234.801 10.9901 234.166 10.8442C233.531 10.688 232.791 10.6099 231.947 10.6099C230.301 10.6099 229.083 10.9015 228.291 11.4849C227.51 12.0682 227.119 12.8703 227.119 13.8911C227.119 14.589 227.291 15.1776 227.635 15.6567C227.989 16.1255 228.458 16.5317 229.041 16.8755C229.635 17.2088 230.296 17.4901 231.025 17.7192C231.765 17.938 232.52 18.1463 233.291 18.3442C234.156 18.563 235.015 18.8338 235.869 19.1567C236.734 19.4797 237.499 19.9067 238.166 20.438C238.843 20.9588 239.385 21.6151 239.791 22.4067C240.208 23.1984 240.416 24.2088 240.416 25.438C240.416 26.6984 240.176 27.8338 239.697 28.8442C239.229 29.8547 238.583 30.714 237.76 31.4224C236.937 32.1307 235.952 32.6776 234.807 33.063C233.671 33.4484 232.432 33.6411 231.088 33.6411C230.338 33.6411 229.463 33.5734 228.463 33.438C227.473 33.3026 226.531 33.0682 225.635 32.7349C224.739 32.3911 223.979 31.9432 223.354 31.3911C222.729 30.8286 222.416 30.1359 222.416 29.313C222.416 28.813 222.546 28.4172 222.807 28.1255C223.077 27.8234 223.473 27.6724 223.994 27.6724C224.411 27.6724 224.755 27.7557 225.025 27.9224C225.307 28.0786 225.546 28.2557 225.744 28.4536C226.494 29.0994 227.338 29.5369 228.275 29.7661C229.223 29.9849 230.197 30.0942 231.197 30.0942C231.77 30.0942 232.374 30.0526 233.01 29.9692C233.645 29.8755 234.223 29.6932 234.744 29.4224C235.265 29.1515 235.697 28.7609 236.041 28.2505C236.395 27.7401 236.572 27.0474 236.572 26.1724C236.572 25.3807 236.416 24.7297 236.104 24.2192C235.791 23.7088 235.374 23.2817 234.854 22.938C234.333 22.5838 233.718 22.2974 233.01 22.0786C232.301 21.8494 231.536 21.6255 230.713 21.4067C229.786 21.1567 228.874 20.8807 227.979 20.5786C227.083 20.2765 226.286 19.8703 225.588 19.3599C224.9 18.8494 224.338 18.2036 223.9 17.4224C223.463 16.6411 223.244 15.6411 223.244 14.4224C223.244 13.2036 223.468 12.1359 223.916 11.2192C224.364 10.2922 224.973 9.51611 225.744 8.89111C226.515 8.26611 227.426 7.79215 228.479 7.46924C229.541 7.14632 230.682 6.98486 231.9 6.98486ZM259.047 10.6411C258.349 10.6932 257.605 10.7349 256.813 10.7661C256.032 10.7869 255.167 10.8078 254.219 10.8286C254.25 11.5057 254.276 12.1359 254.297 12.7192C254.329 13.3026 254.355 13.8963 254.375 14.5005C254.396 15.0942 254.412 15.714 254.422 16.3599C254.443 17.0057 254.454 17.7297 254.454 18.5317C254.454 19.6463 254.454 20.7192 254.454 21.7505C254.454 22.7817 254.438 23.8182 254.407 24.8599C254.386 25.8911 254.36 26.9276 254.329 27.9692C254.308 29.0109 254.271 30.0942 254.219 31.2192C254.198 31.813 254.141 32.2713 254.047 32.5942C253.964 32.9172 253.849 33.1672 253.704 33.3442C253.558 33.5213 253.381 33.6255 253.172 33.6567C252.974 33.6984 252.756 33.7192 252.516 33.7192C252.068 33.7192 251.688 33.563 251.375 33.2505C251.063 32.938 250.881 32.2713 250.829 31.2505C250.776 30.3547 250.745 29.4119 250.735 28.4224C250.724 27.4224 250.704 26.3494 250.672 25.2036C250.651 24.0578 250.641 22.8234 250.641 21.5005C250.641 20.1672 250.641 18.688 250.641 17.063C250.641 15.6984 250.646 14.5057 250.657 13.4849C250.678 12.464 250.709 11.5786 250.75 10.8286H249.219C248.178 10.8286 247.287 10.8182 246.547 10.7974C245.818 10.7765 245.214 10.7088 244.735 10.5942C244.266 10.4797 243.928 10.2974 243.719 10.0474C243.511 9.79736 243.407 9.4484 243.407 9.00049C243.407 8.78174 243.428 8.57861 243.469 8.39111C243.521 8.20361 243.636 8.03174 243.813 7.87549C243.99 7.70882 244.23 7.57861 244.532 7.48486C244.844 7.3807 245.25 7.30257 245.75 7.25049C246.23 7.22965 246.651 7.20882 247.016 7.18799C247.391 7.15674 247.766 7.1307 248.141 7.10986C248.516 7.07861 248.901 7.06299 249.297 7.06299C249.693 7.06299 250.157 7.06299 250.688 7.06299C252.146 7.06299 253.526 7.07861 254.829 7.10986C256.141 7.1307 257.532 7.17757 259 7.25049C259.605 7.30257 260.068 7.37549 260.391 7.46924C260.714 7.55257 260.959 7.66715 261.125 7.81299C261.303 7.95882 261.407 8.1307 261.438 8.32861C261.48 8.52653 261.5 8.75049 261.5 9.00049C261.5 9.4484 261.344 9.8234 261.032 10.1255C260.73 10.4276 260.068 10.5994 259.047 10.6411ZM265.422 31.0317C265.37 30.1359 265.339 29.2036 265.329 28.2349C265.318 27.2661 265.297 26.2244 265.266 25.1099C265.245 23.9849 265.235 22.7713 265.235 21.4692C265.235 20.1567 265.235 18.688 265.235 17.063C265.235 15.3026 265.245 13.7922 265.266 12.5317C265.297 11.2713 265.376 10.2453 265.501 9.45361C265.626 8.66195 265.818 8.07861 266.079 7.70361C266.339 7.32861 266.693 7.14111 267.141 7.14111C267.37 7.14111 267.584 7.16715 267.782 7.21924C267.98 7.2609 268.152 7.36507 268.297 7.53174C268.443 7.6984 268.573 7.93799 268.688 8.25049C268.803 8.55257 268.87 8.95361 268.891 9.45361C268.943 10.3494 268.98 11.1463 269.001 11.8442C269.032 12.5422 269.058 13.2349 269.079 13.9224C269.11 14.5994 269.126 15.3078 269.126 16.0474C269.126 16.7765 269.126 17.6047 269.126 18.5317C269.126 19.6463 269.126 20.714 269.126 21.7349C269.126 22.7557 269.11 23.7661 269.079 24.7661C269.058 25.7557 269.032 26.7609 269.001 27.7817C268.98 28.8026 268.943 29.8703 268.891 30.9849C268.87 31.589 268.808 32.0526 268.704 32.3755C268.61 32.6984 268.485 32.9484 268.329 33.1255C268.183 33.2922 268.011 33.3963 267.813 33.438C267.615 33.4797 267.391 33.5005 267.141 33.5005C266.693 33.5005 266.308 33.3442 265.985 33.0317C265.662 32.7192 265.475 32.0526 265.422 31.0317ZM283.984 33.7192C282.484 33.7192 281.077 33.4224 279.765 32.8286C278.463 32.2244 277.327 31.3599 276.359 30.2349C275.39 29.0994 274.624 27.7088 274.062 26.063C273.51 24.4172 273.234 22.5526 273.234 20.4692C273.234 18.5005 273.473 16.6984 273.952 15.063C274.442 13.4172 275.166 11.9953 276.124 10.7974C277.083 9.59945 278.27 8.67236 279.687 8.01611C281.103 7.35986 282.744 7.03174 284.609 7.03174C286.129 7.03174 287.572 7.30778 288.937 7.85986C290.312 8.40153 291.515 9.21924 292.546 10.313C293.577 11.4067 294.39 12.7765 294.984 14.4224C295.588 16.0578 295.89 17.9744 295.89 20.1724C295.89 21.9849 295.645 23.714 295.156 25.3599C294.676 26.9953 293.942 28.4328 292.952 29.6724C291.973 30.9015 290.734 31.8859 289.234 32.6255C287.744 33.3547 285.994 33.7192 283.984 33.7192ZM284.046 30.2036C285.421 30.2036 286.619 29.9276 287.64 29.3755C288.661 28.813 289.504 28.0734 290.171 27.1567C290.848 26.2297 291.348 25.1619 291.671 23.9536C291.994 22.7453 292.156 21.5057 292.156 20.2349C292.156 18.6932 291.947 17.3234 291.531 16.1255C291.124 14.9172 290.572 13.9015 289.874 13.0786C289.176 12.2557 288.364 11.6255 287.437 11.188C286.52 10.7505 285.541 10.5317 284.499 10.5317C283.26 10.5317 282.171 10.7974 281.234 11.3286C280.296 11.8494 279.51 12.5578 278.874 13.4536C278.249 14.3494 277.77 15.4015 277.437 16.6099C277.114 17.8078 276.952 19.0942 276.952 20.4692C276.952 21.938 277.14 23.2765 277.515 24.4849C277.89 25.6828 278.395 26.7088 279.031 27.563C279.666 28.4067 280.416 29.0578 281.281 29.5161C282.156 29.9744 283.077 30.2036 284.046 30.2036ZM314.394 31.5942C313.602 30.5005 312.852 29.4119 312.144 28.3286C311.435 27.2453 310.675 26.0578 309.863 24.7661C309.05 23.464 308.128 22.0265 307.097 20.4536C306.066 18.8703 304.831 17.0213 303.394 14.9067C303.394 16.7713 303.394 18.4432 303.394 19.9224C303.394 21.4015 303.378 22.7765 303.347 24.0474C303.326 25.3182 303.3 26.5161 303.269 27.6411C303.248 28.7557 303.212 29.8703 303.159 30.9849C303.139 31.589 303.081 32.0526 302.988 32.3755C302.904 32.6984 302.79 32.9484 302.644 33.1255C302.498 33.2922 302.331 33.3963 302.144 33.438C301.956 33.4797 301.738 33.5005 301.488 33.5005C301.04 33.5005 300.665 33.3442 300.363 33.0317C300.06 32.7192 299.889 32.0526 299.847 31.0317C299.722 28.2922 299.649 25.5474 299.628 22.7974C299.618 20.0474 299.613 17.2036 299.613 14.2661C299.613 12.5994 299.633 11.2974 299.675 10.3599C299.717 9.41195 299.805 8.70361 299.941 8.23486C300.076 7.7557 300.258 7.45361 300.488 7.32861C300.727 7.20361 301.045 7.14111 301.441 7.14111C301.847 7.14111 302.373 7.4484 303.019 8.06299C303.665 8.66715 304.373 9.46924 305.144 10.4692C305.915 11.4588 306.743 12.6047 307.628 13.9067C308.514 15.1984 309.389 16.5265 310.253 17.8911C311.128 19.2557 311.967 20.6099 312.769 21.9536C313.581 23.2974 314.326 24.5161 315.003 25.6099C314.972 24.4432 314.956 23.1567 314.956 21.7505C314.956 20.3442 314.956 18.7817 314.956 17.063C314.956 15.1047 314.967 13.4849 314.988 12.2036C315.019 10.9224 315.092 9.90674 315.206 9.15674C315.321 8.40674 315.498 7.8859 315.738 7.59424C315.988 7.29215 316.337 7.14111 316.784 7.14111C317.212 7.14111 317.587 7.27653 317.909 7.54736C318.232 7.8182 318.42 8.45361 318.472 9.45361C318.524 10.3494 318.56 11.1463 318.581 11.8442C318.602 12.5422 318.623 13.2349 318.644 13.9224C318.675 14.5994 318.691 15.3078 318.691 16.0474C318.691 16.7765 318.691 17.6047 318.691 18.5317C318.691 19.6463 318.691 20.714 318.691 21.7349C318.691 22.7557 318.675 23.7661 318.644 24.7661C318.623 25.7557 318.602 26.7609 318.581 27.7817C318.56 28.8026 318.524 29.8703 318.472 30.9849C318.441 31.589 318.383 32.0526 318.3 32.3755C318.217 32.6984 318.097 32.9484 317.941 33.1255C317.795 33.2922 317.628 33.3963 317.441 33.438C317.253 33.4797 317.034 33.5005 316.784 33.5005C316.368 33.5005 316.008 33.3755 315.706 33.1255C315.404 32.8755 314.967 32.3651 314.394 31.5942Z" fill="#3D7E81"/>
<path d="M97.3745 59.313C97.5203 58.9588 97.7495 58.6724 98.062 58.4536C98.3745 58.2244 98.7026 58.1099 99.0464 58.1099C99.3693 58.1099 99.6818 58.2192 99.9839 58.438C100.286 58.6463 100.526 58.9224 100.703 59.2661C101.64 61.214 102.567 63.313 103.484 65.563C104.411 67.813 105.25 69.9432 106 71.9536C106.416 68.8703 106.875 65.7609 107.375 62.6255C107.875 59.4901 108.437 56.4901 109.062 53.6255C109.135 53.3026 109.244 53.0369 109.39 52.8286C109.546 52.6203 109.708 52.4588 109.875 52.3442C110.052 52.2297 110.234 52.1515 110.421 52.1099C110.609 52.0578 110.765 52.0317 110.89 52.0317C111.307 52.0317 111.651 52.1515 111.921 52.3911C112.203 52.6203 112.343 52.9328 112.343 53.3286C112.343 53.7765 112.265 54.5682 112.109 55.7036C111.963 56.839 111.765 58.1619 111.515 59.6724C111.265 61.1724 110.984 62.7713 110.671 64.4692C110.369 66.1567 110.067 67.7869 109.765 69.3599C109.463 70.9224 109.177 72.3494 108.906 73.6411C108.635 74.9328 108.411 75.9172 108.234 76.5942C108.088 77.1672 107.864 77.5994 107.562 77.8911C107.26 78.1724 106.828 78.313 106.265 78.313C105.661 78.313 105.151 78.0474 104.734 77.5161C104.328 76.9744 103.88 76.1307 103.39 74.9849C102.911 73.839 102.333 72.3755 101.656 70.5942C100.989 68.813 100.119 66.6828 99.0464 64.2036C97.9526 66.6828 97.062 68.8182 96.3745 70.6099C95.6974 72.4015 95.1141 73.8703 94.6245 75.0161C94.1453 76.1619 93.6922 77.0057 93.2651 77.5474C92.8485 78.0786 92.3537 78.3442 91.7808 78.3442C90.7808 78.3442 90.1193 77.7713 89.7964 76.6255C89.5985 75.9588 89.3589 74.9849 89.0776 73.7036C88.8068 72.4224 88.5256 71.0005 88.2339 69.438C87.9526 67.8651 87.661 66.2401 87.3589 64.563C87.0672 62.8755 86.8068 61.2869 86.5776 59.7974C86.3589 58.2974 86.1818 56.9849 86.0464 55.8599C85.911 54.7244 85.8433 53.9328 85.8433 53.4849C85.8433 53.0578 85.9787 52.7088 86.2495 52.438C86.5203 52.1672 86.9058 52.0317 87.4058 52.0317C87.7599 52.0317 88.0985 52.1359 88.4214 52.3442C88.7443 52.5526 88.9787 52.9797 89.1245 53.6255C89.7183 56.4901 90.2443 59.4901 90.7026 62.6255C91.1714 65.7609 91.6662 68.8703 92.187 71.9536C92.9578 70.1411 93.7287 68.214 94.4995 66.1724C95.2703 64.1307 96.2287 61.8442 97.3745 59.313ZM116.072 76.0317C116.02 75.1359 115.989 74.2036 115.978 73.2349C115.968 72.2661 115.947 71.2244 115.916 70.1099C115.895 68.9849 115.885 67.7713 115.885 66.4692C115.885 65.1567 115.885 63.688 115.885 62.063C115.885 60.3026 115.895 58.7922 115.916 57.5317C115.947 56.2713 116.025 55.2453 116.15 54.4536C116.275 53.6619 116.468 53.0786 116.728 52.7036C116.989 52.3286 117.343 52.1411 117.791 52.1411C118.02 52.1411 118.234 52.1672 118.431 52.2192C118.629 52.2609 118.801 52.3651 118.947 52.5317C119.093 52.6984 119.223 52.938 119.338 53.2505C119.452 53.5526 119.52 53.9536 119.541 54.4536C119.593 55.3494 119.629 56.1463 119.65 56.8442C119.681 57.5422 119.708 58.2349 119.728 58.9224C119.76 59.5994 119.775 60.3078 119.775 61.0474C119.775 61.7765 119.775 62.6047 119.775 63.5317C119.775 64.6463 119.775 65.714 119.775 66.7349C119.775 67.7557 119.76 68.7661 119.728 69.7661C119.708 70.7557 119.681 71.7609 119.65 72.7817C119.629 73.8026 119.593 74.8703 119.541 75.9849C119.52 76.589 119.458 77.0526 119.353 77.3755C119.26 77.6984 119.135 77.9484 118.978 78.1255C118.833 78.2922 118.661 78.3963 118.463 78.438C118.265 78.4797 118.041 78.5005 117.791 78.5005C117.343 78.5005 116.958 78.3442 116.635 78.0317C116.312 77.7192 116.124 77.0526 116.072 76.0317ZM138.776 55.6411C138.078 55.6932 137.333 55.7349 136.541 55.7661C135.76 55.7869 134.895 55.8078 133.947 55.8286C133.979 56.5057 134.005 57.1359 134.026 57.7192C134.057 58.3026 134.083 58.8963 134.104 59.5005C134.125 60.0942 134.14 60.714 134.151 61.3599C134.171 62.0057 134.182 62.7297 134.182 63.5317C134.182 64.6463 134.182 65.7192 134.182 66.7505C134.182 67.7817 134.166 68.8182 134.135 69.8599C134.114 70.8911 134.088 71.9276 134.057 72.9692C134.036 74.0109 134 75.0942 133.947 76.2192C133.927 76.813 133.869 77.2713 133.776 77.5942C133.692 77.9172 133.578 78.1672 133.432 78.3442C133.286 78.5213 133.109 78.6255 132.901 78.6567C132.703 78.6984 132.484 78.7192 132.244 78.7192C131.796 78.7192 131.416 78.563 131.104 78.2505C130.791 77.938 130.609 77.2713 130.557 76.2505C130.505 75.3547 130.474 74.4119 130.463 73.4224C130.453 72.4224 130.432 71.3494 130.401 70.2036C130.38 69.0578 130.369 67.8234 130.369 66.5005C130.369 65.1672 130.369 63.688 130.369 62.063C130.369 60.6984 130.375 59.5057 130.385 58.4849C130.406 57.464 130.437 56.5786 130.479 55.8286H128.947C127.906 55.8286 127.015 55.8182 126.276 55.7974C125.546 55.7765 124.942 55.7088 124.463 55.5942C123.994 55.4797 123.656 55.2974 123.447 55.0474C123.239 54.7974 123.135 54.4484 123.135 54.0005C123.135 53.7817 123.156 53.5786 123.197 53.3911C123.25 53.2036 123.364 53.0317 123.541 52.8755C123.718 52.7088 123.958 52.5786 124.26 52.4849C124.572 52.3807 124.979 52.3026 125.479 52.2505C125.958 52.2297 126.38 52.2088 126.744 52.188C127.119 52.1567 127.494 52.1307 127.869 52.1099C128.244 52.0786 128.63 52.063 129.026 52.063C129.421 52.063 129.885 52.063 130.416 52.063C131.875 52.063 133.255 52.0786 134.557 52.1099C135.869 52.1307 137.26 52.1776 138.729 52.2505C139.333 52.3026 139.796 52.3755 140.119 52.4692C140.442 52.5526 140.687 52.6672 140.854 52.813C141.031 52.9588 141.135 53.1307 141.166 53.3286C141.208 53.5265 141.229 53.7505 141.229 54.0005C141.229 54.4484 141.072 54.8234 140.76 55.1255C140.458 55.4276 139.796 55.5994 138.776 55.6411ZM158.592 76.0317C158.539 74.688 158.493 73.2765 158.451 71.7974C158.42 70.3182 158.404 68.6047 158.404 66.6567C157.612 66.688 156.769 66.7088 155.873 66.7192C154.977 66.7297 154.055 66.7349 153.107 66.7349C151.982 66.7349 150.961 66.7349 150.045 66.7349C149.128 66.7349 148.305 66.7244 147.576 66.7036C147.555 68.2661 147.529 69.7765 147.498 71.2349C147.477 72.6932 147.43 74.2765 147.357 75.9849C147.336 76.589 147.279 77.0526 147.185 77.3755C147.102 77.6984 146.982 77.9484 146.826 78.1255C146.68 78.2922 146.513 78.3963 146.326 78.438C146.138 78.4797 145.92 78.5005 145.67 78.5005C145.222 78.5005 144.847 78.3442 144.545 78.0317C144.253 77.7192 144.081 77.0526 144.029 76.0317C143.987 75.1359 143.956 74.2036 143.935 73.2349C143.925 72.2661 143.904 71.2244 143.873 70.1099C143.852 68.9849 143.842 67.7713 143.842 66.4692C143.842 65.1567 143.842 63.688 143.842 62.063C143.842 60.3026 143.852 58.7922 143.873 57.5317C143.904 56.2713 143.977 55.2453 144.092 54.4536C144.206 53.6619 144.383 53.0786 144.623 52.7036C144.873 52.3286 145.222 52.1411 145.67 52.1411C146.097 52.1411 146.472 52.2765 146.795 52.5474C147.118 52.8182 147.305 53.4536 147.357 54.4536C147.409 55.2974 147.446 56.063 147.467 56.7505C147.487 57.438 147.508 58.1099 147.529 58.7661C147.56 59.4224 147.576 60.0994 147.576 60.7974C147.576 61.4953 147.576 62.2661 147.576 63.1099C149.441 63.0369 151.269 63.0005 153.06 63.0005C153.935 63.0005 154.816 63.0161 155.701 63.0474C156.586 63.0682 157.487 63.1047 158.404 63.1567V62.063C158.404 60.3026 158.414 58.7922 158.435 57.5317C158.467 56.2713 158.534 55.2453 158.638 54.4536C158.753 53.6619 158.935 53.0786 159.185 52.7036C159.435 52.3286 159.784 52.1411 160.232 52.1411C160.659 52.1411 161.034 52.2765 161.357 52.5474C161.68 52.8182 161.868 53.4536 161.92 54.4536C161.961 55.3494 161.993 56.1463 162.013 56.8442C162.045 57.5422 162.071 58.2349 162.092 58.9224C162.123 59.5994 162.138 60.3078 162.138 61.0474C162.138 61.7765 162.138 62.6047 162.138 63.5317C162.138 64.6463 162.138 65.714 162.138 66.7349C162.138 67.7557 162.123 68.7661 162.092 69.7661C162.071 70.7557 162.045 71.7609 162.013 72.7817C161.993 73.8026 161.961 74.8703 161.92 75.9849C161.888 76.589 161.831 77.0526 161.748 77.3755C161.664 77.6984 161.545 77.9484 161.388 78.1255C161.243 78.2922 161.076 78.3963 160.888 78.438C160.701 78.4797 160.482 78.5005 160.232 78.5005C159.784 78.5005 159.409 78.3442 159.107 78.0317C158.816 77.7192 158.644 77.0526 158.592 76.0317ZM182.101 54.1567C182.101 53.563 182.153 53.1047 182.257 52.7817C182.361 52.4484 182.497 52.1984 182.663 52.0317C182.84 51.8547 183.038 51.7505 183.257 51.7192C183.486 51.6776 183.726 51.6567 183.976 51.6567C184.226 51.6567 184.46 51.688 184.679 51.7505C184.908 51.813 185.106 51.938 185.273 52.1255C185.45 52.313 185.585 52.5682 185.679 52.8911C185.783 53.214 185.835 53.6255 185.835 54.1255V69.7974C185.835 71.2869 185.715 72.5786 185.476 73.6724C185.247 74.7661 184.856 75.6724 184.304 76.3911C183.762 77.0994 183.044 77.6307 182.148 77.9849C181.252 78.3286 180.132 78.5005 178.788 78.5005C178.309 78.5005 177.731 78.4276 177.054 78.2817C176.387 78.1255 175.747 77.8911 175.132 77.5786C174.528 77.2661 174.007 76.8547 173.57 76.3442C173.143 75.8338 172.929 75.2192 172.929 74.5005C172.929 73.9276 173.122 73.5317 173.507 73.313C173.893 73.0838 174.32 72.9692 174.788 72.9692C175.143 72.9692 175.465 73.063 175.757 73.2505C176.059 73.438 176.367 73.6463 176.679 73.8755C176.992 74.0942 177.32 74.2974 177.663 74.4849C178.018 74.6724 178.419 74.7661 178.867 74.7661C179.408 74.7661 179.877 74.6932 180.273 74.5474C180.679 74.3911 181.012 74.1047 181.273 73.688C181.533 73.2609 181.731 72.6672 181.867 71.9067C182.002 71.1463 182.07 70.1672 182.07 68.9692L182.101 54.1567ZM200.331 78.7192C198.831 78.7192 197.425 78.4224 196.112 77.8286C194.81 77.2244 193.675 76.3599 192.706 75.2349C191.737 74.0994 190.971 72.7088 190.409 71.063C189.857 69.4172 189.581 67.5526 189.581 65.4692C189.581 63.5005 189.82 61.6984 190.3 60.063C190.789 58.4172 191.513 56.9953 192.471 55.7974C193.43 54.5994 194.617 53.6724 196.034 53.0161C197.451 52.3599 199.091 52.0317 200.956 52.0317C202.477 52.0317 203.919 52.3078 205.284 52.8599C206.659 53.4015 207.862 54.2192 208.893 55.313C209.925 56.4067 210.737 57.7765 211.331 59.4224C211.935 61.0578 212.237 62.9744 212.237 65.1724C212.237 66.9849 211.992 68.714 211.503 70.3599C211.024 71.9953 210.289 73.4328 209.3 74.6724C208.32 75.9015 207.081 76.8859 205.581 77.6255C204.091 78.3547 202.341 78.7192 200.331 78.7192ZM200.393 75.2036C201.768 75.2036 202.966 74.9276 203.987 74.3755C205.008 73.813 205.852 73.0734 206.518 72.1567C207.195 71.2297 207.695 70.1619 208.018 68.9536C208.341 67.7453 208.503 66.5057 208.503 65.2349C208.503 63.6932 208.294 62.3234 207.878 61.1255C207.471 59.9172 206.919 58.9015 206.221 58.0786C205.524 57.2557 204.711 56.6255 203.784 56.188C202.867 55.7505 201.888 55.5317 200.846 55.5317C199.607 55.5317 198.518 55.7974 197.581 56.3286C196.643 56.8494 195.857 57.5578 195.221 58.4536C194.596 59.3494 194.117 60.4015 193.784 61.6099C193.461 62.8078 193.3 64.0942 193.3 65.4692C193.3 66.938 193.487 68.2765 193.862 69.4849C194.237 70.6828 194.742 71.7088 195.378 72.563C196.013 73.4067 196.763 74.0578 197.628 74.5161C198.503 74.9744 199.425 75.2036 200.393 75.2036ZM225.416 76.8442C225.083 77.4484 224.786 77.8859 224.526 78.1567C224.265 78.4276 223.937 78.563 223.541 78.563C223.145 78.563 222.796 78.4276 222.494 78.1567C222.203 77.8859 221.88 77.464 221.526 76.8911C221.078 76.1411 220.572 75.1099 220.01 73.7974C219.458 72.4744 218.895 71.0369 218.322 69.4849C217.75 67.9224 217.187 66.3078 216.635 64.6411C216.093 62.9744 215.604 61.4067 215.166 59.938C214.729 58.4692 214.38 57.1828 214.119 56.0786C213.859 54.9744 213.729 54.1828 213.729 53.7036C213.729 53.2036 213.828 52.8338 214.026 52.5942C214.223 52.3442 214.609 52.2192 215.182 52.2192C215.505 52.2192 215.781 52.3026 216.01 52.4692C216.25 52.6255 216.557 53.0734 216.932 53.813C217.234 54.3859 217.557 55.1359 217.901 56.063C218.255 56.9797 218.625 58.0005 219.01 59.1255C219.395 60.2401 219.786 61.4172 220.182 62.6567C220.578 63.8859 220.973 65.1099 221.369 66.3286C221.776 67.5474 222.151 68.7192 222.494 69.8442C222.848 70.9588 223.171 71.964 223.463 72.8599C223.765 71.9328 224.104 70.9067 224.479 69.7817C224.854 68.6463 225.239 67.4744 225.635 66.2661C226.031 65.0578 226.427 63.839 226.822 62.6099C227.229 61.3807 227.63 60.2192 228.026 59.1255C228.421 58.0317 228.791 57.0265 229.135 56.1099C229.489 55.1828 229.802 54.4172 230.072 53.813C230.427 53.0942 230.734 52.6515 230.994 52.4849C231.255 52.3078 231.52 52.2192 231.791 52.2192C232.364 52.2192 232.755 52.3651 232.963 52.6567C233.182 52.938 233.291 53.3494 233.291 53.8911C233.291 54.3911 233.213 54.9901 233.057 55.688C232.911 56.3859 232.656 57.313 232.291 58.4692C231.937 59.6255 231.458 61.063 230.854 62.7817C230.26 64.5005 229.526 66.6047 228.651 69.0942C228.432 69.7609 228.177 70.4588 227.885 71.188C227.604 71.9067 227.317 72.6099 227.026 73.2974C226.744 73.9744 226.463 74.6255 226.182 75.2505C225.911 75.8651 225.656 76.3963 225.416 76.8442ZM236.829 76.0317C236.777 75.1359 236.745 74.2036 236.735 73.2349C236.725 72.2661 236.704 71.2244 236.672 70.1099C236.652 68.9849 236.641 67.7713 236.641 66.4692C236.641 65.1567 236.641 63.688 236.641 62.063C236.641 60.3026 236.652 58.7922 236.672 57.5317C236.704 56.2713 236.782 55.2453 236.907 54.4536C237.032 53.6619 237.225 53.0786 237.485 52.7036C237.745 52.3286 238.1 52.1411 238.547 52.1411C238.777 52.1411 238.99 52.1672 239.188 52.2192C239.386 52.2609 239.558 52.3651 239.704 52.5317C239.85 52.6984 239.98 52.938 240.094 53.2505C240.209 53.5526 240.277 53.9536 240.297 54.4536C240.35 55.3494 240.386 56.1463 240.407 56.8442C240.438 57.5422 240.464 58.2349 240.485 58.9224C240.516 59.5994 240.532 60.3078 240.532 61.0474C240.532 61.7765 240.532 62.6047 240.532 63.5317C240.532 64.6463 240.532 65.714 240.532 66.7349C240.532 67.7557 240.516 68.7661 240.485 69.7661C240.464 70.7557 240.438 71.7609 240.407 72.7817C240.386 73.8026 240.35 74.8703 240.297 75.9849C240.277 76.589 240.214 77.0526 240.11 77.3755C240.016 77.6984 239.891 77.9484 239.735 78.1255C239.589 78.2922 239.417 78.3963 239.219 78.438C239.021 78.4797 238.797 78.5005 238.547 78.5005C238.1 78.5005 237.714 78.3442 237.391 78.0317C237.068 77.7192 236.881 77.0526 236.829 76.0317ZM261.015 76.438C260.765 75.8442 260.494 75.1567 260.202 74.3755C259.921 73.5838 259.619 72.7557 259.296 71.8911C258.557 71.9119 257.775 71.9276 256.952 71.938C256.129 71.9484 255.296 71.9536 254.452 71.9536C253.379 71.9536 252.406 71.9536 251.531 71.9536C250.666 71.9536 249.874 71.9432 249.156 71.9224C248.853 72.7974 248.562 73.6203 248.281 74.3911C248.01 75.1619 247.754 75.8442 247.515 76.438C247.015 77.7088 246.291 78.3442 245.343 78.3442C244.999 78.3442 244.671 78.2349 244.359 78.0161C244.046 77.7869 243.89 77.4588 243.89 77.0317C243.89 76.6151 243.963 76.063 244.109 75.3755C244.254 74.688 244.447 73.9536 244.687 73.1724C244.926 72.3911 245.182 71.5838 245.452 70.7505C245.723 69.9172 245.984 69.1411 246.234 68.4224C246.484 67.6203 246.838 66.6047 247.296 65.3755C247.765 64.1463 248.26 62.8599 248.781 61.5161C249.301 60.1724 249.822 58.8494 250.343 57.5474C250.864 56.2349 251.338 55.0942 251.765 54.1255C251.859 53.8755 251.978 53.5942 252.124 53.2817C252.281 52.9692 252.463 52.6776 252.671 52.4067C252.89 52.1255 253.129 51.8859 253.39 51.688C253.65 51.4901 253.942 51.3911 254.265 51.3911C254.588 51.3911 254.885 51.5005 255.156 51.7192C255.437 51.9276 255.682 52.1828 255.89 52.4849C256.098 52.7765 256.281 53.0838 256.437 53.4067C256.603 53.7297 256.739 54.0161 256.843 54.2661C257.239 55.2661 257.692 56.4119 258.202 57.7036C258.713 58.9953 259.223 60.3026 259.734 61.6255C260.244 62.938 260.723 64.1932 261.171 65.3911C261.619 66.589 261.978 67.5994 262.249 68.4224C262.478 69.1411 262.734 69.9119 263.015 70.7349C263.307 71.5474 263.572 72.3547 263.812 73.1567C264.062 73.9484 264.265 74.688 264.421 75.3755C264.588 76.063 264.671 76.6151 264.671 77.0317C264.671 77.4588 264.515 77.7869 264.202 78.0161C263.9 78.2349 263.572 78.3442 263.218 78.3442C262.77 78.3442 262.359 78.188 261.984 77.8755C261.619 77.563 261.296 77.0838 261.015 76.438ZM254.406 68.2349C255.01 68.2349 255.609 68.2401 256.202 68.2505C256.796 68.2609 257.395 68.2765 257.999 68.2974C257.697 67.4328 257.395 66.5682 257.093 65.7036C256.801 64.8286 256.525 63.9953 256.265 63.2036C256.004 62.4015 255.765 61.6567 255.546 60.9692C255.338 60.2817 255.161 59.6776 255.015 59.1567C254.911 58.8338 254.796 58.5734 254.671 58.3755C254.546 58.1776 254.385 58.0786 254.187 58.0786C253.989 58.0786 253.827 58.1828 253.702 58.3911C253.577 58.5994 253.468 58.8651 253.374 59.188C253.072 60.2088 252.65 61.5369 252.109 63.1724C251.577 64.7974 251.015 66.5057 250.421 68.2974C251.088 68.2765 251.754 68.2609 252.421 68.2505C253.098 68.2401 253.76 68.2349 254.406 68.2349Z" fill="#F39342"/>
<path d="M19.7383 133.045L14.8008 117.155H16.6914L20.7695 130.499L25.0508 117.155H27.1133L31.3789 130.499L35.457 117.155H37.3633L32.4102 133.045H30.3789L26.082 119.702L21.7852 133.045H19.7383ZM39.1365 133.045V116.249H40.9333V122.92C41.3708 122.347 41.8969 121.863 42.5115 121.467C43.1365 121.061 43.9385 120.858 44.9177 120.858C45.751 120.858 46.5323 121.056 47.2615 121.452C47.9906 121.837 48.5792 122.42 49.0271 123.202C49.4854 123.972 49.7146 124.926 49.7146 126.061V133.045H47.9177V126.108C47.9177 125.025 47.6052 124.15 46.9802 123.483C46.3552 122.816 45.5479 122.483 44.5583 122.483C43.8813 122.483 43.2719 122.639 42.7302 122.952C42.1885 123.254 41.751 123.681 41.4177 124.233C41.0948 124.785 40.9333 125.42 40.9333 126.139V133.045H39.1365V133.045ZM57.7829 133.233C56.6162 133.233 55.5954 132.957 54.7204 132.405C53.8454 131.853 53.1683 131.108 52.6892 130.17C52.21 129.222 51.9704 128.181 51.9704 127.045C51.9704 125.889 52.21 124.847 52.6892 123.92C53.1683 122.983 53.8454 122.238 54.7204 121.686C55.5954 121.134 56.6162 120.858 57.7829 120.858C58.7725 120.858 59.6215 121.051 60.3298 121.436C61.0485 121.811 61.6319 122.327 62.0798 122.983V121.045H63.8767V133.045H62.0798V131.124C61.6319 131.769 61.0485 132.285 60.3298 132.67C59.6215 133.045 58.7725 133.233 57.7829 133.233ZM58.0173 131.608C58.9131 131.608 59.6683 131.4 60.2829 130.983C60.9079 130.566 61.3767 130.009 61.6892 129.311C62.0121 128.613 62.1735 127.858 62.1735 127.045C62.1735 126.212 62.0121 125.452 61.6892 124.764C61.3767 124.077 60.9079 123.525 60.2829 123.108C59.6683 122.691 58.9131 122.483 58.0173 122.483C57.1423 122.483 56.3819 122.691 55.736 123.108C55.1006 123.525 54.611 124.077 54.2673 124.764C53.934 125.452 53.7673 126.212 53.7673 127.045C53.7673 127.858 53.934 128.613 54.2673 129.311C54.611 130.009 55.1006 130.566 55.736 130.983C56.3819 131.4 57.1423 131.608 58.0173 131.608ZM68.2972 133.045V122.624H65.8441V121.045H68.2972V116.749H70.0941V121.045H72.8597V122.624H70.0941V133.045H68.2972ZM79.8582 119.03V116.67H81.8113V119.03H79.8582ZM79.9363 133.045V121.045H81.7332V133.045H79.9363ZM89.2157 133.233C88.1115 133.233 87.1792 133.051 86.4188 132.686C85.6584 132.321 85.0803 131.837 84.6844 131.233C84.2886 130.629 84.0646 129.978 84.0126 129.28H85.8876C85.9292 129.676 86.0646 130.061 86.2938 130.436C86.5334 130.811 86.8928 131.118 87.3719 131.358C87.8511 131.587 88.4761 131.702 89.2469 131.702C89.4865 131.702 89.7834 131.681 90.1376 131.639C90.4917 131.587 90.8303 131.499 91.1532 131.374C91.4865 131.238 91.7626 131.045 91.9813 130.795C92.2105 130.535 92.3251 130.207 92.3251 129.811C92.3251 129.311 92.1323 128.926 91.7469 128.655C91.3615 128.384 90.8615 128.176 90.2469 128.03C89.6428 127.874 89.0021 127.722 88.3251 127.577C87.648 127.431 87.0021 127.243 86.3876 127.014C85.7834 126.775 85.2886 126.446 84.9032 126.03C84.5178 125.603 84.3251 125.019 84.3251 124.28C84.3251 123.196 84.7209 122.358 85.5126 121.764C86.3042 121.16 87.4761 120.858 89.0282 120.858C90.0803 120.858 90.9396 121.025 91.6063 121.358C92.273 121.681 92.7782 122.097 93.1219 122.608C93.4657 123.118 93.6688 123.67 93.7313 124.264H91.9032C91.8407 123.754 91.5907 123.316 91.1532 122.952C90.7157 122.577 89.9917 122.389 88.9813 122.389C87.0751 122.389 86.1219 122.967 86.1219 124.124C86.1219 124.603 86.3146 124.972 86.7001 125.233C87.0855 125.483 87.5803 125.686 88.1844 125.842C88.799 125.988 89.4448 126.129 90.1219 126.264C90.799 126.4 91.4396 126.587 92.0438 126.827C92.6584 127.066 93.1584 127.41 93.5438 127.858C93.9292 128.295 94.1219 128.889 94.1219 129.639C94.1219 130.806 93.674 131.696 92.7782 132.311C91.8928 132.926 90.7053 133.233 89.2157 133.233ZM102.833 133.045V122.624H100.38V121.045H102.833V116.749H104.63V121.045H107.396V122.624H104.63V133.045H102.833ZM109.36 133.045V116.249H111.157V122.92C111.595 122.347 112.121 121.863 112.735 121.467C113.36 121.061 114.162 120.858 115.141 120.858C115.975 120.858 116.756 121.056 117.485 121.452C118.214 121.837 118.803 122.42 119.251 123.202C119.709 123.972 119.938 124.926 119.938 126.061V133.045H118.141V126.108C118.141 125.025 117.829 124.15 117.204 123.483C116.579 122.816 115.772 122.483 114.782 122.483C114.105 122.483 113.496 122.639 112.954 122.952C112.412 123.254 111.975 123.681 111.641 124.233C111.319 124.785 111.157 125.42 111.157 126.139V133.045H109.36ZM128.272 133.233C127.054 133.233 125.986 132.957 125.069 132.405C124.163 131.853 123.455 131.108 122.944 130.17C122.444 129.222 122.194 128.181 122.194 127.045C122.194 125.889 122.434 124.847 122.913 123.92C123.392 122.983 124.08 122.238 124.975 121.686C125.871 121.134 126.929 120.858 128.147 120.858C129.376 120.858 130.434 121.134 131.319 121.686C132.215 122.238 132.903 122.983 133.382 123.92C133.861 124.847 134.1 125.889 134.1 127.045V127.764H124.038C124.142 128.472 124.371 129.118 124.725 129.702C125.09 130.285 125.574 130.749 126.179 131.092C126.793 131.436 127.496 131.608 128.288 131.608C129.142 131.608 129.856 131.42 130.429 131.045C131.001 130.67 131.449 130.186 131.772 129.592H133.741C133.324 130.665 132.663 131.54 131.757 132.217C130.861 132.894 129.699 133.233 128.272 133.233ZM124.069 126.092H132.225C132.069 125.061 131.637 124.202 130.929 123.514C130.231 122.827 129.304 122.483 128.147 122.483C127.001 122.483 126.08 122.827 125.382 123.514C124.684 124.202 124.246 125.061 124.069 126.092ZM146.58 133.233C145.382 133.233 144.341 132.957 143.455 132.405C142.58 131.853 141.898 131.108 141.409 130.17C140.919 129.222 140.674 128.181 140.674 127.045C140.674 125.889 140.919 124.847 141.409 123.92C141.898 122.983 142.58 122.238 143.455 121.686C144.341 121.134 145.382 120.858 146.58 120.858C148.007 120.858 149.221 121.228 150.221 121.967C151.221 122.696 151.898 123.644 152.252 124.811H150.299C150.028 124.124 149.591 123.566 148.987 123.139C148.393 122.702 147.669 122.483 146.815 122.483C145.94 122.483 145.174 122.691 144.518 123.108C143.862 123.525 143.356 124.077 143.002 124.764C142.648 125.452 142.471 126.212 142.471 127.045C142.471 127.858 142.648 128.613 143.002 129.311C143.356 130.009 143.862 130.566 144.518 130.983C145.174 131.4 145.94 131.608 146.815 131.608C147.669 131.608 148.393 131.394 148.987 130.967C149.591 130.53 150.028 129.967 150.299 129.28H152.252C151.898 130.446 151.221 131.4 150.221 132.139C149.221 132.868 148.007 133.233 146.58 133.233ZM159.683 133.233C158.464 133.233 157.407 132.957 156.511 132.405C155.616 131.853 154.928 131.108 154.449 130.17C153.97 129.222 153.73 128.181 153.73 127.045C153.73 125.889 153.97 124.847 154.449 123.92C154.928 122.983 155.616 122.238 156.511 121.686C157.407 121.134 158.464 120.858 159.683 120.858C160.912 120.858 161.97 121.134 162.855 121.686C163.751 122.238 164.438 122.983 164.918 123.92C165.397 124.847 165.636 125.889 165.636 127.045C165.636 128.181 165.397 129.222 164.918 130.17C164.438 131.108 163.751 131.853 162.855 132.405C161.97 132.957 160.912 133.233 159.683 133.233ZM159.683 131.608C160.579 131.608 161.334 131.4 161.949 130.983C162.563 130.566 163.032 130.009 163.355 129.311C163.678 128.613 163.839 127.858 163.839 127.045C163.839 126.212 163.678 125.452 163.355 124.764C163.032 124.077 162.563 123.525 161.949 123.108C161.334 122.691 160.579 122.483 159.683 122.483C158.808 122.483 158.058 122.691 157.433 123.108C156.808 123.525 156.334 124.077 156.011 124.764C155.688 125.452 155.527 126.212 155.527 127.045C155.527 127.858 155.688 128.613 156.011 129.311C156.334 130.009 156.808 130.566 157.433 130.983C158.058 131.4 158.808 131.608 159.683 131.608ZM168.016 133.045V116.249H169.813V133.045H168.016ZM178.139 133.233C176.92 133.233 175.863 132.957 174.967 132.405C174.071 131.853 173.384 131.108 172.905 130.17C172.426 129.222 172.186 128.181 172.186 127.045C172.186 125.889 172.426 124.847 172.905 123.92C173.384 122.983 174.071 122.238 174.967 121.686C175.863 121.134 176.92 120.858 178.139 120.858C179.368 120.858 180.426 121.134 181.311 121.686C182.207 122.238 182.894 122.983 183.374 123.92C183.853 124.847 184.092 125.889 184.092 127.045C184.092 128.181 183.853 129.222 183.374 130.17C182.894 131.108 182.207 131.853 181.311 132.405C180.426 132.957 179.368 133.233 178.139 133.233ZM178.139 131.608C179.035 131.608 179.79 131.4 180.405 130.983C181.019 130.566 181.488 130.009 181.811 129.311C182.134 128.613 182.295 127.858 182.295 127.045C182.295 126.212 182.134 125.452 181.811 124.764C181.488 124.077 181.019 123.525 180.405 123.108C179.79 122.691 179.035 122.483 178.139 122.483C177.264 122.483 176.514 122.691 175.889 123.108C175.264 123.525 174.79 124.077 174.467 124.764C174.144 125.452 173.983 126.212 173.983 127.045C173.983 127.858 174.144 128.613 174.467 129.311C174.79 130.009 175.264 130.566 175.889 130.983C176.514 131.4 177.264 131.608 178.139 131.608ZM186.472 133.045V121.045H188.269V123.999C188.331 123.79 188.456 123.514 188.644 123.17C188.831 122.827 189.097 122.478 189.441 122.124C189.795 121.769 190.238 121.472 190.769 121.233C191.311 120.983 191.951 120.858 192.691 120.858H192.8V122.655H192.597C191.701 122.655 190.925 122.9 190.269 123.389C189.623 123.879 189.128 124.514 188.785 125.295C188.441 126.066 188.269 126.889 188.269 127.764V133.045H186.472ZM205.067 133.233C203.848 133.233 202.791 132.957 201.895 132.405C200.999 131.853 200.312 131.108 199.833 130.17C199.354 129.222 199.114 128.181 199.114 127.045C199.114 125.889 199.354 124.847 199.833 123.92C200.312 122.983 200.999 122.238 201.895 121.686C202.791 121.134 203.848 120.858 205.067 120.858C206.296 120.858 207.354 121.134 208.239 121.686C209.135 122.238 209.822 122.983 210.301 123.92C210.781 124.847 211.02 125.889 211.02 127.045C211.02 128.181 210.781 129.222 210.301 130.17C209.822 131.108 209.135 131.853 208.239 132.405C207.354 132.957 206.296 133.233 205.067 133.233ZM205.067 131.608C205.963 131.608 206.718 131.4 207.333 130.983C207.947 130.566 208.416 130.009 208.739 129.311C209.062 128.613 209.223 127.858 209.223 127.045C209.223 126.212 209.062 125.452 208.739 124.764C208.416 124.077 207.947 123.525 207.333 123.108C206.718 122.691 205.963 122.483 205.067 122.483C204.192 122.483 203.442 122.691 202.817 123.108C202.192 123.525 201.718 124.077 201.395 124.764C201.072 125.452 200.911 126.212 200.911 127.045C200.911 127.858 201.072 128.613 201.395 129.311C201.718 130.009 202.192 130.566 202.817 130.983C203.442 131.4 204.192 131.608 205.067 131.608ZM214.212 133.045V122.624H212.15V121.045H214.212V119.983C214.212 118.67 214.608 117.691 215.4 117.045C216.192 116.389 217.275 116.061 218.65 116.061H218.791V117.764H218.556C217.723 117.764 217.087 117.952 216.65 118.327C216.223 118.702 216.009 119.306 216.009 120.139V121.045H218.791V122.624H216.009V133.045H214.212ZM225.88 133.045V116.249H227.677V122.92C228.114 122.347 228.64 121.863 229.255 121.467C229.88 121.061 230.682 120.858 231.661 120.858C232.494 120.858 233.276 121.056 234.005 121.452C234.734 121.837 235.323 122.42 235.771 123.202C236.229 123.972 236.458 124.926 236.458 126.061V133.045H234.661V126.108C234.661 125.025 234.349 124.15 233.724 123.483C233.099 122.816 232.291 122.483 231.302 122.483C230.625 122.483 230.015 122.639 229.474 122.952C228.932 123.254 228.494 123.681 228.161 124.233C227.838 124.785 227.677 125.42 227.677 126.139V133.045H225.88ZM244.526 133.233C243.36 133.233 242.339 132.957 241.464 132.405C240.589 131.853 239.912 131.108 239.433 130.17C238.953 129.222 238.714 128.181 238.714 127.045C238.714 125.889 238.953 124.847 239.433 123.92C239.912 122.983 240.589 122.238 241.464 121.686C242.339 121.134 243.36 120.858 244.526 120.858C245.516 120.858 246.365 121.051 247.073 121.436C247.792 121.811 248.375 122.327 248.823 122.983V121.045H250.62V133.045H248.823V131.124C248.375 131.769 247.792 132.285 247.073 132.67C246.365 133.045 245.516 133.233 244.526 133.233ZM244.761 131.608C245.657 131.608 246.412 131.4 247.026 130.983C247.651 130.566 248.12 130.009 248.433 129.311C248.756 128.613 248.917 127.858 248.917 127.045C248.917 126.212 248.756 125.452 248.433 124.764C248.12 124.077 247.651 123.525 247.026 123.108C246.412 122.691 245.657 122.483 244.761 122.483C243.886 122.483 243.125 122.691 242.479 123.108C241.844 123.525 241.354 124.077 241.011 124.764C240.677 125.452 240.511 126.212 240.511 127.045C240.511 127.858 240.677 128.613 241.011 129.311C241.354 130.009 241.844 130.566 242.479 130.983C243.125 131.4 243.886 131.608 244.761 131.608ZM253.744 137.795V121.045H255.541V122.967C255.989 122.311 256.567 121.795 257.275 121.42C257.994 121.045 258.848 120.858 259.838 120.858C261.004 120.858 262.025 121.134 262.9 121.686C263.775 122.238 264.452 122.983 264.931 123.92C265.41 124.847 265.65 125.889 265.65 127.045C265.65 128.181 265.41 129.222 264.931 130.17C264.452 131.108 263.775 131.853 262.9 132.405C262.025 132.957 261.004 133.233 259.838 133.233C258.848 133.233 257.994 133.04 257.275 132.655C256.567 132.259 255.989 131.743 255.541 131.108V137.795H253.744ZM259.603 131.608C260.499 131.608 261.259 131.4 261.884 130.983C262.52 130.566 263.004 130.009 263.338 129.311C263.671 128.613 263.838 127.858 263.838 127.045C263.838 126.212 263.671 125.452 263.338 124.764C263.004 124.077 262.52 123.525 261.884 123.108C261.259 122.691 260.499 122.483 259.603 122.483C258.718 122.483 257.963 122.691 257.338 123.108C256.713 123.525 256.239 124.077 255.916 124.764C255.603 125.452 255.447 126.212 255.447 127.045C255.447 127.858 255.603 128.613 255.916 129.311C256.239 130.009 256.713 130.566 257.338 130.983C257.963 131.4 258.718 131.608 259.603 131.608ZM268.024 137.795V121.045H269.821V122.967C270.269 122.311 270.847 121.795 271.555 121.42C272.274 121.045 273.128 120.858 274.117 120.858C275.284 120.858 276.305 121.134 277.18 121.686C278.055 122.238 278.732 122.983 279.211 123.92C279.69 124.847 279.93 125.889 279.93 127.045C279.93 128.181 279.69 129.222 279.211 130.17C278.732 131.108 278.055 131.853 277.18 132.405C276.305 132.957 275.284 133.233 274.117 133.233C273.128 133.233 272.274 133.04 271.555 132.655C270.847 132.259 270.269 131.743 269.821 131.108V137.795H268.024ZM273.883 131.608C274.779 131.608 275.539 131.4 276.164 130.983C276.8 130.566 277.284 130.009 277.617 129.311C277.951 128.613 278.117 127.858 278.117 127.045C278.117 126.212 277.951 125.452 277.617 124.764C277.284 124.077 276.8 123.525 276.164 123.108C275.539 122.691 274.779 122.483 273.883 122.483C272.998 122.483 272.242 122.691 271.617 123.108C270.992 123.525 270.519 124.077 270.196 124.764C269.883 125.452 269.727 126.212 269.727 127.045C269.727 127.858 269.883 128.613 270.196 129.311C270.519 130.009 270.992 130.566 271.617 130.983C272.242 131.4 272.998 131.608 273.883 131.608ZM282.226 119.03V116.67H284.179V119.03H282.226ZM282.304 133.045V121.045H284.101V133.045H282.304ZM287.224 133.045V121.045H289.021V122.92C289.458 122.347 289.984 121.863 290.599 121.467C291.224 121.061 292.026 120.858 293.005 120.858C293.838 120.858 294.62 121.056 295.349 121.452C296.078 121.837 296.666 122.42 297.114 123.202C297.573 123.972 297.802 124.926 297.802 126.061V133.045H296.005V126.108C296.005 125.025 295.692 124.15 295.067 123.483C294.442 122.816 293.635 122.483 292.646 122.483C291.968 122.483 291.359 122.639 290.817 122.952C290.276 123.254 289.838 123.681 289.505 124.233C289.182 124.785 289.021 125.42 289.021 126.139V133.045H287.224ZM306.136 133.233C304.917 133.233 303.849 132.957 302.933 132.405C302.026 131.853 301.318 131.108 300.808 130.17C300.308 129.222 300.058 128.181 300.058 127.045C300.058 125.889 300.297 124.847 300.776 123.92C301.256 122.983 301.943 122.238 302.839 121.686C303.735 121.134 304.792 120.858 306.011 120.858C307.24 120.858 308.297 121.134 309.183 121.686C310.079 122.238 310.766 122.983 311.245 123.92C311.724 124.847 311.964 125.889 311.964 127.045V127.764H301.901C302.006 128.472 302.235 129.118 302.589 129.702C302.954 130.285 303.438 130.749 304.042 131.092C304.657 131.436 305.36 131.608 306.151 131.608C307.006 131.608 307.719 131.42 308.292 131.045C308.865 130.67 309.313 130.186 309.636 129.592H311.605C311.188 130.665 310.526 131.54 309.62 132.217C308.724 132.894 307.563 133.233 306.136 133.233ZM301.933 126.092H310.089C309.933 125.061 309.5 124.202 308.792 123.514C308.094 122.827 307.167 122.483 306.011 122.483C304.865 122.483 303.943 122.827 303.245 123.514C302.547 124.202 302.11 125.061 301.933 126.092ZM318.535 133.233C317.431 133.233 316.499 133.051 315.738 132.686C314.978 132.321 314.4 131.837 314.004 131.233C313.608 130.629 313.384 129.978 313.332 129.28H315.207C315.249 129.676 315.384 130.061 315.613 130.436C315.853 130.811 316.212 131.118 316.691 131.358C317.17 131.587 317.795 131.702 318.566 131.702C318.806 131.702 319.103 131.681 319.457 131.639C319.811 131.587 320.15 131.499 320.472 131.374C320.806 131.238 321.082 131.045 321.301 130.795C321.53 130.535 321.644 130.207 321.644 129.811C321.644 129.311 321.452 128.926 321.066 128.655C320.681 128.384 320.181 128.176 319.566 128.03C318.962 127.874 318.321 127.722 317.644 127.577C316.967 127.431 316.321 127.243 315.707 127.014C315.103 126.775 314.608 126.446 314.222 126.03C313.837 125.603 313.644 125.019 313.644 124.28C313.644 123.196 314.04 122.358 314.832 121.764C315.624 121.16 316.795 120.858 318.347 120.858C319.4 120.858 320.259 121.025 320.926 121.358C321.592 121.681 322.097 122.097 322.441 122.608C322.785 123.118 322.988 123.67 323.051 124.264H321.222C321.16 123.754 320.91 123.316 320.472 122.952C320.035 122.577 319.311 122.389 318.301 122.389C316.394 122.389 315.441 122.967 315.441 124.124C315.441 124.603 315.634 124.972 316.019 125.233C316.405 125.483 316.9 125.686 317.504 125.842C318.118 125.988 318.764 126.129 319.441 126.264C320.118 126.4 320.759 126.587 321.363 126.827C321.978 127.066 322.478 127.41 322.863 127.858C323.249 128.295 323.441 128.889 323.441 129.639C323.441 130.806 322.993 131.696 322.097 132.311C321.212 132.926 320.025 133.233 318.535 133.233ZM330.103 133.233C328.999 133.233 328.067 133.051 327.306 132.686C326.546 132.321 325.968 131.837 325.572 131.233C325.176 130.629 324.952 129.978 324.9 129.28H326.775C326.817 129.676 326.952 130.061 327.181 130.436C327.421 130.811 327.78 131.118 328.259 131.358C328.738 131.587 329.363 131.702 330.134 131.702C330.374 131.702 330.671 131.681 331.025 131.639C331.379 131.587 331.718 131.499 332.04 131.374C332.374 131.238 332.65 131.045 332.869 130.795C333.098 130.535 333.212 130.207 333.212 129.811C333.212 129.311 333.02 128.926 332.634 128.655C332.249 128.384 331.749 128.176 331.134 128.03C330.53 127.874 329.889 127.722 329.212 127.577C328.535 127.431 327.889 127.243 327.275 127.014C326.671 126.775 326.176 126.446 325.79 126.03C325.405 125.603 325.212 125.019 325.212 124.28C325.212 123.196 325.608 122.358 326.4 121.764C327.192 121.16 328.363 120.858 329.915 120.858C330.968 120.858 331.827 121.025 332.494 121.358C333.16 121.681 333.665 122.097 334.009 122.608C334.353 123.118 334.556 123.67 334.619 124.264H332.79C332.728 123.754 332.478 123.316 332.04 122.952C331.603 122.577 330.879 122.389 329.869 122.389C327.962 122.389 327.009 122.967 327.009 124.124C327.009 124.603 327.202 124.972 327.587 125.233C327.973 125.483 328.468 125.686 329.072 125.842C329.686 125.988 330.332 126.129 331.009 126.264C331.686 126.4 332.327 126.587 332.931 126.827C333.546 127.066 334.046 127.41 334.431 127.858C334.817 128.295 335.009 128.889 335.009 129.639C335.009 130.806 334.561 131.696 333.665 132.311C332.78 132.926 331.593 133.233 330.103 133.233Z" fill="black"/>
<path d="M38.2007 161.845L34.4351 149.845H36.3569L39.2319 159.611L42.2788 149.845H44.2476L47.2944 159.611L50.1694 149.845H52.0913L48.3257 161.845H46.2632L43.2632 152.267L40.2632 161.845H38.2007ZM53.7765 161.845V145.048H55.5734V151.72C56.0109 151.147 56.5369 150.663 57.1515 150.267C57.7765 149.861 58.5786 149.658 59.5578 149.658C60.3911 149.658 61.1723 149.856 61.9015 150.251C62.6307 150.637 63.2192 151.22 63.6671 152.001C64.1255 152.772 64.3546 153.725 64.3546 154.861V161.845H62.5578V154.908C62.5578 153.824 62.2453 152.949 61.6203 152.283C60.9953 151.616 60.188 151.283 59.1984 151.283C58.5213 151.283 57.9119 151.439 57.3703 151.751C56.8286 152.054 56.3911 152.481 56.0578 153.033C55.7348 153.585 55.5734 154.22 55.5734 154.939V161.845H53.7765ZM67.2823 147.83V145.47H69.2355V147.83H67.2823ZM67.3605 161.845V149.845H69.1573V161.845H67.3605ZM77.4367 162.033C76.2388 162.033 75.1971 161.757 74.3117 161.205C73.4367 160.653 72.7544 159.908 72.2648 158.97C71.7752 158.022 71.5304 156.981 71.5304 155.845C71.5304 154.689 71.7752 153.647 72.2648 152.72C72.7544 151.783 73.4367 151.038 74.3117 150.486C75.1971 149.934 76.2388 149.658 77.4367 149.658C78.8638 149.658 80.0773 150.028 81.0773 150.767C82.0773 151.496 82.7544 152.444 83.1086 153.611H81.1554C80.8846 152.923 80.4471 152.366 79.8429 151.939C79.2492 151.501 78.5252 151.283 77.6711 151.283C76.7961 151.283 76.0304 151.491 75.3742 151.908C74.7179 152.324 74.2127 152.876 73.8586 153.564C73.5044 154.251 73.3273 155.012 73.3273 155.845C73.3273 156.658 73.5044 157.413 73.8586 158.111C74.2127 158.809 74.7179 159.366 75.3742 159.783C76.0304 160.199 76.7961 160.408 77.6711 160.408C78.5252 160.408 79.2492 160.194 79.8429 159.767C80.4471 159.33 80.8846 158.767 81.1554 158.08H83.1086C82.7544 159.246 82.0773 160.199 81.0773 160.939C80.0773 161.668 78.8638 162.033 77.4367 162.033ZM85.3364 161.845V145.048H87.1333V151.72C87.5708 151.147 88.0968 150.663 88.7114 150.267C89.3364 149.861 90.1385 149.658 91.1177 149.658C91.951 149.658 92.7322 149.856 93.4614 150.251C94.1906 150.637 94.7791 151.22 95.227 152.001C95.6854 152.772 95.9145 153.725 95.9145 154.861V161.845H94.1177V154.908C94.1177 153.824 93.8052 152.949 93.1802 152.283C92.5552 151.616 91.7479 151.283 90.7583 151.283C90.0812 151.283 89.4718 151.439 88.9302 151.751C88.3885 152.054 87.951 152.481 87.6177 153.033C87.2947 153.585 87.1333 154.22 87.1333 154.939V161.845H85.3364ZM103.954 147.83V145.47H105.907V147.83H103.954ZM104.032 161.845V149.845H105.829V161.845H104.032ZM113.312 162.033C112.208 162.033 111.275 161.85 110.515 161.486C109.754 161.121 109.176 160.637 108.78 160.033C108.385 159.429 108.161 158.778 108.109 158.08H109.984C110.025 158.475 110.161 158.861 110.39 159.236C110.629 159.611 110.989 159.918 111.468 160.158C111.947 160.387 112.572 160.501 113.343 160.501C113.583 160.501 113.879 160.481 114.234 160.439C114.588 160.387 114.926 160.298 115.249 160.173C115.583 160.038 115.859 159.845 116.077 159.595C116.306 159.335 116.421 159.007 116.421 158.611C116.421 158.111 116.228 157.725 115.843 157.455C115.458 157.184 114.958 156.975 114.343 156.83C113.739 156.673 113.098 156.522 112.421 156.376C111.744 156.231 111.098 156.043 110.484 155.814C109.879 155.574 109.385 155.246 108.999 154.83C108.614 154.403 108.421 153.819 108.421 153.08C108.421 151.996 108.817 151.158 109.609 150.564C110.4 149.96 111.572 149.658 113.124 149.658C114.176 149.658 115.036 149.824 115.702 150.158C116.369 150.481 116.874 150.897 117.218 151.408C117.562 151.918 117.765 152.47 117.827 153.064H115.999C115.937 152.554 115.687 152.116 115.249 151.751C114.812 151.376 114.088 151.189 113.077 151.189C111.171 151.189 110.218 151.767 110.218 152.923C110.218 153.403 110.411 153.772 110.796 154.033C111.181 154.283 111.676 154.486 112.28 154.642C112.895 154.788 113.541 154.929 114.218 155.064C114.895 155.199 115.536 155.387 116.14 155.626C116.754 155.866 117.254 156.21 117.64 156.658C118.025 157.095 118.218 157.689 118.218 158.439C118.218 159.606 117.77 160.496 116.874 161.111C115.989 161.725 114.801 162.033 113.312 162.033ZM130.695 162.033C129.528 162.033 128.507 161.757 127.632 161.205C126.757 160.653 126.08 159.908 125.601 158.97C125.122 158.022 124.882 156.981 124.882 155.845C124.882 154.689 125.122 153.647 125.601 152.72C126.08 151.783 126.757 151.038 127.632 150.486C128.507 149.934 129.528 149.658 130.695 149.658C131.684 149.658 132.533 149.85 133.242 150.236C133.96 150.611 134.544 151.126 134.992 151.783V149.845H136.789V161.845H134.992V159.923C134.544 160.569 133.96 161.085 133.242 161.47C132.533 161.845 131.684 162.033 130.695 162.033ZM130.929 160.408C131.825 160.408 132.58 160.199 133.195 159.783C133.82 159.366 134.289 158.809 134.601 158.111C134.924 157.413 135.085 156.658 135.085 155.845C135.085 155.012 134.924 154.251 134.601 153.564C134.289 152.876 133.82 152.324 133.195 151.908C132.58 151.491 131.825 151.283 130.929 151.283C130.054 151.283 129.294 151.491 128.648 151.908C128.012 152.324 127.523 152.876 127.179 153.564C126.846 154.251 126.679 155.012 126.679 155.845C126.679 156.658 126.846 157.413 127.179 158.111C127.523 158.809 128.012 159.366 128.648 159.783C129.294 160.199 130.054 160.408 130.929 160.408ZM139.912 161.845V145.048H141.709V161.845H139.912ZM149.192 162.033C148.087 162.033 147.155 161.85 146.395 161.486C145.634 161.121 145.056 160.637 144.66 160.033C144.265 159.429 144.041 158.778 143.988 158.08H145.863C145.905 158.475 146.041 158.861 146.27 159.236C146.509 159.611 146.869 159.918 147.348 160.158C147.827 160.387 148.452 160.501 149.223 160.501C149.462 160.501 149.759 160.481 150.113 160.439C150.468 160.387 150.806 160.298 151.129 160.173C151.462 160.038 151.738 159.845 151.957 159.595C152.186 159.335 152.301 159.007 152.301 158.611C152.301 158.111 152.108 157.725 151.723 157.455C151.337 157.184 150.837 156.975 150.223 156.83C149.619 156.673 148.978 156.522 148.301 156.376C147.624 156.231 146.978 156.043 146.363 155.814C145.759 155.574 145.265 155.246 144.879 154.83C144.494 154.403 144.301 153.819 144.301 153.08C144.301 151.996 144.697 151.158 145.488 150.564C146.28 149.96 147.452 149.658 149.004 149.658C150.056 149.658 150.916 149.824 151.582 150.158C152.249 150.481 152.754 150.897 153.098 151.408C153.442 151.918 153.645 152.47 153.707 153.064H151.879C151.817 152.554 151.567 152.116 151.129 151.751C150.692 151.376 149.968 151.189 148.957 151.189C147.051 151.189 146.098 151.767 146.098 152.923C146.098 153.403 146.291 153.772 146.676 154.033C147.061 154.283 147.556 154.486 148.16 154.642C148.775 154.788 149.421 154.929 150.098 155.064C150.775 155.199 151.416 155.387 152.02 155.626C152.634 155.866 153.134 156.21 153.52 156.658C153.905 157.095 154.098 157.689 154.098 158.439C154.098 159.606 153.65 160.496 152.754 161.111C151.869 161.725 150.681 162.033 149.192 162.033ZM161.603 162.033C160.385 162.033 159.327 161.757 158.431 161.205C157.536 160.653 156.848 159.908 156.369 158.97C155.89 158.022 155.65 156.981 155.65 155.845C155.65 154.689 155.89 153.647 156.369 152.72C156.848 151.783 157.536 151.038 158.431 150.486C159.327 149.934 160.385 149.658 161.603 149.658C162.832 149.658 163.89 149.934 164.775 150.486C165.671 151.038 166.359 151.783 166.838 152.72C167.317 153.647 167.556 154.689 167.556 155.845C167.556 156.981 167.317 158.022 166.838 158.97C166.359 159.908 165.671 160.653 164.775 161.205C163.89 161.757 162.832 162.033 161.603 162.033ZM161.603 160.408C162.499 160.408 163.254 160.199 163.869 159.783C164.484 159.366 164.952 158.809 165.275 158.111C165.598 157.413 165.76 156.658 165.76 155.845C165.76 155.012 165.598 154.251 165.275 153.564C164.952 152.876 164.484 152.324 163.869 151.908C163.254 151.491 162.499 151.283 161.603 151.283C160.728 151.283 159.978 151.491 159.353 151.908C158.728 152.324 158.254 152.876 157.931 153.564C157.609 154.251 157.447 155.012 157.447 155.845C157.447 156.658 157.609 157.413 157.931 158.111C158.254 158.809 158.728 159.366 159.353 159.783C159.978 160.199 160.728 160.408 161.603 160.408ZM176.143 161.845V145.955H187.831V147.689H177.956V153.017H186.784V154.767H177.956V160.111H187.831V161.845H176.143ZM194.719 162.033C193.615 162.033 192.683 161.85 191.923 161.486C191.162 161.121 190.584 160.637 190.188 160.033C189.792 159.429 189.568 158.778 189.516 158.08H191.391C191.433 158.475 191.568 158.861 191.798 159.236C192.037 159.611 192.397 159.918 192.876 160.158C193.355 160.387 193.98 160.501 194.751 160.501C194.99 160.501 195.287 160.481 195.641 160.439C195.996 160.387 196.334 160.298 196.657 160.173C196.99 160.038 197.266 159.845 197.485 159.595C197.714 159.335 197.829 159.007 197.829 158.611C197.829 158.111 197.636 157.725 197.251 157.455C196.865 157.184 196.365 156.975 195.751 156.83C195.147 156.673 194.506 156.522 193.829 156.376C193.152 156.231 192.506 156.043 191.891 155.814C191.287 155.574 190.792 155.246 190.407 154.83C190.022 154.403 189.829 153.819 189.829 153.08C189.829 151.996 190.225 151.158 191.016 150.564C191.808 149.96 192.98 149.658 194.532 149.658C195.584 149.658 196.443 149.824 197.11 150.158C197.777 150.481 198.282 150.897 198.626 151.408C198.969 151.918 199.173 152.47 199.235 153.064H197.407C197.344 152.554 197.094 152.116 196.657 151.751C196.219 151.376 195.496 151.189 194.485 151.189C192.579 151.189 191.626 151.767 191.626 152.923C191.626 153.403 191.818 153.772 192.204 154.033C192.589 154.283 193.084 154.486 193.688 154.642C194.303 154.788 194.949 154.929 195.626 155.064C196.303 155.199 196.943 155.387 197.548 155.626C198.162 155.866 198.662 156.21 199.048 156.658C199.433 157.095 199.626 157.689 199.626 158.439C199.626 159.606 199.178 160.496 198.282 161.111C197.397 161.725 196.209 162.033 194.719 162.033ZM207.084 162.033C205.886 162.033 204.845 161.757 203.959 161.205C203.084 160.653 202.402 159.908 201.912 158.97C201.423 158.022 201.178 156.981 201.178 155.845C201.178 154.689 201.423 153.647 201.912 152.72C202.402 151.783 203.084 151.038 203.959 150.486C204.845 149.934 205.886 149.658 207.084 149.658C208.511 149.658 209.725 150.028 210.725 150.767C211.725 151.496 212.402 152.444 212.756 153.611H210.803C210.532 152.923 210.095 152.366 209.491 151.939C208.897 151.501 208.173 151.283 207.319 151.283C206.444 151.283 205.678 151.491 205.022 151.908C204.366 152.324 203.86 152.876 203.506 153.564C203.152 154.251 202.975 155.012 202.975 155.845C202.975 156.658 203.152 157.413 203.506 158.111C203.86 158.809 204.366 159.366 205.022 159.783C205.678 160.199 206.444 160.408 207.319 160.408C208.173 160.408 208.897 160.194 209.491 159.767C210.095 159.33 210.532 158.767 210.803 158.08H212.756C212.402 159.246 211.725 160.199 210.725 160.939C209.725 161.668 208.511 162.033 207.084 162.033ZM214.906 147.83V145.47H216.859V147.83H214.906ZM214.984 161.845V149.845H216.781V161.845H214.984ZM221.201 161.845V151.423H218.748V149.845H221.201V145.548H222.998V149.845H225.763V151.423H222.998V161.845H221.201ZM232.55 162.033C231.384 162.033 230.363 161.757 229.488 161.205C228.613 160.653 227.936 159.908 227.457 158.97C226.978 158.022 226.738 156.981 226.738 155.845C226.738 154.689 226.978 153.647 227.457 152.72C227.936 151.783 228.613 151.038 229.488 150.486C230.363 149.934 231.384 149.658 232.55 149.658C233.54 149.658 234.389 149.85 235.097 150.236C235.816 150.611 236.399 151.126 236.847 151.783V149.845H238.644V161.845H236.847V159.923C236.399 160.569 235.816 161.085 235.097 161.47C234.389 161.845 233.54 162.033 232.55 162.033ZM232.785 160.408C233.681 160.408 234.436 160.199 235.05 159.783C235.675 159.366 236.144 158.809 236.457 158.111C236.78 157.413 236.941 156.658 236.941 155.845C236.941 155.012 236.78 154.251 236.457 153.564C236.144 152.876 235.675 152.324 235.05 151.908C234.436 151.491 233.681 151.283 232.785 151.283C231.91 151.283 231.149 151.491 230.504 151.908C229.868 152.324 229.379 152.876 229.035 153.564C228.702 154.251 228.535 155.012 228.535 155.845C228.535 156.658 228.702 157.413 229.035 158.111C229.379 158.809 229.868 159.366 230.504 159.783C231.149 160.199 231.91 160.408 232.785 160.408ZM241.768 161.845V145.048H243.565V161.845H241.768ZM251.891 162.033C250.672 162.033 249.615 161.757 248.719 161.205C247.823 160.653 247.136 159.908 246.657 158.97C246.178 158.022 245.938 156.981 245.938 155.845C245.938 154.689 246.178 153.647 246.657 152.72C247.136 151.783 247.823 151.038 248.719 150.486C249.615 149.934 250.672 149.658 251.891 149.658C253.12 149.658 254.178 149.934 255.063 150.486C255.959 151.038 256.646 151.783 257.125 152.72C257.605 153.647 257.844 154.689 257.844 155.845C257.844 156.981 257.605 158.022 257.125 158.97C256.646 159.908 255.959 160.653 255.063 161.205C254.178 161.757 253.12 162.033 251.891 162.033ZM251.891 160.408C252.787 160.408 253.542 160.199 254.157 159.783C254.771 159.366 255.24 158.809 255.563 158.111C255.886 157.413 256.047 156.658 256.047 155.845C256.047 155.012 255.886 154.251 255.563 153.564C255.24 152.876 254.771 152.324 254.157 151.908C253.542 151.491 252.787 151.283 251.891 151.283C251.016 151.283 250.266 151.491 249.641 151.908C249.016 152.324 248.542 152.876 248.219 153.564C247.896 154.251 247.735 155.012 247.735 155.845C247.735 156.658 247.896 157.413 248.219 158.111C248.542 158.809 249.016 159.366 249.641 159.783C250.266 160.199 251.016 160.408 251.891 160.408ZM260.224 166.595V149.845H262.021V151.767C262.469 151.111 263.047 150.595 263.755 150.22C264.474 149.845 265.328 149.658 266.318 149.658C267.484 149.658 268.505 149.934 269.38 150.486C270.255 151.038 270.932 151.783 271.411 152.72C271.891 153.647 272.13 154.689 272.13 155.845C272.13 156.981 271.891 158.022 271.411 158.97C270.932 159.908 270.255 160.653 269.38 161.205C268.505 161.757 267.484 162.033 266.318 162.033C265.328 162.033 264.474 161.84 263.755 161.455C263.047 161.059 262.469 160.543 262.021 159.908V166.595H260.224ZM266.083 160.408C266.979 160.408 267.74 160.199 268.365 159.783C269 159.366 269.484 158.809 269.818 158.111C270.151 157.413 270.318 156.658 270.318 155.845C270.318 155.012 270.151 154.251 269.818 153.564C269.484 152.876 269 152.324 268.365 151.908C267.74 151.491 266.979 151.283 266.083 151.283C265.198 151.283 264.443 151.491 263.818 151.908C263.193 152.324 262.719 152.876 262.396 153.564C262.083 154.251 261.927 155.012 261.927 155.845C261.927 156.658 262.083 157.413 262.396 158.111C262.719 158.809 263.193 159.366 263.818 159.783C264.443 160.199 265.198 160.408 266.083 160.408ZM274.504 161.845V149.845H276.301V152.798C276.363 152.59 276.488 152.314 276.676 151.97C276.863 151.626 277.129 151.278 277.473 150.923C277.827 150.569 278.269 150.272 278.801 150.033C279.342 149.783 279.983 149.658 280.723 149.658H280.832V151.455H280.629C279.733 151.455 278.957 151.699 278.301 152.189C277.655 152.679 277.16 153.314 276.816 154.095C276.473 154.866 276.301 155.689 276.301 156.564V161.845H274.504ZM287.534 162.033C286.368 162.033 285.347 161.757 284.472 161.205C283.597 160.653 282.92 159.908 282.441 158.97C281.961 158.022 281.722 156.981 281.722 155.845C281.722 154.689 281.961 153.647 282.441 152.72C282.92 151.783 283.597 151.038 284.472 150.486C285.347 149.934 286.368 149.658 287.534 149.658C288.524 149.658 289.373 149.85 290.081 150.236C290.8 150.611 291.383 151.126 291.831 151.783V149.845H293.628V161.845H291.831V159.923C291.383 160.569 290.8 161.085 290.081 161.47C289.373 161.845 288.524 162.033 287.534 162.033ZM287.769 160.408C288.665 160.408 289.42 160.199 290.034 159.783C290.659 159.366 291.128 158.809 291.441 158.111C291.763 157.413 291.925 156.658 291.925 155.845C291.925 155.012 291.763 154.251 291.441 153.564C291.128 152.876 290.659 152.324 290.034 151.908C289.42 151.491 288.665 151.283 287.769 151.283C286.894 151.283 286.133 151.491 285.487 151.908C284.852 152.324 284.362 152.876 284.019 153.564C283.685 154.251 283.519 155.012 283.519 155.845C283.519 156.658 283.685 157.413 284.019 158.111C284.362 158.809 284.852 159.366 285.487 159.783C286.133 160.199 286.894 160.408 287.769 160.408ZM296.752 161.845V149.845H298.549V151.673C298.819 151.194 299.252 150.741 299.846 150.314C300.439 149.876 301.226 149.658 302.205 149.658C302.997 149.658 303.731 149.871 304.408 150.298C305.096 150.715 305.632 151.309 306.017 152.08C306.174 151.809 306.424 151.481 306.767 151.095C307.111 150.71 307.564 150.376 308.127 150.095C308.689 149.804 309.361 149.658 310.142 149.658C310.913 149.658 311.632 149.861 312.299 150.267C312.976 150.663 313.523 151.231 313.939 151.97C314.366 152.71 314.58 153.585 314.58 154.595V161.845H312.783V154.642C312.783 153.632 312.497 152.819 311.924 152.205C311.361 151.59 310.653 151.283 309.799 151.283C308.924 151.283 308.163 151.58 307.517 152.173C306.882 152.767 306.564 153.6 306.564 154.673V161.845H304.767V154.642C304.767 153.632 304.481 152.819 303.908 152.205C303.346 151.59 302.637 151.283 301.783 151.283C300.908 151.283 300.148 151.58 299.502 152.173C298.866 152.767 298.549 153.6 298.549 154.673V161.845H296.752Z" fill="black"/>
<path d="M74.1182 190.833C72.9827 190.833 72.0348 190.614 71.2744 190.177C70.5244 189.739 69.9463 189.182 69.54 188.505C69.1442 187.817 68.9046 187.114 68.8213 186.396H70.6963C70.7588 186.812 70.9255 187.229 71.1963 187.646C71.4671 188.062 71.8473 188.406 72.3369 188.677C72.8369 188.948 73.4671 189.083 74.2275 189.083C74.9463 189.083 75.5244 188.968 75.9619 188.739C76.3994 188.51 76.7275 188.203 76.9463 187.817C77.165 187.432 77.3109 187.021 77.3838 186.583C77.4671 186.135 77.5088 185.713 77.5088 185.317V174.755H79.3057V185.396C79.3057 186.323 79.139 187.203 78.8057 188.036C78.4827 188.859 77.9411 189.531 77.1807 190.052C76.4202 190.573 75.3994 190.833 74.1182 190.833ZM87.8755 190.833C86.6568 190.833 85.5995 190.557 84.7036 190.005C83.8078 189.453 83.1203 188.708 82.6411 187.771C82.162 186.823 81.9224 185.781 81.9224 184.646C81.9224 183.489 82.162 182.448 82.6411 181.521C83.1203 180.583 83.8078 179.838 84.7036 179.286C85.5995 178.734 86.6568 178.458 87.8755 178.458C89.1047 178.458 90.162 178.734 91.0474 179.286C91.9432 179.838 92.6307 180.583 93.1099 181.521C93.589 182.448 93.8286 183.489 93.8286 184.646C93.8286 185.781 93.589 186.823 93.1099 187.771C92.6307 188.708 91.9432 189.453 91.0474 190.005C90.162 190.557 89.1047 190.833 87.8755 190.833ZM87.8755 189.208C88.7713 189.208 89.5265 189 90.1411 188.583C90.7557 188.166 91.2245 187.609 91.5474 186.911C91.8703 186.213 92.0318 185.458 92.0318 184.646C92.0318 183.812 91.8703 183.052 91.5474 182.364C91.2245 181.677 90.7557 181.125 90.1411 180.708C89.5265 180.291 88.7713 180.083 87.8755 180.083C87.0005 180.083 86.2505 180.291 85.6255 180.708C85.0005 181.125 84.5265 181.677 84.2036 182.364C83.8807 183.052 83.7193 183.812 83.7193 184.646C83.7193 185.458 83.8807 186.213 84.2036 186.911C84.5265 187.609 85.0005 188.166 85.6255 188.583C86.2505 189 87.0005 189.208 87.8755 189.208ZM99.234 190.646L94.5308 178.646H96.4996L100.281 188.724L104.046 178.646H106.015L101.343 190.646H99.234ZM107.626 176.63V174.271H109.579V176.63H107.626ZM107.704 190.646V178.646H109.501V190.646H107.704ZM117.687 190.833C116.52 190.833 115.499 190.557 114.624 190.005C113.749 189.453 113.072 188.708 112.593 187.771C112.114 186.823 111.874 185.781 111.874 184.646C111.874 183.489 112.114 182.448 112.593 181.521C113.072 180.583 113.749 179.838 114.624 179.286C115.499 178.734 116.52 178.458 117.687 178.458C118.676 178.458 119.525 178.651 120.234 179.036C120.952 179.411 121.536 179.927 121.984 180.583V178.646H123.781V190.646H121.984V188.724C121.536 189.369 120.952 189.885 120.234 190.271C119.525 190.646 118.676 190.833 117.687 190.833ZM117.921 189.208C118.817 189.208 119.572 189 120.187 188.583C120.812 188.166 121.281 187.609 121.593 186.911C121.916 186.213 122.077 185.458 122.077 184.646C122.077 183.812 121.916 183.052 121.593 182.364C121.281 181.677 120.812 181.125 120.187 180.708C119.572 180.291 118.817 180.083 117.921 180.083C117.046 180.083 116.286 180.291 115.64 180.708C115.004 181.125 114.515 181.677 114.171 182.364C113.838 183.052 113.671 183.812 113.671 184.646C113.671 185.458 113.838 186.213 114.171 186.911C114.515 187.609 115.004 188.166 115.64 188.583C116.286 189 117.046 189.208 117.921 189.208ZM130.045 174.146L127.935 179.255H126.295L127.685 174.146H130.045ZM136.04 190.833C134.935 190.833 134.003 190.651 133.243 190.286C132.482 189.922 131.904 189.437 131.508 188.833C131.113 188.229 130.889 187.578 130.836 186.88H132.711C132.753 187.276 132.889 187.661 133.118 188.036C133.357 188.411 133.717 188.718 134.196 188.958C134.675 189.187 135.3 189.302 136.071 189.302C136.31 189.302 136.607 189.281 136.961 189.239C137.316 189.187 137.654 189.099 137.977 188.974C138.31 188.838 138.586 188.646 138.805 188.396C139.034 188.135 139.149 187.807 139.149 187.411C139.149 186.911 138.956 186.526 138.571 186.255C138.185 185.984 137.685 185.776 137.071 185.63C136.467 185.474 135.826 185.323 135.149 185.177C134.472 185.031 133.826 184.843 133.211 184.614C132.607 184.375 132.113 184.047 131.727 183.63C131.342 183.203 131.149 182.619 131.149 181.88C131.149 180.797 131.545 179.958 132.336 179.364C133.128 178.76 134.3 178.458 135.852 178.458C136.904 178.458 137.764 178.625 138.43 178.958C139.097 179.281 139.602 179.698 139.946 180.208C140.29 180.718 140.493 181.271 140.555 181.864H138.727C138.665 181.354 138.415 180.916 137.977 180.552C137.54 180.177 136.816 179.989 135.805 179.989C133.899 179.989 132.946 180.567 132.946 181.724C132.946 182.203 133.139 182.573 133.524 182.833C133.909 183.083 134.404 183.286 135.008 183.442C135.623 183.588 136.269 183.729 136.946 183.864C137.623 184 138.264 184.187 138.868 184.427C139.482 184.666 139.982 185.01 140.368 185.458C140.753 185.896 140.946 186.489 140.946 187.239C140.946 188.406 140.498 189.297 139.602 189.911C138.717 190.526 137.529 190.833 136.04 190.833ZM154.454 190.833C153.464 190.833 152.61 190.646 151.891 190.271C151.183 189.885 150.605 189.369 150.157 188.724V190.646H148.36V173.849H150.157V180.583C150.605 179.927 151.183 179.411 151.891 179.036C152.61 178.651 153.464 178.458 154.454 178.458C155.621 178.458 156.641 178.734 157.516 179.286C158.391 179.838 159.068 180.583 159.548 181.521C160.027 182.448 160.266 183.489 160.266 184.646C160.266 185.781 160.027 186.823 159.548 187.771C159.068 188.708 158.391 189.453 157.516 190.005C156.641 190.557 155.621 190.833 154.454 190.833ZM154.22 189.208C155.115 189.208 155.876 189 156.501 188.583C157.136 188.166 157.621 187.609 157.954 186.911C158.287 186.213 158.454 185.458 158.454 184.646C158.454 183.812 158.287 183.052 157.954 182.364C157.621 181.677 157.136 181.125 156.501 180.708C155.876 180.291 155.115 180.083 154.22 180.083C153.334 180.083 152.579 180.291 151.954 180.708C151.329 181.125 150.855 181.677 150.532 182.364C150.22 183.052 150.063 183.812 150.063 184.646C150.063 185.458 150.22 186.213 150.532 186.911C150.855 187.609 151.329 188.166 151.954 188.583C152.579 189 153.334 189.208 154.22 189.208ZM162.64 190.646V178.646H164.437V181.599C164.499 181.39 164.624 181.114 164.812 180.771C164.999 180.427 165.265 180.078 165.609 179.724C165.963 179.369 166.406 179.073 166.937 178.833C167.479 178.583 168.119 178.458 168.859 178.458H168.968V180.255H168.765C167.869 180.255 167.093 180.5 166.437 180.989C165.791 181.479 165.296 182.114 164.953 182.896C164.609 183.666 164.437 184.489 164.437 185.364V190.646H162.64ZM175.671 190.833C174.504 190.833 173.483 190.557 172.608 190.005C171.733 189.453 171.056 188.708 170.577 187.771C170.098 186.823 169.858 185.781 169.858 184.646C169.858 183.489 170.098 182.448 170.577 181.521C171.056 180.583 171.733 179.838 172.608 179.286C173.483 178.734 174.504 178.458 175.671 178.458C176.66 178.458 177.509 178.651 178.217 179.036C178.936 179.411 179.52 179.927 179.967 180.583V178.646H181.764V190.646H179.967V188.724C179.52 189.369 178.936 189.885 178.217 190.271C177.509 190.646 176.66 190.833 175.671 190.833ZM175.905 189.208C176.801 189.208 177.556 189 178.171 188.583C178.796 188.166 179.264 187.609 179.577 186.911C179.9 186.213 180.061 185.458 180.061 184.646C180.061 183.812 179.9 183.052 179.577 182.364C179.264 181.677 178.796 181.125 178.171 180.708C177.556 180.291 176.801 180.083 175.905 180.083C175.03 180.083 174.27 180.291 173.624 180.708C172.988 181.125 172.499 181.677 172.155 182.364C171.822 183.052 171.655 183.812 171.655 184.646C171.655 185.458 171.822 186.213 172.155 186.911C172.499 187.609 172.988 188.166 173.624 188.583C174.27 189 175.03 189.208 175.905 189.208ZM184.888 190.646V178.646H186.685V180.521C187.122 179.948 187.648 179.463 188.263 179.067C188.888 178.661 189.69 178.458 190.669 178.458C191.503 178.458 192.284 178.656 193.013 179.052C193.742 179.437 194.331 180.021 194.779 180.802C195.237 181.573 195.466 182.526 195.466 183.661V190.646H193.669V183.708C193.669 182.625 193.357 181.75 192.732 181.083C192.107 180.416 191.3 180.083 190.31 180.083C189.633 180.083 189.023 180.239 188.482 180.552C187.94 180.854 187.503 181.281 187.169 181.833C186.846 182.385 186.685 183.021 186.685 183.739V190.646H184.888ZM203.535 190.833C202.368 190.833 201.347 190.557 200.472 190.005C199.597 189.453 198.92 188.708 198.441 187.771C197.962 186.823 197.722 185.781 197.722 184.646C197.722 183.489 197.962 182.448 198.441 181.521C198.92 180.583 199.597 179.838 200.472 179.286C201.347 178.734 202.368 178.458 203.535 178.458C204.524 178.458 205.373 178.651 206.081 179.036C206.8 179.411 207.383 179.927 207.831 180.583V173.849H209.628V190.646H207.831V188.724C207.383 189.369 206.8 189.885 206.081 190.271C205.373 190.646 204.524 190.833 203.535 190.833ZM203.769 189.208C204.665 189.208 205.42 189 206.035 188.583C206.66 188.166 207.128 187.609 207.441 186.911C207.764 186.213 207.925 185.458 207.925 184.646C207.925 183.812 207.764 183.052 207.441 182.364C207.128 181.677 206.66 181.125 206.035 180.708C205.42 180.291 204.665 180.083 203.769 180.083C202.894 180.083 202.133 180.291 201.488 180.708C200.852 181.125 200.363 181.677 200.019 182.364C199.686 183.052 199.519 183.812 199.519 184.646C199.519 185.458 199.686 186.213 200.019 186.911C200.363 187.609 200.852 188.166 201.488 188.583C202.133 189 202.894 189.208 203.769 189.208ZM223.02 190.833C221.822 190.833 220.781 190.557 219.895 190.005C219.02 189.453 218.338 188.708 217.848 187.771C217.359 186.823 217.114 185.781 217.114 184.646C217.114 183.489 217.359 182.448 217.848 181.521C218.338 180.583 219.02 179.838 219.895 179.286C220.781 178.734 221.822 178.458 223.02 178.458C224.447 178.458 225.661 178.828 226.661 179.567C227.661 180.297 228.338 181.244 228.692 182.411H226.739C226.468 181.724 226.031 181.166 225.426 180.739C224.833 180.302 224.109 180.083 223.255 180.083C222.38 180.083 221.614 180.291 220.958 180.708C220.301 181.125 219.796 181.677 219.442 182.364C219.088 183.052 218.911 183.812 218.911 184.646C218.911 185.458 219.088 186.213 219.442 186.911C219.796 187.609 220.301 188.166 220.958 188.583C221.614 189 222.38 189.208 223.255 189.208C224.109 189.208 224.833 188.994 225.426 188.567C226.031 188.13 226.468 187.567 226.739 186.88H228.692C228.338 188.047 227.661 189 226.661 189.739C225.661 190.468 224.447 190.833 223.02 190.833ZM236.123 190.833C234.904 190.833 233.847 190.557 232.951 190.005C232.055 189.453 231.368 188.708 230.889 187.771C230.41 186.823 230.17 185.781 230.17 184.646C230.17 183.489 230.41 182.448 230.889 181.521C231.368 180.583 232.055 179.838 232.951 179.286C233.847 178.734 234.904 178.458 236.123 178.458C237.352 178.458 238.41 178.734 239.295 179.286C240.191 179.838 240.878 180.583 241.357 181.521C241.837 182.448 242.076 183.489 242.076 184.646C242.076 185.781 241.837 186.823 241.357 187.771C240.878 188.708 240.191 189.453 239.295 190.005C238.41 190.557 237.352 190.833 236.123 190.833ZM236.123 189.208C237.019 189.208 237.774 189 238.389 188.583C239.003 188.166 239.472 187.609 239.795 186.911C240.118 186.213 240.279 185.458 240.279 184.646C240.279 183.812 240.118 183.052 239.795 182.364C239.472 181.677 239.003 181.125 238.389 180.708C237.774 180.291 237.019 180.083 236.123 180.083C235.248 180.083 234.498 180.291 233.873 180.708C233.248 181.125 232.774 181.677 232.451 182.364C232.128 183.052 231.967 183.812 231.967 184.646C231.967 185.458 232.128 186.213 232.451 186.911C232.774 187.609 233.248 188.166 233.873 188.583C234.498 189 235.248 189.208 236.123 189.208ZM244.456 190.646V173.849H246.253V190.646H244.456ZM254.579 190.833C253.36 190.833 252.303 190.557 251.407 190.005C250.511 189.453 249.824 188.708 249.345 187.771C248.865 186.823 248.626 185.781 248.626 184.646C248.626 183.489 248.865 182.448 249.345 181.521C249.824 180.583 250.511 179.838 251.407 179.286C252.303 178.734 253.36 178.458 254.579 178.458C255.808 178.458 256.865 178.734 257.751 179.286C258.647 179.838 259.334 180.583 259.813 181.521C260.293 182.448 260.532 183.489 260.532 184.646C260.532 185.781 260.293 186.823 259.813 187.771C259.334 188.708 258.647 189.453 257.751 190.005C256.865 190.557 255.808 190.833 254.579 190.833ZM254.579 189.208C255.475 189.208 256.23 189 256.845 188.583C257.459 188.166 257.928 187.609 258.251 186.911C258.574 186.213 258.735 185.458 258.735 184.646C258.735 183.812 258.574 183.052 258.251 182.364C257.928 181.677 257.459 181.125 256.845 180.708C256.23 180.291 255.475 180.083 254.579 180.083C253.704 180.083 252.954 180.291 252.329 180.708C251.704 181.125 251.23 181.677 250.907 182.364C250.584 183.052 250.423 183.812 250.423 184.646C250.423 185.458 250.584 186.213 250.907 186.911C251.23 187.609 251.704 188.166 252.329 188.583C252.954 189 253.704 189.208 254.579 189.208ZM262.912 190.646V178.646H264.709V181.599C264.771 181.39 264.896 181.114 265.084 180.771C265.271 180.427 265.537 180.078 265.881 179.724C266.235 179.369 266.677 179.073 267.209 178.833C267.75 178.583 268.391 178.458 269.131 178.458H269.24V180.255H269.037C268.141 180.255 267.365 180.5 266.709 180.989C266.063 181.479 265.568 182.114 265.224 182.896C264.881 183.666 264.709 184.489 264.709 185.364V190.646H262.912ZM275.082 186.255C275.082 185.474 275.218 184.807 275.489 184.255C275.76 183.703 276.093 183.224 276.489 182.817C276.895 182.401 277.291 182.005 277.676 181.63C278.072 181.255 278.405 180.859 278.676 180.442C278.947 180.015 279.082 179.505 279.082 178.911C279.082 178.505 278.989 178.099 278.801 177.692C278.624 177.276 278.312 176.927 277.864 176.646C277.416 176.364 276.801 176.224 276.02 176.224C275.228 176.224 274.562 176.375 274.02 176.677C273.489 176.979 273.077 177.38 272.786 177.88C272.494 178.369 272.322 178.896 272.27 179.458H270.567C270.619 178.583 270.864 177.776 271.301 177.036C271.739 176.286 272.343 175.687 273.114 175.239C273.895 174.791 274.812 174.567 275.864 174.567C277.02 174.567 277.963 174.781 278.692 175.208C279.421 175.625 279.952 176.166 280.286 176.833C280.619 177.5 280.786 178.192 280.786 178.911C280.786 179.661 280.655 180.291 280.395 180.802C280.135 181.302 279.806 181.75 279.411 182.146C279.015 182.531 278.614 182.911 278.207 183.286C277.812 183.651 277.483 184.067 277.223 184.536C276.963 185.005 276.832 185.578 276.832 186.255H275.082ZM274.786 190.646V188.192H277.114V190.646H274.786Z" fill="black"/>
</svg>
