<svg width="439" height="141" viewBox="0 0 439 141" fill="none" xmlns="http://www.w3.org/2000/svg">
<path d="M114.207 45.6035C112.707 45.6035 111.3 45.3066 109.988 44.7129C108.686 44.1087 107.55 43.2441 106.582 42.1191C105.613 40.9837 104.847 39.5931 104.285 37.9473C103.733 36.3014 103.457 34.4368 103.457 32.3535C103.457 30.3848 103.696 28.5827 104.175 26.9473C104.665 25.3014 105.389 23.8796 106.347 22.6816C107.306 21.4837 108.493 20.5566 109.91 19.9004C111.326 19.2441 112.967 18.916 114.832 18.916C116.352 18.916 117.795 19.1921 119.16 19.7441C120.535 20.2858 121.738 21.1035 122.769 22.1973C123.8 23.291 124.613 24.6608 125.207 26.3066C125.811 27.9421 126.113 29.8587 126.113 32.0566C126.113 33.8483 125.878 35.541 125.41 37.1348C124.951 38.7181 124.253 40.1348 123.316 41.3848L125.441 43.1348C125.712 43.3639 125.962 43.6452 126.191 43.9785C126.431 44.3118 126.55 44.6921 126.55 45.1191C126.55 45.6191 126.352 46.015 125.957 46.3066C125.561 46.6087 125.087 46.7598 124.535 46.7598C123.837 46.7598 123.102 46.4108 122.332 45.7129L120.394 44.041C119.55 44.5306 118.618 44.916 117.597 45.1973C116.576 45.4681 115.446 45.6035 114.207 45.6035ZM114.269 42.0879C115.644 42.0879 116.842 41.8118 117.863 41.2598C118.884 40.6973 119.727 39.9577 120.394 39.041C121.071 38.1139 121.571 37.0462 121.894 35.8379C122.217 34.6296 122.378 33.39 122.378 32.1191C122.378 30.5775 122.17 29.2077 121.753 28.0098C121.347 26.8014 120.795 25.7858 120.097 24.9629C119.399 24.14 118.587 23.5098 117.66 23.0723C116.743 22.6348 115.764 22.416 114.722 22.416C113.483 22.416 112.394 22.6816 111.457 23.2129C110.519 23.7337 109.733 24.4421 109.097 25.3379C108.472 26.2337 107.993 27.2858 107.66 28.4941C107.337 29.6921 107.175 30.9785 107.175 32.3535C107.175 33.8223 107.363 35.1608 107.738 36.3691C108.113 37.5671 108.618 38.5931 109.253 39.4473C109.889 40.291 110.639 40.9421 111.503 41.4004C112.378 41.8587 113.3 42.0879 114.269 42.0879ZM138.835 45.8691C136.002 45.8691 133.924 45.0931 132.601 43.541C132.08 42.9473 131.638 42.1868 131.273 41.2598C130.919 40.3223 130.632 39.1087 130.414 37.6191C130.205 36.1191 130.054 34.2702 129.96 32.0723C129.877 29.8639 129.835 27.1816 129.835 24.0254C129.835 23.0046 129.861 22.166 129.914 21.5098C129.966 20.8431 130.065 20.3171 130.21 19.9316C130.367 19.5462 130.559 19.2806 130.789 19.1348C131.028 18.9889 131.335 18.916 131.71 18.916C132.429 18.916 132.934 19.2389 133.226 19.8848C133.528 20.5306 133.679 21.6504 133.679 23.2441C133.679 23.7858 133.674 24.2702 133.664 24.6973C133.653 25.1243 133.648 25.5566 133.648 25.9941C133.648 26.4212 133.643 26.9004 133.632 27.4316C133.622 27.9525 133.617 28.5827 133.617 29.3223C133.617 31.8118 133.695 33.8796 133.851 35.5254C134.018 37.1712 134.299 38.4837 134.695 39.4629C135.091 40.4421 135.632 41.1348 136.32 41.541C137.007 41.9368 137.856 42.1348 138.867 42.1348C139.94 42.1348 140.83 41.916 141.539 41.4785C142.247 41.041 142.815 40.3066 143.242 39.2754C143.669 38.2441 143.971 36.8691 144.148 35.1504C144.335 33.4316 144.429 31.291 144.429 28.7285C144.429 27.6139 144.424 26.6608 144.414 25.8691C144.403 25.0671 144.398 24.3431 144.398 23.6973C144.398 22.7702 144.429 21.9993 144.492 21.3848C144.554 20.7598 144.653 20.265 144.789 19.9004C144.924 19.5358 145.117 19.2806 145.367 19.1348C145.617 18.9889 145.929 18.916 146.304 18.916C146.679 18.916 146.992 18.9889 147.242 19.1348C147.492 19.2806 147.69 19.541 147.835 19.916C147.981 20.291 148.08 20.8118 148.132 21.4785C148.184 22.1348 148.21 22.9837 148.21 24.0254C148.21 28.4108 148.07 32.015 147.789 34.8379C147.518 37.6608 147.033 39.89 146.335 41.5254C145.638 43.1504 144.684 44.2806 143.476 44.916C142.278 45.5514 140.731 45.8691 138.835 45.8691ZM152.915 39.5566C152.863 38.7546 152.811 37.6712 152.758 36.3066C152.706 34.9421 152.68 33.5358 152.68 32.0879C152.68 31.265 152.686 30.416 152.696 29.541C152.717 28.6556 152.738 27.7493 152.758 26.8223C152.811 24.9785 152.93 23.5358 153.118 22.4941C153.305 21.4525 153.675 20.6712 154.227 20.1504C154.79 19.6191 155.581 19.2962 156.602 19.1816C157.623 19.0566 158.982 18.9941 160.68 18.9941C160.701 18.9941 160.967 18.9941 161.477 18.9941C161.988 18.9941 162.602 18.9993 163.321 19.0098C164.04 19.0202 164.79 19.041 165.571 19.0723C166.363 19.0931 167.019 19.1139 167.54 19.1348C168.092 19.1868 168.534 19.2598 168.868 19.3535C169.201 19.4368 169.456 19.5462 169.633 19.6816C169.811 19.8171 169.92 19.9785 169.962 20.166C170.014 20.3535 170.04 20.5566 170.04 20.7754C170.04 21.3483 169.878 21.765 169.555 22.0254C169.232 22.2858 168.576 22.4525 167.587 22.5254C167.087 22.5775 166.357 22.6139 165.399 22.6348C164.441 22.6452 163.462 22.6504 162.462 22.6504C161.472 22.6504 160.576 22.6556 159.774 22.666C158.982 22.6764 158.488 22.6816 158.29 22.6816C157.644 22.7025 157.186 22.8483 156.915 23.1191C156.654 23.3796 156.524 23.9941 156.524 24.9629C156.524 25.1816 156.545 25.7233 156.587 26.5879C156.628 27.4421 156.649 28.64 156.649 30.1816H159.743C161.055 30.1816 162.128 30.2025 162.962 30.2441C163.805 30.2754 164.456 30.3535 164.915 30.4785C165.373 30.6035 165.686 30.8066 165.852 31.0879C166.029 31.3587 166.118 31.7181 166.118 32.166C166.118 32.3848 166.097 32.5879 166.055 32.7754C166.024 32.9629 165.92 33.1243 165.743 33.2598C165.576 33.3952 165.331 33.5098 165.008 33.6035C164.686 33.6868 164.222 33.7546 163.618 33.8066C162.899 33.8587 162.222 33.89 161.587 33.9004C160.951 33.9108 160.321 33.916 159.696 33.916H156.571C156.571 34.291 156.571 34.7389 156.571 35.2598C156.571 35.7806 156.571 36.3171 156.571 36.8691C156.571 37.4108 156.576 37.9473 156.587 38.4785C156.597 38.9993 156.618 39.4212 156.649 39.7441C156.67 40.14 156.722 40.4785 156.805 40.7598C156.899 41.0306 157.061 41.2546 157.29 41.4316C157.529 41.5983 157.878 41.7181 158.337 41.791C158.795 41.8639 159.415 41.9004 160.196 41.9004H168.212C169.087 41.9004 169.633 42.0618 169.852 42.3848C170.081 42.7077 170.196 43.1452 170.196 43.6973C170.196 44.1452 170.097 44.4889 169.899 44.7285C169.701 44.9577 169.222 45.1296 168.462 45.2441C167.701 45.3587 166.566 45.4264 165.055 45.4473C163.555 45.4785 161.488 45.4941 158.852 45.4941C157.727 45.4941 156.8 45.3952 156.071 45.1973C155.352 44.9889 154.769 44.6504 154.321 44.1816C153.873 43.7129 153.545 43.0983 153.337 42.3379C153.128 41.5775 152.988 40.6504 152.915 39.5566ZM182.283 18.8691C182.981 18.8691 183.783 18.9264 184.689 19.041C185.606 19.1556 186.46 19.3587 187.252 19.6504C188.043 19.9316 188.715 20.3014 189.267 20.7598C189.819 21.2181 190.095 21.7858 190.095 22.4629C190.095 22.8587 189.981 23.1921 189.752 23.4629C189.533 23.7337 189.173 23.8691 188.673 23.8691C188.298 23.8691 187.918 23.7962 187.533 23.6504C187.147 23.5046 186.71 23.3535 186.22 23.1973C185.741 23.0306 185.184 22.8743 184.548 22.7285C183.913 22.5723 183.173 22.4941 182.33 22.4941C180.684 22.4941 179.465 22.7858 178.673 23.3691C177.892 23.9525 177.502 24.7546 177.502 25.7754C177.502 26.4733 177.673 27.0618 178.017 27.541C178.371 28.0098 178.84 28.416 179.423 28.7598C180.017 29.0931 180.679 29.3743 181.408 29.6035C182.147 29.8223 182.903 30.0306 183.673 30.2285C184.538 30.4473 185.397 30.7181 186.252 31.041C187.116 31.3639 187.882 31.791 188.548 32.3223C189.226 32.8431 189.767 33.4993 190.173 34.291C190.59 35.0827 190.798 36.0931 190.798 37.3223C190.798 38.5827 190.559 39.7181 190.08 40.7285C189.611 41.7389 188.965 42.5983 188.142 43.3066C187.319 44.015 186.335 44.5618 185.189 44.9473C184.054 45.3327 182.814 45.5254 181.47 45.5254C180.72 45.5254 179.845 45.4577 178.845 45.3223C177.856 45.1868 176.913 44.9525 176.017 44.6191C175.121 44.2754 174.361 43.8275 173.736 43.2754C173.111 42.7129 172.798 42.0202 172.798 41.1973C172.798 40.6973 172.929 40.3014 173.189 40.0098C173.46 39.7077 173.856 39.5566 174.377 39.5566C174.793 39.5566 175.137 39.64 175.408 39.8066C175.689 39.9629 175.929 40.14 176.127 40.3379C176.877 40.9837 177.72 41.4212 178.658 41.6504C179.606 41.8691 180.58 41.9785 181.58 41.9785C182.153 41.9785 182.757 41.9368 183.392 41.8535C184.028 41.7598 184.606 41.5775 185.127 41.3066C185.647 41.0358 186.08 40.6452 186.423 40.1348C186.778 39.6243 186.955 38.9316 186.955 38.0566C186.955 37.265 186.798 36.6139 186.486 36.1035C186.173 35.5931 185.757 35.166 185.236 34.8223C184.715 34.4681 184.101 34.1816 183.392 33.9629C182.684 33.7337 181.918 33.5098 181.095 33.291C180.168 33.041 179.257 32.765 178.361 32.4629C177.465 32.1608 176.668 31.7546 175.97 31.2441C175.283 30.7337 174.72 30.0879 174.283 29.3066C173.845 28.5254 173.627 27.5254 173.627 26.3066C173.627 25.0879 173.851 24.0202 174.298 23.1035C174.746 22.1764 175.356 21.4004 176.127 20.7754C176.897 20.1504 177.809 19.6764 178.861 19.3535C179.923 19.0306 181.064 18.8691 182.283 18.8691ZM209.43 22.5254C208.732 22.5775 207.987 22.6191 207.195 22.6504C206.414 22.6712 205.55 22.6921 204.602 22.7129C204.633 23.39 204.659 24.0202 204.68 24.6035C204.711 25.1868 204.737 25.7806 204.758 26.3848C204.779 26.9785 204.794 27.5983 204.805 28.2441C204.826 28.89 204.836 29.6139 204.836 30.416C204.836 31.5306 204.836 32.6035 204.836 33.6348C204.836 34.666 204.82 35.7025 204.789 36.7441C204.768 37.7754 204.742 38.8118 204.711 39.8535C204.69 40.8952 204.654 41.9785 204.602 43.1035C204.581 43.6973 204.523 44.1556 204.43 44.4785C204.346 44.8014 204.232 45.0514 204.086 45.2285C203.94 45.4056 203.763 45.5098 203.555 45.541C203.357 45.5827 203.138 45.6035 202.898 45.6035C202.451 45.6035 202.07 45.4473 201.758 45.1348C201.445 44.8223 201.263 44.1556 201.211 43.1348C201.159 42.2389 201.128 41.2962 201.117 40.3066C201.107 39.3066 201.086 38.2337 201.055 37.0879C201.034 35.9421 201.023 34.7077 201.023 33.3848C201.023 32.0514 201.023 30.5723 201.023 28.9473C201.023 27.5827 201.029 26.39 201.039 25.3691C201.06 24.3483 201.091 23.4629 201.133 22.7129H199.602C198.56 22.7129 197.669 22.7025 196.93 22.6816C196.201 22.6608 195.596 22.5931 195.117 22.4785C194.648 22.3639 194.31 22.1816 194.102 21.9316C193.893 21.6816 193.789 21.3327 193.789 20.8848C193.789 20.666 193.81 20.4629 193.852 20.2754C193.904 20.0879 194.018 19.916 194.195 19.7598C194.372 19.5931 194.612 19.4629 194.914 19.3691C195.227 19.265 195.633 19.1868 196.133 19.1348C196.612 19.1139 197.034 19.0931 197.398 19.0723C197.773 19.041 198.148 19.015 198.523 18.9941C198.898 18.9629 199.284 18.9473 199.68 18.9473C200.076 18.9473 200.539 18.9473 201.07 18.9473C202.529 18.9473 203.909 18.9629 205.211 18.9941C206.523 19.015 207.914 19.0618 209.383 19.1348C209.987 19.1868 210.451 19.2598 210.773 19.3535C211.096 19.4368 211.341 19.5514 211.508 19.6973C211.685 19.8431 211.789 20.015 211.82 20.2129C211.862 20.4108 211.883 20.6348 211.883 20.8848C211.883 21.3327 211.727 21.7077 211.414 22.0098C211.112 22.3118 210.451 22.4837 209.43 22.5254ZM215.805 42.916C215.753 42.0202 215.722 41.0879 215.711 40.1191C215.701 39.1504 215.68 38.1087 215.649 36.9941C215.628 35.8691 215.617 34.6556 215.617 33.3535C215.617 32.041 215.617 30.5723 215.617 28.9473C215.617 27.1868 215.628 25.6764 215.649 24.416C215.68 23.1556 215.758 22.1296 215.883 21.3379C216.008 20.5462 216.201 19.9629 216.461 19.5879C216.722 19.2129 217.076 19.0254 217.524 19.0254C217.753 19.0254 217.966 19.0514 218.164 19.1035C218.362 19.1452 218.534 19.2493 218.68 19.416C218.826 19.5827 218.956 19.8223 219.071 20.1348C219.185 20.4368 219.253 20.8379 219.274 21.3379C219.326 22.2337 219.362 23.0306 219.383 23.7285C219.414 24.4264 219.44 25.1191 219.461 25.8066C219.492 26.4837 219.508 27.1921 219.508 27.9316C219.508 28.6608 219.508 29.4889 219.508 30.416C219.508 31.5306 219.508 32.5983 219.508 33.6191C219.508 34.64 219.492 35.6504 219.461 36.6504C219.44 37.64 219.414 38.6452 219.383 39.666C219.362 40.6868 219.326 41.7546 219.274 42.8691C219.253 43.4733 219.19 43.9368 219.086 44.2598C218.992 44.5827 218.867 44.8327 218.711 45.0098C218.565 45.1764 218.393 45.2806 218.196 45.3223C217.998 45.3639 217.774 45.3848 217.524 45.3848C217.076 45.3848 216.69 45.2285 216.367 44.916C216.044 44.6035 215.857 43.9368 215.805 42.916ZM234.366 45.6035C232.866 45.6035 231.46 45.3066 230.147 44.7129C228.845 44.1087 227.71 43.2441 226.741 42.1191C225.772 40.9837 225.007 39.5931 224.444 37.9473C223.892 36.3014 223.616 34.4368 223.616 32.3535C223.616 30.3848 223.856 28.5827 224.335 26.9473C224.824 25.3014 225.548 23.8796 226.507 22.6816C227.465 21.4837 228.653 20.5566 230.069 19.9004C231.486 19.2441 233.127 18.916 234.991 18.916C236.512 18.916 237.955 19.1921 239.319 19.7441C240.694 20.2858 241.897 21.1035 242.929 22.1973C243.96 23.291 244.772 24.6608 245.366 26.3066C245.97 27.9421 246.272 29.8587 246.272 32.0566C246.272 33.8691 246.028 35.5983 245.538 37.2441C245.059 38.8796 244.324 40.3171 243.335 41.5566C242.356 42.7858 241.116 43.7702 239.616 44.5098C238.127 45.2389 236.377 45.6035 234.366 45.6035ZM234.429 42.0879C235.804 42.0879 237.002 41.8118 238.022 41.2598C239.043 40.6973 239.887 39.9577 240.554 39.041C241.231 38.1139 241.731 37.0462 242.054 35.8379C242.377 34.6296 242.538 33.39 242.538 32.1191C242.538 30.5775 242.33 29.2077 241.913 28.0098C241.507 26.8014 240.955 25.7858 240.257 24.9629C239.559 24.14 238.746 23.5098 237.819 23.0723C236.903 22.6348 235.923 22.416 234.882 22.416C233.642 22.416 232.554 22.6816 231.616 23.2129C230.679 23.7337 229.892 24.4421 229.257 25.3379C228.632 26.2337 228.153 27.2858 227.819 28.4941C227.496 29.6921 227.335 30.9785 227.335 32.3535C227.335 33.8223 227.522 35.1608 227.897 36.3691C228.272 37.5671 228.778 38.5931 229.413 39.4473C230.048 40.291 230.798 40.9421 231.663 41.4004C232.538 41.8587 233.46 42.0879 234.429 42.0879ZM264.776 43.4785C263.985 42.3848 263.235 41.2962 262.526 40.2129C261.818 39.1296 261.057 37.9421 260.245 36.6504C259.432 35.3483 258.511 33.9108 257.479 32.3379C256.448 30.7546 255.214 28.9056 253.776 26.791C253.776 28.6556 253.776 30.3275 253.776 31.8066C253.776 33.2858 253.761 34.6608 253.729 35.9316C253.709 37.2025 253.682 38.4004 253.651 39.5254C253.63 40.64 253.594 41.7546 253.542 42.8691C253.521 43.4733 253.464 43.9368 253.37 44.2598C253.287 44.5827 253.172 44.8327 253.026 45.0098C252.88 45.1764 252.714 45.2806 252.526 45.3223C252.339 45.3639 252.12 45.3848 251.87 45.3848C251.422 45.3848 251.047 45.2285 250.745 44.916C250.443 44.6035 250.271 43.9368 250.229 42.916C250.104 40.1764 250.031 37.4316 250.011 34.6816C250 31.9316 249.995 29.0879 249.995 26.1504C249.995 24.4837 250.016 23.1816 250.057 22.2441C250.099 21.2962 250.188 20.5879 250.323 20.1191C250.459 19.64 250.641 19.3379 250.87 19.2129C251.11 19.0879 251.427 19.0254 251.823 19.0254C252.229 19.0254 252.755 19.3327 253.401 19.9473C254.047 20.5514 254.755 21.3535 255.526 22.3535C256.297 23.3431 257.125 24.4889 258.011 25.791C258.896 27.0827 259.771 28.4108 260.636 29.7754C261.511 31.14 262.349 32.4941 263.151 33.8379C263.964 35.1816 264.709 36.4004 265.386 37.4941C265.354 36.3275 265.339 35.041 265.339 33.6348C265.339 32.2285 265.339 30.666 265.339 28.9473C265.339 26.9889 265.349 25.3691 265.37 24.0879C265.401 22.8066 265.474 21.791 265.589 21.041C265.703 20.291 265.88 19.7702 266.12 19.4785C266.37 19.1764 266.719 19.0254 267.167 19.0254C267.594 19.0254 267.969 19.1608 268.292 19.4316C268.615 19.7025 268.802 20.3379 268.854 21.3379C268.906 22.2337 268.943 23.0306 268.964 23.7285C268.985 24.4264 269.005 25.1191 269.026 25.8066C269.057 26.4837 269.073 27.1921 269.073 27.9316C269.073 28.6608 269.073 29.4889 269.073 30.416C269.073 31.5306 269.073 32.5983 269.073 33.6191C269.073 34.64 269.057 35.6504 269.026 36.6504C269.005 37.64 268.985 38.6452 268.964 39.666C268.943 40.6868 268.906 41.7546 268.854 42.8691C268.823 43.4733 268.766 43.9368 268.682 44.2598C268.599 44.5827 268.479 44.8327 268.323 45.0098C268.177 45.1764 268.011 45.2806 267.823 45.3223C267.636 45.3639 267.417 45.3848 267.167 45.3848C266.75 45.3848 266.391 45.2598 266.089 45.0098C265.787 44.7598 265.349 44.2493 264.776 43.4785Z" fill="#3D7E81"/>
<path d="M280.616 32.4629C280.616 30.9421 280.757 29.3848 281.038 27.791C281.33 26.1973 281.845 24.7546 282.585 23.4629C283.335 22.1712 284.351 21.1139 285.632 20.291C286.913 19.4681 288.549 19.0566 290.538 19.0566C292.111 19.0566 293.45 19.2962 294.554 19.7754C295.658 20.2441 296.569 20.8639 297.288 21.6348C298.017 22.4056 298.58 23.2858 298.976 24.2754C299.371 25.2546 299.668 26.2806 299.866 27.3535C300.064 28.416 300.184 29.4733 300.226 30.5254C300.267 31.5671 300.288 32.5254 300.288 33.4004C300.288 35.14 300.08 36.7389 299.663 38.1973C299.257 39.6452 298.637 40.8952 297.804 41.9473C296.97 42.9889 295.924 43.8014 294.663 44.3848C293.403 44.9681 291.929 45.2598 290.241 45.2598C288.47 45.2598 286.97 44.9212 285.741 44.2441C284.512 43.5566 283.517 42.6348 282.757 41.4785C281.996 40.3223 281.45 38.9681 281.116 37.416C280.783 35.8535 280.616 34.2025 280.616 32.4629ZM284.335 32.3848C284.335 33.6035 284.439 34.7702 284.647 35.8848C284.866 36.9889 285.21 37.9577 285.679 38.791C286.158 39.6243 286.778 40.291 287.538 40.791C288.299 41.2806 289.226 41.5254 290.319 41.5254C291.361 41.5254 292.272 41.3171 293.054 40.9004C293.845 40.4733 294.502 39.8848 295.022 39.1348C295.543 38.3743 295.929 37.4733 296.179 36.4316C296.429 35.3796 296.554 34.2441 296.554 33.0254C296.554 32.0983 296.512 31.0462 296.429 29.8691C296.356 28.6816 296.127 27.5671 295.741 26.5254C295.356 25.4837 294.752 24.6035 293.929 23.8848C293.116 23.1556 291.976 22.791 290.507 22.791C289.257 22.791 288.241 23.0931 287.46 23.6973C286.679 24.291 286.049 25.0566 285.569 25.9941C285.101 26.9212 284.778 27.9525 284.601 29.0879C284.424 30.2129 284.335 31.3118 284.335 32.3848ZM317.634 37.4941C317.613 38.4421 317.603 39.4785 317.603 40.6035C317.603 41.7181 317.566 42.7598 317.493 43.7285C317.441 44.4785 317.269 44.9629 316.978 45.1816C316.696 45.39 316.306 45.4941 315.806 45.4941C315.358 45.4941 315.014 45.4108 314.774 45.2441C314.545 45.0879 314.373 44.7441 314.259 44.2129C314.144 43.6712 314.077 42.8848 314.056 41.8535C314.035 40.8223 314.024 39.4316 314.024 37.6816C313.202 37.6816 312.415 37.6973 311.665 37.7285C310.915 37.7493 310.196 37.7598 309.509 37.7598C308.457 37.7598 307.498 37.7389 306.634 37.6973C305.78 37.6452 305.045 37.5514 304.431 37.416C303.827 37.2702 303.358 37.0775 303.024 36.8379C302.691 36.5879 302.524 36.2598 302.524 35.8535C302.524 35.3118 302.748 34.6243 303.196 33.791C303.644 32.9577 304.202 32.0566 304.868 31.0879C305.545 30.1087 306.264 29.1191 307.024 28.1191C307.785 27.1087 308.488 26.166 309.134 25.291C309.426 24.8952 309.853 24.3431 310.415 23.6348C310.978 22.9264 311.582 22.2181 312.228 21.5098C312.873 20.8014 313.519 20.1868 314.165 19.666C314.811 19.1348 315.358 18.8691 315.806 18.8691C316.233 18.8691 316.608 19.0098 316.931 19.291C317.254 19.5618 317.441 20.1921 317.493 21.1816C317.587 22.6296 317.644 24.1452 317.665 25.7285C317.696 27.3014 317.712 28.8639 317.712 30.416V34.1035C318.41 34.1556 318.967 34.2181 319.384 34.291C319.811 34.3639 320.134 34.4681 320.353 34.6035C320.582 34.7389 320.733 34.9108 320.806 35.1191C320.889 35.3171 320.931 35.5618 320.931 35.8535C320.931 36.4785 320.644 36.9004 320.071 37.1191C319.498 37.3275 318.686 37.4525 317.634 37.4941ZM313.978 25.291C312.884 26.6139 311.957 27.7441 311.196 28.6816C310.436 29.6087 309.79 30.4108 309.259 31.0879C308.728 31.7546 308.269 32.3275 307.884 32.8066C307.498 33.2754 307.155 33.6973 306.853 34.0723C307.998 34.0202 309.176 33.9889 310.384 33.9785C311.592 33.9681 312.79 33.9629 313.978 33.9629V25.291Z" fill="#F39342"/>
<path d="M36.124 76.7632C34.8011 76.7632 33.6553 76.4611 32.6865 75.8569C31.7282 75.2528 30.9938 74.4403 30.4834 73.4194C29.973 72.3882 29.7178 71.2424 29.7178 69.9819C29.7178 68.7319 29.973 67.5965 30.4834 66.5757C30.9938 65.5444 31.7282 64.7267 32.6865 64.1226C33.6553 63.508 34.8011 63.2007 36.124 63.2007C37.124 63.2007 38.0199 63.3778 38.8115 63.7319C39.6136 64.0861 40.2959 64.5705 40.8584 65.1851C41.4209 65.7996 41.8428 66.5132 42.124 67.3257H40.5303C40.1969 66.5132 39.6709 65.8674 38.9521 65.3882C38.2334 64.909 37.3271 64.6694 36.2334 64.6694C35.1709 64.6694 34.2594 64.909 33.499 65.3882C32.749 65.8569 32.1813 66.4924 31.7959 67.2944C31.4105 68.0861 31.2178 68.9819 31.2178 69.9819C31.2178 70.9715 31.4105 71.8726 31.7959 72.6851C32.1813 73.4871 32.749 74.1278 33.499 74.6069C34.2594 75.0757 35.1709 75.3101 36.2334 75.3101C37.3271 75.3101 38.2334 75.0705 38.9521 74.5913C39.6709 74.1121 40.1969 73.4663 40.5303 72.6538H42.124C41.8428 73.4455 41.4209 74.1538 40.8584 74.7788C40.2959 75.3934 39.6136 75.8778 38.8115 76.2319C38.0199 76.5861 37.124 76.7632 36.124 76.7632ZM48.3771 76.7632C47.3667 76.7632 46.4865 76.534 45.7365 76.0757C44.9865 75.6174 44.4136 74.9976 44.0178 74.2163C43.6219 73.4246 43.424 72.5549 43.424 71.6069C43.424 70.6486 43.6219 69.7788 44.0178 68.9976C44.4136 68.2163 44.9865 67.5965 45.7365 67.1382C46.4865 66.6799 47.3667 66.4507 48.3771 66.4507C49.4084 66.4507 50.2938 66.6799 51.0334 67.1382C51.773 67.5965 52.3407 68.2163 52.7365 68.9976C53.1323 69.7788 53.3303 70.6486 53.3303 71.6069C53.3303 72.5549 53.1323 73.4246 52.7365 74.2163C52.3407 74.9976 51.773 75.6174 51.0334 76.0757C50.2938 76.534 49.4084 76.7632 48.3771 76.7632ZM48.3771 75.4038C49.1271 75.4038 49.7573 75.2319 50.2678 74.8882C50.7782 74.5444 51.1636 74.0809 51.424 73.4976C51.6948 72.9142 51.8303 72.284 51.8303 71.6069C51.8303 70.909 51.6948 70.2736 51.424 69.7007C51.1636 69.1278 50.7782 68.6694 50.2678 68.3257C49.7573 67.9819 49.1271 67.8101 48.3771 67.8101C47.648 67.8101 47.023 67.9819 46.5021 68.3257C45.9813 68.6694 45.5855 69.1278 45.3146 69.7007C45.0542 70.2736 44.924 70.909 44.924 71.6069C44.924 72.284 45.0542 72.9142 45.3146 73.4976C45.5855 74.0809 45.9813 74.5444 46.5021 74.8882C47.023 75.2319 47.648 75.4038 48.3771 75.4038ZM55.3134 76.6069V66.6069H56.8134V68.1226C57.0426 67.7267 57.4019 67.3517 57.8915 66.9976C58.3915 66.633 59.0478 66.4507 59.8603 66.4507C60.5269 66.4507 61.1415 66.6278 61.704 66.9819C62.2769 67.3361 62.7196 67.8309 63.0321 68.4663C63.1676 68.2371 63.3759 67.9663 63.6571 67.6538C63.9488 67.3309 64.329 67.0496 64.7978 66.8101C65.2665 66.5705 65.8238 66.4507 66.4696 66.4507C67.1155 66.4507 67.7144 66.6174 68.2665 66.9507C68.829 67.284 69.2873 67.7632 69.6415 68.3882C69.9957 69.0028 70.1728 69.7267 70.1728 70.5601V76.6069H68.6728V70.6069C68.6728 69.7632 68.4332 69.0861 67.954 68.5757C67.4853 68.0653 66.9019 67.8101 66.204 67.8101C65.4644 67.8101 64.829 68.0601 64.2978 68.5601C63.7665 69.0496 63.5009 69.7371 63.5009 70.6226V76.6069H62.0009V70.6069C62.0009 69.7632 61.7613 69.0861 61.2821 68.5757C60.8134 68.0653 60.2248 67.8101 59.5165 67.8101C58.7873 67.8101 58.1519 68.0601 57.6103 68.5601C57.079 69.0496 56.8134 69.7371 56.8134 70.6226V76.6069H55.3134ZM72.6734 80.5601V66.6069H74.1734V68.2007C74.5484 67.659 75.0327 67.2319 75.6265 66.9194C76.2202 66.6069 76.9286 66.4507 77.7515 66.4507C78.7307 66.4507 79.5796 66.6799 80.2984 67.1382C81.0275 67.5965 81.59 68.2163 81.9859 68.9976C82.3921 69.7788 82.5952 70.6486 82.5952 71.6069C82.5952 72.5549 82.3921 73.4246 81.9859 74.2163C81.59 74.9976 81.0275 75.6174 80.2984 76.0757C79.5796 76.534 78.7307 76.7632 77.7515 76.7632C76.9286 76.7632 76.2202 76.6017 75.6265 76.2788C75.0327 75.9559 74.5484 75.5236 74.1734 74.9819V80.5601H72.6734ZM77.564 75.4038C78.3036 75.4038 78.9338 75.2319 79.4546 74.8882C79.9859 74.5444 80.3921 74.0809 80.6734 73.4976C80.9546 72.9142 81.0952 72.284 81.0952 71.6069C81.0952 70.909 80.9546 70.2736 80.6734 69.7007C80.3921 69.1278 79.9859 68.6694 79.4546 68.3257C78.9338 67.9819 78.3036 67.8101 77.564 67.8101C76.8244 67.8101 76.1942 67.9819 75.6734 68.3257C75.1525 68.6694 74.7567 69.1278 74.4859 69.7007C74.2255 70.2736 74.0952 70.909 74.0952 71.6069C74.0952 72.284 74.2255 72.9142 74.4859 73.4976C74.7567 74.0809 75.1525 74.5444 75.6734 74.8882C76.1942 75.2319 76.8244 75.4038 77.564 75.4038ZM84.5734 76.6069V62.6069H86.0734V76.6069H84.5734ZM93.1108 76.7632C92.1004 76.7632 91.215 76.534 90.4546 76.0757C89.6942 75.6174 89.1056 74.9976 88.689 74.2163C88.2723 73.4246 88.064 72.5549 88.064 71.6069C88.064 70.6486 88.2619 69.7788 88.6577 68.9976C89.0535 68.2163 89.6265 67.5965 90.3765 67.1382C91.1265 66.6799 92.0067 66.4507 93.0171 66.4507C94.0483 66.4507 94.9338 66.6799 95.6733 67.1382C96.4129 67.5965 96.9806 68.2163 97.3765 68.9976C97.7723 69.7788 97.9702 70.6486 97.9702 71.6069V72.2007H89.5952C89.6785 72.7944 89.866 73.3361 90.1577 73.8257C90.4598 74.3049 90.866 74.6903 91.3765 74.9819C91.8869 75.2632 92.4754 75.4038 93.1421 75.4038C93.84 75.4038 94.4285 75.2476 94.9077 74.9351C95.3973 74.6226 95.7723 74.2215 96.0327 73.7319H97.6733C97.3296 74.6174 96.7775 75.3465 96.0171 75.9194C95.2671 76.4819 94.2983 76.7632 93.1108 76.7632ZM89.6108 70.8101H96.4233C96.2879 69.9559 95.9233 69.2424 95.3296 68.6694C94.7463 68.0965 93.9754 67.8101 93.0171 67.8101C92.0588 67.8101 91.2879 68.0965 90.7046 68.6694C90.1213 69.2424 89.7567 69.9559 89.6108 70.8101ZM100.891 76.6069V67.9194H98.8602V66.6069H100.891V63.0288H102.391V66.6069H104.704V67.9194H102.391V76.6069H100.891ZM110.571 76.7632C109.56 76.7632 108.675 76.534 107.915 76.0757C107.154 75.6174 106.566 74.9976 106.149 74.2163C105.732 73.4246 105.524 72.5549 105.524 71.6069C105.524 70.6486 105.722 69.7788 106.118 68.9976C106.514 68.2163 107.086 67.5965 107.836 67.1382C108.586 66.6799 109.467 66.4507 110.477 66.4507C111.508 66.4507 112.394 66.6799 113.133 67.1382C113.873 67.5965 114.441 68.2163 114.836 68.9976C115.232 69.7788 115.43 70.6486 115.43 71.6069V72.2007H107.055C107.139 72.7944 107.326 73.3361 107.618 73.8257C107.92 74.3049 108.326 74.6903 108.836 74.9819C109.347 75.2632 109.935 75.4038 110.602 75.4038C111.3 75.4038 111.889 75.2476 112.368 74.9351C112.857 74.6226 113.232 74.2215 113.493 73.7319H115.133C114.79 74.6174 114.237 75.3465 113.477 75.9194C112.727 76.4819 111.758 76.7632 110.571 76.7632ZM107.071 70.8101H113.883C113.748 69.9559 113.383 69.2424 112.79 68.6694C112.206 68.0965 111.435 67.8101 110.477 67.8101C109.519 67.8101 108.748 68.0965 108.165 68.6694C107.581 69.2424 107.217 69.9559 107.071 70.8101ZM122.611 76.6069V67.9194H120.58V66.6069H122.611V63.0288H124.111V66.6069H126.424V67.9194H124.111V76.6069H122.611ZM128.053 76.6069V62.6069H129.553V68.1694C129.918 67.6903 130.361 67.284 130.881 66.9507C131.402 66.6174 132.069 66.4507 132.881 66.4507C133.569 66.4507 134.215 66.6121 134.819 66.9351C135.433 67.258 135.928 67.7476 136.303 68.4038C136.689 69.0496 136.881 69.8465 136.881 70.7944V76.6069H135.381V70.8257C135.381 69.9194 135.121 69.1903 134.6 68.6382C134.079 68.0861 133.402 67.8101 132.569 67.8101C132.017 67.8101 131.512 67.9351 131.053 68.1851C130.605 68.4351 130.241 68.7944 129.96 69.2632C129.689 69.7215 129.553 70.2476 129.553 70.8413V76.6069H128.053ZM143.811 76.7632C142.8 76.7632 141.915 76.534 141.155 76.0757C140.394 75.6174 139.806 74.9976 139.389 74.2163C138.972 73.4246 138.764 72.5549 138.764 71.6069C138.764 70.6486 138.962 69.7788 139.358 68.9976C139.753 68.2163 140.326 67.5965 141.076 67.1382C141.826 66.6799 142.707 66.4507 143.717 66.4507C144.748 66.4507 145.634 66.6799 146.373 67.1382C147.113 67.5965 147.681 68.2163 148.076 68.9976C148.472 69.7788 148.67 70.6486 148.67 71.6069V72.2007H140.295C140.378 72.7944 140.566 73.3361 140.858 73.8257C141.16 74.3049 141.566 74.6903 142.076 74.9819C142.587 75.2632 143.175 75.4038 143.842 75.4038C144.54 75.4038 145.128 75.2476 145.608 74.9351C146.097 74.6226 146.472 74.2215 146.733 73.7319H148.373C148.03 74.6174 147.477 75.3465 146.717 75.9194C145.967 76.4819 144.998 76.7632 143.811 76.7632ZM140.311 70.8101H147.123C146.988 69.9559 146.623 69.2424 146.03 68.6694C145.446 68.0965 144.675 67.8101 143.717 67.8101C142.759 67.8101 141.988 68.0965 141.405 68.6694C140.821 69.2424 140.457 69.9559 140.311 70.8101ZM155.461 76.6069V67.9194H153.742V66.6069H155.461V65.7319C155.461 64.6382 155.789 63.8205 156.445 63.2788C157.101 62.7267 158.008 62.4507 159.164 62.4507H159.273V63.8726H159.07C158.383 63.8726 157.857 64.0288 157.492 64.3413C157.138 64.6538 156.961 65.1538 156.961 65.8413V66.6069H159.273V67.9194H156.961V76.6069H155.461ZM164.932 76.7632C163.963 76.7632 163.114 76.534 162.385 76.0757C161.656 75.6174 161.093 74.9976 160.698 74.2163C160.302 73.4246 160.104 72.5549 160.104 71.6069C160.104 70.6486 160.302 69.7788 160.698 68.9976C161.093 68.2163 161.656 67.5965 162.385 67.1382C163.114 66.6799 163.963 66.4507 164.932 66.4507C165.765 66.4507 166.479 66.6121 167.073 66.9351C167.666 67.2476 168.146 67.6799 168.51 68.2319V66.6069H170.01V76.6069H168.51V75.0132C168.146 75.5444 167.666 75.9715 167.073 76.2944C166.479 76.6069 165.765 76.7632 164.932 76.7632ZM165.135 75.4038C165.885 75.4038 166.515 75.2319 167.026 74.8882C167.536 74.5444 167.927 74.0809 168.198 73.4976C168.468 72.9142 168.604 72.284 168.604 71.6069C168.604 70.909 168.468 70.2736 168.198 69.7007C167.927 69.1278 167.536 68.6694 167.026 68.3257C166.515 67.9819 165.885 67.8101 165.135 67.8101C164.406 67.8101 163.771 67.9819 163.229 68.3257C162.698 68.6694 162.291 69.1278 162.01 69.7007C161.739 70.2736 161.604 70.909 161.604 71.6069C161.604 72.284 161.739 72.9142 162.01 73.4976C162.291 74.0809 162.698 74.5444 163.229 74.8882C163.771 75.2319 164.406 75.4038 165.135 75.4038ZM172.613 76.6069V66.6069H174.113V68.1226C174.342 67.7267 174.702 67.3517 175.191 66.9976C175.691 66.633 176.348 66.4507 177.16 66.4507C177.827 66.4507 178.441 66.6278 179.004 66.9819C179.577 67.3361 180.02 67.8309 180.332 68.4663C180.467 68.2371 180.676 67.9663 180.957 67.6538C181.249 67.3309 181.629 67.0496 182.098 66.8101C182.566 66.5705 183.124 66.4507 183.77 66.4507C184.415 66.4507 185.014 66.6174 185.566 66.9507C186.129 67.284 186.587 67.7632 186.941 68.3882C187.296 69.0028 187.473 69.7267 187.473 70.5601V76.6069H185.973V70.6069C185.973 69.7632 185.733 69.0861 185.254 68.5757C184.785 68.0653 184.202 67.8101 183.504 67.8101C182.764 67.8101 182.129 68.0601 181.598 68.5601C181.066 69.0496 180.801 69.7371 180.801 70.6226V76.6069H179.301V70.6069C179.301 69.7632 179.061 69.0861 178.582 68.5757C178.113 68.0653 177.525 67.8101 176.816 67.8101C176.087 67.8101 175.452 68.0601 174.91 68.5601C174.379 69.0496 174.113 69.7371 174.113 70.6226V76.6069H172.613ZM194.317 76.7632C193.307 76.7632 192.426 76.534 191.676 76.0757C190.926 75.6174 190.353 74.9976 189.958 74.2163C189.562 73.4246 189.364 72.5549 189.364 71.6069C189.364 70.6486 189.562 69.7788 189.958 68.9976C190.353 68.2163 190.926 67.5965 191.676 67.1382C192.426 66.6799 193.307 66.4507 194.317 66.4507C195.348 66.4507 196.234 66.6799 196.973 67.1382C197.713 67.5965 198.281 68.2163 198.676 68.9976C199.072 69.7788 199.27 70.6486 199.27 71.6069C199.27 72.5549 199.072 73.4246 198.676 74.2163C198.281 74.9976 197.713 75.6174 196.973 76.0757C196.234 76.534 195.348 76.7632 194.317 76.7632ZM194.317 75.4038C195.067 75.4038 195.697 75.2319 196.208 74.8882C196.718 74.5444 197.103 74.0809 197.364 73.4976C197.635 72.9142 197.77 72.284 197.77 71.6069C197.77 70.909 197.635 70.2736 197.364 69.7007C197.103 69.1278 196.718 68.6694 196.208 68.3257C195.697 67.9819 195.067 67.8101 194.317 67.8101C193.588 67.8101 192.963 67.9819 192.442 68.3257C191.921 68.6694 191.525 69.1278 191.254 69.7007C190.994 70.2736 190.864 70.909 190.864 71.6069C190.864 72.284 190.994 72.9142 191.254 73.4976C191.525 74.0809 191.921 74.5444 192.442 74.8882C192.963 75.2319 193.588 75.4038 194.317 75.4038ZM205.159 76.7632C204.482 76.7632 203.837 76.6017 203.222 76.2788C202.607 75.9559 202.107 75.4715 201.722 74.8257C201.347 74.1694 201.159 73.3674 201.159 72.4194V66.6069H202.659V72.3882C202.659 73.2944 202.92 74.0236 203.441 74.5757C203.972 75.1278 204.644 75.4038 205.456 75.4038C206.019 75.4038 206.524 75.2736 206.972 75.0132C207.43 74.7528 207.795 74.3986 208.066 73.9507C208.337 73.4924 208.472 72.9663 208.472 72.3726V66.6069H209.972V76.6069H208.472V75.0444C208.118 75.5236 207.68 75.9299 207.159 76.2632C206.639 76.5965 205.972 76.7632 205.159 76.7632ZM216.214 76.7632C215.297 76.7632 214.521 76.6121 213.886 76.3101C213.25 75.9976 212.766 75.5913 212.433 75.0913C212.099 74.5913 211.912 74.0496 211.87 73.4663H213.433C213.474 73.7996 213.589 74.1226 213.776 74.4351C213.974 74.7476 214.271 75.0028 214.667 75.2007C215.073 75.3882 215.594 75.4819 216.229 75.4819C216.438 75.4819 216.688 75.4663 216.979 75.4351C217.271 75.3934 217.552 75.3205 217.823 75.2163C218.094 75.1017 218.323 74.9403 218.511 74.7319C218.698 74.5132 218.792 74.2371 218.792 73.9038C218.792 73.4976 218.631 73.1799 218.308 72.9507C217.995 72.7215 217.584 72.5444 217.073 72.4194C216.573 72.2944 216.037 72.1746 215.464 72.0601C214.901 71.9351 214.365 71.7788 213.854 71.5913C213.344 71.3934 212.927 71.1174 212.604 70.7632C212.292 70.409 212.136 69.9246 212.136 69.3101C212.136 68.4038 212.464 67.7007 213.12 67.2007C213.787 66.7007 214.766 66.4507 216.058 66.4507C216.933 66.4507 217.646 66.5861 218.198 66.8569C218.761 67.1278 219.183 67.4767 219.464 67.9038C219.756 68.3309 219.927 68.7944 219.979 69.2944H218.464C218.401 68.8674 218.188 68.5028 217.823 68.2007C217.459 67.8882 216.854 67.7319 216.011 67.7319C214.427 67.7319 213.636 68.2111 213.636 69.1694C213.636 69.5653 213.792 69.8726 214.104 70.0913C214.427 70.2996 214.844 70.4715 215.354 70.6069C215.865 70.7319 216.401 70.8517 216.964 70.9663C217.537 71.0705 218.073 71.2267 218.573 71.4351C219.084 71.633 219.495 71.9142 219.808 72.2788C220.131 72.6434 220.292 73.1382 220.292 73.7632C220.292 74.7424 219.922 75.4871 219.183 75.9976C218.443 76.508 217.453 76.7632 216.214 76.7632ZM226.473 76.6069V62.6069H227.973V76.6069H226.473ZM230.511 64.9194V62.9663H232.136V64.9194H230.511ZM230.573 76.6069V66.6069H232.073V76.6069H230.573ZM234.673 76.6069V66.6069H236.173V68.1694C236.538 67.6903 236.98 67.284 237.501 66.9507C238.022 66.6174 238.689 66.4507 239.501 66.4507C240.189 66.4507 240.835 66.6121 241.439 66.9351C242.053 67.258 242.548 67.7476 242.923 68.4038C243.309 69.0496 243.501 69.8465 243.501 70.7944V76.6069H242.001V70.8257C242.001 69.9194 241.741 69.1903 241.22 68.6382C240.699 68.0861 240.022 67.8101 239.189 67.8101C238.637 67.8101 238.132 67.9351 237.673 68.1851C237.225 68.4351 236.861 68.7944 236.579 69.2632C236.309 69.7215 236.173 70.2476 236.173 70.8413V76.6069H234.673ZM250.431 76.7632C249.42 76.7632 248.535 76.534 247.774 76.0757C247.014 75.6174 246.425 74.9976 246.009 74.2163C245.592 73.4246 245.384 72.5549 245.384 71.6069C245.384 70.6486 245.582 69.7788 245.978 68.9976C246.373 68.2163 246.946 67.5965 247.696 67.1382C248.446 66.6799 249.326 66.4507 250.337 66.4507C251.368 66.4507 252.254 66.6799 252.993 67.1382C253.733 67.5965 254.3 68.2163 254.696 68.9976C255.092 69.7788 255.29 70.6486 255.29 71.6069V72.2007H246.915C246.998 72.7944 247.186 73.3361 247.478 73.8257C247.78 74.3049 248.186 74.6903 248.696 74.9819C249.207 75.2632 249.795 75.4038 250.462 75.4038C251.16 75.4038 251.748 75.2476 252.228 74.9351C252.717 74.6226 253.092 74.2215 253.353 73.7319H254.993C254.649 74.6174 254.097 75.3465 253.337 75.9194C252.587 76.4819 251.618 76.7632 250.431 76.7632ZM246.931 70.8101H253.743C253.608 69.9559 253.243 69.2424 252.649 68.6694C252.066 68.0965 251.295 67.8101 250.337 67.8101C249.379 67.8101 248.608 68.0965 248.024 68.6694C247.441 69.2424 247.076 69.9559 246.931 70.8101ZM261.331 64.9194V62.9663H262.956V64.9194H261.331ZM261.393 76.6069V66.6069H262.893V76.6069H261.393ZM265.493 76.6069V66.6069H266.993V68.1694C267.358 67.6903 267.8 67.284 268.321 66.9507C268.842 66.6174 269.509 66.4507 270.321 66.4507C271.009 66.4507 271.655 66.6121 272.259 66.9351C272.873 67.258 273.368 67.7476 273.743 68.4038C274.129 69.0496 274.321 69.8465 274.321 70.7944V76.6069H272.821V70.8257C272.821 69.9194 272.561 69.1903 272.04 68.6382C271.519 68.0861 270.842 67.8101 270.009 67.8101C269.457 67.8101 268.951 67.9351 268.493 68.1851C268.045 68.4351 267.681 68.7944 267.399 69.2632C267.129 69.7215 266.993 70.2476 266.993 70.8413V76.6069H265.493ZM282.151 76.6069V67.9194H280.12V66.6069H282.151V63.0288H283.651V66.6069H285.964V67.9194H283.651V76.6069H282.151ZM287.593 76.6069V62.6069H289.093V68.1694C289.458 67.6903 289.9 67.284 290.421 66.9507C290.942 66.6174 291.609 66.4507 292.421 66.4507C293.109 66.4507 293.755 66.6121 294.359 66.9351C294.973 67.258 295.468 67.7476 295.843 68.4038C296.228 69.0496 296.421 69.8465 296.421 70.7944V76.6069H294.921V70.8257C294.921 69.9194 294.661 69.1903 294.14 68.6382C293.619 68.0861 292.942 67.8101 292.109 67.8101C291.557 67.8101 291.051 67.9351 290.593 68.1851C290.145 68.4351 289.781 68.7944 289.499 69.2632C289.228 69.7215 289.093 70.2476 289.093 70.8413V76.6069H287.593ZM298.851 64.9194V62.9663H300.476V64.9194H298.851ZM298.913 76.6069V66.6069H300.413V76.6069H298.913ZM306.654 76.7632C305.737 76.7632 304.961 76.6121 304.326 76.3101C303.69 75.9976 303.206 75.5913 302.872 75.0913C302.539 74.5913 302.352 74.0496 302.31 73.4663H303.872C303.914 73.7996 304.029 74.1226 304.216 74.4351C304.414 74.7476 304.711 75.0028 305.107 75.2007C305.513 75.3882 306.034 75.4819 306.669 75.4819C306.878 75.4819 307.128 75.4663 307.419 75.4351C307.711 75.3934 307.992 75.3205 308.263 75.2163C308.534 75.1017 308.763 74.9403 308.951 74.7319C309.138 74.5132 309.232 74.2371 309.232 73.9038C309.232 73.4976 309.07 73.1799 308.747 72.9507C308.435 72.7215 308.023 72.5444 307.513 72.4194C307.013 72.2944 306.477 72.1746 305.904 72.0601C305.341 71.9351 304.805 71.7788 304.294 71.5913C303.784 71.3934 303.367 71.1174 303.044 70.7632C302.732 70.409 302.576 69.9246 302.576 69.3101C302.576 68.4038 302.904 67.7007 303.56 67.2007C304.227 66.7007 305.206 66.4507 306.497 66.4507C307.372 66.4507 308.086 66.5861 308.638 66.8569C309.201 67.1278 309.622 67.4767 309.904 67.9038C310.195 68.3309 310.367 68.7944 310.419 69.2944H308.904C308.841 68.8674 308.628 68.5028 308.263 68.2007C307.898 67.8882 307.294 67.7319 306.451 67.7319C304.867 67.7319 304.076 68.2111 304.076 69.1694C304.076 69.5653 304.232 69.8726 304.544 70.0913C304.867 70.2996 305.284 70.4715 305.794 70.6069C306.305 70.7319 306.841 70.8517 307.404 70.9663C307.977 71.0705 308.513 71.2267 309.013 71.4351C309.523 71.633 309.935 71.9142 310.247 72.2788C310.57 72.6434 310.732 73.1382 310.732 73.7632C310.732 74.7424 310.362 75.4871 309.622 75.9976C308.883 76.508 307.893 76.7632 306.654 76.7632ZM320.741 76.7632C319.897 76.7632 319.194 76.6069 318.632 76.2944C318.08 75.9715 317.642 75.5601 317.319 75.0601C317.007 74.5601 316.793 74.0496 316.679 73.5288H318.351C318.444 73.8101 318.58 74.0861 318.757 74.3569C318.944 74.6278 319.194 74.8569 319.507 75.0444C319.83 75.2215 320.241 75.3101 320.741 75.3101C321.564 75.3101 322.231 75.0705 322.741 74.5913C323.262 74.1121 323.642 73.4663 323.882 72.6538C324.132 71.8309 324.257 70.9194 324.257 69.9194C323.934 70.4715 323.46 70.9246 322.835 71.2788C322.22 71.633 321.543 71.8101 320.804 71.8101C319.97 71.8101 319.21 71.6278 318.522 71.2632C317.835 70.8882 317.293 70.3778 316.897 69.7319C316.502 69.0861 316.304 68.3465 316.304 67.5132C316.304 66.6799 316.507 65.9403 316.913 65.2944C317.33 64.6486 317.882 64.1382 318.569 63.7632C319.267 63.3882 320.028 63.2007 320.851 63.2007C322.465 63.2007 323.684 63.7892 324.507 64.9663C325.34 66.1434 325.757 67.8153 325.757 69.9819C325.757 72.0757 325.335 73.7319 324.491 74.9507C323.658 76.159 322.408 76.7632 320.741 76.7632ZM320.851 70.3882C321.413 70.3882 321.929 70.2736 322.397 70.0444C322.866 69.8049 323.236 69.4767 323.507 69.0601C323.778 68.633 323.913 68.1486 323.913 67.6069C323.913 67.0236 323.778 66.5132 323.507 66.0757C323.236 65.6278 322.866 65.284 322.397 65.0444C321.939 64.7944 321.423 64.6694 320.851 64.6694C320.298 64.6694 319.788 64.7892 319.319 65.0288C318.861 65.2684 318.491 65.6017 318.21 66.0288C317.939 66.4559 317.804 66.9507 317.804 67.5132C317.804 68.0549 317.939 68.5444 318.21 68.9819C318.491 69.409 318.861 69.7528 319.319 70.0132C319.788 70.2632 320.298 70.3882 320.851 70.3882ZM332.116 76.7632C330.554 76.7632 329.387 76.1903 328.616 75.0444C327.856 73.8882 327.476 72.2007 327.476 69.9819C327.476 67.7736 327.856 66.0913 328.616 64.9351C329.387 63.7788 330.554 63.2007 332.116 63.2007C333.022 63.2215 333.772 63.4246 334.366 63.8101C334.97 64.1851 335.444 64.6955 335.788 65.3413C336.142 65.9767 336.392 66.6955 336.538 67.4976C336.684 68.2892 336.757 69.1174 336.757 69.9819C336.757 72.2007 336.371 73.8882 335.601 75.0444C334.84 76.1903 333.679 76.7632 332.116 76.7632ZM332.116 75.3101C332.793 75.2996 333.34 75.133 333.757 74.8101C334.173 74.4871 334.491 74.0653 334.71 73.5444C334.929 73.0236 335.074 72.4559 335.147 71.8413C335.22 71.2163 335.257 70.5965 335.257 69.9819C335.257 68.2111 335.007 66.883 334.507 65.9976C334.017 65.1121 333.22 64.6694 332.116 64.6694C331.022 64.6694 330.226 65.1121 329.726 65.9976C329.226 66.883 328.976 68.2111 328.976 69.9819C328.976 71.7632 329.226 73.0965 329.726 73.9819C330.226 74.8674 331.022 75.3101 332.116 75.3101ZM342.554 76.7632C341.637 76.7632 340.861 76.6121 340.226 76.3101C339.59 75.9976 339.106 75.5913 338.772 75.0913C338.439 74.5913 338.252 74.0496 338.21 73.4663H339.772C339.814 73.7996 339.929 74.1226 340.116 74.4351C340.314 74.7476 340.611 75.0028 341.007 75.2007C341.413 75.3882 341.934 75.4819 342.569 75.4819C342.778 75.4819 343.028 75.4663 343.319 75.4351C343.611 75.3934 343.892 75.3205 344.163 75.2163C344.434 75.1017 344.663 74.9403 344.851 74.7319C345.038 74.5132 345.132 74.2371 345.132 73.9038C345.132 73.4976 344.97 73.1799 344.647 72.9507C344.335 72.7215 343.923 72.5444 343.413 72.4194C342.913 72.2944 342.377 72.1746 341.804 72.0601C341.241 71.9351 340.705 71.7788 340.194 71.5913C339.684 71.3934 339.267 71.1174 338.944 70.7632C338.632 70.409 338.476 69.9246 338.476 69.3101C338.476 68.4038 338.804 67.7007 339.46 67.2007C340.127 66.7007 341.106 66.4507 342.397 66.4507C343.272 66.4507 343.986 66.5861 344.538 66.8569C345.101 67.1278 345.522 67.4767 345.804 67.9038C346.095 68.3309 346.267 68.7944 346.319 69.2944H344.804C344.741 68.8674 344.528 68.5028 344.163 68.2007C343.798 67.8882 343.194 67.7319 342.351 67.7319C340.767 67.7319 339.976 68.2111 339.976 69.1694C339.976 69.5653 340.132 69.8726 340.444 70.0913C340.767 70.2996 341.184 70.4715 341.694 70.6069C342.205 70.7319 342.741 70.8517 343.304 70.9663C343.877 71.0705 344.413 71.2267 344.913 71.4351C345.423 71.633 345.835 71.9142 346.147 72.2788C346.47 72.6434 346.632 73.1382 346.632 73.7632C346.632 74.7424 346.262 75.4871 345.522 75.9976C344.783 76.508 343.793 76.7632 342.554 76.7632ZM353.141 76.6069V63.3726H362.704V64.8101H354.641V69.4038H361.813V70.8726H354.641V76.6069H353.141ZM368.392 76.7632C367.423 76.7632 366.574 76.534 365.845 76.0757C365.116 75.6174 364.553 74.9976 364.157 74.2163C363.762 73.4246 363.564 72.5549 363.564 71.6069C363.564 70.6486 363.762 69.7788 364.157 68.9976C364.553 68.2163 365.116 67.5965 365.845 67.1382C366.574 66.6799 367.423 66.4507 368.392 66.4507C369.225 66.4507 369.939 66.6121 370.532 66.9351C371.126 67.2476 371.605 67.6799 371.97 68.2319V66.6069H373.47V76.6069H371.97V75.0132C371.605 75.5444 371.126 75.9715 370.532 76.2944C369.939 76.6069 369.225 76.7632 368.392 76.7632ZM368.595 75.4038C369.345 75.4038 369.975 75.2319 370.485 74.8882C370.996 74.5444 371.387 74.0809 371.657 73.4976C371.928 72.9142 372.064 72.284 372.064 71.6069C372.064 70.909 371.928 70.2736 371.657 69.7007C371.387 69.1278 370.996 68.6694 370.485 68.3257C369.975 67.9819 369.345 67.8101 368.595 67.8101C367.866 67.8101 367.23 67.9819 366.689 68.3257C366.157 68.6694 365.751 69.1278 365.47 69.7007C365.199 70.2736 365.064 70.909 365.064 71.6069C365.064 72.284 365.199 72.9142 365.47 73.4976C365.751 74.0809 366.157 74.5444 366.689 74.8882C367.23 75.2319 367.866 75.4038 368.595 75.4038ZM376.073 76.6069V66.6069H377.573V68.1226C377.802 67.7267 378.161 67.3517 378.651 66.9976C379.151 66.633 379.807 66.4507 380.62 66.4507C381.286 66.4507 381.901 66.6278 382.464 66.9819C383.036 67.3361 383.479 67.8309 383.792 68.4663C383.927 68.2371 384.135 67.9663 384.417 67.6538C384.708 67.3309 385.089 67.0496 385.557 66.8101C386.026 66.5705 386.583 66.4507 387.229 66.4507C387.875 66.4507 388.474 66.6174 389.026 66.9507C389.589 67.284 390.047 67.7632 390.401 68.3882C390.755 69.0028 390.932 69.7267 390.932 70.5601V76.6069H389.432V70.6069C389.432 69.7632 389.193 69.0861 388.714 68.5757C388.245 68.0653 387.661 67.8101 386.964 67.8101C386.224 67.8101 385.589 68.0601 385.057 68.5601C384.526 69.0496 384.26 69.7371 384.26 70.6226V76.6069H382.76V70.6069C382.76 69.7632 382.521 69.0861 382.042 68.5757C381.573 68.0653 380.984 67.8101 380.276 67.8101C379.547 67.8101 378.911 68.0601 378.37 68.5601C377.839 69.0496 377.573 69.7371 377.573 70.6226V76.6069H376.073ZM393.37 64.9194V62.9663H394.995V64.9194H393.37ZM393.433 76.6069V66.6069H394.933V76.6069H393.433ZM397.533 76.6069V62.6069H399.033V76.6069H397.533ZM402.68 80.5601L404.492 76.4663L400.414 66.6069H402.07L405.289 74.8101L408.57 66.6069H410.211L404.289 80.5601H402.68Z" fill="black"/>
<path d="M32.749 100.607L38.374 87.3726H40.249L45.874 100.607H44.2021L42.5928 96.7632H36.0303L34.4053 100.607H32.749ZM36.6084 95.3882H41.999L39.3115 88.9194L36.6084 95.3882ZM47.2234 100.607V86.6069H48.7234V100.607H47.2234ZM55.6203 100.763C54.6203 100.763 53.7557 100.534 53.0265 100.076C52.2974 99.6174 51.7296 98.9976 51.3234 98.2163C50.9171 97.4246 50.714 96.5549 50.714 95.6069C50.714 94.6486 50.9171 93.7788 51.3234 92.9976C51.7296 92.2163 52.2974 91.5965 53.0265 91.1382C53.7557 90.6799 54.6203 90.4507 55.6203 90.4507C56.8078 90.4507 57.8182 90.758 58.6515 91.3726C59.4849 91.9871 60.0474 92.7788 60.339 93.7476H58.7296C58.5005 93.1746 58.1359 92.7111 57.6359 92.3569C57.1359 91.9924 56.5317 91.8101 55.8234 91.8101C55.0942 91.8101 54.4536 91.9819 53.9015 92.3257C53.3599 92.6694 52.9432 93.1278 52.6515 93.7007C52.3599 94.2736 52.214 94.909 52.214 95.6069C52.214 96.284 52.3599 96.9142 52.6515 97.4976C52.9432 98.0809 53.3599 98.5444 53.9015 98.8882C54.4536 99.2319 55.0942 99.4038 55.8234 99.4038C56.5317 99.4038 57.1359 99.2267 57.6359 98.8726C58.1359 98.508 58.5005 98.0392 58.7296 97.4663H60.339C60.0474 98.4351 59.4849 99.2267 58.6515 99.8413C57.8182 100.456 56.8078 100.763 55.6203 100.763ZM66.5471 100.763C65.5367 100.763 64.6565 100.534 63.9065 100.076C63.1565 99.6174 62.5836 98.9976 62.1877 98.2163C61.7919 97.4246 61.594 96.5549 61.594 95.6069C61.594 94.6486 61.7919 93.7788 62.1877 92.9976C62.5836 92.2163 63.1565 91.5965 63.9065 91.1382C64.6565 90.6799 65.5367 90.4507 66.5471 90.4507C67.5784 90.4507 68.4638 90.6799 69.2034 91.1382C69.943 91.5965 70.5107 92.2163 70.9065 92.9976C71.3023 93.7788 71.5002 94.6486 71.5002 95.6069C71.5002 96.5549 71.3023 97.4246 70.9065 98.2163C70.5107 98.9976 69.943 99.6174 69.2034 100.076C68.4638 100.534 67.5784 100.763 66.5471 100.763ZM66.5471 99.4038C67.2971 99.4038 67.9273 99.2319 68.4377 98.8882C68.9482 98.5444 69.3336 98.0809 69.594 97.4976C69.8648 96.9142 70.0002 96.284 70.0002 95.6069C70.0002 94.909 69.8648 94.2736 69.594 93.7007C69.3336 93.1278 68.9482 92.6694 68.4377 92.3257C67.9273 91.9819 67.2971 91.8101 66.5471 91.8101C65.818 91.8101 65.193 91.9819 64.6721 92.3257C64.1513 92.6694 63.7555 93.1278 63.4846 93.7007C63.2242 94.2736 63.094 94.909 63.094 95.6069C63.094 96.284 63.2242 96.9142 63.4846 97.4976C63.7555 98.0809 64.1513 98.5444 64.6721 98.8882C65.193 99.2319 65.818 99.4038 66.5471 99.4038ZM73.4834 100.607V86.6069H74.9834V92.1694C75.348 91.6903 75.7907 91.284 76.3115 90.9507C76.8323 90.6174 77.499 90.4507 78.3115 90.4507C78.999 90.4507 79.6448 90.6121 80.249 90.9351C80.8636 91.258 81.3584 91.7476 81.7334 92.4038C82.1188 93.0496 82.3115 93.8465 82.3115 94.7944V100.607H80.8115V94.8257C80.8115 93.9194 80.5511 93.1903 80.0302 92.6382C79.5094 92.0861 78.8323 91.8101 77.999 91.8101C77.4469 91.8101 76.9417 91.9351 76.4834 92.1851C76.0355 92.4351 75.6709 92.7944 75.3896 93.2632C75.1188 93.7215 74.9834 94.2476 74.9834 94.8413V100.607H73.4834ZM89.1471 100.763C88.1367 100.763 87.2565 100.534 86.5065 100.076C85.7565 99.6174 85.1836 98.9976 84.7877 98.2163C84.3919 97.4246 84.194 96.5549 84.194 95.6069C84.194 94.6486 84.3919 93.7788 84.7877 92.9976C85.1836 92.2163 85.7565 91.5965 86.5065 91.1382C87.2565 90.6799 88.1367 90.4507 89.1471 90.4507C90.1783 90.4507 91.0638 90.6799 91.8033 91.1382C92.5429 91.5965 93.1106 92.2163 93.5065 92.9976C93.9023 93.7788 94.1002 94.6486 94.1002 95.6069C94.1002 96.5549 93.9023 97.4246 93.5065 98.2163C93.1106 98.9976 92.5429 99.6174 91.8033 100.076C91.0638 100.534 90.1783 100.763 89.1471 100.763ZM89.1471 99.4038C89.8971 99.4038 90.5273 99.2319 91.0377 98.8882C91.5481 98.5444 91.9336 98.0809 92.194 97.4976C92.4648 96.9142 92.6002 96.284 92.6002 95.6069C92.6002 94.909 92.4648 94.2736 92.194 93.7007C91.9336 93.1278 91.5481 92.6694 91.0377 92.3257C90.5273 91.9819 89.8971 91.8101 89.1471 91.8101C88.4179 91.8101 87.7929 91.9819 87.2721 92.3257C86.7513 92.6694 86.3554 93.1278 86.0846 93.7007C85.8242 94.2736 85.694 94.909 85.694 95.6069C85.694 96.284 85.8242 96.9142 86.0846 97.4976C86.3554 98.0809 86.7513 98.5444 87.2721 98.8882C87.7929 99.2319 88.4179 99.4038 89.1471 99.4038ZM96.0833 100.607V86.6069H97.5833V100.607H96.0833ZM104.527 100.763C103.517 100.763 102.636 100.534 101.886 100.076C101.136 99.6174 100.564 98.9976 100.168 98.2163C99.7719 97.4246 99.5739 96.5549 99.5739 95.6069C99.5739 94.6486 99.7719 93.7788 100.168 92.9976C100.564 92.2163 101.136 91.5965 101.886 91.1382C102.636 90.6799 103.517 90.4507 104.527 90.4507C105.558 90.4507 106.444 90.6799 107.183 91.1382C107.923 91.5965 108.491 92.2163 108.886 92.9976C109.282 93.7788 109.48 94.6486 109.48 95.6069C109.48 96.5549 109.282 97.4246 108.886 98.2163C108.491 98.9976 107.923 99.6174 107.183 100.076C106.444 100.534 105.558 100.763 104.527 100.763ZM104.527 99.4038C105.277 99.4038 105.907 99.2319 106.418 98.8882C106.928 98.5444 107.314 98.0809 107.574 97.4976C107.845 96.9142 107.98 96.284 107.98 95.6069C107.98 94.909 107.845 94.2736 107.574 93.7007C107.314 93.1278 106.928 92.6694 106.418 92.3257C105.907 91.9819 105.277 91.8101 104.527 91.8101C103.798 91.8101 103.173 91.9819 102.652 92.3257C102.131 92.6694 101.735 93.1278 101.465 93.7007C101.204 94.2736 101.074 94.909 101.074 95.6069C101.074 96.284 101.204 96.9142 101.465 97.4976C101.735 98.0809 102.131 98.5444 102.652 98.8882C103.173 99.2319 103.798 99.4038 104.527 99.4038ZM115.089 100.607L120.714 87.3726H122.589L128.214 100.607H126.542L124.933 96.7632H118.37L116.745 100.607H115.089ZM118.948 95.3882H124.339L121.651 88.9194L118.948 95.3882ZM133.782 100.763C132.813 100.763 131.964 100.534 131.235 100.076C130.506 99.6174 129.944 98.9976 129.548 98.2163C129.152 97.4246 128.954 96.5549 128.954 95.6069C128.954 94.6486 129.152 93.7788 129.548 92.9976C129.944 92.2163 130.506 91.5965 131.235 91.1382C131.964 90.6799 132.813 90.4507 133.782 90.4507C134.615 90.4507 135.329 90.6121 135.923 90.9351C136.516 91.2476 136.996 91.6799 137.36 92.2319V86.6069H138.86V100.607H137.36V99.0132C136.996 99.5444 136.516 99.9715 135.923 100.294C135.329 100.607 134.615 100.763 133.782 100.763ZM133.985 99.4038C134.735 99.4038 135.365 99.2319 135.876 98.8882C136.386 98.5444 136.777 98.0809 137.048 97.4976C137.319 96.9142 137.454 96.284 137.454 95.6069C137.454 94.909 137.319 94.2736 137.048 93.7007C136.777 93.1278 136.386 92.6694 135.876 92.3257C135.365 91.9819 134.735 91.8101 133.985 91.8101C133.256 91.8101 132.621 91.9819 132.079 92.3257C131.548 92.6694 131.141 93.1278 130.86 93.7007C130.589 94.2736 130.454 94.909 130.454 95.6069C130.454 96.284 130.589 96.9142 130.86 97.4976C131.141 98.0809 131.548 98.5444 132.079 98.8882C132.621 99.2319 133.256 99.4038 133.985 99.4038ZM141.229 100.607V98.5601H143.166V100.607H141.229ZM152.221 91.1069L153.986 86.8413H155.346L154.19 91.1069H152.221ZM149.205 91.0601L150.971 86.7944H152.33L151.174 91.0601H149.205ZM157.491 100.607V87.3726H163.07C163.851 87.3726 164.606 87.5236 165.335 87.8257C166.064 88.1174 166.715 88.5496 167.288 89.1226C167.861 89.6955 168.314 90.3882 168.648 91.2007C168.981 92.0132 169.148 92.9403 169.148 93.9819C169.148 95.0236 168.981 95.9507 168.648 96.7632C168.314 97.5757 167.861 98.2684 167.288 98.8413C166.715 99.4142 166.064 99.8517 165.335 100.154C164.606 100.456 163.851 100.607 163.07 100.607H157.491ZM158.991 99.1851H163.007C163.955 99.1851 164.773 98.9455 165.46 98.4663C166.158 97.9871 166.695 97.3569 167.07 96.5757C167.455 95.784 167.648 94.9194 167.648 93.9819C167.648 93.034 167.455 92.1694 167.07 91.3882C166.695 90.5965 166.158 89.9663 165.46 89.4976C164.773 89.0288 163.955 88.7944 163.007 88.7944H158.991V99.1851ZM171.161 88.9194V86.9663H172.786V88.9194H171.161ZM171.223 100.607V90.6069H172.723V100.607H171.223ZM179.983 100.607V86.6069H181.483V100.607H179.983ZM188.302 100.763C187.333 100.763 186.484 100.534 185.755 100.076C185.026 99.6174 184.463 98.9976 184.068 98.2163C183.672 97.4246 183.474 96.5549 183.474 95.6069C183.474 94.6486 183.672 93.7788 184.068 92.9976C184.463 92.2163 185.026 91.5965 185.755 91.1382C186.484 90.6799 187.333 90.4507 188.302 90.4507C189.135 90.4507 189.849 90.6121 190.443 90.9351C191.036 91.2476 191.516 91.6799 191.88 92.2319V90.6069H193.38V100.607H191.88V99.0132C191.516 99.5444 191.036 99.9715 190.443 100.294C189.849 100.607 189.135 100.763 188.302 100.763ZM188.505 99.4038C189.255 99.4038 189.885 99.2319 190.396 98.8882C190.906 98.5444 191.297 98.0809 191.568 97.4976C191.838 96.9142 191.974 96.284 191.974 95.6069C191.974 94.909 191.838 94.2736 191.568 93.7007C191.297 93.1278 190.906 92.6694 190.396 92.3257C189.885 91.9819 189.255 91.8101 188.505 91.8101C187.776 91.8101 187.141 91.9819 186.599 92.3257C186.068 92.6694 185.661 93.1278 185.38 93.7007C185.109 94.2736 184.974 94.909 184.974 95.6069C184.974 96.284 185.109 96.9142 185.38 97.4976C185.661 98.0809 186.068 98.5444 186.599 98.8882C187.141 99.2319 187.776 99.4038 188.505 99.4038ZM195.983 100.607V90.6069H197.483V92.1694C197.848 91.6903 198.291 91.284 198.811 90.9507C199.332 90.6174 199.999 90.4507 200.811 90.4507C201.499 90.4507 202.145 90.6121 202.749 90.9351C203.363 91.258 203.858 91.7476 204.233 92.4038C204.619 93.0496 204.811 93.8465 204.811 94.7944V100.607H203.311V94.8257C203.311 93.9194 203.051 93.1903 202.53 92.6382C202.009 92.0861 201.332 91.8101 200.499 91.8101C199.947 91.8101 199.442 91.9351 198.983 92.1851C198.535 92.4351 198.171 92.7944 197.889 93.2632C197.619 93.7215 197.483 94.2476 197.483 94.8413V100.607H195.983ZM211.881 104.732C210.631 104.732 209.611 104.461 208.819 103.919C208.038 103.378 207.506 102.675 207.225 101.81H208.881C209.09 102.3 209.439 102.68 209.928 102.951C210.418 103.232 211.043 103.373 211.803 103.373C212.949 103.373 213.782 103.102 214.303 102.56C214.834 102.018 215.1 101.232 215.1 100.201V98.8257C214.736 99.3569 214.256 99.7892 213.663 100.123C213.069 100.445 212.355 100.607 211.522 100.607C210.553 100.607 209.704 100.383 208.975 99.9351C208.246 99.4871 207.683 98.8778 207.288 98.1069C206.892 97.3361 206.694 96.4767 206.694 95.5288C206.694 94.5705 206.892 93.7111 207.288 92.9507C207.683 92.1799 208.246 91.5705 208.975 91.1226C209.704 90.6746 210.553 90.4507 211.522 90.4507C212.355 90.4507 213.069 90.6069 213.663 90.9194C214.256 91.2319 214.736 91.659 215.1 92.2007V90.6069H216.6V100.31C216.6 101.737 216.189 102.831 215.366 103.591C214.553 104.352 213.392 104.732 211.881 104.732ZM211.725 99.2476C212.454 99.2476 213.074 99.0809 213.584 98.7476C214.105 98.4142 214.501 97.9663 214.772 97.4038C215.053 96.8309 215.194 96.2059 215.194 95.5288C215.194 94.8309 215.053 94.2059 214.772 93.6538C214.501 93.0913 214.105 92.6434 213.584 92.3101C213.074 91.9767 212.454 91.8101 211.725 91.8101C210.996 91.8101 210.361 91.9767 209.819 92.3101C209.288 92.6434 208.881 93.0913 208.6 93.6538C208.329 94.2059 208.194 94.8309 208.194 95.5288C208.194 96.2059 208.329 96.8309 208.6 97.4038C208.881 97.9663 209.288 98.4142 209.819 98.7476C210.361 99.0809 210.996 99.2476 211.725 99.2476ZM223.463 104.56V90.6069H224.963V92.2007C225.338 91.659 225.823 91.2319 226.416 90.9194C227.01 90.6069 227.718 90.4507 228.541 90.4507C229.52 90.4507 230.369 90.6799 231.088 91.1382C231.817 91.5965 232.38 92.2163 232.776 92.9976C233.182 93.7788 233.385 94.6486 233.385 95.6069C233.385 96.5549 233.182 97.4246 232.776 98.2163C232.38 98.9976 231.817 99.6174 231.088 100.076C230.369 100.534 229.52 100.763 228.541 100.763C227.718 100.763 227.01 100.602 226.416 100.279C225.823 99.9559 225.338 99.5236 224.963 98.9819V104.56H223.463ZM228.354 99.4038C229.093 99.4038 229.724 99.2319 230.244 98.8882C230.776 98.5444 231.182 98.0809 231.463 97.4976C231.744 96.9142 231.885 96.284 231.885 95.6069C231.885 94.909 231.744 94.2736 231.463 93.7007C231.182 93.1278 230.776 92.6694 230.244 92.3257C229.724 91.9819 229.093 91.8101 228.354 91.8101C227.614 91.8101 226.984 91.9819 226.463 92.3257C225.942 92.6694 225.547 93.1278 225.276 93.7007C225.015 94.2736 224.885 94.909 224.885 95.6069C224.885 96.284 225.015 96.9142 225.276 97.4976C225.547 98.0809 225.942 98.5444 226.463 98.8882C226.984 99.2319 227.614 99.4038 228.354 99.4038ZM239.582 100.763C238.613 100.763 237.764 100.534 237.035 100.076C236.306 99.6174 235.743 98.9976 235.348 98.2163C234.952 97.4246 234.754 96.5549 234.754 95.6069C234.754 94.6486 234.952 93.7788 235.348 92.9976C235.743 92.2163 236.306 91.5965 237.035 91.1382C237.764 90.6799 238.613 90.4507 239.582 90.4507C240.415 90.4507 241.129 90.6121 241.723 90.9351C242.316 91.2476 242.795 91.6799 243.16 92.2319V90.6069H244.66V100.607H243.16V99.0132C242.795 99.5444 242.316 99.9715 241.723 100.294C241.129 100.607 240.415 100.763 239.582 100.763V100.763ZM239.785 99.4038C240.535 99.4038 241.165 99.2319 241.676 98.8882C242.186 98.5444 242.577 98.0809 242.848 97.4976C243.118 96.9142 243.254 96.284 243.254 95.6069C243.254 94.909 243.118 94.2736 242.848 93.7007C242.577 93.1278 242.186 92.6694 241.676 92.3257C241.165 91.9819 240.535 91.8101 239.785 91.8101C239.056 91.8101 238.42 91.9819 237.879 92.3257C237.348 92.6694 236.941 93.1278 236.66 93.7007C236.389 94.2736 236.254 94.909 236.254 95.6069C236.254 96.284 236.389 96.9142 236.66 97.4976C236.941 98.0809 237.348 98.5444 237.879 98.8882C238.42 99.2319 239.056 99.4038 239.785 99.4038ZM247.263 100.607V90.6069H248.763V92.1694C249.128 91.6903 249.57 91.284 250.091 90.9507C250.612 90.6174 251.279 90.4507 252.091 90.4507C252.779 90.4507 253.425 90.6121 254.029 90.9351C254.643 91.258 255.138 91.7476 255.513 92.4038C255.899 93.0496 256.091 93.8465 256.091 94.7944V100.607H254.591V94.8257C254.591 93.9194 254.331 93.1903 253.81 92.6382C253.289 92.0861 252.612 91.8101 251.779 91.8101C251.227 91.8101 250.722 91.9351 250.263 92.1851C249.815 92.4351 249.451 92.7944 249.169 93.2632C248.899 93.7215 248.763 94.2476 248.763 94.8413V100.607H247.263ZM263.161 104.732C261.911 104.732 260.89 104.461 260.099 103.919C259.318 103.378 258.786 102.675 258.505 101.81H260.161C260.37 102.3 260.719 102.68 261.208 102.951C261.698 103.232 262.323 103.373 263.083 103.373C264.229 103.373 265.062 103.102 265.583 102.56C266.114 102.018 266.38 101.232 266.38 100.201V98.8257C266.015 99.3569 265.536 99.7892 264.943 100.123C264.349 100.445 263.635 100.607 262.802 100.607C261.833 100.607 260.984 100.383 260.255 99.9351C259.526 99.4871 258.963 98.8778 258.568 98.1069C258.172 97.3361 257.974 96.4767 257.974 95.5288C257.974 94.5705 258.172 93.7111 258.568 92.9507C258.963 92.1799 259.526 91.5705 260.255 91.1226C260.984 90.6746 261.833 90.4507 262.802 90.4507C263.635 90.4507 264.349 90.6069 264.943 90.9194C265.536 91.2319 266.015 91.659 266.38 92.2007V90.6069H267.88V100.31C267.88 101.737 267.469 102.831 266.646 103.591C265.833 104.352 264.672 104.732 263.161 104.732ZM263.005 99.2476C263.734 99.2476 264.354 99.0809 264.864 98.7476C265.385 98.4142 265.781 97.9663 266.052 97.4038C266.333 96.8309 266.474 96.2059 266.474 95.5288C266.474 94.8309 266.333 94.2059 266.052 93.6538C265.781 93.0913 265.385 92.6434 264.864 92.3101C264.354 91.9767 263.734 91.8101 263.005 91.8101C262.276 91.8101 261.64 91.9767 261.099 92.3101C260.568 92.6434 260.161 93.0913 259.88 93.6538C259.609 94.2059 259.474 94.8309 259.474 95.5288C259.474 96.2059 259.609 96.8309 259.88 97.4038C260.161 97.9663 260.568 98.4142 261.099 98.7476C261.64 99.0809 262.276 99.2476 263.005 99.2476ZM270.28 95.4194V93.9663H275.28V95.4194H270.28ZM278.011 100.607V87.3726H283.964C285.381 87.3726 286.496 87.758 287.308 88.5288C288.121 89.2892 288.527 90.3205 288.527 91.6226C288.527 92.9351 288.121 93.9767 287.308 94.7476C286.496 95.508 285.381 95.8882 283.964 95.8882H279.511V100.607H278.011ZM279.511 94.4819H283.871C284.912 94.4819 285.699 94.2319 286.23 93.7319C286.761 93.2215 287.027 92.5184 287.027 91.6226C287.027 90.7476 286.761 90.0601 286.23 89.5601C285.699 89.0496 284.912 88.7944 283.871 88.7944H279.511V94.4819ZM294.462 100.763C293.493 100.763 292.644 100.534 291.915 100.076C291.186 99.6174 290.623 98.9976 290.228 98.2163C289.832 97.4246 289.634 96.5549 289.634 95.6069C289.634 94.6486 289.832 93.7788 290.228 92.9976C290.623 92.2163 291.186 91.5965 291.915 91.1382C292.644 90.6799 293.493 90.4507 294.462 90.4507C295.295 90.4507 296.009 90.6121 296.603 90.9351C297.196 91.2476 297.675 91.6799 298.04 92.2319V90.6069H299.54V100.607H298.04V99.0132C297.675 99.5444 297.196 99.9715 296.603 100.294C296.009 100.607 295.295 100.763 294.462 100.763ZM294.665 99.4038C295.415 99.4038 296.045 99.2319 296.556 98.8882C297.066 98.5444 297.457 98.0809 297.728 97.4976C297.998 96.9142 298.134 96.284 298.134 95.6069C298.134 94.909 297.998 94.2736 297.728 93.7007C297.457 93.1278 297.066 92.6694 296.556 92.3257C296.045 91.9819 295.415 91.8101 294.665 91.8101C293.936 91.8101 293.3 91.9819 292.759 92.3257C292.228 92.6694 291.821 93.1278 291.54 93.7007C291.269 94.2736 291.134 94.909 291.134 95.6069C291.134 96.284 291.269 96.9142 291.54 97.4976C291.821 98.0809 292.228 98.5444 292.759 98.8882C293.3 99.2319 293.936 99.4038 294.665 99.4038ZM302.143 100.607V90.6069H303.643V92.1226C303.872 91.7267 304.232 91.3517 304.721 90.9976C305.221 90.633 305.878 90.4507 306.69 90.4507C307.357 90.4507 307.971 90.6278 308.534 90.9819C309.107 91.3361 309.549 91.8309 309.862 92.4663C309.997 92.2371 310.206 91.9663 310.487 91.6538C310.779 91.3309 311.159 91.0496 311.628 90.8101C312.096 90.5705 312.654 90.4507 313.299 90.4507C313.945 90.4507 314.544 90.6174 315.096 90.9507C315.659 91.284 316.117 91.7632 316.471 92.3882C316.825 93.0028 317.003 93.7267 317.003 94.5601V100.607H315.503V94.6069C315.503 93.7632 315.263 93.0861 314.784 92.5757C314.315 92.0653 313.732 91.8101 313.034 91.8101C312.294 91.8101 311.659 92.0601 311.128 92.5601C310.596 93.0496 310.331 93.7371 310.331 94.6226V100.607H308.831V94.6069C308.831 93.7632 308.591 93.0861 308.112 92.5757C307.643 92.0653 307.055 91.8101 306.346 91.8101C305.617 91.8101 304.982 92.0601 304.44 92.5601C303.909 93.0496 303.643 93.7371 303.643 94.6226V100.607H302.143ZM319.441 88.9194V86.9663H321.066V88.9194H319.441ZM319.503 100.607V90.6069H321.003V100.607H319.503ZM323.603 100.607V86.6069H325.103V100.607H323.603ZM328.75 104.56L330.562 100.466L326.484 90.6069H328.141L331.359 98.8101L334.641 90.6069H336.281L330.359 104.56H328.75ZM341.662 100.763C340.693 100.763 339.844 100.534 339.115 100.076C338.386 99.6174 337.823 98.9976 337.427 98.2163C337.032 97.4246 336.834 96.5549 336.834 95.6069C336.834 94.6486 337.032 93.7788 337.427 92.9976C337.823 92.2163 338.386 91.5965 339.115 91.1382C339.844 90.6799 340.693 90.4507 341.662 90.4507C342.495 90.4507 343.209 90.6121 343.802 90.9351C344.396 91.2476 344.875 91.6799 345.24 92.2319V90.6069H346.74V100.607H345.24V99.0132C344.875 99.5444 344.396 99.9715 343.802 100.294C343.209 100.607 342.495 100.763 341.662 100.763ZM341.865 99.4038C342.615 99.4038 343.245 99.2319 343.756 98.8882C344.266 98.5444 344.657 98.0809 344.927 97.4976C345.198 96.9142 345.334 96.284 345.334 95.6069C345.334 94.909 345.198 94.2736 344.927 93.7007C344.657 93.1278 344.266 92.6694 343.756 92.3257C343.245 91.9819 342.615 91.8101 341.865 91.8101C341.136 91.8101 340.5 91.9819 339.959 92.3257C339.427 92.6694 339.021 93.1278 338.74 93.7007C338.469 94.2736 338.334 94.909 338.334 95.6069C338.334 96.284 338.469 96.9142 338.74 97.4976C339.021 98.0809 339.427 98.5444 339.959 98.8882C340.5 99.2319 341.136 99.4038 341.865 99.4038ZM353.603 104.56V90.6069H355.103V92.2007C355.478 91.659 355.962 91.2319 356.556 90.9194C357.15 90.6069 357.858 90.4507 358.681 90.4507C359.66 90.4507 360.509 90.6799 361.228 91.1382C361.957 91.5965 362.52 92.2163 362.916 92.9976C363.322 93.7788 363.525 94.6486 363.525 95.6069C363.525 96.5549 363.322 97.4246 362.916 98.2163C362.52 98.9976 361.957 99.6174 361.228 100.076C360.509 100.534 359.66 100.763 358.681 100.763C357.858 100.763 357.15 100.602 356.556 100.279C355.962 99.9559 355.478 99.5236 355.103 98.9819V104.56H353.603ZM358.494 99.4038C359.233 99.4038 359.864 99.2319 360.384 98.8882C360.916 98.5444 361.322 98.0809 361.603 97.4976C361.884 96.9142 362.025 96.284 362.025 95.6069C362.025 94.909 361.884 94.2736 361.603 93.7007C361.322 93.1278 360.916 92.6694 360.384 92.3257C359.864 91.9819 359.233 91.8101 358.494 91.8101C357.754 91.8101 357.124 91.9819 356.603 92.3257C356.082 92.6694 355.686 93.1278 355.416 93.7007C355.155 94.2736 355.025 94.909 355.025 95.6069C355.025 96.284 355.155 96.9142 355.416 97.4976C355.686 98.0809 356.082 98.5444 356.603 98.8882C357.124 99.2319 357.754 99.4038 358.494 99.4038ZM369.722 100.763C368.753 100.763 367.904 100.534 367.175 100.076C366.446 99.6174 365.883 98.9976 365.487 98.2163C365.092 97.4246 364.894 96.5549 364.894 95.6069C364.894 94.6486 365.092 93.7788 365.487 92.9976C365.883 92.2163 366.446 91.5965 367.175 91.1382C367.904 90.6799 368.753 90.4507 369.722 90.4507C370.555 90.4507 371.269 90.6121 371.862 90.9351C372.456 91.2476 372.935 91.6799 373.3 92.2319V90.6069H374.8V100.607H373.3V99.0132C372.935 99.5444 372.456 99.9715 371.862 100.294C371.269 100.607 370.555 100.763 369.722 100.763ZM369.925 99.4038C370.675 99.4038 371.305 99.2319 371.816 98.8882C372.326 98.5444 372.717 98.0809 372.987 97.4976C373.258 96.9142 373.394 96.284 373.394 95.6069C373.394 94.909 373.258 94.2736 372.987 93.7007C372.717 93.1278 372.326 92.6694 371.816 92.3257C371.305 91.9819 370.675 91.8101 369.925 91.8101C369.196 91.8101 368.56 91.9819 368.019 92.3257C367.487 92.6694 367.081 93.1278 366.8 93.7007C366.529 94.2736 366.394 94.909 366.394 95.6069C366.394 96.284 366.529 96.9142 366.8 97.4976C367.081 98.0809 367.487 98.5444 368.019 98.8882C368.56 99.2319 369.196 99.4038 369.925 99.4038ZM377.403 100.607V90.6069H378.903V92.1694C379.268 91.6903 379.71 91.284 380.231 90.9507C380.752 90.6174 381.419 90.4507 382.231 90.4507C382.919 90.4507 383.565 90.6121 384.169 90.9351C384.783 91.258 385.278 91.7476 385.653 92.4038C386.038 93.0496 386.231 93.8465 386.231 94.7944V100.607H384.731V94.8257C384.731 93.9194 384.471 93.1903 383.95 92.6382C383.429 92.0861 382.752 91.8101 381.919 91.8101C381.367 91.8101 380.861 91.9351 380.403 92.1851C379.955 92.4351 379.591 92.7944 379.309 93.2632C379.038 93.7215 378.903 94.2476 378.903 94.8413V100.607H377.403ZM393.301 104.732C392.051 104.732 391.03 104.461 390.239 103.919C389.457 103.378 388.926 102.675 388.645 101.81H390.301C390.51 102.3 390.859 102.68 391.348 102.951C391.838 103.232 392.463 103.373 393.223 103.373C394.369 103.373 395.202 103.102 395.723 102.56C396.254 102.018 396.52 101.232 396.52 100.201V98.8257C396.155 99.3569 395.676 99.7892 395.082 100.123C394.489 100.445 393.775 100.607 392.942 100.607C391.973 100.607 391.124 100.383 390.395 99.9351C389.666 99.4871 389.103 98.8778 388.707 98.1069C388.312 97.3361 388.114 96.4767 388.114 95.5288C388.114 94.5705 388.312 93.7111 388.707 92.9507C389.103 92.1799 389.666 91.5705 390.395 91.1226C391.124 90.6746 391.973 90.4507 392.942 90.4507C393.775 90.4507 394.489 90.6069 395.082 90.9194C395.676 91.2319 396.155 91.659 396.52 92.2007V90.6069H398.02V100.31C398.02 101.737 397.609 102.831 396.786 103.591C395.973 104.352 394.812 104.732 393.301 104.732ZM393.145 99.2476C393.874 99.2476 394.494 99.0809 395.004 98.7476C395.525 98.4142 395.921 97.9663 396.192 97.4038C396.473 96.8309 396.614 96.2059 396.614 95.5288C396.614 94.8309 396.473 94.2059 396.192 93.6538C395.921 93.0913 395.525 92.6434 395.004 92.3101C394.494 91.9767 393.874 91.8101 393.145 91.8101C392.416 91.8101 391.78 91.9767 391.239 92.3101C390.707 92.6434 390.301 93.0913 390.02 93.6538C389.749 94.2059 389.614 94.8309 389.614 95.5288C389.614 96.2059 389.749 96.8309 390.02 97.4038C390.301 97.9663 390.707 98.4142 391.239 98.7476C391.78 99.0809 392.416 99.2476 393.145 99.2476ZM400.42 95.4194V93.9663H405.42V95.4194H400.42Z" fill="black"/>
<path d="M158.756 127.169V126.06H168.756V127.169H158.756ZM170.756 127.169V126.06H180.756V127.169H170.756ZM182.756 127.169V126.06H192.756V127.169H182.756ZM194.756 127.169V126.06H204.756V127.169H194.756ZM206.756 127.169V126.06H216.756V127.169H206.756ZM218.756 127.169V126.06H228.756V127.169H218.756ZM230.756 127.169V126.06H240.756V127.169H230.756ZM247.313 128.56V114.607H248.813V116.201C249.188 115.659 249.672 115.232 250.266 114.919C250.86 114.607 251.568 114.451 252.391 114.451C253.37 114.451 254.219 114.68 254.938 115.138C255.667 115.597 256.23 116.216 256.626 116.998C257.032 117.779 257.235 118.649 257.235 119.607C257.235 120.555 257.032 121.425 256.626 122.216C256.23 122.998 255.667 123.617 254.938 124.076C254.219 124.534 253.37 124.763 252.391 124.763C251.568 124.763 250.86 124.602 250.266 124.279C249.672 123.956 249.188 123.524 248.813 122.982V128.56H247.313ZM252.204 123.404C252.943 123.404 253.573 123.232 254.094 122.888C254.626 122.544 255.032 122.081 255.313 121.498C255.594 120.914 255.735 120.284 255.735 119.607C255.735 118.909 255.594 118.274 255.313 117.701C255.032 117.128 254.626 116.669 254.094 116.326C253.573 115.982 252.943 115.81 252.204 115.81C251.464 115.81 250.834 115.982 250.313 116.326C249.792 116.669 249.396 117.128 249.126 117.701C248.865 118.274 248.735 118.909 248.735 119.607C248.735 120.284 248.865 120.914 249.126 121.498C249.396 122.081 249.792 122.544 250.313 122.888C250.834 123.232 251.464 123.404 252.204 123.404ZM263.432 124.763C262.463 124.763 261.614 124.534 260.885 124.076C260.156 123.617 259.593 122.998 259.197 122.216C258.802 121.425 258.604 120.555 258.604 119.607C258.604 118.649 258.802 117.779 259.197 116.998C259.593 116.216 260.156 115.597 260.885 115.138C261.614 114.68 262.463 114.451 263.432 114.451C264.265 114.451 264.979 114.612 265.572 114.935C266.166 115.248 266.645 115.68 267.01 116.232V114.607H268.51V124.607H267.01V123.013C266.645 123.544 266.166 123.972 265.572 124.294C264.979 124.607 264.265 124.763 263.432 124.763ZM263.635 123.404C264.385 123.404 265.015 123.232 265.526 122.888C266.036 122.544 266.427 122.081 266.697 121.498C266.968 120.914 267.104 120.284 267.104 119.607C267.104 118.909 266.968 118.274 266.697 117.701C266.427 117.128 266.036 116.669 265.526 116.326C265.015 115.982 264.385 115.81 263.635 115.81C262.906 115.81 262.27 115.982 261.729 116.326C261.197 116.669 260.791 117.128 260.51 117.701C260.239 118.274 260.104 118.909 260.104 119.607C260.104 120.284 260.239 120.914 260.51 121.498C260.791 122.081 261.197 122.544 261.729 122.888C262.27 123.232 262.906 123.404 263.635 123.404ZM271.472 120.951L271.097 111.373H272.957L272.582 120.951H271.472ZM271.051 124.607V122.56H273.004V124.607H271.051ZM281.158 110.841L279.392 115.107H278.033L279.189 110.841H281.158ZM278.158 110.841L276.392 115.107H275.033L276.189 110.841H278.158Z" fill="black"/>
</svg>
